<svg width="40" height="35" viewBox="0 0 40 35" fill="none" xmlns="http://www.w3.org/2000/svg">
<path d="M36.1559 20.2666L39.3203 6.34333C39.5487 5.33805 38.7846 4.38076 37.7537 4.38076H11.4614L10.8478 1.38123C10.6949 0.633595 10.0371 0.0966797 9.27389 0.0966797H2.41073C1.52346 0.0966797 0.804199 0.815936 0.804199 1.70321V2.77423C0.804199 3.6615 1.52346 4.38076 2.41073 4.38076H7.08861L11.7909 27.3699C10.6659 28.0168 9.90787 29.2299 9.90787 30.6207C9.90787 32.691 11.5862 34.3693 13.6564 34.3693C15.7267 34.3693 17.405 32.691 17.405 30.6207C17.405 29.5715 16.9735 28.6236 16.2788 27.9432H30.3123C29.6178 28.6236 29.1862 29.5715 29.1862 30.6207C29.1862 32.691 30.8645 34.3693 32.9348 34.3693C35.0051 34.3693 36.6834 32.691 36.6834 30.6207C36.6834 29.1366 35.8207 27.854 34.5695 27.2467L34.9388 25.6217C35.1673 24.6164 34.4032 23.6591 33.3722 23.6591H15.4047L14.9666 21.5171H34.5893C35.3394 21.5171 35.9897 20.998 36.1559 20.2666Z" fill="white"/>
</svg>
