<svg width="55" height="55" viewBox="0 0 55 55" fill="none" xmlns="http://www.w3.org/2000/svg">
<circle cx="27.5" cy="27.5" r="27.5" fill="#EC3205"/>
<path d="M42.1559 32.2666L45.3203 18.3433C45.5487 17.338 44.7846 16.3808 43.7537 16.3808H17.4614L16.8478 13.3812C16.6949 12.6336 16.0371 12.0967 15.2739 12.0967H8.41073C7.52346 12.0967 6.8042 12.8159 6.8042 13.7032V14.7742C6.8042 15.6615 7.52346 16.3808 8.41073 16.3808H13.0886L17.7909 39.3699C16.6659 40.0168 15.9079 41.2299 15.9079 42.6207C15.9079 44.691 17.5862 46.3693 19.6564 46.3693C21.7267 46.3693 23.405 44.691 23.405 42.6207C23.405 41.5715 22.9735 40.6236 22.2788 39.9432H36.3123C35.6178 40.6236 35.1862 41.5715 35.1862 42.6207C35.1862 44.691 36.8645 46.3693 38.9348 46.3693C41.0051 46.3693 42.6834 44.691 42.6834 42.6207C42.6834 41.1366 41.8207 39.854 40.5695 39.2467L40.9388 37.6217C41.1673 36.6164 40.4032 35.6591 39.3722 35.6591H21.4047L20.9666 33.5171H40.5893C41.3394 33.5171 41.9897 32.998 42.1559 32.2666Z" fill="white"/>
</svg>
