<svg width="104" height="23" viewBox="0 0 104 23" fill="none" xmlns="http://www.w3.org/2000/svg">
<path d="M49.669 14.6577C50.4391 15.6314 51.0945 16.6904 51.6222 17.814C51.8271 18.2281 51.9532 18.6765 51.9943 19.1366C52.0431 19.5907 51.9716 20.0497 51.7871 20.4676C51.709 20.6613 51.5858 20.8337 51.4277 20.9704C51.2696 21.1071 51.0812 21.2041 50.8781 21.2535C50.5794 21.326 50.2666 21.3157 49.9734 21.2239C49.7251 21.1456 49.4921 21.0255 49.2842 20.869C49.0563 20.6623 48.8698 20.4143 48.7346 20.138C48.5528 19.7999 48.4133 19.5211 48.3118 19.2929C48.2104 19.0647 48.092 18.7521 47.9271 18.3295C47.8721 18.1478 47.8256 18.0084 47.7918 17.907C47.4831 17.1738 47.0856 16.4813 46.608 15.845C46.3726 15.6018 46.0828 15.4179 45.7625 15.3084C45.4597 15.2071 45.1926 15.0208 44.993 14.7718C45.0818 15.6718 45.2044 16.5591 45.3481 17.438C45.4046 17.8055 45.488 18.1685 45.5976 18.5239C45.72 18.9399 45.8161 19.3633 45.8851 19.7915C45.9273 20.139 45.8897 20.4916 45.7751 20.8225C45.6535 21.1889 45.3922 21.4925 45.048 21.6676C44.8156 21.786 44.5633 21.8605 44.3039 21.8873C44.0878 21.9074 43.8704 21.8695 43.6739 21.7774C43.4921 21.6881 43.3253 21.5713 43.1793 21.4309C43.009 21.2789 42.866 21.0988 42.7565 20.8985C42.6381 20.6788 42.5324 20.4633 42.4394 20.2521C42.3431 20.0206 42.2653 19.7818 42.2069 19.538C42.1435 19.2718 42.0885 19.0478 42.042 18.8619C41.9898 18.6544 41.9489 18.4442 41.9194 18.2323C41.2384 14.1287 41.0355 9.96009 41.3148 5.8098C41.3174 5.69817 41.3259 5.58673 41.3402 5.47598C41.3402 5.05345 41.3782 4.73656 41.3951 4.51684C41.4255 4.21514 41.4763 3.91586 41.5473 3.62107C41.6033 3.32121 41.7152 3.03455 41.8771 2.776C42.0356 2.56472 42.2431 2.39506 42.4817 2.28161C42.7853 2.13548 43.1224 2.07277 43.4583 2.09992C43.7111 2.14218 43.9562 2.22193 44.1855 2.33654C44.3732 2.44143 44.5216 2.60461 44.6083 2.80135C44.7067 3.01189 44.7804 3.23307 44.8281 3.4605C44.9078 3.78598 44.9545 4.11863 44.9676 4.45345C44.9676 4.87599 44.938 5.26473 44.9127 5.64924C44.8873 6.03374 44.8493 6.55767 44.8154 7.21683C44.7816 7.87598 44.7605 8.48445 44.7605 9.08445C44.8873 8.4084 45.0437 7.75769 45.2255 7.13234C45.4073 6.50699 45.6483 5.90276 45.8724 5.30698C46.0877 4.77502 46.3598 4.26784 46.6841 3.7943C46.9648 3.39392 47.304 3.03785 47.6903 2.73796C48.0267 2.45705 48.4449 2.29251 48.8826 2.26895C49.3595 2.26119 49.8316 2.36538 50.2608 2.57316C50.6879 2.81883 51.062 3.14658 51.3617 3.53746C51.6614 3.92834 51.8807 4.37464 52.0069 4.85064C52.3846 5.99222 52.5382 7.19594 52.4593 8.39572C52.3879 9.65465 52.102 10.8921 51.6137 12.0549C51.2269 13.09 50.5522 13.9931 49.669 14.6577ZM44.3631 4.73231C44.4532 3.85344 44.2968 3.24077 43.8938 2.89429C43.7232 2.77456 43.5244 2.70111 43.3169 2.68112C43.1095 2.66112 42.9003 2.69525 42.71 2.7802C42.6212 2.81823 42.5874 2.87738 42.617 2.96189C42.6218 2.98019 42.6303 2.99735 42.642 3.01226C42.6537 3.02717 42.6682 3.03953 42.6849 3.04862C42.7015 3.05771 42.7198 3.06333 42.7386 3.06512C42.7575 3.06692 42.7765 3.06488 42.7945 3.05909C42.9355 2.98061 43.096 2.94408 43.2571 2.95382C43.4181 2.96355 43.573 3.01914 43.7035 3.11402C44.0502 3.38867 44.1855 3.91682 44.1263 4.70696C44.1263 4.79992 44.1263 4.84218 44.2362 4.84218C44.3461 4.84218 44.3631 4.80837 44.3631 4.73231ZM46.5066 5.61543C45.9025 6.82168 45.4903 8.11467 45.2847 9.44783C45.0378 10.6929 44.8963 11.9565 44.8619 13.2253C44.919 13.1481 44.9936 13.0857 45.0796 13.043C45.1657 13.0004 45.2606 12.9789 45.3566 12.9802C45.5954 12.985 45.8321 13.0263 46.0584 13.1027C46.249 13.1711 46.4482 13.2123 46.6503 13.2253C46.997 13.2253 47.3606 12.9337 47.7368 12.3464C48.1486 11.6803 48.4632 10.959 48.6712 10.2042C48.9183 9.36847 49.0937 8.51327 49.1954 7.64782C49.303 6.88629 49.26 6.11105 49.0686 5.36612C48.8854 4.70696 48.5556 4.32246 48.0793 4.2126C47.5889 4.10274 47.0562 4.56754 46.5066 5.61543ZM49.986 3.66331C49.9747 3.67802 49.9667 3.69505 49.9626 3.71319C49.9586 3.73133 49.9586 3.75013 49.9626 3.76828C49.9667 3.78642 49.9746 3.80346 49.986 3.81818C49.9973 3.8329 50.0118 3.84494 50.0283 3.85346C50.6805 4.35948 51.1304 5.08179 51.2967 5.89008C51.5552 6.89457 51.607 7.94105 51.4489 8.96613C51.3268 9.97249 50.9832 10.9393 50.4426 11.7971C50.4292 11.8107 50.4191 11.8272 50.4132 11.8454C50.4073 11.8636 50.4057 11.8828 50.4086 11.9017C50.4115 11.9206 50.4187 11.9386 50.4298 11.9542C50.4408 11.9697 50.4554 11.9825 50.4722 11.9915H50.5526C50.5742 11.9938 50.5961 11.9898 50.6156 11.9801C50.635 11.9703 50.6513 11.9552 50.6625 11.9366C51.2365 11.0441 51.5995 10.0325 51.7237 8.97882C51.881 7.90572 51.8192 6.81186 51.5419 5.7633C51.3582 4.91467 50.8693 4.16292 50.1678 3.65062C50.1574 3.63545 50.1432 3.62327 50.1266 3.61527C50.1101 3.60726 50.0917 3.60372 50.0733 3.605C50.0549 3.60628 50.0372 3.61234 50.0219 3.62256C50.0066 3.63279 49.9942 3.64684 49.986 3.66331Z" fill="#EC3205"/>
<path d="M60.7801 16.0565C60.983 16.0565 61.0718 16.2677 61.0549 16.6353C60.999 17.3868 60.8367 18.1266 60.5729 18.8325C60.3738 19.3951 60.0664 19.9133 59.6681 20.3579C59.332 20.7135 58.93 21.0005 58.4844 21.2029C58.0659 21.3923 57.6062 21.4723 57.1484 21.4353C56.6757 21.3895 56.2178 21.2456 55.8039 21.0128C54.6809 20.3492 53.8537 19.2822 53.4913 18.0297C52.9956 16.6036 52.7718 15.0973 52.8318 13.5888C52.8732 12.1324 53.1238 10.6895 53.5759 9.30432C53.8568 8.25951 54.3846 7.29737 55.1148 6.4987C55.5924 5.93868 56.2679 5.58448 57.0004 5.50995C57.6306 5.49773 58.2443 5.71216 58.7296 6.11418C59.2939 6.56867 59.7103 7.18048 59.926 7.87194C60.3088 9.11014 60.38 10.4236 60.1332 11.6959C59.9157 12.8699 59.4517 13.9845 58.7718 14.9663C58.2855 15.7584 57.5379 16.3561 56.6579 16.6564C56.7303 17.2848 56.9165 17.8948 57.2076 18.4565C57.3808 18.8286 57.6914 19.1193 58.0743 19.2677C58.3872 19.3597 58.722 19.3449 59.0255 19.2255C59.3673 19.0779 59.6552 18.8285 59.8499 18.5114C60.0977 18.126 60.2659 17.695 60.3446 17.2438C60.3446 17.21 60.3446 17.1086 60.3446 16.9438C60.3514 16.8023 60.3655 16.6613 60.3869 16.5212C60.407 16.4047 60.4486 16.293 60.5095 16.1917C60.5379 16.1466 60.5782 16.1101 60.6259 16.0863C60.6736 16.0624 60.7269 16.0521 60.7801 16.0565ZM55.2839 7.86771C55.3799 7.53746 55.5595 7.23754 55.8054 6.99698C56.0513 6.75641 56.3551 6.58333 56.6875 6.49447C56.956 6.39002 57.2471 6.35767 57.532 6.40067C57.8168 6.44367 58.0854 6.56049 58.311 6.73952C58.3225 6.75365 58.337 6.76504 58.3535 6.77287C58.3699 6.78069 58.3879 6.78476 58.4061 6.78476C58.4244 6.78476 58.4424 6.78069 58.4588 6.77287C58.4753 6.76504 58.4898 6.75365 58.5013 6.73952C58.5548 6.67473 58.5464 6.61558 58.4759 6.56206C58.2195 6.34888 57.9118 6.20633 57.5833 6.14853C57.2548 6.09072 56.9169 6.11968 56.603 6.2325C56.229 6.33516 55.8881 6.53326 55.6139 6.80735C55.3396 7.08144 55.1414 7.42208 55.0387 7.79586C55.0176 7.88882 55.0387 7.94375 55.119 7.96066H55.174C55.2 7.96084 55.2251 7.95147 55.2446 7.93432C55.2641 7.91718 55.2766 7.89348 55.2797 7.86771H55.2839ZM56.3831 4.2677C56.2908 4.26332 56.2016 4.23226 56.1266 4.17826C56.0516 4.12426 55.9938 4.04965 55.9604 3.96348C55.8876 3.85952 55.8492 3.73541 55.8504 3.60854V3.4691C55.8578 3.36584 55.8961 3.2672 55.9604 3.18601L58.0743 0.329663C58.1303 0.231687 58.2108 0.14986 58.3078 0.0921153C58.4049 0.0343702 58.5152 0.00267945 58.6281 9.8277e-05C58.7588 -0.00210739 58.8874 0.032854 58.9989 0.100935C59.1105 0.169017 59.2003 0.267399 59.2581 0.384594C59.3649 0.557319 59.422 0.756169 59.4229 0.959237C59.4229 0.997265 59.4229 1.08178 59.4229 1.20854C59.3912 1.38242 59.3105 1.54364 59.1904 1.67332L56.7129 4.11982C56.6714 4.16621 56.6206 4.20333 56.5638 4.22881C56.5069 4.25429 56.4454 4.26754 56.3831 4.2677ZM56.9074 10.2043C56.4746 11.7783 56.3074 13.4134 56.4127 15.0424C56.4846 15.0424 56.6114 14.9959 56.7975 14.9578C56.9603 14.9261 57.1212 14.8852 57.2794 14.8353C57.3984 14.7962 57.5131 14.7452 57.6219 14.6832C58.4674 14.1719 59.0467 13.2381 59.4229 11.8945C59.8069 10.7757 59.8069 9.56106 59.4229 8.44235C59.3288 8.22116 59.1988 8.01701 59.0382 7.83813C58.8811 7.66274 58.6817 7.53037 58.459 7.45361C58.3435 7.42053 58.2206 7.42388 58.1071 7.4632C57.9936 7.50253 57.895 7.57592 57.8248 7.67333C57.5373 7.94939 57.2301 8.79305 56.9032 10.2043H56.9074Z" fill="#EC3205"/>
<path d="M74.6933 10.3138C75.3599 10.5547 75.914 11.0332 76.2492 11.6575C76.6618 12.3958 76.9234 13.2087 77.0186 14.049C77.1345 14.9245 77.1896 15.8068 77.1835 16.6899C77.1754 17.5257 77.1246 18.3606 77.0313 19.1913C76.9763 19.5589 76.9256 19.8547 76.8791 20.0828C76.822 20.3697 76.7443 20.6522 76.6466 20.9279C76.5647 21.1996 76.4296 21.4524 76.2492 21.6716C76.0719 21.8579 75.8553 22.0023 75.615 22.0941C75.3117 22.2057 74.9821 22.2248 74.668 22.149C74.3118 22.0643 73.9902 21.8726 73.7463 21.5997C73.5038 21.3334 73.3553 20.995 73.3235 20.6363C73.2949 20.2351 73.3277 19.8319 73.4207 19.4406C73.4883 19.1365 73.5391 18.829 73.573 18.5194C73.7275 17.1321 73.7685 15.7346 73.6956 14.3406C73.611 13.318 73.4715 12.6842 73.2728 12.4476C73.2113 12.3873 73.1415 12.3361 73.0656 12.2955C72.9718 12.2436 72.8706 12.2065 72.7654 12.1856C72.6432 12.156 72.5156 12.156 72.3934 12.1856C72.2397 12.2264 72.1014 12.3117 71.996 12.4307C71.8405 12.5924 71.7056 12.7726 71.5943 12.9673C71.6231 14.4924 71.5412 16.0175 71.3491 17.5307C71.343 17.6044 71.3332 17.6777 71.3195 17.7504C71.2815 18.173 71.2477 18.4688 71.2096 18.6969C71.153 19.0047 71.0753 19.3082 70.9771 19.6054C70.8902 19.9063 70.7561 20.1915 70.5797 20.4504C70.4001 20.6636 70.1707 20.829 69.9117 20.9321C69.5923 21.0606 69.2412 21.0886 68.9054 21.0124C68.5412 20.9352 68.2076 20.753 67.9457 20.4885C67.7278 20.255 67.5875 19.9598 67.5441 19.6434C67.4999 19.1853 67.4999 18.724 67.5441 18.2659C67.5821 17.6913 67.6413 17.0955 67.7217 16.4828C67.802 15.8701 67.8696 15.0716 67.9161 14.0913C67.9626 13.111 67.9669 12.1434 67.9161 11.1884V10.5039C67.9161 10.1194 67.9161 9.81099 67.8908 9.58282C67.8654 9.35465 67.84 9.08421 67.7935 8.77153C67.7691 8.52084 67.6834 8.28 67.5441 8.07013C67.4933 7.99758 67.4255 7.93851 67.3467 7.89801C67.2678 7.85752 67.1803 7.83683 67.0917 7.83774C66.6126 7.83774 66.2363 8.32788 65.9629 9.30816C65.6519 10.519 65.4594 11.7573 65.3879 13.0053C65.4478 14.6622 65.6031 16.3142 65.853 17.9533C65.9075 18.2993 65.9808 18.642 66.0728 18.98C66.1772 19.3653 66.2604 19.7561 66.3223 20.1504C66.3518 20.4725 66.3039 20.797 66.1827 21.0969C66.0573 21.4572 65.8028 21.7583 65.4682 21.942C65.2562 22.0445 65.0294 22.1129 64.796 22.1448C64.607 22.1774 64.4128 22.1584 64.2337 22.0899C64.0662 22.0258 63.9083 21.9391 63.7644 21.8321C63.6095 21.7142 63.4752 21.5715 63.367 21.4096C63.2471 21.2395 63.1411 21.06 63.0499 20.873C62.9529 20.6775 62.8696 20.4757 62.8005 20.2687C62.7286 20.049 62.6694 19.8462 62.6229 19.6645C62.5764 19.4828 62.5341 19.2885 62.5003 19.0856C61.8901 15.6125 61.7055 12.078 61.9507 8.56026C61.9676 8.21378 61.9803 7.98985 61.9887 7.88845C61.9887 7.78704 62.0226 7.57577 62.0606 7.25464C62.0772 7.02038 62.1227 6.78905 62.1959 6.56591C62.2509 6.4307 62.3312 6.24901 62.4284 6.01662C62.5034 5.82354 62.6326 5.65625 62.8005 5.53492C62.9702 5.4344 63.1502 5.35224 63.3374 5.28984C63.5733 5.21413 63.8218 5.18544 64.0688 5.20535C64.4774 5.25306 64.8561 5.44303 65.1385 5.74196C65.3812 6.07849 65.5073 6.48498 65.4978 6.8997C65.4978 7.40252 65.4978 8.04901 65.4682 8.83492C65.5441 8.57323 65.6358 8.31641 65.743 8.0659C66.2391 6.93914 66.9268 6.26168 67.8062 6.03351C68.8491 5.77435 69.72 6.26872 70.419 7.51661C71.062 8.77983 71.4281 10.1656 71.4929 11.5814C72.2877 10.2631 73.3545 9.84056 74.6933 10.3138ZM64.9694 7.70253C65.0412 6.82365 64.8763 6.20676 64.4747 5.86028C64.3037 5.74123 64.1048 5.66852 63.8973 5.64927C63.6898 5.63001 63.4809 5.66486 63.2909 5.75042C63.2021 5.78844 63.1683 5.84759 63.1979 5.92787C63.2022 5.94652 63.2103 5.96404 63.2219 5.9793C63.2334 5.99455 63.248 6.0072 63.2648 6.01638C63.2816 6.02557 63.3001 6.03108 63.3192 6.03258C63.3383 6.03408 63.3575 6.0315 63.3755 6.02505C63.5219 5.94999 63.6858 5.91551 63.8501 5.92517C64.0145 5.93483 64.1732 5.98828 64.3098 6.07998C64.6396 6.35463 64.7664 6.88703 64.6946 7.67295C64.6946 7.76591 64.6945 7.81239 64.8045 7.81239H64.8383C64.8553 7.81539 64.8727 7.81489 64.8895 7.81092C64.9063 7.80695 64.9221 7.79959 64.936 7.78931C64.9498 7.77903 64.9614 7.76601 64.9701 7.75109C64.9787 7.73617 64.9842 7.71965 64.9863 7.70253H64.9694ZM70.8545 13.3899C70.9475 13.3899 70.994 13.3561 70.994 13.28C70.9963 12.513 70.9497 11.7467 70.8545 10.9856C70.7709 10.2934 70.6294 9.60927 70.4317 8.94056C70.2725 8.35858 69.9963 7.81514 69.6199 7.34338C69.324 6.95396 68.8924 6.69001 68.4108 6.60395C68.3927 6.59727 68.3732 6.59495 68.354 6.59722C68.3349 6.59948 68.3165 6.60626 68.3004 6.61697C68.2843 6.62768 68.271 6.64202 68.2615 6.65885C68.2521 6.67568 68.2467 6.69449 68.2459 6.71378C68.2401 6.73191 68.2385 6.75112 68.2412 6.76995C68.2438 6.78879 68.2507 6.80679 68.2612 6.82262C68.2718 6.83844 68.2858 6.85169 68.3021 6.86138C68.3185 6.87107 68.3369 6.87694 68.3558 6.87858C69.0915 6.98844 69.6707 7.6138 70.1019 8.75887C70.5792 10.2163 70.7898 11.7479 70.7234 13.28C70.7572 13.3561 70.7784 13.3899 70.8714 13.3899H70.8545Z" fill="#EC3205"/>
<path d="M83.1106 6.43898C84.2267 6.80236 85.0934 7.68546 85.7064 9.0756C86.3383 10.6028 86.6269 12.25 86.552 13.901C86.5262 15.6732 86.1527 17.4231 85.4528 19.0517C85.1664 19.814 84.7358 20.5141 84.1844 21.1136C83.7806 21.5705 83.2489 21.8958 82.6582 22.0475C82.1386 22.1568 81.5984 22.1142 81.1023 21.9249C80.5318 21.6865 80.0375 21.2963 79.6733 20.7967C79.1962 20.1697 78.8249 19.4689 78.5741 18.7221C78.1959 17.5874 77.956 16.4113 77.8596 15.2193C77.7477 14.0142 77.7789 12.8001 77.9526 11.6024C78.0958 10.5439 78.3801 9.50932 78.7982 8.52631C79.1488 7.69206 79.7717 7.00101 80.5654 6.56574C80.9568 6.36654 81.3858 6.25227 81.8244 6.23042C82.2631 6.20858 82.7013 6.27966 83.1106 6.43898ZM79.8382 8.77559C79.9094 8.42117 80.0704 8.09094 80.3058 7.81648C80.5412 7.54201 80.8431 7.33251 81.1827 7.208C81.4895 7.04441 81.8337 6.96343 82.1814 6.97306C82.529 6.98269 82.8682 7.0826 83.1655 7.26293C83.1805 7.2723 83.1973 7.27834 83.2148 7.28062C83.2323 7.28291 83.2501 7.28138 83.2669 7.27616C83.2838 7.27095 83.2993 7.26216 83.3125 7.2504C83.3256 7.23863 83.336 7.22417 83.3431 7.208C83.3545 7.19294 83.3625 7.17557 83.3666 7.15712C83.3707 7.13866 83.3707 7.11957 83.3667 7.1011C83.3627 7.08264 83.3547 7.06524 83.3433 7.05014C83.332 7.03504 83.3174 7.02259 83.3008 7.01362C82.9647 6.81611 82.5837 6.70742 82.1939 6.69781C81.8041 6.6882 81.4182 6.77798 81.0727 6.95869C80.6931 7.12034 80.3581 7.37108 80.0961 7.68967C79.8426 7.98751 79.6591 8.33839 79.5592 8.71646C79.5546 8.75306 79.5631 8.7901 79.5833 8.82103C79.6034 8.85196 79.6338 8.87477 79.6691 8.88545H79.6987C79.7313 8.88704 79.7634 8.87681 79.789 8.85662C79.8147 8.83643 79.8321 8.80764 79.8382 8.77559ZM82.9161 20.0869C83.2458 20.2897 83.6221 20.2052 84.0449 19.8291C84.5772 19.2662 84.9722 18.588 85.1991 17.8474C85.5661 16.8067 85.788 15.7205 85.8586 14.6193C85.9477 13.4359 85.8636 12.246 85.6092 11.0869C85.4301 10.025 84.9653 9.03179 84.2647 8.21364C84.1608 8.1229 84.0372 8.05738 83.9038 8.0222C83.7703 7.98702 83.6305 7.98311 83.4953 8.0108C83.1701 8.01976 82.858 8.14065 82.6117 8.35306C82.2387 8.88975 81.9823 9.49863 81.8591 10.1404C81.5822 11.2472 81.4249 12.3804 81.3898 13.5207C81.3336 14.9204 81.4962 16.3203 81.8718 17.67C81.9986 18.0545 82.1762 18.515 82.4087 19.0981C82.5196 19.4544 82.6913 19.7889 82.9161 20.0869Z" fill="#EC3205"/>
<path d="M94.3274 19.5767C94.6572 19.7584 94.6699 20.0711 94.357 20.5105C94.0093 21.0597 93.5142 21.5002 92.9282 21.7818C92.3422 22.0635 91.6888 22.175 91.0424 22.1035C90.6177 22.1224 90.1938 22.0516 89.7982 21.8958C89.4027 21.74 89.0444 21.5027 88.7467 21.1993C88.2486 20.5352 87.931 19.7535 87.8251 18.9303C87.6004 17.7151 87.49 16.4815 87.4953 15.2457C87.4953 13.8655 87.5094 12.7021 87.5376 11.7556C87.5658 10.8091 87.6207 9.8711 87.7025 8.94152C87.7025 8.86546 87.7025 8.67532 87.7278 8.36265C87.7532 8.04997 87.7617 7.83025 87.7701 7.70349C87.7786 7.57673 87.8082 7.36546 87.8547 7.06969C87.8785 6.84743 87.934 6.62972 88.0195 6.4232C88.083 6.28798 88.1633 6.11899 88.2648 5.91617C88.3481 5.74417 88.4767 5.5981 88.6368 5.49364C88.8008 5.39388 88.977 5.31575 89.1611 5.26122C89.3928 5.19374 89.635 5.16939 89.8756 5.1894C90.094 5.21109 90.306 5.27608 90.4991 5.38055C90.6922 5.48502 90.8625 5.62687 91.0002 5.79785C91.2435 6.19704 91.3545 6.66288 91.3172 7.12885C91.3172 7.70772 91.2665 8.43872 91.1946 9.32604C91.1228 10.2134 91.0551 11.2824 91.0002 12.5288C90.9504 13.9678 90.9871 15.4084 91.1101 16.8429C91.1101 16.9359 91.2115 17.5866 91.4145 18.7951C91.4337 18.9795 91.5024 19.1554 91.6133 19.3041C91.7241 19.4528 91.8731 19.5689 92.0444 19.6401C92.7406 19.9697 93.2268 20.0795 93.503 19.9697L93.7102 19.8303C93.7789 19.7863 93.8439 19.7368 93.9047 19.6824C93.9573 19.6296 94.0229 19.5918 94.0949 19.5725C94.1317 19.5565 94.1715 19.5485 94.2116 19.5493C94.2518 19.55 94.2913 19.5594 94.3274 19.5767ZM90.7253 7.70349C90.8184 6.82462 90.6535 6.20772 90.2307 5.86124C90.0657 5.74158 89.8716 5.66826 89.6686 5.64894C89.4656 5.62962 89.2612 5.665 89.0765 5.75138C88.9835 5.78941 88.9539 5.84855 88.9793 5.92884C88.984 5.94763 88.9927 5.96522 89.0046 5.98049C89.0166 5.99576 89.0316 6.00838 89.0487 6.01753C89.0658 6.02667 89.0846 6.03216 89.104 6.03362C89.1233 6.03508 89.1428 6.03248 89.1611 6.02601C89.3015 5.9484 89.4612 5.91235 89.6214 5.92208C89.7816 5.93181 89.9358 5.98691 90.0658 6.08094C90.4167 6.35559 90.552 6.88799 90.4886 7.67391C90.4674 7.76687 90.4886 7.81336 90.5985 7.81336C90.7084 7.81336 90.7253 7.77532 90.7253 7.70349Z" fill="#EC3205"/>
<path d="M99.7728 6.43905C100.893 6.80243 101.76 7.68553 102.373 9.07567C103.012 10.6013 103.308 12.2485 103.24 13.901C103.212 15.673 102.838 17.4226 102.14 19.0517C101.853 19.8134 101.422 20.5133 100.872 21.1137C100.468 21.5698 99.9362 21.8949 99.3458 22.0475C98.8262 22.1571 98.286 22.1145 97.79 21.925C97.2194 21.6866 96.7252 21.2964 96.361 20.7968C95.8839 20.1698 95.5126 19.469 95.2618 18.7222C94.8842 17.5871 94.6429 16.4113 94.543 15.2193C94.4346 14.014 94.4672 12.8002 94.6403 11.6024C94.7882 10.5425 95.0798 9.50768 95.507 8.52638C95.8461 7.70177 96.4519 7.01449 97.2277 6.57427C97.6183 6.3732 98.047 6.25718 98.4858 6.23387C98.9245 6.21056 99.3631 6.2805 99.7728 6.43905ZM96.5005 8.77566C96.5721 8.42077 96.7337 8.09023 96.9699 7.81572C97.206 7.54122 97.5088 7.33199 97.8492 7.20807C98.1553 7.04444 98.4988 6.96344 98.8458 6.97308C99.1928 6.98271 99.5313 7.08264 99.8278 7.263C99.8431 7.27242 99.8602 7.27848 99.878 7.2808C99.8958 7.28311 99.9139 7.28163 99.9311 7.27644C99.9483 7.27125 99.9641 7.26246 99.9777 7.25067C99.9912 7.23889 100.002 7.22437 100.01 7.20807C100.02 7.19278 100.028 7.17541 100.031 7.15708C100.035 7.13876 100.035 7.11988 100.031 7.10161C100.027 7.08335 100.019 7.06612 100.008 7.05099C99.9974 7.03585 99.9834 7.02315 99.9673 7.01369C99.6312 6.81618 99.2502 6.70749 98.8604 6.69788C98.4706 6.68827 98.0847 6.77805 97.7393 6.95876C97.3597 7.12041 97.0246 7.37115 96.7626 7.68974C96.5091 7.98758 96.3256 8.33846 96.2257 8.71653C96.2211 8.75313 96.2296 8.79017 96.2498 8.8211C96.2699 8.85203 96.3003 8.87484 96.3356 8.88553H96.3652C96.3975 8.88796 96.4296 8.87795 96.4547 8.85752C96.4799 8.83709 96.4963 8.80778 96.5005 8.77566ZM99.5826 20.087C99.9123 20.2898 100.289 20.2053 100.711 19.8292C101.244 19.2663 101.639 18.5881 101.866 17.8475C102.233 16.8068 102.455 15.7205 102.525 14.6193C102.612 13.436 102.528 12.2464 102.276 11.0869C102.093 10.0262 101.629 9.03392 100.931 8.21371C100.827 8.12262 100.702 8.05691 100.568 8.02173C100.434 7.98655 100.293 7.98283 100.158 8.01087C99.8336 8.01976 99.5228 8.14072 99.2782 8.35313C98.9029 8.88904 98.645 9.49811 98.5214 10.1405C98.2482 11.2478 98.0923 12.3808 98.0563 13.5208C98.0001 14.9205 98.1628 16.3204 98.5383 17.6701C98.6652 18.0546 98.8427 18.5151 99.0752 19.0982C99.1861 19.4545 99.3578 19.789 99.5826 20.087Z" fill="#EC3205"/>
<path d="M11.0531 1.27989C11.556 1.74531 11.9489 2.31674 12.2033 2.95273C12.5394 3.73172 12.7653 4.55368 12.8747 5.39492C13.0043 6.36894 13.0626 7.3511 13.0492 8.3336C13.0396 9.39243 12.9423 10.4486 12.7583 11.4914C12.5744 12.5333 12.3309 13.5637 12.0288 14.5777C11.7526 15.5166 11.3618 16.418 10.8652 17.2614C10.4171 18.0182 9.87911 18.718 9.26297 19.3458C8.73058 19.9049 8.04858 20.2992 7.29824 20.4819C6.52676 20.6559 5.72328 20.6266 4.96653 20.3969C4.91761 20.3928 4.86946 20.3823 4.82331 20.3656C4.66115 20.7015 4.39627 20.9772 4.06696 21.1528C3.82101 21.2782 3.55395 21.3571 3.27928 21.3854C3.04917 21.4062 2.81764 21.3661 2.60796 21.2691C2.42305 21.1711 2.25282 21.0476 2.10224 20.9023C1.92396 20.7429 1.7728 20.5556 1.65469 20.3477C1.52938 20.1151 1.41749 19.887 1.31903 19.6633C1.21704 19.4183 1.13473 19.1655 1.07288 18.9074C1.00575 18.6257 0.947568 18.3886 0.898338 18.1918C0.843142 17.9721 0.799816 17.7496 0.76855 17.5253C0.0476456 13.1813 -0.167117 8.76849 0.12856 4.3751C0.131308 4.25692 0.140272 4.13899 0.155412 4.02175C0.155412 3.57447 0.195692 3.23899 0.213593 3.00641C0.245704 2.68704 0.299534 2.37022 0.37471 2.05816C0.429878 1.73959 0.548594 1.43537 0.723795 1.16359C0.890527 0.938924 1.11043 0.759119 1.36379 0.640272C1.6852 0.485583 2.04203 0.419202 2.39762 0.447943C2.6671 0.492533 2.92726 0.581707 3.16739 0.711826C3.37533 0.830394 3.54351 1.00782 3.65074 1.22174C3.76789 1.44001 3.84948 1.67556 3.89242 1.9195C3.93451 2.26669 3.94799 2.61677 3.9327 2.96616C3.9327 3.41345 3.90585 3.86073 3.87452 4.27671C3.84319 4.69269 3.81186 5.27414 3.77606 5.99427C3.74025 6.7144 3.71788 7.39877 3.71788 8.06076C4.35637 5.28759 5.32606 3.23154 6.62692 1.89267C7.17785 1.26998 7.92151 0.849559 8.73934 0.698422C9.14428 0.630038 9.55901 0.646407 9.9573 0.746497C10.3556 0.846588 10.7287 1.02821 11.0531 1.27989ZM2.99733 1.58404C3.01446 1.57659 3.02978 1.56554 3.04224 1.55163C3.0547 1.53772 3.06401 1.52128 3.06954 1.50345C3.07506 1.48561 3.07667 1.46679 3.07425 1.44828C3.07183 1.42976 3.06543 1.412 3.05551 1.39619C2.93965 1.2239 2.77553 1.08958 2.58369 1.01003C2.39185 0.930469 2.18079 0.909206 1.97692 0.948901C1.7574 0.971118 1.54936 1.0577 1.37894 1.19777C1.20853 1.33784 1.08336 1.52515 1.01918 1.73613C1.0077 1.77054 1.01018 1.80808 1.02607 1.84069C1.04197 1.8733 1.07002 1.89839 1.10421 1.91058H1.16239C1.18912 1.9113 1.21528 1.90279 1.23647 1.8865C1.25766 1.87021 1.27259 1.84712 1.27875 1.82111C1.3304 1.66367 1.42696 1.52475 1.55657 1.42144C1.68618 1.31813 1.84318 1.25495 2.00825 1.23965C2.15675 1.20279 2.31313 1.21413 2.45475 1.27203C2.59636 1.32993 2.71586 1.43137 2.79593 1.56168C2.80686 1.57747 2.82105 1.59074 2.83754 1.60058C2.85403 1.61042 2.87244 1.61659 2.89153 1.61871C2.91062 1.62083 2.92994 1.61885 2.9482 1.61287C2.96645 1.60689 2.9832 1.59705 2.99733 1.58404ZM5.09184 18.4467C5.98693 18.3483 6.76119 17.5253 7.42355 15.9732C8.11627 14.2667 8.58414 12.4775 8.81542 10.6505C9.0916 8.75229 9.2039 6.83381 9.15108 4.91632C9.13589 4.53609 9.06812 4.15978 8.94968 3.79811C8.8293 3.45148 8.61931 3.14285 8.34102 2.90354C8.05907 2.65753 7.69208 2.67543 7.24901 2.94381C6.52674 3.46015 5.9614 4.16603 5.61547 4.98343C5.13718 5.9258 4.75773 6.91508 4.48318 7.9355C4.23809 8.84837 4.05272 9.77623 3.92822 10.7132C3.87115 11.0087 3.83229 11.3074 3.81186 11.6077C3.9162 13.3135 4.11041 15.0125 4.39367 16.6978C4.43852 17.023 4.50733 17.3444 4.59954 17.6595C4.7159 18.1068 4.79199 18.3662 4.83226 18.5004C4.9209 18.4949 5.0083 18.4768 5.09184 18.4467ZM12.078 9.77384C12.1765 9.77384 12.2257 9.72911 12.2257 9.63071C12.3809 7.28395 12.269 5.43219 11.8901 4.07543C11.5111 2.71866 10.895 1.9225 10.0417 1.68693C10.0226 1.6801 10.0023 1.67738 9.98214 1.67896C9.96195 1.68055 9.94233 1.68638 9.92456 1.69611C9.9068 1.70583 9.8913 1.71921 9.87909 1.73536C9.86688 1.75151 9.85823 1.77007 9.85373 1.7898C9.8224 1.87478 9.85373 1.94187 9.95666 1.97765C10.7324 2.17446 11.2948 2.93633 11.6439 4.26328C12.0198 6.02023 12.1225 7.82461 11.9482 9.61283C11.9443 9.63218 11.9447 9.65217 11.9493 9.67136C11.954 9.69055 11.9628 9.70848 11.9752 9.72386C11.9876 9.73924 12.0033 9.75169 12.021 9.76033C12.0388 9.76897 12.0583 9.77358 12.078 9.77384Z" fill="#EC3205"/>
<path d="M19.3595 5.00514C20.541 5.3898 21.4585 6.32462 22.1074 7.7962C22.7762 9.41287 23.0818 11.1566 23.0025 12.9042C22.9752 14.7802 22.5798 16.6327 21.8389 18.3566C21.5358 19.1636 21.0799 19.9047 20.4962 20.5394C20.0688 21.023 19.506 21.3673 18.8806 21.5279C18.3305 21.6436 17.7588 21.5985 17.2336 21.3981C16.6296 21.1458 16.1064 20.7327 15.7209 20.2039C15.2159 19.5401 14.8228 18.7983 14.5573 18.0077C14.157 16.8066 13.903 15.5616 13.801 14.2997C13.6825 13.0241 13.7155 11.7389 13.8994 10.471C14.0509 9.35046 14.352 8.25532 14.7945 7.21473C15.1657 6.33161 15.825 5.60009 16.6653 5.13932C17.0795 4.92845 17.5337 4.80748 17.998 4.78436C18.4623 4.76123 18.9263 4.83648 19.3595 5.00514ZM15.8955 7.47861C15.9708 7.10343 16.1413 6.75386 16.3904 6.46332C16.6396 6.17278 16.9592 5.951 17.3187 5.8192C17.6435 5.64602 18.0079 5.5603 18.3759 5.57049C18.7439 5.58069 19.1029 5.68646 19.4177 5.87735C19.4335 5.88727 19.4513 5.89366 19.4698 5.89608C19.4883 5.8985 19.5071 5.89687 19.525 5.89135C19.5428 5.88583 19.5593 5.87654 19.5732 5.86408C19.5871 5.85163 19.5982 5.83632 19.6056 5.8192C19.6177 5.80325 19.6262 5.78487 19.6305 5.76534C19.6348 5.7458 19.6349 5.72559 19.6306 5.70604C19.6263 5.68649 19.6179 5.66808 19.6059 5.65209C19.5938 5.63611 19.5785 5.62293 19.5609 5.61344C19.205 5.40435 18.8018 5.28929 18.3891 5.27912C17.9765 5.26895 17.568 5.36399 17.2023 5.55529C16.8005 5.72641 16.4458 5.99183 16.1685 6.32908C15.9001 6.64437 15.7059 7.0158 15.6001 7.41601C15.5953 7.45476 15.6043 7.49397 15.6256 7.52672C15.6469 7.55946 15.6791 7.5836 15.7165 7.59491H15.7478C15.7823 7.59659 15.8163 7.58576 15.8434 7.56439C15.8705 7.54302 15.889 7.51254 15.8955 7.47861ZM19.1536 19.4525C19.5027 19.6672 19.901 19.5777 20.3486 19.1796C20.9121 18.5837 21.3302 17.8658 21.5704 17.0819C21.9589 15.9802 22.1938 14.8303 22.2685 13.6646C22.3628 12.4119 22.2738 11.1523 22.0045 9.92528C21.8149 8.80119 21.3229 7.74982 20.5813 6.88374C20.4712 6.78769 20.3405 6.71833 20.1992 6.68109C20.0579 6.64385 19.9099 6.63971 19.7668 6.66903C19.4225 6.67851 19.0921 6.80648 18.8314 7.03133C18.4365 7.59946 18.1651 8.244 18.0347 8.92336C17.7416 10.0949 17.5751 11.2946 17.538 12.5017C17.4785 13.9834 17.6506 15.4653 18.0482 16.894C18.1824 17.301 18.3704 17.7886 18.6166 18.4058C18.734 18.783 18.9156 19.1371 19.1536 19.4525Z" fill="#EC3205"/>
<path d="M28.2661 6.57534C28.83 5.41239 29.6057 4.72358 30.5933 4.50888C31.7868 4.2584 32.7967 4.85478 33.6232 6.29802C34.942 8.62987 35.3388 12.5779 34.8137 18.1421C34.8137 18.2167 34.8047 18.3419 34.7868 18.5178C34.7465 18.907 34.7197 19.2067 34.6973 19.4124C34.6659 19.713 34.6181 20.0116 34.5541 20.307C34.4963 20.6165 34.3985 20.9172 34.2632 21.2016C34.1349 21.4384 33.985 21.663 33.8156 21.8725C33.6467 22.0888 33.4131 22.2455 33.1488 22.3198C32.8438 22.4006 32.5229 22.4006 32.2179 22.3198C31.7853 22.2348 31.4003 21.9906 31.1393 21.6354C30.8705 21.2939 30.7353 20.8662 30.7589 20.4322C30.7589 20.4322 30.7589 20.1147 30.8171 19.5377C30.8753 18.9607 30.8932 18.4374 30.92 17.9543C30.9469 17.4712 30.9827 16.7511 31.023 15.7984C31.0632 14.8457 31.0811 14.0092 31.0811 13.2086C31.0811 12.4079 31.0811 11.4642 31.0498 10.3012C30.9901 7.51014 30.5157 6.23987 29.6266 6.49035C28.6152 6.76469 27.9841 8.65521 27.7335 12.1619C27.7877 13.8285 27.9371 15.4907 28.181 17.1402C28.2364 17.5069 28.3142 17.8699 28.4138 18.2271C28.5232 18.635 28.6099 19.0486 28.6733 19.4661C28.7063 19.8067 28.6572 20.1503 28.5301 20.468C28.3959 20.8486 28.1268 21.1668 27.7738 21.3626C27.5191 21.4873 27.2423 21.5603 26.9592 21.5773C26.7336 21.5946 26.5073 21.5545 26.3013 21.461C26.1003 21.3633 25.9219 21.2247 25.7777 21.054C25.6164 20.8763 25.4753 20.6813 25.357 20.4725C25.2305 20.2493 25.1227 20.0158 25.0348 19.7747C24.9408 19.5153 24.8603 19.2693 24.8021 19.0501C24.7439 18.831 24.6857 18.6028 24.6275 18.3345C23.9816 14.6579 23.7862 10.9164 24.0457 7.19259C24.0457 6.82582 24.0815 6.58875 24.0905 6.4814C24.0994 6.37405 24.1263 6.15041 24.1621 5.81047C24.1828 5.56254 24.2324 5.31787 24.3098 5.08139C24.3679 4.93826 24.4485 4.74593 24.5559 4.49992C24.6338 4.29476 24.7709 4.1173 24.9498 3.99001C25.1295 3.8836 25.32 3.79663 25.5181 3.73058C25.7664 3.65067 26.0279 3.6203 26.2879 3.64114C26.7467 3.68328 27.1708 3.90323 27.4694 4.25392C27.7155 4.65708 27.8369 5.12389 27.8185 5.59578C27.8185 6.17725 27.8185 6.93764 27.7424 7.83221C27.89 7.40253 28.0649 6.98271 28.2661 6.57534ZM27.2457 6.34274C27.3441 5.41238 27.1785 4.75935 26.7534 4.39258C26.5724 4.26656 26.3618 4.18959 26.1422 4.16921C25.9225 4.14883 25.7013 4.18572 25.5002 4.27628C25.4018 4.31654 25.3705 4.37915 25.3973 4.46413C25.4024 4.48351 25.4114 4.50164 25.4238 4.51742C25.4361 4.53321 25.4516 4.54632 25.4692 4.55594C25.4868 4.56557 25.5061 4.57151 25.5261 4.57342C25.546 4.57532 25.5662 4.57313 25.5853 4.567C25.7353 4.48652 25.9047 4.44933 26.0746 4.4596C26.2446 4.46987 26.4083 4.52719 26.5475 4.62515C26.9145 4.91589 27.0622 5.47947 26.995 6.31143C26.9727 6.40983 26.995 6.45904 27.1114 6.45904C27.2278 6.45904 27.2457 6.41878 27.2457 6.34274ZM33.9857 12.3632C34.0752 12.3632 34.1155 12.3274 34.1155 12.2469C34.1391 11.4355 34.1002 10.6236 33.9991 9.81816C33.9128 9.08497 33.7631 8.36063 33.5516 7.65328C33.3827 7.03824 33.092 6.46333 32.6968 5.96256C32.3738 5.54598 31.9056 5.26646 31.3855 5.17981C31.3094 5.15744 31.2602 5.17978 31.2378 5.29608C31.2317 5.31526 31.2299 5.3356 31.2327 5.35554C31.2355 5.37548 31.2428 5.39453 31.254 5.41128C31.2652 5.42804 31.28 5.44206 31.2973 5.45232C31.3146 5.46257 31.3341 5.46879 31.3541 5.47053C32.1329 5.58682 32.7415 6.24881 33.1891 7.46095C33.6865 9.00585 33.9136 10.6249 33.8604 12.2469C33.8783 12.3274 33.9007 12.3632 33.9857 12.3632Z" fill="#EC3205"/>
</svg>
