<svg width="12" height="21" viewBox="0 0 12 21" fill="none" xmlns="http://www.w3.org/2000/svg">
<path d="M11.5411 0.462242C11.8349 0.758305 12 1.1598 12 1.57843C12 1.99707 11.8349 2.39856 11.5411 2.69462L3.78308 10.5095L11.5411 18.3244C11.8266 18.6222 11.9846 19.021 11.981 19.4349C11.9774 19.8489 11.8126 20.2449 11.522 20.5376C11.2314 20.8303 10.8383 20.9963 10.4274 20.9999C10.0165 21.0035 9.62058 20.8444 9.32499 20.5568L0.458878 11.6257C0.165059 11.3297 0 10.9282 0 10.5095C0 10.0909 0.165059 9.6894 0.458878 9.39334L9.32499 0.462242C9.6189 0.166269 10.0175 0 10.4331 0C10.8486 0 11.2472 0.166269 11.5411 0.462242Z" fill="black"/>
</svg>
