<svg width="40" height="35" viewBox="0 0 40 35" fill="none" xmlns="http://www.w3.org/2000/svg">
<path d="M36.1559 20.2662L39.3203 6.34297C39.5487 5.33768 38.7846 4.38039 37.7537 4.38039H11.4614L10.8478 1.38087C10.6949 0.633229 10.0371 0.0963135 9.27389 0.0963135H2.41073C1.52346 0.0963135 0.804199 0.81557 0.804199 1.70284V2.77386C0.804199 3.66114 1.52346 4.38039 2.41073 4.38039H7.08861L11.7909 27.3695C10.6659 28.0165 9.90787 29.2295 9.90787 30.6204C9.90787 32.6907 11.5862 34.3689 13.6564 34.3689C15.7267 34.3689 17.405 32.6907 17.405 30.6204C17.405 29.5712 16.9735 28.6233 16.2788 27.9428H30.3123C29.6178 28.6233 29.1862 29.5712 29.1862 30.6204C29.1862 32.6907 30.8645 34.3689 32.9348 34.3689C35.0051 34.3689 36.6834 32.6907 36.6834 30.6204C36.6834 29.1362 35.8207 27.8537 34.5695 27.2463L34.9388 25.6213C35.1673 24.616 34.4032 23.6587 33.3722 23.6587H15.4047L14.9666 21.5167H34.5893C35.3394 21.5167 35.9897 20.9977 36.1559 20.2662Z" fill="white"/>
</svg>
