<svg width="2060" height="644" viewBox="0 0 2060 644" fill="none" xmlns="http://www.w3.org/2000/svg">
<path d="M1859.12 280.329C1967.14 280.329 2037.26 200.776 2060 179.941C2030.94 334.627 1886.03 644 1538.84 644C1191.65 644 1058.11 452.694 1034.74 359.882C1004.42 448.906 882.749 644 524.949 644C167.15 644 25.9 330.839 0 174.259C15.7927 209.616 78.0791 280.329 200.883 280.329C354.388 280.329 507.893 0 731.518 0C870.999 0 991.782 108.596 1034.74 162.894C1067.59 108.596 1173.08 0 1332.27 0C1531.26 0 1690.45 280.329 1859.12 280.329Z" fill="#313638"/>
<path d="M1237.19 49.1949C1250.61 37.269 1295.92 16.9949 1369.86 31.306C1443.79 45.6171 1504.01 92.9232 1524.88 114.787" stroke="white" stroke-width="6"/>
<path d="M83.4731 333.926C109.849 397.088 203.496 537.359 367.081 593.149" stroke="white" stroke-width="6"/>
</svg>
