<svg width="1065" height="774" viewBox="0 0 1065 774" fill="none" xmlns="http://www.w3.org/2000/svg">
<path d="M145.458 644.867C158.676 661.551 169.924 679.697 178.979 698.949C182.495 706.044 184.66 713.728 185.364 721.611C186.202 729.392 184.976 737.257 181.809 744.417C180.469 747.737 178.354 750.69 175.641 753.032C172.928 755.374 169.695 757.037 166.209 757.883C161.083 759.125 155.715 758.95 150.682 757.376C146.422 756.034 142.422 753.977 138.855 751.294C134.943 747.754 131.742 743.503 129.423 738.769C126.303 732.977 123.908 728.199 122.167 724.289C120.425 720.38 118.394 715.022 115.564 707.782C114.621 704.669 113.823 702.28 113.242 700.543C107.945 687.98 101.122 676.115 92.9261 665.212C88.8863 661.044 83.9129 657.892 78.4146 656.017C73.219 654.281 68.6343 651.089 65.2092 646.822C66.7329 662.243 68.8371 677.447 71.304 692.506C72.2732 698.804 73.704 705.023 75.5849 711.113C77.6867 718.242 79.3346 725.496 80.5188 732.832C81.2439 738.787 80.5988 744.829 78.6324 750.498C76.5449 756.776 72.0605 761.979 66.1525 764.978C62.165 767.008 57.8354 768.285 53.3823 768.743C49.6749 769.088 45.9426 768.438 42.5713 766.86C39.4514 765.331 36.5876 763.328 34.082 760.923C31.1592 758.318 28.7052 755.233 26.8263 751.801C24.7947 748.036 22.9808 744.344 21.3845 740.724C19.731 736.758 18.3966 732.666 17.3939 728.489C16.3055 723.927 15.3623 720.09 14.5641 716.904C13.6693 713.349 12.9669 709.748 12.46 706.117C0.772447 635.804 -2.70935 564.376 2.08425 493.263C2.12881 491.35 2.27411 489.44 2.51957 487.543C2.51957 480.303 3.17263 474.873 3.46286 471.108C3.98344 465.939 4.85615 460.811 6.07493 455.76C7.0354 450.622 8.95522 445.71 11.7344 441.28C14.4547 437.66 18.0153 434.753 22.1101 432.809C27.321 430.305 33.106 429.23 38.8709 429.696C43.2099 430.42 47.4162 431.786 51.3507 433.75C54.5726 435.547 57.1198 438.343 58.6065 441.714C60.2953 445.322 61.5613 449.111 62.3795 453.009C63.7466 458.585 64.5488 464.285 64.7739 470.022C64.7739 477.262 64.266 483.923 63.8306 490.511C63.3953 497.1 62.7423 506.077 62.1618 517.371C61.5813 528.666 61.2186 539.092 61.2186 549.372C63.3953 537.788 66.0799 526.639 69.1999 515.924C72.3198 505.209 76.4556 494.855 80.3012 484.647C83.9961 475.532 88.6668 466.842 94.2322 458.728C99.0499 451.868 104.871 445.767 111.501 440.628C117.273 435.815 124.451 432.996 131.962 432.592C140.147 432.459 148.248 434.244 155.616 437.804C162.944 442.014 169.365 447.63 174.509 454.327C179.652 461.025 183.415 468.672 185.582 476.828C192.063 496.388 194.699 517.014 193.346 537.571C192.121 559.142 187.213 580.346 178.834 600.269C172.196 618.005 160.615 633.479 145.458 644.867V644.867ZM54.3981 474.8C55.946 459.741 53.2614 449.244 46.3443 443.307C43.4166 441.255 40.0057 439.997 36.4448 439.654C32.8839 439.311 29.2948 439.896 26.0282 441.352C24.5045 442.003 23.924 443.017 24.432 444.465C24.5149 444.779 24.6609 445.073 24.8612 445.328C25.0616 445.583 25.3119 445.795 25.597 445.951C25.8822 446.107 26.1961 446.203 26.5197 446.234C26.8434 446.265 27.1698 446.23 27.4793 446.13C29.8986 444.786 32.6529 444.16 35.4171 444.327C38.1813 444.493 40.84 445.446 43.0792 447.072C49.0289 451.778 51.3508 460.827 50.3349 474.366C50.3349 475.959 50.3349 476.683 52.2214 476.683C54.1079 476.683 54.3981 476.104 54.3981 474.8V474.8ZM91.1848 489.932C80.8181 510.601 73.7435 532.756 70.2157 555.599C65.9776 576.932 63.5504 598.583 62.9599 620.324C63.9392 619.001 65.2199 617.931 66.6961 617.201C68.1724 616.471 69.8016 616.101 71.4491 616.124C75.5479 616.206 79.6099 616.914 83.4937 618.224C86.7646 619.394 90.184 620.101 93.6517 620.324C99.6015 620.324 105.841 615.328 112.299 605.264C119.365 593.851 124.764 581.491 128.334 568.558C132.575 554.239 135.585 539.585 137.331 524.756C139.178 511.708 138.438 498.424 135.155 485.66C132.01 474.366 126.351 467.778 118.176 465.895C109.759 464.013 100.617 471.977 91.1848 489.932V489.932ZM150.9 456.484C150.705 456.736 150.567 457.027 150.498 457.338C150.428 457.649 150.428 457.971 150.498 458.282C150.567 458.593 150.704 458.885 150.899 459.137C151.093 459.389 151.341 459.596 151.625 459.742C162.819 468.412 170.538 480.788 173.392 494.638C177.83 511.85 178.719 529.781 176.004 547.345C173.91 564.588 168.012 581.155 158.736 595.853C158.505 596.085 158.332 596.369 158.231 596.68C158.129 596.991 158.102 597.321 158.151 597.645C158.201 597.968 158.325 598.276 158.515 598.543C158.704 598.81 158.954 599.03 159.244 599.183H160.622C160.994 599.222 161.369 599.154 161.703 598.987C162.037 598.821 162.317 598.562 162.509 598.242C172.36 582.949 178.589 565.617 180.721 547.562C183.421 529.175 182.36 510.432 177.601 492.466C174.448 477.925 166.057 465.044 154.02 456.266C153.841 456.006 153.597 455.797 153.313 455.66C153.028 455.523 152.712 455.462 152.397 455.484C152.082 455.506 151.778 455.61 151.515 455.785C151.253 455.961 151.04 456.201 150.9 456.484V456.484Z" fill="#EC3205"/>
<path d="M336.139 668.827C339.621 668.827 341.145 672.447 340.855 678.746C339.895 691.622 337.111 704.297 332.583 716.393C329.167 726.033 323.892 734.912 317.056 742.529C311.288 748.623 304.388 753.541 296.74 757.009C289.559 760.254 281.669 761.624 273.812 760.991C265.7 760.207 257.841 757.741 250.739 753.751C231.466 742.381 217.27 724.099 211.05 702.637C202.542 678.203 198.702 652.392 199.731 626.545C200.442 601.59 204.742 576.867 212.501 553.132C217.323 535.23 226.38 518.744 238.912 505.059C247.109 495.463 258.701 489.394 271.272 488.118C282.088 487.908 292.62 491.582 300.948 498.471C310.632 506.258 317.779 516.741 321.482 528.589C328.051 549.805 329.273 572.311 325.037 594.11C321.304 614.227 313.341 633.325 301.674 650.148C293.327 663.719 280.497 673.961 265.395 679.107C266.637 689.874 269.833 700.326 274.828 709.95C277.8 716.326 283.13 721.308 289.702 723.85C295.073 725.427 300.818 725.172 306.027 723.126C311.893 720.597 316.834 716.325 320.176 710.891C324.429 704.288 327.315 696.903 328.665 689.171C328.665 688.592 328.665 686.854 328.665 684.031C328.781 681.606 329.024 679.19 329.391 676.791C329.736 674.794 330.449 672.88 331.495 671.144C331.983 670.371 332.674 669.746 333.492 669.338C334.311 668.929 335.226 668.752 336.139 668.827V668.827ZM241.814 528.517C243.461 522.858 246.544 517.719 250.764 513.597C254.984 509.475 260.198 506.509 265.903 504.987C270.51 503.197 275.507 502.643 280.395 503.38C285.284 504.116 289.893 506.118 293.765 509.186C293.962 509.428 294.211 509.623 294.494 509.757C294.776 509.891 295.085 509.961 295.398 509.961C295.71 509.961 296.019 509.891 296.302 509.757C296.584 509.623 296.833 509.428 297.03 509.186C297.949 508.075 297.804 507.062 296.595 506.145C292.194 502.492 286.913 500.05 281.275 499.059C275.638 498.069 269.839 498.565 264.452 500.498C258.033 502.257 252.184 505.651 247.477 510.348C242.77 515.044 239.369 520.881 237.606 527.285C237.243 528.878 237.606 529.82 238.984 530.109H239.927C240.373 530.112 240.804 529.952 241.139 529.658C241.473 529.364 241.688 528.958 241.741 528.517H241.814ZM260.679 466.832C259.094 466.757 257.564 466.225 256.276 465.3C254.988 464.374 253.997 463.096 253.423 461.619C252.174 459.838 251.515 457.712 251.537 455.538V453.148C251.663 451.379 252.32 449.689 253.423 448.298L289.702 399.356C290.664 397.677 292.045 396.275 293.71 395.285C295.376 394.296 297.269 393.753 299.207 393.709C301.45 393.671 303.657 394.27 305.571 395.437C307.485 396.603 309.028 398.289 310.018 400.297C311.852 403.256 312.831 406.664 312.848 410.143C312.848 410.795 312.848 412.243 312.848 414.415C312.303 417.394 310.919 420.157 308.857 422.379L266.338 464.298C265.626 465.093 264.754 465.729 263.779 466.166C262.804 466.602 261.748 466.829 260.679 466.832ZM269.676 568.553C262.248 595.523 259.379 623.54 261.187 651.451C262.42 651.451 264.597 650.654 267.789 650.003C270.584 649.458 273.346 648.758 276.061 647.903C278.102 647.232 280.071 646.359 281.938 645.297C296.45 636.537 306.39 620.536 312.848 597.513C319.437 578.344 319.437 557.531 312.848 538.363C311.233 534.573 309.002 531.075 306.245 528.01C303.548 525.004 300.127 522.736 296.305 521.421C294.323 520.854 292.214 520.912 290.266 521.585C288.318 522.259 286.626 523.517 285.421 525.186C280.487 529.916 275.215 544.372 269.603 568.553H269.676Z" fill="#EC3205"/>
<path d="M574.923 570.428C586.364 574.555 595.873 582.754 601.624 593.451C608.706 606.101 613.195 620.031 614.83 634.429C616.818 649.429 617.764 664.549 617.659 679.679C617.521 694.001 616.649 708.306 615.047 722.539C614.104 728.838 613.233 733.906 612.435 737.816C611.456 742.732 610.122 747.571 608.445 752.295C607.04 756.952 604.721 761.283 601.624 765.038C598.583 768.231 594.864 770.704 590.741 772.278C585.536 774.19 579.879 774.518 574.488 773.219C568.376 771.767 562.856 768.483 558.67 763.807C554.509 759.244 551.961 753.445 551.415 747.3C550.923 740.425 551.486 733.516 553.083 726.811C554.243 721.601 555.115 716.332 555.695 711.028C558.348 687.257 559.052 663.31 557.8 639.425C556.348 621.904 553.954 611.044 550.544 606.99C549.488 605.957 548.291 605.08 546.989 604.383C545.379 603.494 543.641 602.859 541.837 602.501C539.739 601.994 537.55 601.994 535.452 602.501C532.814 603.2 530.441 604.661 528.631 606.7C525.963 609.47 523.648 612.559 521.739 615.895C522.232 642.026 520.826 668.158 517.53 694.086C517.426 695.349 517.257 696.606 517.022 697.851C516.369 705.091 515.789 710.159 515.136 714.069C514.164 719.342 512.83 724.543 511.145 729.634C509.654 734.791 507.352 739.678 504.325 744.114C501.244 747.766 497.305 750.602 492.861 752.368C487.379 754.57 481.354 755.05 475.592 753.744C469.341 752.42 463.616 749.299 459.122 744.766C455.381 740.765 452.973 735.707 452.228 730.286C451.471 722.437 451.471 714.533 452.228 706.684C452.882 696.837 453.897 686.629 455.276 676.131C456.655 665.633 457.815 651.95 458.614 635.153C459.412 618.356 459.484 601.777 458.614 585.415V573.686C458.614 567.098 458.614 561.812 458.178 557.903C457.743 553.993 457.308 549.359 456.509 544.002C456.09 539.706 454.62 535.58 452.228 531.984C451.356 530.741 450.193 529.728 448.84 529.035C447.488 528.341 445.986 527.986 444.465 528.002C436.242 528.002 429.784 536.4 425.092 553.197C419.755 573.945 416.451 595.161 415.224 616.546C416.253 644.936 418.918 673.243 423.206 701.326C424.141 707.255 425.4 713.128 426.979 718.919C428.77 725.522 430.199 732.217 431.259 738.974C431.766 744.493 430.945 750.053 428.865 755.192C426.713 761.365 422.344 766.524 416.603 769.672C412.964 771.428 409.071 772.6 405.066 773.147C401.823 773.705 398.489 773.38 395.416 772.205C392.542 771.107 389.832 769.622 387.362 767.789C384.703 765.769 382.398 763.323 380.542 760.549C378.484 757.635 376.664 754.56 375.1 751.354C373.435 748.006 372.005 744.547 370.819 741.001C369.586 737.236 368.57 733.761 367.772 730.648C366.974 727.535 366.248 724.205 365.668 720.729C355.195 661.219 352.028 600.657 356.235 540.382C356.525 534.445 356.743 530.608 356.888 528.871C356.888 527.133 357.468 523.513 358.121 518.011C358.406 513.997 359.186 510.033 360.443 506.21C361.387 503.893 362.765 500.78 364.434 496.798C365.72 493.489 367.937 490.623 370.819 488.544C373.732 486.822 376.822 485.414 380.034 484.345C384.083 483.047 388.347 482.556 392.586 482.897C399.598 483.714 406.097 486.97 410.943 492.092C415.108 497.858 417.274 504.823 417.111 511.929C417.111 520.544 417.111 531.622 416.603 545.088C417.904 540.604 419.479 536.204 421.319 531.911C429.832 512.605 441.635 500.997 456.727 497.087C474.625 492.647 489.571 501.117 501.568 522.499C512.603 544.144 518.886 567.888 519.997 592.148C533.638 569.559 551.947 562.319 574.923 570.428ZM408.041 525.685C409.275 510.626 406.445 500.056 399.552 494.119C396.618 492.079 393.203 490.833 389.643 490.503C386.082 490.173 382.496 490.771 379.236 492.236C377.712 492.888 377.132 493.902 377.639 495.277C377.713 495.597 377.853 495.897 378.051 496.158C378.249 496.42 378.5 496.636 378.788 496.794C379.076 496.951 379.394 497.046 379.721 497.071C380.049 497.097 380.378 497.053 380.687 496.942C383.2 495.656 386.013 495.065 388.833 495.231C391.653 495.396 394.377 496.312 396.722 497.883C402.382 502.589 404.558 511.712 403.325 525.178C403.325 526.771 403.325 527.567 405.211 527.567H405.792C406.083 527.619 406.382 527.61 406.671 527.542C406.959 527.474 407.23 527.348 407.468 527.172C407.706 526.996 407.905 526.773 408.053 526.517C408.202 526.261 408.296 525.978 408.331 525.685H408.041ZM509.041 623.135C510.637 623.135 511.435 622.556 511.435 621.252C511.475 608.111 510.676 594.98 509.041 581.94C507.606 570.078 505.179 558.356 501.785 546.898C499.053 536.926 494.313 527.615 487.854 519.531C482.776 512.859 475.368 508.336 467.103 506.861C466.792 506.747 466.458 506.707 466.129 506.746C465.799 506.785 465.484 506.901 465.208 507.084C464.932 507.268 464.704 507.514 464.541 507.802C464.379 508.09 464.287 508.413 464.273 508.743C464.174 509.054 464.146 509.383 464.191 509.706C464.237 510.029 464.355 510.337 464.536 510.608C464.717 510.879 464.957 511.106 465.238 511.272C465.519 511.438 465.834 511.539 466.16 511.567C478.785 513.449 488.725 524.165 496.126 543.785C504.317 568.758 507.93 595 506.792 621.252C507.372 622.556 507.735 623.135 509.331 623.135H509.041Z" fill="#EC3205"/>
<path d="M719.383 504.044C738.538 510.27 753.412 525.402 763.933 549.221C774.776 575.389 779.73 603.614 778.444 631.901C778.001 662.268 771.592 692.252 759.579 720.156C754.666 733.219 747.275 745.215 737.812 755.487C730.882 763.316 721.758 768.889 711.619 771.488C702.701 773.361 693.431 772.632 684.918 769.388C675.126 765.303 666.643 758.617 660.393 750.057C652.205 739.313 645.833 727.306 641.528 714.51C635.038 695.068 630.921 674.915 629.266 654.49C627.345 633.842 627.881 613.039 630.863 592.516C633.319 574.379 638.199 556.653 645.374 539.809C651.391 525.515 662.081 513.674 675.703 506.216C682.419 502.803 689.782 500.845 697.31 500.47C704.838 500.096 712.36 501.314 719.383 504.044V504.044ZM663.223 544.081C664.445 538.008 667.208 532.35 671.247 527.647C675.287 522.944 680.469 519.354 686.296 517.221C691.563 514.418 697.47 513.03 703.436 513.195C709.403 513.36 715.223 515.072 720.326 518.162C720.582 518.323 720.871 518.426 721.171 518.465C721.471 518.504 721.777 518.478 722.066 518.389C722.355 518.299 722.622 518.149 722.848 517.947C723.073 517.746 723.252 517.498 723.373 517.221C723.569 516.963 723.707 516.665 723.777 516.349C723.846 516.033 723.847 515.706 723.778 515.389C723.709 515.073 723.572 514.775 723.377 514.516C723.182 514.257 722.933 514.044 722.648 513.89C716.879 510.506 710.341 508.643 703.651 508.479C696.961 508.314 690.339 509.853 684.41 512.949C677.895 515.719 672.146 520.015 667.649 525.474C663.298 530.577 660.149 536.589 658.434 543.067C658.356 543.695 658.502 544.329 658.847 544.859C659.193 545.389 659.715 545.78 660.321 545.963H660.829C661.388 545.99 661.939 545.815 662.379 545.469C662.819 545.123 663.119 544.63 663.223 544.081ZM716.045 737.894C721.704 741.37 728.162 739.922 735.418 733.478C744.553 723.833 751.332 712.212 755.226 699.523C761.524 681.691 765.333 663.078 766.545 644.209C768.073 623.934 766.631 603.544 762.264 583.683C759.19 565.489 751.214 548.471 739.191 534.452C737.406 532.897 735.286 531.775 732.996 531.172C730.705 530.569 728.306 530.502 725.985 530.976C720.404 531.13 715.048 533.201 710.821 536.841C704.419 546.037 700.019 556.47 697.906 567.466C693.153 586.43 690.453 605.847 689.852 625.386C688.887 649.369 691.678 673.357 698.123 696.482C700.3 703.07 703.347 710.962 707.338 720.953C709.241 727.058 712.187 732.79 716.045 737.894Z" fill="#EC3205"/>
<path d="M911.88 729.139C917.54 732.253 917.758 737.61 912.388 745.14C906.421 754.55 897.924 762.097 887.867 766.923C877.809 771.749 866.595 773.659 855.503 772.435C848.214 772.758 840.938 771.545 834.15 768.875C827.362 766.206 821.213 762.139 816.105 756.941C807.555 745.562 802.105 732.168 800.287 718.062C796.432 697.24 794.537 676.104 794.628 654.93C794.628 631.279 794.87 611.346 795.353 595.128C795.837 578.911 796.78 562.838 798.183 546.91C798.183 545.607 798.183 542.349 798.618 536.991C799.054 531.634 799.199 527.869 799.344 525.697C799.489 523.525 799.997 519.905 800.795 514.837C801.203 511.029 802.156 507.298 803.625 503.76C804.713 501.443 806.092 498.547 807.833 495.072C809.263 492.125 811.47 489.622 814.218 487.832C817.032 486.123 820.057 484.784 823.215 483.85C827.193 482.693 831.349 482.276 835.477 482.619C839.227 482.991 842.865 484.104 846.179 485.894C849.493 487.684 852.416 490.115 854.778 493.045C858.955 499.885 860.859 507.867 860.22 515.851C860.22 525.769 859.349 538.295 858.115 553.499C856.882 568.702 855.721 587.019 854.778 608.377C853.924 633.032 854.554 657.717 856.664 682.297C856.664 683.89 858.406 695.039 861.888 715.746C862.219 718.906 863.397 721.92 865.3 724.468C867.202 727.017 869.759 729.005 872.699 730.226C884.647 735.873 892.991 737.755 897.732 735.872L901.287 733.484C902.466 732.73 903.582 731.882 904.625 730.949C905.528 730.046 906.654 729.397 907.89 729.067C908.521 728.792 909.204 728.656 909.893 728.669C910.582 728.681 911.26 728.842 911.88 729.139ZM850.061 525.697C851.658 510.638 848.828 500.068 841.572 494.131C838.74 492.08 835.409 490.824 831.926 490.493C828.442 490.162 824.933 490.768 821.764 492.248C820.168 492.9 819.66 493.913 820.095 495.289C820.177 495.611 820.325 495.912 820.531 496.174C820.736 496.436 820.993 496.652 821.287 496.809C821.581 496.965 821.904 497.059 822.236 497.084C822.568 497.11 822.901 497.065 823.215 496.954C825.626 495.624 828.366 495.007 831.116 495.173C833.866 495.34 836.511 496.284 838.743 497.895C844.765 502.601 847.087 511.724 845.998 525.19C845.635 526.783 845.998 527.579 847.885 527.579C849.771 527.579 850.061 526.928 850.061 525.697V525.697Z" fill="#EC3205"/>
<path d="M1005.34 504.038C1024.57 510.264 1039.44 525.396 1049.96 549.215C1060.93 575.356 1066.01 603.581 1064.84 631.895C1064.36 662.258 1057.95 692.235 1045.97 720.15C1041.03 733.201 1033.64 745.193 1024.2 755.481C1017.26 763.296 1008.14 768.867 998.01 771.482C989.092 773.359 979.821 772.63 971.309 769.382C961.516 765.297 953.034 758.611 946.784 750.051C938.596 739.307 932.223 727.3 927.919 714.503C921.439 695.055 917.299 674.907 915.584 654.484C913.723 633.832 914.283 613.033 917.253 592.51C919.792 574.349 924.796 556.618 932.127 539.803C937.948 525.674 948.345 513.898 961.658 506.355C968.361 502.91 975.72 500.922 983.249 500.522C990.778 500.123 998.307 501.321 1005.34 504.038V504.038ZM949.179 544.075C950.407 537.994 953.181 532.33 957.234 527.627C961.287 522.923 966.483 519.338 972.324 517.215C977.578 514.411 983.473 513.023 989.428 513.188C995.383 513.353 1001.19 515.066 1006.28 518.156C1006.54 518.317 1006.84 518.421 1007.14 518.461C1007.45 518.501 1007.76 518.475 1008.05 518.386C1008.35 518.297 1008.62 518.147 1008.85 517.945C1009.09 517.743 1009.27 517.494 1009.4 517.215C1009.59 516.953 1009.71 516.655 1009.78 516.341C1009.84 516.027 1009.84 515.704 1009.77 515.391C1009.7 515.078 1009.57 514.782 1009.38 514.523C1009.19 514.264 1008.95 514.046 1008.68 513.884C1002.91 510.5 996.369 508.637 989.679 508.473C982.989 508.308 976.367 509.847 970.438 512.943C963.923 515.713 958.174 520.009 953.677 525.468C949.326 530.571 946.177 536.583 944.462 543.061C944.384 543.689 944.53 544.323 944.875 544.853C945.221 545.383 945.742 545.774 946.349 545.957H946.857C947.412 545.999 947.961 545.827 948.393 545.477C948.825 545.127 949.106 544.625 949.179 544.075V544.075ZM1002.07 737.888C1007.73 741.364 1014.19 739.916 1021.45 733.472C1030.58 723.827 1037.36 712.206 1041.25 699.517C1047.55 681.685 1051.36 663.072 1052.57 644.203C1054.06 623.928 1052.62 603.543 1048.29 583.677C1045.16 565.502 1037.19 548.5 1025.22 534.446C1023.42 532.885 1021.29 531.759 1018.99 531.156C1016.68 530.554 1014.27 530.49 1011.94 530.97C1006.38 531.123 1001.05 533.195 996.849 536.835C990.408 546.017 985.982 556.454 983.861 567.46C979.172 586.434 976.497 605.847 975.88 625.38C974.915 649.363 977.706 673.351 984.151 696.476C986.328 703.064 989.375 710.956 993.366 720.947C995.269 727.052 998.215 732.784 1002.07 737.888V737.888Z" fill="#EC3205"/>
<path d="M411.876 14.367C420.505 22.3418 427.248 32.1329 431.615 43.0304C437.383 56.3781 441.26 70.4619 443.136 84.8762C445.361 101.565 446.362 118.394 446.132 135.229C445.966 153.372 444.296 171.469 441.139 189.337C437.984 207.189 433.804 224.845 428.62 242.219C423.88 258.307 417.173 273.751 408.65 288.203C400.959 301.169 391.727 313.162 381.153 323.917C372.016 333.498 360.311 340.255 347.434 343.384C334.194 346.366 320.405 345.864 307.417 341.928C306.578 341.858 305.751 341.678 304.96 341.391C302.177 347.148 297.631 351.872 291.979 354.88C287.758 357.029 283.175 358.381 278.461 358.865C274.512 359.222 270.538 358.535 266.94 356.873C263.766 355.193 260.845 353.078 258.261 350.588C255.201 347.857 252.607 344.647 250.58 341.085C248.429 337.1 246.509 333.191 244.819 329.359C243.069 325.16 241.656 320.829 240.595 316.407C239.443 311.579 238.444 307.516 237.599 304.144C236.652 300.38 235.909 296.568 235.372 292.725C223 218.293 219.314 142.681 224.388 67.402C224.436 65.3771 224.589 63.3563 224.849 61.3476C224.849 53.6835 225.541 47.9354 225.848 43.9501C226.399 38.4778 227.323 33.0494 228.613 27.7023C229.56 22.2438 231.597 17.0311 234.604 12.3743C237.465 8.52474 241.239 5.44386 245.587 3.40748C251.104 0.75695 257.227 -0.380455 263.33 0.112001C267.955 0.876033 272.42 2.40399 276.541 4.63352C280.109 6.66512 282.996 9.70522 284.836 13.3706C286.847 17.1107 288.247 21.1466 288.984 25.3265C289.706 31.2755 289.937 37.2738 289.675 43.2606C289.675 50.9246 289.214 58.5886 288.676 65.7161C288.139 72.8437 287.601 82.8067 286.987 95.1458C286.372 107.485 285.988 119.211 285.988 130.554C296.946 83.037 313.588 47.8077 335.913 24.8667C345.368 14.1972 358.131 6.99351 372.166 4.40384C379.116 3.23212 386.233 3.5126 393.069 5.22759C399.904 6.94259 406.308 10.0547 411.876 14.367ZM273.622 19.5785C273.916 19.4509 274.179 19.2616 274.393 19.0232C274.607 18.7849 274.767 18.5032 274.861 18.1976C274.956 17.892 274.984 17.5694 274.942 17.2522C274.901 16.935 274.791 16.6307 274.621 16.3597C272.632 13.4077 269.816 11.1062 266.523 9.74303C263.231 8.37987 259.609 8.01554 256.11 8.69568C252.343 9.07636 248.772 10.5599 245.848 12.9599C242.923 15.36 240.775 18.5695 239.673 22.1845C239.476 22.7741 239.519 23.4173 239.792 23.976C240.064 24.5348 240.546 24.9648 241.133 25.1735H242.131C242.59 25.1859 243.039 25.0401 243.402 24.761C243.766 24.4818 244.022 24.0862 244.128 23.6406C245.014 20.943 246.672 18.5626 248.896 16.7924C251.12 15.0223 253.815 13.9397 256.648 13.6775C259.196 13.046 261.88 13.2402 264.31 14.2323C266.741 15.2244 268.792 16.9626 270.166 19.1954C270.353 19.4659 270.597 19.6934 270.88 19.862C271.163 20.0306 271.479 20.1362 271.806 20.1726C272.134 20.2089 272.466 20.1749 272.779 20.0725C273.092 19.97 273.38 19.8013 273.622 19.5785ZM309.568 308.513C324.93 306.827 338.217 292.725 349.585 266.13C361.473 236.891 369.503 206.233 373.472 174.929C378.212 142.403 380.139 109.531 379.232 76.6756C378.972 70.1604 377.809 63.7125 375.776 57.5155C373.71 51.5763 370.106 46.288 365.33 42.1875C360.491 37.9723 354.193 38.279 346.589 42.8774C334.194 51.7247 324.491 63.8197 318.555 77.8254C310.346 93.9725 303.834 110.923 299.122 128.408C294.916 144.049 291.735 159.948 289.598 176.002C288.619 181.065 287.952 186.184 287.601 191.33C289.392 220.557 292.725 249.669 297.586 278.547C298.356 284.118 299.537 289.626 301.119 295.024C303.116 302.688 304.422 307.133 305.113 309.432C306.634 309.338 308.134 309.029 309.568 308.513ZM429.465 159.907C431.154 159.907 431.999 159.14 431.999 157.454C434.662 117.244 432.742 85.5148 426.239 62.2672C419.736 39.0196 409.162 25.3779 394.517 21.3415C394.19 21.2244 393.842 21.1778 393.495 21.2049C393.149 21.2321 392.812 21.3321 392.507 21.4987C392.202 21.6653 391.936 21.8946 391.726 22.1714C391.517 22.4481 391.369 22.766 391.291 23.1041C390.754 24.5603 391.291 25.7097 393.058 26.3229C406.371 29.695 416.023 42.7493 422.014 65.486C428.466 95.5905 430.228 126.508 427.237 157.148C427.169 157.48 427.176 157.822 427.256 158.151C427.336 158.48 427.488 158.787 427.7 159.05C427.913 159.314 428.182 159.527 428.487 159.675C428.791 159.823 429.125 159.903 429.465 159.907Z" fill="#EC3205"/>
<path d="M554.436 78.1996C574.713 84.7907 590.459 100.808 601.596 126.023C613.074 153.724 618.318 183.602 616.958 213.546C616.488 245.691 609.703 277.432 596.988 306.971C591.786 320.799 583.963 333.497 573.945 344.371C566.609 352.658 556.95 358.558 546.218 361.309C536.778 363.292 526.965 362.52 517.953 359.086C507.587 354.762 498.608 347.684 491.992 338.623C483.324 327.25 476.578 314.539 472.022 300.993C465.151 280.412 460.793 259.08 459.041 237.458C457.008 215.6 457.575 193.579 460.731 171.854C463.331 152.655 468.498 133.89 476.093 116.06C482.462 100.928 493.778 88.3938 508.198 80.4987C515.308 76.8857 523.102 74.8129 531.071 74.4167C539.039 74.0204 547.002 75.3098 554.436 78.1996V78.1996ZM494.987 120.581C496.28 114.153 499.205 108.163 503.482 103.185C507.758 98.2066 513.243 94.4066 519.412 92.1482C524.987 89.1809 531.24 87.7121 537.556 87.8867C543.872 88.0614 550.033 89.8737 555.435 93.1445C555.706 93.3145 556.012 93.424 556.329 93.4654C556.647 93.5069 556.97 93.4791 557.277 93.3845C557.583 93.2899 557.865 93.1306 558.104 92.9172C558.343 92.7038 558.533 92.4415 558.661 92.1482C558.868 91.8749 559.014 91.5599 559.088 91.2253C559.162 90.8906 559.162 90.5442 559.089 90.2093C559.016 89.8743 558.871 89.5588 558.665 89.2849C558.458 89.0111 558.195 88.7852 557.893 88.6226C551.786 85.04 544.865 83.0685 537.783 82.8942C530.701 82.7199 523.691 84.3484 517.415 87.6262C510.519 90.5582 504.432 95.1062 499.672 100.885C495.067 106.287 491.733 112.651 489.918 119.509C489.835 120.173 489.99 120.845 490.355 121.406C490.721 121.967 491.273 122.38 491.915 122.574H492.453C493.045 122.603 493.628 122.417 494.093 122.051C494.559 121.685 494.877 121.163 494.987 120.581V120.581ZM550.903 325.748C556.894 329.427 563.73 327.894 571.411 321.073C581.081 310.863 588.257 298.561 592.379 285.129C599.047 266.252 603.078 246.549 604.361 226.575C605.979 205.112 604.452 183.528 599.829 162.504C596.576 143.243 588.133 125.228 575.405 110.389C573.516 108.743 571.272 107.554 568.847 106.916C566.422 106.278 563.882 106.207 561.426 106.71C555.518 106.872 549.847 109.065 545.373 112.917C538.596 122.652 533.939 133.696 531.701 145.337C526.671 165.411 523.812 185.966 523.176 206.649C522.155 232.038 525.109 257.43 531.932 281.91C534.236 288.884 537.462 297.237 541.686 307.814C543.701 314.277 546.819 320.344 550.903 325.748V325.748Z" fill="#EC3205"/>
<path d="M707.277 105.106C716.955 85.1795 730.269 73.3769 747.217 69.6982C767.699 65.4063 785.032 75.6251 799.216 100.354C821.849 140.31 828.659 207.957 819.647 303.298C819.647 304.575 819.493 306.721 819.186 309.735C818.495 316.403 818.034 321.538 817.65 325.063C817.111 330.214 816.29 335.331 815.192 340.392C814.201 345.695 812.523 350.848 810.2 355.72C807.997 359.778 805.426 363.626 802.519 367.216C799.619 370.921 795.61 373.606 791.074 374.88C785.839 376.264 780.333 376.264 775.098 374.88C767.673 373.424 761.067 369.24 756.588 363.154C751.975 357.301 749.654 349.973 750.059 342.538C750.059 342.538 750.059 337.096 751.058 327.21C752.056 317.323 752.363 308.356 752.824 300.079C753.285 291.802 753.9 279.463 754.591 263.138C755.282 246.814 755.589 232.482 755.589 218.763C755.589 205.045 755.589 188.874 755.052 168.947C754.028 121.124 745.886 99.358 730.627 103.65C713.268 108.35 702.439 140.744 698.137 200.83C699.067 229.386 701.631 257.866 705.818 286.13C706.769 292.414 708.103 298.633 709.812 304.754C711.691 311.742 713.178 318.83 714.267 325.984C714.833 331.82 713.991 337.706 711.809 343.151C709.506 349.672 704.888 355.125 698.829 358.479C694.459 360.616 689.707 361.866 684.85 362.158C680.978 362.453 677.094 361.768 673.559 360.165C670.109 358.491 667.048 356.116 664.572 353.191C661.804 350.146 659.383 346.805 657.353 343.228C655.18 339.402 653.331 335.403 651.822 331.271C650.209 326.826 648.827 322.611 647.828 318.856C646.83 315.1 645.831 311.192 644.833 306.593C633.747 243.597 630.394 179.488 634.848 115.682C634.848 109.398 635.462 105.336 635.616 103.496C635.77 101.657 636.23 97.825 636.845 92.0003C637.201 87.7522 638.052 83.5599 639.38 79.5079C640.378 77.0554 641.761 73.76 643.604 69.5448C644.941 66.0294 647.294 62.9888 650.363 60.8077C653.447 58.9844 656.717 57.4942 660.118 56.3624C664.378 54.9932 668.867 54.4728 673.329 54.83C681.203 55.552 688.481 59.3207 693.606 65.3297C697.829 72.2377 699.913 80.2362 699.597 88.3218C699.597 98.285 699.597 111.314 698.291 126.642C700.823 119.28 703.825 112.086 707.277 105.106V105.106ZM689.765 101.121C691.455 85.1794 688.613 73.99 681.316 67.7055C678.21 65.5462 674.596 64.2274 670.827 63.8781C667.057 63.5289 663.262 64.161 659.81 65.7128C658.121 66.4025 657.583 67.4754 658.044 68.9315C658.132 69.2635 658.286 69.5742 658.498 69.8446C658.71 70.1151 658.975 70.3397 659.277 70.5047C659.579 70.6696 659.911 70.7714 660.254 70.804C660.596 70.8366 660.942 70.7991 661.27 70.6941C663.844 69.315 666.752 68.6779 669.668 68.8539C672.585 69.0298 675.394 70.012 677.783 71.6905C684.082 76.6721 686.616 86.3289 685.464 100.584C685.08 102.27 685.464 103.113 687.461 103.113C689.458 103.113 689.765 102.423 689.765 101.121V101.121ZM805.437 204.279C806.974 204.279 807.665 203.665 807.665 202.286C808.07 188.383 807.402 174.471 805.668 160.67C804.186 148.107 801.616 135.696 797.987 123.576C795.088 113.038 790.1 103.187 783.317 94.6063C777.775 87.4685 769.738 82.679 760.812 81.1943C759.507 80.8111 758.662 81.1939 758.278 83.1865C758.173 83.5152 758.143 83.8637 758.191 84.2053C758.239 84.547 758.364 84.8735 758.556 85.1605C758.748 85.4476 759.002 85.6878 759.299 85.8636C759.597 86.0394 759.93 86.1459 760.275 86.1756C773.639 88.1683 784.085 99.5111 791.766 120.281C800.302 146.752 804.199 174.493 803.287 202.286C803.594 203.665 803.978 204.279 805.437 204.279V204.279Z" fill="#EC3205"/>
</svg>
