<svg width="1405" height="138" viewBox="0 0 1405 138" fill="none" xmlns="http://www.w3.org/2000/svg">
<path d="M59.3262 4.30326C67.3903 8.39861 72.0939 17.3857 73.4379 31.2644C74.9877 44.2686 72.7954 57.4446 67.117 69.2488C61.3082 81.5349 53.5172 87.7462 43.7447 87.8827C38.4006 87.8438 33.1804 86.2679 28.7095 83.3437C27.1015 82.5689 25.6354 81.5308 24.3707 80.2722C25.0883 87.6438 26.0445 94.9813 27.2404 102.353C27.6161 104.767 28.1641 107.15 28.8805 109.486C29.6742 112.189 30.3133 114.935 30.7942 117.711C31.0556 120.013 30.7989 122.345 30.0426 124.536C29.6654 125.756 29.048 126.889 28.2265 127.868C27.405 128.847 26.3963 129.652 25.2592 130.236C23.7371 131.027 22.0788 131.525 20.3723 131.703C18.9401 131.839 17.4983 131.579 16.2037 130.952C15.0095 130.377 13.9141 129.617 12.9578 128.7C11.8987 127.714 11.0097 126.561 10.3266 125.287C9.54072 123.819 8.82279 122.42 8.24191 121.021C7.5771 119.505 7.06228 117.927 6.70444 116.311C6.26023 114.571 5.91914 113.103 5.61161 111.909C5.30408 110.714 5.02993 109.315 4.79074 107.745C0.303575 80.6878 -1.03767 53.2031 0.793154 25.8381C0.814517 25.1064 0.883198 24.3768 0.998373 23.6539C0.998373 20.8895 1.23789 18.7735 1.3404 17.3402C1.56942 15.3565 1.89946 13.3859 2.33062 11.4361C2.69691 9.44861 3.43958 7.549 4.51795 5.83906C5.55972 4.39997 6.93003 3.22996 8.51553 2.42626C10.5216 1.495 12.7343 1.0954 14.9399 1.26592C16.5975 1.5559 18.2069 2.07272 19.7233 2.80172C20.9923 3.493 22.0095 4.56835 22.628 5.87322C23.2851 7.25591 23.7779 8.71048 24.0971 10.2074C24.4172 12.3073 24.5311 14.4333 24.4383 16.5553C24.4383 19.2514 24.2679 21.8792 24.0971 24.4388C23.9263 26.9984 23.6873 30.3771 23.4481 34.6772C23.2089 38.9774 23.0718 43.1068 23.0718 46.9632C23.9261 42.4925 24.9508 38.2265 26.1468 34.1312C27.3603 30.0442 28.786 26.023 30.418 22.084C31.8258 18.5888 33.6135 15.2585 35.7487 12.1528C37.6081 9.56259 39.8419 7.26234 42.3774 5.32716C44.6039 3.47311 47.3752 2.39479 50.2708 2.25566C53.4088 2.21251 56.5128 2.91424 59.3262 4.30326V4.30326ZM20.5433 18.6029C21.1584 12.8011 20.1336 8.77404 17.4684 6.45334C16.3414 5.67419 15.0317 5.1989 13.6668 5.07334C12.302 4.94779 10.9281 5.17624 9.6776 5.73668C9.06255 5.97557 8.85693 6.38513 9.06195 6.93118C9.08761 7.05387 9.14084 7.16939 9.21628 7.26956C9.29172 7.36973 9.38817 7.45202 9.49908 7.51067C9.60999 7.56932 9.73244 7.60288 9.85779 7.60888C9.98315 7.61489 10.108 7.59323 10.224 7.54546C11.1587 7.052 12.2121 6.82598 13.2673 6.89223C14.3224 6.95847 15.3383 7.31445 16.2037 7.92092C18.4931 9.7297 19.4158 13.2107 18.9032 18.3981C18.9032 19.0124 18.9031 19.3196 19.6549 19.3196C20.4066 19.3196 20.5433 19.0807 20.5433 18.6029V18.6029ZM35.7487 74.5045C38.0722 74.5045 40.4302 72.5593 42.9246 68.7028C45.6242 64.3025 47.6946 59.5468 49.0753 54.5738C50.688 49.0719 51.8311 43.4434 52.4923 37.7487C53.1811 32.7483 52.9027 27.6622 51.6723 22.7665C51.4234 21.0087 50.6762 19.3587 49.52 18.0104C48.3637 16.6621 46.8461 15.6718 45.1453 15.156C41.7739 14.4507 38.2778 17.5222 34.6558 24.3705C30.6893 32.2908 27.9689 40.7745 26.5914 49.5228C24.9939 57.7586 24.1135 66.117 23.9603 74.5045C24.6205 73.6893 25.5563 73.1433 26.5914 72.9688C27.5467 72.7461 28.5409 72.7461 29.4962 72.9688L32.6395 73.8902C33.6448 74.2292 34.6898 74.4357 35.7487 74.5045ZM61.3075 66.348C61.6492 66.348 61.9224 66.3479 62.0249 65.9725C65.7595 60.1066 68.0974 53.4634 68.8589 46.5537C69.9168 39.4837 69.5221 32.2726 67.6976 25.3603C66.5023 19.7437 63.2786 14.763 58.6422 11.3678C58.5636 11.2768 58.4637 11.2071 58.351 11.165C58.2384 11.1228 58.1172 11.1096 57.9981 11.1266C57.8791 11.1436 57.7658 11.1902 57.6695 11.2622C57.5731 11.3341 57.4967 11.4292 57.4467 11.5385C57.3728 11.6364 57.3204 11.749 57.2941 11.8687C57.2677 11.9885 57.2681 12.1125 57.2941 12.2323C57.32 12.3522 57.3715 12.4649 57.4451 12.5631C57.5186 12.6613 57.6126 12.7425 57.7204 12.8012C62.0033 16.129 64.9589 20.8719 66.0576 26.1793C67.7559 32.8004 68.0931 39.6965 67.0486 46.4513C66.2496 53.0715 63.9972 59.4342 60.4533 65.0853C60.3628 65.1709 60.2945 65.2767 60.253 65.3941C60.2116 65.5115 60.198 65.6369 60.2147 65.7603C60.2314 65.8836 60.2778 66.0013 60.349 66.1034C60.4202 66.2056 60.5143 66.2895 60.6243 66.348H61.3075Z" fill="#EC3205"/>
<path d="M128.144 107.232C128.144 107.71 128.144 109.177 128.144 111.669C128.144 114.16 128.144 115.901 128.144 116.924C128.144 117.948 127.973 119.552 127.802 121.805C127.745 123.518 127.375 125.207 126.709 126.787C126.059 128.032 125.339 129.24 124.556 130.405C123.716 131.652 122.528 132.625 121.139 133.203C117.916 134.385 114.367 134.312 111.196 132.999C109.913 132.516 108.821 131.63 108.087 130.473C107.369 129.347 106.788 128.289 106.276 127.299C105.717 125.988 105.382 124.592 105.285 123.17C105.114 121.361 104.977 119.996 104.943 119.074C104.908 118.153 104.943 116.651 104.943 114.467C104.943 112.283 104.943 111.054 104.943 110.474C104.943 100.475 104.943 91.499 104.396 83.5472L103.131 83.1719C95.6189 82.3108 88.0362 82.2536 80.5115 83.0013C79.4181 91.92 78.4496 101.806 77.6068 112.658C77.6068 115.081 77.2996 117.982 77.0604 121.361C76.8098 126.412 76.0241 128.937 74.7029 128.937C74.3432 128.94 73.9933 128.82 73.7118 128.596C73.4184 128.351 73.1948 128.033 73.0628 127.675C73.0628 127.299 72.8575 126.958 72.7892 126.583C72.7208 126.207 72.7892 125.798 72.7892 125.32C72.7892 124.842 72.7892 124.433 72.7892 124.057L72.9944 122.897C72.9944 122.453 72.9944 122.146 72.9944 121.873C73.9853 106.584 75.0446 93.6151 76.4113 83.0013C75.7838 82.7935 75.204 82.4632 74.7054 82.0296C74.2068 81.5961 73.799 81.0679 73.5066 80.4757C72.3107 77.5748 73.6773 75.0153 77.6752 72.8652C79.2012 61.6777 81.7518 50.6536 85.295 39.9317C85.8123 38.2095 86.4402 36.5224 87.1745 34.8808C87.9264 33.2639 88.7706 31.6914 89.703 30.1711C90.6411 28.6302 91.7913 27.2286 93.1199 26.0075C94.3511 24.869 95.7894 23.977 97.357 23.3797C99.1578 22.7141 101.079 22.435 102.995 22.5605C105.925 22.6602 108.758 23.635 111.127 25.3591C113.738 27.3555 115.854 29.9244 117.312 32.8673C119.017 36.1881 120.522 39.6069 121.822 43.1056C123.295 47.2985 124.326 51.6334 124.898 56.0401C125.615 61.0228 126.265 65.5618 126.812 69.6913C127.358 73.8207 127.699 78.3939 127.904 83.7179C128.109 89.0419 128.178 93.2055 128.246 96.277C128.315 99.3485 128.144 103 128.144 107.232ZM82.1174 71.0565C89.0183 69.1473 96.191 68.4089 103.337 68.8722C103.097 66.4833 102.824 64.265 102.517 62.2855C102.209 60.3061 101.867 58.4291 101.526 56.6545C101.184 54.8798 100.842 53.4805 100.603 52.3201C100.364 51.1598 100.022 49.9312 99.6118 48.532C99.3518 47.5842 99.0446 46.6502 98.69 45.7335L97.699 43.0033C97.4714 42.2602 97.1739 41.5403 96.8105 40.8532C96.5053 39.8938 96.0802 38.9765 95.5459 38.1229C95.2441 37.5974 94.8082 37.1615 94.282 36.8602C93.888 36.7742 93.4797 36.7742 93.0857 36.8602C92.6728 36.9226 92.2898 37.1137 91.9921 37.4062C91.7106 37.6962 91.4482 38.004 91.2062 38.3276C90.9811 38.5695 90.7968 38.8462 90.6598 39.1468C87.3795 45.2216 84.5321 55.8581 82.1174 71.0565ZM121.618 78.1209C122.096 78.1209 122.335 77.8138 122.335 77.1995C120.9 49.2145 115.102 32.5146 104.943 27.0996C104.847 27.035 104.738 26.9923 104.624 26.9746C104.51 26.9569 104.393 26.9646 104.282 26.9972C104.171 27.0298 104.068 27.0865 103.981 27.1631C103.895 27.2398 103.827 27.3346 103.781 27.4408C103.474 27.9186 103.781 28.3624 104.225 28.7036C113.656 33.8001 119.089 49.9653 120.524 77.1995C120.661 77.8138 120.968 78.1209 121.447 78.1209H121.618Z" fill="#EC3205"/>
<path d="M183.191 73.4122C187.866 77.6163 191.155 83.1379 192.622 89.2476C194.364 95.5457 194.364 102.198 192.622 108.496C191.019 114.555 187.523 119.946 182.644 123.887C178.645 127.085 173.871 129.169 168.805 129.928C164.004 130.75 159.071 130.315 154.488 128.665C150.006 126.99 145.972 124.304 142.7 120.816C139.192 117.008 137.084 112.122 136.72 106.96C136.334 100.459 137.36 93.9509 139.728 87.8825C139.728 87.8825 139.728 87.8825 139.728 87.5071L140.548 85.903C140.548 85.5276 141.026 85.0157 141.436 84.3332C141.846 83.6506 142.29 83.4117 142.734 83.5482C143.297 83.6919 143.868 83.8059 144.443 83.8895C145.008 84.2065 145.426 84.7339 145.605 85.357C145.826 85.9983 145.826 86.6952 145.605 87.3365C145.381 88.0319 145.071 88.6968 144.682 89.3158C144.34 89.9301 143.93 90.5786 143.52 91.3294C143.186 91.8307 142.911 92.3689 142.7 92.9334C139.693 100.407 139.488 106.585 142.154 111.021C143.369 112.975 145.066 114.584 147.082 115.695C149.098 116.807 151.366 117.383 153.668 117.369C156.314 117.54 158.96 117.03 161.353 115.889C163.746 114.748 165.806 113.013 167.336 110.851C171.072 106.141 171.858 99.6338 169.694 91.3294C169.098 89.0142 167.922 86.8885 166.277 85.1522C164.855 83.5673 163.209 82.199 161.391 81.091C159.819 80.2036 157.632 79.0433 154.865 77.6782C152.097 76.3131 150.081 75.2551 148.885 74.5385C146.966 73.3227 145.148 71.953 143.452 70.4431C141.817 68.9934 140.36 67.3552 139.112 65.5628C137.895 63.8089 136.865 61.9331 136.037 59.9659C135.163 57.9365 134.554 55.8029 134.226 53.618C133.856 51.3629 133.729 49.0745 133.85 46.7924C133.929 41.8872 135.347 37.0965 137.951 32.9365C140.1 29.4121 143.252 26.6079 147.005 24.8822C150.618 23.3005 154.546 22.5652 158.487 22.7322C162.493 22.8078 166.429 23.7878 170.001 25.599C173.643 27.4976 176.728 30.3081 178.954 33.7555C181.408 37.4862 182.845 41.7915 183.123 46.2463C183.123 48.8742 182.576 50.2734 181.141 50.41C180.712 50.3842 180.3 50.2306 179.959 49.9691C179.618 49.7075 179.363 49.35 179.227 48.9425C178.895 47.9159 178.711 46.8472 178.681 45.7686C178.668 44.8976 178.577 44.0294 178.407 43.1748C177.71 41.3388 176.542 39.7189 175.018 38.4785C173.494 37.2381 171.669 36.4212 169.728 36.1103C168.453 35.7296 167.115 35.6119 165.793 35.7644C164.471 35.917 163.194 36.3366 162.04 36.9977C159.847 38.2548 158.176 40.2513 157.325 42.6288C156.388 45.1328 156.072 47.8257 156.402 50.4782C156.634 53.1368 157.605 55.6781 159.204 57.8158C162.576 61.5416 166.729 64.4781 171.368 66.416C175.564 68.2892 179.531 70.6366 183.191 73.4122V73.4122ZM151.516 29.2507C151.994 29.0118 152.062 28.6363 151.789 28.0902C151.515 27.5442 151.072 27.4418 150.593 27.8173C147.683 29.5434 145.178 31.8745 143.249 34.6523C141.32 37.4302 140.01 40.5899 139.411 43.9172C138.811 47.2446 138.935 50.6617 139.774 53.9371C140.612 57.2125 142.146 60.2695 144.272 62.9008C144.452 63.116 144.71 63.2509 144.989 63.2762C145.186 63.2838 145.379 63.2236 145.536 63.1056C145.635 63.0326 145.715 62.9375 145.771 62.8278C145.826 62.7181 145.855 62.597 145.855 62.4742C145.855 62.3514 145.826 62.2303 145.771 62.1206C145.715 62.011 145.635 61.9158 145.536 61.8428C143.489 59.4942 142.015 56.7025 141.233 53.6879C140.45 50.6733 140.379 47.5183 141.026 44.4717C141.395 42.3633 142.062 40.3179 143.008 38.3969C143.906 36.4789 145.055 34.6886 146.425 33.073C147.879 31.5052 149.604 30.2106 151.516 29.2507V29.2507Z" fill="#EC3205"/>
<path d="M221.324 85.5269C221.125 91.6199 221.331 97.7195 221.939 103.785C222.316 107.465 223.049 111.099 224.126 114.638C224.734 116.418 225.248 118.23 225.664 120.064C226.026 122.073 225.811 124.142 225.043 126.033C224.275 127.924 222.985 129.558 221.324 130.746C219.615 132.372 217.346 133.278 214.986 133.278C212.626 133.278 210.356 132.372 208.647 130.746C200.059 123.648 196.734 104.718 198.67 73.9575C198.909 70.5447 199.216 67.1319 199.592 63.4461C199.654 61.6273 199.838 59.8145 200.139 58.0197C200.439 56.357 200.884 54.7239 201.471 53.1395C202.021 51.5785 202.817 50.1152 203.829 48.8052C204.839 47.6412 206.118 46.7395 207.554 46.1773C209.337 45.4919 211.265 45.2688 213.158 45.5289C215.889 45.8171 218.442 47.02 220.402 48.9417C222.181 50.9437 223.208 53.5016 223.306 56.1768C223.546 59.0956 223.546 62.029 223.306 64.9477C223.067 67.7803 222.657 71.2955 222.144 75.4591C221.661 78.7947 221.388 82.1572 221.324 85.5269V85.5269ZM220.948 14.0629C222.666 14.6565 224.244 15.5958 225.584 16.8227C226.924 18.0495 227.998 19.5378 228.739 21.1956C230.287 24.3815 230.616 28.0232 229.661 31.434C229.168 33.6248 228.126 35.6544 226.632 37.332C225.137 39.0095 223.24 40.28 221.119 41.024C219.203 41.8214 217.113 42.1085 215.053 41.8573C212.992 41.606 211.032 40.825 209.365 39.5907C206.554 37.6542 204.625 34.6847 204 31.3316C203.332 28.1152 203.653 24.7722 204.923 21.7417C206.198 18.8193 208.427 16.4138 211.244 14.9161C212.724 14.0849 214.364 13.5788 216.055 13.4316C217.746 13.2845 219.449 13.4998 221.051 14.0629H220.948ZM219.308 68.8724C220.629 60.3177 219.843 54.4135 216.95 51.16C216.204 50.3316 215.285 49.6762 214.258 49.24C213.23 48.8037 212.12 48.5971 211.005 48.6346C210.39 48.6346 210.082 48.9075 210.082 49.5218C210.082 50.1361 210.39 50.5457 211.005 50.4433C211.883 50.4095 212.758 50.5694 213.567 50.9115C214.376 51.2536 215.1 51.7695 215.687 52.4227C218.249 55.1871 218.829 60.6135 217.497 68.7018C217.497 69.1796 217.498 69.4867 218.249 69.5891C218.372 69.6454 218.506 69.6706 218.641 69.6623C218.776 69.654 218.907 69.6125 219.022 69.5416C219.137 69.4707 219.233 69.3724 219.3 69.2557C219.368 69.1389 219.406 69.0073 219.411 68.8724H219.308ZM226.552 30.1713C227.328 28.4437 227.521 26.5112 227.102 24.6647C226.683 22.8181 225.675 21.1576 224.229 19.9329C223.263 18.6467 221.931 17.6817 220.407 17.1641C218.882 16.6465 217.237 16.6004 215.687 17.032C215.562 17.0588 215.444 17.1144 215.345 17.1943C215.245 17.2742 215.166 17.3762 215.113 17.4923C215.06 17.6083 215.035 17.735 215.039 17.8625C215.044 17.99 215.078 18.1147 215.139 18.2265C215.413 18.7726 215.755 18.9091 216.233 18.6702C217.494 18.3404 218.825 18.4058 220.048 18.8576C221.27 19.3093 222.325 20.1256 223.067 21.1956C224.224 22.1671 225.043 23.4802 225.405 24.946C225.767 26.4117 225.655 27.9546 225.083 29.3523C225.015 29.4679 224.975 29.5978 224.967 29.7315C224.959 29.8652 224.982 29.999 225.036 30.1219C225.089 30.2449 225.171 30.3535 225.274 30.4392C225.377 30.5248 225.499 30.5851 225.63 30.615H225.972C226.117 30.619 226.26 30.5787 226.382 30.4995C226.504 30.4202 226.599 30.3058 226.655 30.1713H226.552Z" fill="#EC3205"/>
<path d="M266.326 29.7959C273.707 32.2076 279.402 37.9981 283.411 47.1671C287.617 57.2002 289.543 68.0402 289.049 78.9061C288.816 90.564 286.381 102.073 281.873 112.829C280.002 117.874 277.171 122.51 273.536 126.48C270.891 129.501 267.387 131.644 263.49 132.623C260.066 133.349 256.505 133.065 253.24 131.804C249.472 130.253 246.208 127.689 243.809 124.399C240.661 120.276 238.213 115.664 236.564 110.747C234.067 103.275 232.484 95.5289 231.849 87.677C231.108 79.7165 231.326 71.696 232.498 63.7874C233.455 56.7994 235.375 49.9773 238.204 43.5154C240.426 38.0915 244.41 33.5716 249.515 30.6832C252.094 29.3553 254.927 28.5896 257.825 28.4366C260.723 28.2836 263.621 28.7469 266.326 29.7959V29.7959ZM244.8 45.1876C245.285 42.8718 246.352 40.7172 247.9 38.9262C249.448 37.1353 251.426 35.7668 253.649 34.9492C255.668 33.8731 257.933 33.3387 260.221 33.3985C262.509 33.4584 264.742 34.1103 266.702 35.2905C266.798 35.3551 266.907 35.3978 267.021 35.4155C267.135 35.4332 267.253 35.4254 267.364 35.3928C267.475 35.3602 267.577 35.3036 267.663 35.2269C267.75 35.1502 267.819 35.0554 267.864 34.9492C267.944 34.8536 268.001 34.7411 268.03 34.6201C268.06 34.4992 268.063 34.373 268.036 34.2512C268.01 34.1295 267.956 34.0153 267.878 33.9174C267.801 33.8196 267.703 33.7406 267.591 33.6865C265.385 32.3731 262.878 31.6486 260.31 31.5829C257.743 31.5171 255.202 32.1122 252.932 33.3111C250.442 34.3728 248.24 36.0105 246.508 38.0891C244.883 40.0875 243.717 42.4174 243.091 44.9147C243.048 45.0365 243.034 45.1668 243.051 45.2949C243.068 45.4231 243.115 45.5454 243.188 45.6519C243.261 45.7584 243.359 45.8462 243.473 45.9078C243.586 45.9695 243.714 46.0033 243.843 46.0067V46.0067C243.96 46.016 244.077 46.0022 244.188 45.966C244.3 45.9299 244.403 45.872 244.492 45.7959C244.581 45.7197 244.654 45.6269 244.706 45.5225C244.759 45.4181 244.791 45.3043 244.8 45.1876V45.1876ZM256.725 28.1236C256.152 28.1002 255.596 27.9189 255.119 27.5997C254.643 27.2804 254.265 26.8357 254.025 26.3149C253.58 25.608 253.332 24.7949 253.308 23.96V22.7997C253.366 22.14 253.616 21.5115 254.025 20.9909L267.966 1.9816C268.355 1.375 268.892 0.875827 269.524 0.529957C270.157 0.184088 270.867 0.0026592 271.588 0.00222768C272.432 -0.0239935 273.267 0.181688 274.003 0.596926C274.738 1.01216 275.344 1.62103 275.757 2.35707C276.464 3.49509 276.842 4.80599 276.851 6.14522C276.851 6.14522 276.85 6.82782 276.68 7.7834C276.535 8.93884 276.019 10.0164 275.21 10.8549L258.911 26.9633C258.635 27.2725 258.299 27.5226 257.923 27.6986C257.547 27.8746 257.14 27.9727 256.725 27.9871V28.1236ZM265.062 119.86C267.249 121.191 269.709 120.61 272.511 118.119C276.024 114.438 278.622 109.984 280.096 105.116C282.529 98.266 283.99 91.1094 284.436 83.8547C285.051 75.9803 284.51 68.0584 282.83 60.3405C281.631 53.3529 278.561 46.8196 273.946 41.4335C273.265 40.8331 272.454 40.3977 271.577 40.1609C270.7 39.9242 269.78 39.8925 268.889 40.0684C266.75 40.1237 264.696 40.9199 263.08 42.3209C260.609 45.8527 258.909 49.8643 258.091 54.0951C256.272 61.381 255.242 68.8408 255.016 76.3465C254.649 85.5569 255.721 94.7682 258.194 103.649C258.672 105.116 259.288 107.062 260.074 109.178C260.87 111.419 261.782 113.617 262.806 115.764C263.325 117.203 264.089 118.542 265.062 119.723V119.86Z" fill="#EC3205"/>
<path d="M321.749 39.591C322.971 36.454 324.923 33.6518 327.441 31.415C329.96 29.1781 332.974 27.5706 336.237 26.7247C343.754 25.1548 349.905 28.9089 355.098 37.9528C363.299 52.423 365.771 76.9611 362.514 111.567C362.514 112.045 362.514 112.83 362.343 113.922C362.104 116.345 361.899 118.222 361.796 119.519C361.694 120.815 361.352 122.693 360.874 125.047C360.543 126.99 359.933 128.875 359.063 130.644C358.305 132.119 357.401 133.514 356.363 134.808C355.307 136.168 353.848 137.159 352.194 137.641C350.288 138.12 348.292 138.12 346.386 137.641C343.661 137.105 341.228 135.586 339.552 133.375C337.904 131.228 337.068 128.569 337.193 125.866C337.193 125.866 337.194 123.921 337.57 120.338C337.946 116.754 338.014 113.512 338.185 110.475C338.355 107.437 338.594 103.001 338.834 97.0965C339.073 91.1924 339.21 85.8343 339.21 80.9881C339.21 76.1419 339.21 70.1355 339.005 62.9003C338.663 45.5406 335.702 37.6456 330.121 39.2155C323.879 40.8991 319.961 52.6619 318.366 74.5038C318.758 84.8564 319.728 95.179 321.271 105.424C321.592 107.729 322.071 110.01 322.706 112.249C323.396 114.776 323.943 117.34 324.346 119.928C324.541 122.054 324.225 124.195 323.423 126.174C322.589 128.525 320.925 130.49 318.742 131.702C317.151 132.48 315.42 132.933 313.651 133.033C312.257 133.136 310.86 132.889 309.585 132.317C308.282 131.722 307.118 130.862 306.168 129.791C305.179 128.679 304.308 127.466 303.571 126.174C302.779 124.788 302.104 123.338 301.555 121.839C300.974 120.201 300.496 118.7 300.12 117.3C299.744 115.901 299.402 114.434 299.026 112.864C295.018 90.0018 293.802 66.7385 295.404 43.5839C295.404 41.2973 295.609 39.8298 295.678 39.1473C295.746 38.4647 295.882 37.0996 296.121 34.9837C296.238 33.4493 296.548 31.9356 297.044 30.4787C297.386 29.5573 297.899 28.3628 298.582 26.8612C299.056 25.5853 299.901 24.4801 301.008 23.6873C302.083 23.0164 303.229 22.4669 304.425 22.0491C305.969 21.5568 307.594 21.3713 309.209 21.5031C312.067 21.7584 314.708 23.1324 316.556 25.3254C318.1 27.8199 318.85 30.7234 318.708 33.6526C318.708 37.2702 318.708 41.9117 318.264 47.5769C319.264 44.8473 320.427 42.1805 321.749 39.591V39.591ZM315.428 38.1234C316.009 32.3216 314.983 28.2946 312.352 26.008C311.228 25.2226 309.918 24.7434 308.552 24.6177C307.186 24.492 305.811 24.7243 304.562 25.2913C303.947 25.5302 303.741 25.9056 303.912 26.4517C303.947 26.5731 304.006 26.6863 304.086 26.7847C304.165 26.8832 304.264 26.9649 304.375 27.0252C304.486 27.0855 304.608 27.1232 304.734 27.136C304.86 27.1489 304.987 27.1367 305.109 27.1001C306.041 26.6055 307.092 26.3757 308.146 26.4358C309.2 26.496 310.218 26.8438 311.088 27.4413C313.378 29.2501 314.266 32.7653 313.788 37.9528C313.788 38.5671 313.788 38.8401 314.505 38.8401C315.223 38.8401 315.428 38.6012 315.428 38.1234ZM357.354 75.6642C357.901 75.6642 358.174 75.4253 358.174 74.9475C358.289 69.9087 358.05 64.868 357.457 59.8629C356.899 55.2966 355.95 50.7867 354.62 46.3824C353.56 42.5598 351.748 38.9864 349.29 35.8709C347.29 33.2804 344.387 31.5378 341.158 30.9906C340.657 30.9906 340.349 31.2295 340.235 31.7073C340.184 31.8262 340.163 31.9558 340.175 32.0845C340.187 32.2133 340.23 32.3372 340.301 32.4452C340.372 32.5533 340.468 32.6421 340.582 32.7039C340.696 32.7657 340.823 32.7985 340.952 32.7994C345.805 33.5275 349.609 37.657 352.365 45.1879C355.464 54.7932 356.874 64.8617 356.534 74.9475C356.534 75.357 356.807 75.5618 357.354 75.5618V75.6642Z" fill="#EC3205"/>
<path d="M479.886 43.9254C480.975 50.0788 481.125 56.3611 480.331 62.5593C479.693 68.2881 478.135 73.8769 475.718 79.1114C473.609 83.6062 470.663 87.6597 467.039 91.0561C463.814 94.1163 459.591 95.91 455.148 96.1071C450.183 96.1355 445.317 94.7248 441.139 92.0459C440.844 91.8431 440.536 91.6607 440.216 91.4998C440.694 96.2095 441.309 100.851 442.027 105.424C442.366 107.726 442.845 110.006 443.462 112.25C444.152 114.776 444.7 117.34 445.102 119.928C445.298 122.051 444.994 124.19 444.214 126.174C443.371 128.53 441.694 130.497 439.499 131.703C437.907 132.481 436.176 132.933 434.407 133.034C433.014 133.132 431.616 132.886 430.34 132.317C429.034 131.729 427.868 130.868 426.923 129.791C425.924 128.68 425.042 127.467 424.292 126.174C423.512 124.787 422.849 123.337 422.311 121.84C421.696 120.201 421.217 118.7 420.841 117.301C420.465 115.901 420.124 114.434 419.748 112.864C415.74 90.002 414.524 66.7387 416.126 43.5841C416.126 41.2975 416.331 39.8301 416.4 39.1475C416.468 38.465 416.604 37.0998 416.878 34.9839C416.987 33.4515 417.286 31.9384 417.766 30.479C418.142 29.5575 418.655 28.3631 419.304 26.8614C419.787 25.5811 420.644 24.4753 421.764 23.6876C422.834 23.0093 423.981 22.4594 425.181 22.0494C426.725 21.5604 428.35 21.375 429.965 21.5033C432.722 21.7816 435.278 23.0704 437.14 25.1209C438.683 27.4558 439.471 30.2078 439.396 33.0044C439.396 36.4172 439.396 40.8197 439.225 46.1096C439.088 47.4292 439.02 48.4531 439.02 49.1812C440.616 43.7317 442.913 38.5121 445.854 33.6529C447.807 30.1995 450.546 27.2535 453.85 25.0527C456.247 23.4826 459.082 22.7156 461.945 22.8629C464.808 23.0102 467.549 24.0639 469.772 25.8717C472.312 27.8905 474.406 30.4119 475.923 33.2775C477.826 36.5829 479.165 40.1812 479.886 43.9254V43.9254ZM435.705 38.1236C436.184 32.3219 435.09 28.2948 432.288 26.0082C431.164 25.2228 429.855 24.7436 428.488 24.6179C427.122 24.4922 425.747 24.7245 424.498 25.2916C423.883 25.5305 423.678 25.9059 423.883 26.4519C423.91 26.5747 423.962 26.6904 424.037 26.7913C424.112 26.8923 424.208 26.9761 424.317 27.0374C424.427 27.0987 424.549 27.1361 424.674 27.1469C424.8 27.1577 424.926 27.1419 425.045 27.1003C426.009 26.6087 427.085 26.3812 428.166 26.4412C429.246 26.5011 430.291 26.8463 431.195 27.4415C433.382 29.2503 434.236 32.7656 433.757 37.953C433.757 38.5673 433.757 38.8404 434.475 38.8404C434.602 38.8944 434.741 38.9179 434.879 38.9092C435.017 38.9005 435.15 38.8597 435.27 38.7901C435.389 38.7205 435.491 38.6241 435.567 38.5084C435.642 38.3926 435.69 38.2609 435.705 38.1236ZM453.815 80.2717C456.564 76.9295 458.651 73.096 459.966 68.9753C461.244 65.1236 461.878 61.0881 461.845 57.0305C461.824 53.4786 461.47 49.9365 460.786 46.4509C460.285 43.6986 459.363 41.0398 458.052 38.5673C456.925 36.5879 455.899 35.53 455.079 35.4276C452.175 35.0522 449.271 37.7482 446.367 43.55C442.216 52.2434 439.702 61.6257 438.951 71.2278C438.951 74.6406 439.259 78.224 439.499 82.0805C440.479 82.9678 441.655 83.6125 442.931 83.9623C444.208 84.312 445.548 84.3571 446.845 84.094C449.492 83.6351 451.903 82.2865 453.679 80.2717H453.815ZM470.114 82.4559C473.848 76.5772 476.186 69.9231 476.948 63.0029C477.993 55.961 477.562 48.7791 475.684 41.9119C474.389 36.3258 471.218 31.3514 466.697 27.817C466.624 27.7182 466.529 27.6379 466.419 27.5826C466.309 27.5272 466.188 27.4984 466.065 27.4984C465.942 27.4984 465.821 27.5272 465.711 27.5826C465.602 27.6379 465.506 27.7182 465.433 27.817C465.349 27.9058 465.286 28.0122 465.248 28.1285C465.211 28.2448 465.2 28.368 465.217 28.4891C465.233 28.6102 465.276 28.7261 465.344 28.8283C465.411 28.9305 465.499 29.0164 465.604 29.0797C469.917 32.3953 472.879 37.1607 473.941 42.492C475.659 49.0968 476.031 55.9789 475.035 62.73C474.24 69.3879 471.9 75.7685 468.201 81.3638C468.136 81.4698 468.094 81.5882 468.078 81.7114C468.062 81.8345 468.072 81.9596 468.107 82.0786C468.143 82.1976 468.203 82.3079 468.284 82.4023C468.365 82.4967 468.465 82.5731 468.577 82.6265C468.616 82.6832 468.666 82.7309 468.725 82.7662C468.784 82.8015 468.85 82.8237 468.918 82.8313C469.132 82.8939 469.36 82.8918 469.573 82.8249C469.786 82.7581 469.975 82.6297 470.114 82.4559V82.4559Z" fill="#EC3205"/>
<path d="M519.182 29.796C526.562 32.2077 532.257 37.9982 536.266 47.1672C540.463 57.2046 542.412 68.0375 541.973 78.9062C541.8 90.578 539.339 102.103 534.729 112.829C532.857 117.874 530.026 122.51 526.392 126.481C523.747 129.501 520.242 131.644 516.346 132.624C512.922 133.35 509.36 133.065 506.095 131.805C502.327 130.253 499.063 127.69 496.664 124.399C493.516 120.276 491.069 115.664 489.42 110.748C486.923 103.275 485.34 95.529 484.705 87.6771C483.964 79.7167 484.181 71.6961 485.354 63.7875C486.31 56.7995 488.23 49.9774 491.06 43.5155C493.281 38.0916 497.265 33.5717 502.37 30.6834C504.95 29.3555 507.783 28.5897 510.681 28.4367C513.579 28.2838 516.476 28.7471 519.182 29.796ZM497.621 45.1877C498.119 42.8719 499.194 40.7192 500.747 38.9294C502.3 37.1395 504.28 35.7705 506.505 34.9494C508.524 33.8732 510.789 33.3388 513.077 33.3987C515.365 33.4585 517.598 34.1104 519.558 35.2907C519.654 35.3553 519.762 35.398 519.876 35.4156C519.991 35.4333 520.108 35.4255 520.219 35.3929C520.33 35.3603 520.432 35.3037 520.519 35.227C520.605 35.1503 520.674 35.0555 520.72 34.9494C520.794 34.8515 520.845 34.7388 520.872 34.6191C520.898 34.4994 520.898 34.3753 520.872 34.2555C520.847 34.1357 520.795 34.0228 520.721 33.9246C520.648 33.8265 520.554 33.7453 520.446 33.6866C518.24 32.3732 515.733 31.6488 513.166 31.583C510.599 31.5173 508.058 32.1124 505.787 33.3112C503.36 34.3659 501.202 35.9541 499.475 37.9572C497.747 39.9603 496.495 42.3269 495.81 44.8806C495.81 45.4949 496.049 45.8703 496.562 45.9727C496.684 46.0101 496.814 46.0182 496.94 45.9964C497.067 45.9745 497.186 45.9234 497.289 45.847C497.392 45.7707 497.476 45.6713 497.533 45.5568C497.591 45.4423 497.621 45.3159 497.621 45.1877ZM517.918 119.723C520.105 121.054 522.564 120.474 525.332 117.983C528.869 114.313 531.48 109.856 532.952 104.98C535.368 98.125 536.828 90.9708 537.292 83.7183C537.893 75.8891 537.352 68.0142 535.686 60.3406C534.472 53.3576 531.404 46.8281 526.801 41.4337C526.115 40.8304 525.298 40.3935 524.415 40.1568C523.532 39.92 522.607 39.8898 521.71 40.0686C519.582 40.1288 517.541 40.9249 515.936 42.321C513.464 45.8528 511.765 49.8644 510.947 54.0952C509.128 61.3811 508.097 68.8409 507.872 76.3466C507.474 85.5582 508.546 94.7743 511.05 103.649C511.87 106.209 513.066 109.314 514.466 113.068C515.227 115.468 516.394 117.719 517.918 119.723V119.723Z" fill="#EC3205"/>
<path d="M615.37 114.637C616.926 118.046 617.181 121.906 616.087 125.49C615.546 127.277 614.539 128.888 613.171 130.159C611.802 131.43 610.12 132.316 608.296 132.725C606.313 133.24 604.231 133.24 602.248 132.725C600.476 132.243 598.928 131.157 597.874 129.654C596.882 128.318 596.002 126.902 595.243 125.422C594.436 123.592 593.751 121.711 593.194 119.791C592.649 118.04 592.01 116.319 591.28 114.637C589.263 109.78 586.646 105.194 583.489 100.986C582.79 100.05 581.891 99.2806 580.858 98.7337C579.859 98.1235 578.793 97.631 577.68 97.2663C576.652 96.9211 575.675 96.4389 574.776 95.8328C573.858 95.2129 573.117 94.3664 572.623 93.3756C573.102 97.471 573.648 101.464 574.263 105.32C574.585 107.626 575.064 109.906 575.698 112.146C576.389 114.673 576.936 117.237 577.338 119.825C577.534 121.95 577.218 124.092 576.416 126.07C575.573 128.427 573.896 130.394 571.701 131.599C569.879 132.353 567.957 132.836 565.995 133.032C564.363 133.149 562.748 132.636 561.484 131.599C560.153 130.6 558.938 129.455 557.862 128.186C556.734 126.745 555.846 125.132 555.231 123.408C554.513 121.463 553.898 119.688 553.42 118.05C552.91 116.355 552.489 114.635 552.156 112.897C548.131 90.0368 546.914 66.7715 548.534 43.6171C548.534 41.3305 548.739 39.8629 548.807 39.1804C548.875 38.4978 549.012 37.1327 549.251 35.0168C549.368 33.4824 549.678 31.9688 550.174 30.512C550.515 29.5905 551.028 28.396 551.711 26.8944C552.185 25.6185 553.03 24.5132 554.137 23.7204C555.209 23.0446 556.356 22.4949 557.554 22.0823C559.098 21.59 560.723 21.4045 562.338 21.5363C565.088 21.8067 567.636 23.0976 569.479 25.1538C571.034 27.4849 571.834 30.2372 571.769 33.0374C571.769 36.4729 571.701 40.8413 571.564 46.1425C571.564 47.4735 571.393 48.4973 571.393 49.214C573.147 42.8491 575.966 36.826 579.73 31.3992C582.002 27.7516 585.448 24.9837 589.503 23.5498C592.684 22.6909 596.06 22.9069 599.105 24.1641C602.512 25.6718 605.366 28.2002 607.271 31.3992C609.668 35.2375 611.261 39.5217 611.953 43.9924C613.549 52.6962 613.211 61.6441 610.962 70.2028C609.297 77.6562 605.567 84.4917 600.198 89.9288C607.324 96.7037 612.555 105.221 615.37 114.637ZM567.907 38.1224C568.386 32.3207 567.293 28.2936 564.662 26.007C563.537 25.2216 562.228 24.7424 560.862 24.6167C559.495 24.4911 558.12 24.7233 556.871 25.2904C556.256 25.5293 556.051 25.9047 556.222 26.4507C556.253 26.5748 556.309 26.6909 556.388 26.792C556.466 26.8931 556.564 26.9768 556.676 27.0378C556.789 27.0988 556.913 27.1358 557.041 27.1463C557.168 27.1569 557.297 27.1408 557.418 27.0992C558.382 26.6075 559.458 26.38 560.539 26.44C561.619 26.4999 562.665 26.8451 563.568 27.4404C565.721 29.2491 566.575 32.7644 566.096 37.9518C566.096 38.5661 566.097 38.8392 566.815 38.8392H567.019C567.23 38.8503 567.437 38.7832 567.601 38.6509C567.765 38.5186 567.874 38.3303 567.907 38.1224V38.1224ZM571.701 82.0793C572.683 82.9643 573.859 83.6075 575.134 83.9571C576.41 84.3067 577.75 84.3532 579.047 84.0928C581.694 83.6339 584.106 82.2853 585.881 80.2705C588.629 76.9283 590.716 73.0948 592.031 68.9741C593.319 65.1239 593.966 61.0887 593.945 57.0294C593.914 53.4763 593.548 49.9341 592.851 46.4497C592.361 43.6993 591.45 41.0405 590.152 38.5661C588.99 36.5867 588 35.5288 587.145 35.4264C584.241 35.051 581.371 37.747 578.466 43.5488C574.304 52.2399 571.779 61.6223 571.017 71.2266C571.291 74.7418 571.461 78.3593 571.701 82.0793V82.0793ZM597.806 27.9864C597.715 28.072 597.647 28.1778 597.606 28.2952C597.564 28.4126 597.551 28.5382 597.567 28.6615C597.584 28.7849 597.63 28.9025 597.702 29.0047C597.773 29.1069 597.867 29.1907 597.977 29.2492C601.158 31.5814 603.543 34.834 604.811 38.5661C606.549 43.0254 607.531 47.7428 607.716 52.5244C607.94 57.6797 607.492 62.8422 606.383 67.882C605.374 72.7555 603.437 77.39 600.676 81.5332C600.611 81.6371 600.567 81.7536 600.549 81.8752C600.53 81.9968 600.537 82.1209 600.569 82.2397C600.601 82.3584 600.658 82.4692 600.735 82.5649C600.812 82.6607 600.909 82.7393 601.019 82.7959C601.063 82.8551 601.119 82.9041 601.184 82.9394C601.249 82.9748 601.32 82.9957 601.394 83.0008C601.575 82.988 601.751 82.9316 601.905 82.8365C602.06 82.7415 602.189 82.6105 602.282 82.4547C606.016 76.576 608.354 69.9219 609.116 63.0017C610.178 55.9605 609.748 48.7751 607.852 41.9107C606.569 36.3283 603.409 31.3537 598.9 27.8158C598.732 27.6945 598.522 27.6444 598.317 27.6764C598.113 27.7083 597.929 27.8197 597.806 27.9864V27.9864Z" fill="#EC3205"/>
<path d="M712.07 116.277C714.348 117.483 714.416 119.53 712.275 122.42C709.988 126.04 706.728 128.945 702.867 130.804C699.006 132.662 694.701 133.399 690.44 132.931C687.639 133.052 684.844 132.582 682.236 131.553C679.628 130.524 677.266 128.959 675.304 126.959C672.027 122.595 669.943 117.456 669.255 112.045C667.773 104.042 667.04 95.9185 667.068 87.7798C667.068 78.6791 667.16 71.023 667.342 64.8117C667.581 58.6004 667.957 52.4233 668.435 46.2802C668.435 45.8024 668.435 44.5056 668.606 42.4579C668.776 40.4102 668.811 39.045 668.879 38.1236C668.948 37.2021 669.118 35.9053 669.426 33.96C669.595 32.5061 669.963 31.0823 670.519 29.7281C670.929 28.8067 671.476 27.6805 672.159 26.3153C672.679 25.1396 673.519 24.134 674.585 23.4144C675.65 22.752 676.8 22.2355 678.002 21.8787C679.53 21.4256 681.13 21.2635 682.718 21.4009C684.157 21.5419 685.554 21.9676 686.827 22.6531C688.1 23.3386 689.224 24.2703 690.133 25.3939C691.729 28.0276 692.459 31.0953 692.217 34.1647C692.217 37.9529 691.876 42.7992 691.397 48.6351C690.919 54.4709 690.509 61.5013 690.133 69.7261C689.786 79.1967 690.026 88.6796 690.85 98.1206C690.85 98.7349 691.534 103.001 692.866 110.953C692.987 112.18 693.439 113.351 694.173 114.343C694.907 115.334 695.896 116.109 697.035 116.584C701.614 118.734 704.792 119.451 706.603 118.734L707.969 117.847C708.419 117.555 708.842 117.223 709.234 116.857C709.602 116.526 710.031 116.271 710.498 116.106C710.757 116.025 711.031 115.999 711.302 116.028C711.572 116.057 711.834 116.142 712.07 116.277V116.277ZM688.356 38.1236C688.971 32.3218 687.878 28.2948 685.11 26.0082C684.02 25.2182 682.739 24.7349 681.398 24.6088C680.058 24.4828 678.708 24.7185 677.49 25.2915C676.875 25.5304 676.67 25.9058 676.841 26.4519C676.876 26.5733 676.935 26.6865 677.015 26.7849C677.094 26.8834 677.192 26.9651 677.303 27.0254C677.414 27.0857 677.537 27.1234 677.663 27.1362C677.789 27.1491 677.915 27.1369 678.036 27.1003C678.969 26.6057 680.02 26.3759 681.075 26.436C682.129 26.4962 683.146 26.844 684.016 27.4415C686.306 29.2503 687.194 32.7655 686.716 37.953C686.716 38.5673 686.716 38.8403 687.467 38.8403C688.219 38.8403 688.356 38.6014 688.356 38.1236Z" fill="#EC3205"/>
<path d="M769.338 107.233C769.338 107.711 769.338 109.178 769.338 111.67C769.338 114.161 769.338 115.902 769.338 116.925C769.338 117.949 769.167 119.553 768.997 121.806C768.922 123.517 768.552 125.203 767.903 126.788C767.252 128.04 766.522 129.248 765.716 130.406C764.887 131.663 763.696 132.638 762.299 133.205C760.608 133.787 758.826 134.065 757.037 134.024C755.421 133.931 753.83 133.585 752.321 133C751.042 132.526 749.959 131.637 749.246 130.474C748.582 129.452 747.977 128.392 747.435 127.3C746.861 125.994 746.525 124.595 746.444 123.171C746.273 121.362 746.137 119.997 746.069 119.075C746 118.154 746.069 116.652 746.069 114.468C746.069 112.284 746.069 111.055 746.069 110.475C746.069 100.464 745.886 91.4887 745.522 83.5483L744.258 83.1729C736.734 82.312 729.139 82.2548 721.603 83.0023C720.543 91.9097 719.553 101.807 718.733 112.659C718.733 115.082 718.425 117.983 718.186 121.362C717.958 126.413 717.172 128.939 715.828 128.939C715.467 128.95 715.114 128.829 714.837 128.597C714.533 128.362 714.307 128.041 714.188 127.676C714.065 127.321 713.973 126.955 713.915 126.584C713.875 126.164 713.875 125.741 713.915 125.321C713.876 124.901 713.876 124.478 713.915 124.058C713.915 123.683 713.915 123.307 714.086 122.898C714.111 122.557 714.111 122.215 714.086 121.874C715.042 106.585 716.124 93.6275 717.332 83.0023C716.079 82.5715 715.048 81.6637 714.462 80.4768C713.232 77.5759 714.633 75.0164 718.63 72.8663C720.163 61.6832 722.702 50.6607 726.216 39.9327C726.744 38.2095 727.383 36.5224 728.13 34.8818C728.868 33.2582 729.713 31.6849 730.658 30.1722C731.554 28.649 732.645 27.2492 733.904 26.0085C735.153 24.8769 736.602 23.986 738.175 23.3807C739.966 22.7199 741.874 22.4408 743.779 22.5616C746.719 22.6627 749.563 23.6371 751.946 25.3601C754.555 27.3488 756.662 29.9202 758.097 32.8683C759.826 36.1818 761.344 39.6015 762.641 43.1067C764.113 47.2996 765.145 51.6345 765.716 56.0411C766.434 61.0238 767.083 65.5628 767.596 69.6923C768.197 74.3464 768.561 79.028 768.689 83.719C768.894 89.0088 768.997 93.2065 769.065 96.278C769.133 99.3495 769.338 103.001 769.338 107.233ZM723.311 71.0575C730.2 69.1477 737.363 68.4092 744.497 68.8733C744.258 66.4843 743.985 64.266 743.677 62.2866C743.37 60.3072 743.062 58.4302 742.686 56.6555C742.31 54.8808 742.037 53.4815 741.798 52.3212C741.558 51.1608 741.217 49.9323 740.807 48.533C740.396 47.1338 740.055 46.2123 739.884 45.7345L738.893 43.0043C738.68 42.2506 738.37 41.5278 737.97 40.8542C737.679 39.8893 737.254 38.9701 736.706 38.1239C736.419 37.5873 735.979 37.1478 735.442 36.8612C735.059 36.7736 734.663 36.7736 734.28 36.8612C733.865 36.9164 733.48 37.1086 733.187 37.4073C732.895 37.6972 732.621 38.0049 732.367 38.3287C732.165 38.5882 731.982 38.862 731.819 39.1478C728.63 45.2226 725.794 55.8592 723.311 71.0575V71.0575ZM762.812 78.1219C763.29 78.1219 763.529 77.8148 763.529 77.2005C762.071 49.2156 756.274 32.5156 746.137 27.1007C746.041 27.0361 745.932 26.9934 745.818 26.9757C745.703 26.958 745.587 26.9657 745.476 26.9983C745.365 27.0309 745.262 27.0875 745.175 27.1642C745.089 27.2409 745.021 27.3357 744.975 27.4419C744.668 27.9197 744.804 28.3634 745.419 28.7047C754.827 33.8011 760.26 49.9664 761.718 77.2005C761.718 77.8148 762.128 78.1219 762.606 78.1219H762.812Z" fill="#EC3205"/>
<path d="M869.489 94.7425C869.87 94.8899 870.236 95.0728 870.583 95.2885C870.952 95.5692 871.236 95.9475 871.403 96.3807C871.584 96.9172 871.732 97.4643 871.846 98.0188C871.903 98.6774 871.903 99.3396 871.846 99.9982C871.884 100.657 871.884 101.318 871.846 101.978C871.846 102.592 871.847 103.309 871.676 104.162C871.505 105.015 871.676 105.664 871.676 106.141C871.676 106.619 871.676 107.165 871.505 107.779C871.495 108.159 871.402 108.532 871.232 108.872C870.786 112.623 869.832 116.297 868.396 119.793C866.998 123.173 864.792 126.161 861.972 128.495C859.094 130.962 855.502 132.445 851.721 132.727C848.422 133.164 845.067 132.837 841.915 131.772C838.762 130.707 835.898 128.932 833.542 126.584C828.597 121.342 825.069 114.93 823.291 107.95C821.857 102.475 820.953 96.875 820.592 91.2273C820.113 84.6607 820.113 78.068 820.592 71.5013C821.024 64.9844 821.984 58.5131 823.462 52.1508C824.778 46.4403 826.98 40.9706 829.988 35.94C832.402 31.7322 835.955 28.2898 840.239 26.0088C842.314 24.8778 844.609 24.2042 846.967 24.0335C849.324 23.8628 851.691 24.1988 853.907 25.0191C858.125 26.9327 861.57 30.2168 863.68 34.336C866.375 39.147 868.366 44.3187 869.591 49.6936C870.895 55.2925 871.617 61.0108 871.745 66.7576V67.3037C871.745 69.8291 871.095 71.0918 869.763 71.0918C869.478 71.0986 869.196 71.0371 868.94 70.9124C868.684 70.7876 868.463 70.6034 868.293 70.3752C867.939 69.8616 867.694 69.2807 867.575 68.6688C867.489 67.9775 867.489 67.2782 867.575 66.5869C867.575 65.8361 867.575 65.1195 867.575 64.4028V62.7646C867.377 55.0215 865.265 47.4478 861.425 40.7179C858.897 36.725 856.539 35.3257 854.352 36.5543C851.97 40.0555 850.138 43.8994 848.919 47.9531C845.325 57.9988 843.465 68.5809 843.418 79.2485C843.006 90.5667 844.758 101.86 848.577 112.523C849.256 114.29 850.348 115.87 851.763 117.129C853.177 118.387 854.874 119.289 856.709 119.758C857.529 120 858.393 120.059 859.238 119.929C864.193 119.588 867.097 114.503 867.951 104.742C867.951 104.503 867.951 103.411 867.678 101.5C867.479 99.9311 867.536 98.3404 867.849 96.7902C867.925 96.3377 868.116 95.9121 868.403 95.5538C868.69 95.1955 869.064 94.9162 869.489 94.7425V94.7425ZM826.914 76.1086C826.532 67.3962 827.795 58.6899 830.638 50.4444C832.595 44.2356 835.831 38.5045 840.138 33.6194C841.148 32.3387 842.407 31.2761 843.84 30.4959C845.273 29.7157 846.85 29.2341 848.475 29.0803C849.09 29.0803 849.363 28.7731 849.295 28.1929C849.227 27.6128 848.953 27.2715 848.475 27.2715C846.616 27.4238 844.808 27.9498 843.158 28.8177C841.508 29.6857 840.05 30.8779 838.873 32.3225C834.384 37.3972 830.998 43.3471 828.93 49.796C826.014 58.2498 824.716 67.1757 825.102 76.1086C825.086 76.2336 825.098 76.3608 825.138 76.4803C825.179 76.5998 825.246 76.7084 825.335 76.7976C825.424 76.8868 825.533 76.9542 825.653 76.9945C825.773 77.0349 825.9 77.0471 826.025 77.0302C826.148 77.0414 826.271 77.025 826.386 76.9821C826.502 76.9393 826.606 76.8711 826.691 76.7826C826.776 76.6941 826.841 76.5876 826.879 76.471C826.918 76.3543 826.929 76.2304 826.914 76.1086V76.1086Z" fill="#EC3205"/>
<path d="M911.86 29.7961C919.241 32.2078 924.936 37.9983 928.945 47.1673C933.158 57.1999 935.106 68.0364 934.651 78.9063C934.478 90.5781 932.017 102.103 927.407 112.83C925.535 117.874 922.704 122.51 919.069 126.481C916.424 129.501 912.92 131.644 909.024 132.624C905.6 133.35 902.038 133.065 898.773 131.805C895.005 130.253 891.741 127.69 889.342 124.399C886.194 120.276 883.746 115.664 882.098 110.748C879.598 103.264 878.015 95.5065 877.383 87.643C876.641 79.6826 876.859 71.662 878.032 63.7535C878.988 56.7655 880.909 49.9434 883.738 43.4814C885.96 38.0575 889.943 33.5376 895.048 30.6493C897.63 29.3269 900.465 28.567 903.363 28.4199C906.261 28.2729 909.157 28.7419 911.86 29.7961V29.7961ZM890.299 45.1878C890.796 42.872 891.872 40.7193 893.425 38.9294C894.978 37.1396 896.958 35.7705 899.182 34.9494C901.202 33.8733 903.466 33.3389 905.754 33.3987C908.042 33.4586 910.275 34.1105 912.235 35.2907C912.331 35.3553 912.441 35.398 912.555 35.4157C912.669 35.4334 912.786 35.4256 912.897 35.393C913.008 35.3604 913.11 35.3038 913.197 35.2271C913.283 35.1504 913.352 35.0556 913.398 34.9494C913.471 34.8515 913.523 34.7389 913.549 34.6192C913.576 34.4994 913.576 34.3754 913.55 34.2556C913.524 34.1358 913.473 34.0229 913.399 33.9247C913.326 33.8265 913.232 33.7454 913.124 33.6867C910.918 32.3733 908.411 31.6488 905.844 31.5831C903.276 31.5173 900.735 32.1124 898.465 33.3113C895.975 34.373 893.773 36.0107 892.041 38.0893C890.417 40.0877 889.25 42.4176 888.625 44.9149C888.592 45.1575 888.652 45.4034 888.791 45.6051C888.929 45.8067 889.138 45.9499 889.376 46.0069H889.547C889.753 45.9897 889.943 45.896 890.083 45.7442C890.222 45.5924 890.3 45.3937 890.299 45.1878V45.1878ZM910.595 119.723C912.782 121.054 915.242 120.474 918.01 117.983C921.546 114.313 924.159 109.856 925.631 104.98C928.063 98.1296 929.523 90.9731 929.969 83.7183C930.558 75.9345 930.017 68.1065 928.363 60.4772C927.165 53.4897 924.095 46.9564 919.48 41.5703C918.793 40.9671 917.977 40.53 917.094 40.2933C916.211 40.0565 915.285 40.0264 914.389 40.2052C912.261 40.2654 910.219 41.0616 908.613 42.4576C906.142 45.9894 904.442 50.001 903.625 54.2317C901.806 61.5177 900.775 68.9776 900.55 76.4832C900.168 85.6942 901.24 94.9077 903.727 103.786C904.547 106.345 905.743 109.451 907.144 113.205C907.919 115.556 909.086 117.76 910.595 119.723V119.723Z" fill="#EC3205"/>
<path d="M1025.06 55.3241C1029.46 56.9014 1033.11 60.051 1035.31 64.1632C1038.03 69.03 1039.75 74.3906 1040.37 79.9303C1041.15 85.6762 1041.51 91.4698 1041.46 97.2674C1041.46 102.83 1041.05 108.325 1040.47 113.751C1040.1 116.174 1039.76 118.12 1039.48 119.621C1039.1 121.505 1038.6 123.363 1037.98 125.184C1037.43 126.965 1036.53 128.623 1035.35 130.064C1034.19 131.305 1032.77 132.262 1031.18 132.863C1029.18 133.621 1027 133.752 1024.93 133.238C1022.58 132.673 1020.46 131.412 1018.84 129.621C1017.25 127.871 1016.27 125.658 1016.04 123.307C1015.86 120.661 1016.08 118.003 1016.69 115.423C1017.13 113.417 1017.46 111.389 1017.68 109.349C1018.72 100.229 1018.99 91.0402 1018.5 81.8756C1017.96 75.05 1017 70.9547 1015.7 69.3848C1015.29 68.9934 1014.83 68.6603 1014.33 68.395C1013.71 68.0667 1013.04 67.8147 1012.35 67.6443C1011.43 67.4147 1010.47 67.4464 1009.57 67.736C1008.67 68.0255 1007.87 68.5613 1007.26 69.2824C1006.25 70.3134 1005.37 71.4588 1004.63 72.6952C1004.81 82.7315 1004.28 92.768 1003.02 102.728C1002.99 103.21 1002.92 103.689 1002.82 104.161C1002.59 106.823 1002.35 108.905 1002.1 110.407C1001.73 112.431 1001.21 114.426 1000.56 116.379C999.997 118.375 999.108 120.266 997.933 121.976C996.655 123.554 994.958 124.741 993.036 125.399C991.114 126.057 989.045 126.16 987.067 125.696C984.674 125.193 982.477 124.007 980.745 122.283C979.274 120.717 978.351 118.718 978.114 116.584C977.828 113.576 977.828 110.548 978.114 107.54C978.353 103.752 978.764 99.827 979.31 95.7657C979.857 91.7045 980.267 86.4829 980.574 80.0327C980.882 73.5825 980.882 67.2347 980.574 60.9552V56.4162C980.574 53.8907 980.574 51.8771 980.574 50.3755C980.574 48.8739 980.233 46.9627 979.925 45.0515C979.798 43.3924 979.245 41.794 978.319 40.4102C977.981 39.9295 977.53 39.5384 977.006 39.2708C976.482 39.0032 975.9 38.8671 975.312 38.8744C972.168 38.8744 969.708 42.1165 967.897 48.5667C965.842 56.535 964.572 64.6848 964.104 72.9C964.473 83.8045 965.501 94.677 967.18 105.458C967.501 107.763 967.981 110.044 968.615 112.284C969.305 114.811 969.853 117.374 970.255 119.962C970.45 122.088 970.134 124.229 969.332 126.208C968.49 128.564 966.813 130.531 964.617 131.737C963.224 132.4 961.737 132.849 960.209 133.068C958.959 133.275 957.676 133.158 956.484 132.726C955.382 132.294 954.347 131.709 953.409 130.986C952.374 130.215 951.483 129.268 950.778 128.187C950.01 127.096 949.314 125.956 948.694 124.775C948.042 123.489 947.493 122.154 947.053 120.781C946.575 119.348 946.2 118.017 945.892 116.823C945.585 115.628 945.311 114.331 945.072 113C941.047 90.1403 939.831 66.875 941.45 43.7206C941.45 41.434 941.655 39.9665 941.724 39.2839C941.792 38.6013 941.928 37.2362 942.167 35.1203C942.284 33.5859 942.594 32.0724 943.09 30.6155C943.432 29.694 943.944 28.4995 944.628 26.9979C945.101 25.7221 945.946 24.6167 947.053 23.8239C948.128 23.153 949.274 22.6036 950.47 22.1859C952.014 21.6935 953.64 21.508 955.255 21.6398C957.934 21.9363 960.43 23.1408 962.328 25.0526C963.917 27.255 964.745 29.9147 964.686 32.629C964.686 36.0418 964.685 40.2054 964.48 45.3928C964.978 43.6687 965.595 41.9811 966.326 40.342C969.56 32.8793 974.116 28.4085 979.993 26.9296C986.827 25.2573 992.602 28.4995 997.078 36.7243C1001.31 45.0404 1003.71 54.1629 1004.12 63.4807C1009.27 54.9032 1016.25 52.1843 1025.06 55.3241ZM961.132 38.2601C961.61 32.4583 960.517 28.4313 957.715 26.1447C956.591 25.3593 955.281 24.8801 953.915 24.7544C952.549 24.6287 951.173 24.8609 949.924 25.4279C949.309 25.6668 949.104 26.0422 949.275 26.5883C949.306 26.7123 949.362 26.8286 949.44 26.9297C949.519 27.0308 949.617 27.1145 949.73 27.1755C949.842 27.2365 949.967 27.2734 950.094 27.2839C950.222 27.2945 950.349 27.2784 950.47 27.2367C951.434 26.7451 952.512 26.5176 953.592 26.5776C954.673 26.6375 955.718 26.9828 956.621 27.578C958.774 29.3868 959.628 32.902 959.15 38.0895C959.15 38.7038 959.15 38.9768 959.867 38.9768H960.072C960.2 39.0084 960.334 39.0101 960.463 38.9816C960.591 38.9532 960.711 38.8953 960.814 38.8127C960.916 38.7301 960.999 38.6249 961.054 38.5054C961.109 38.3858 961.136 38.2551 961.132 38.1236V38.2601ZM999.88 75.8009C1000.5 75.8009 1000.8 75.562 1000.8 75.0842C1000.82 70.0415 1000.51 65.0029 999.88 59.9996C999.334 55.4344 998.396 50.9244 997.078 46.5191C996.018 42.6965 994.206 39.1231 991.748 36.0076C989.796 33.4458 986.956 31.7051 983.786 31.1274C983.666 31.0849 983.54 31.0706 983.414 31.0857C983.288 31.1008 983.167 31.1447 983.061 31.2141C982.955 31.2836 982.867 31.3766 982.803 31.4859C982.739 31.5951 982.701 31.7177 982.693 31.844C982.642 31.9629 982.621 32.0925 982.633 32.2213C982.644 32.35 982.688 32.4739 982.759 32.5819C982.83 32.69 982.926 32.7788 983.04 32.8406C983.154 32.9024 983.281 32.9352 983.41 32.9361C988.228 33.6528 992.089 37.7823 994.925 45.3246C998.05 54.922 999.428 65.0013 998.992 75.0842C998.992 75.3231 999.3 75.5619 999.88 75.5619V75.8009Z" fill="#EC3205"/>
<path d="M1069.62 85.5273C1069.45 91.621 1069.66 97.7196 1070.27 103.786C1070.65 107.461 1071.38 111.094 1072.42 114.638C1073.07 116.408 1073.58 118.221 1073.96 120.065C1074.33 122.073 1074.12 124.146 1073.35 126.038C1072.58 127.931 1071.29 129.564 1069.62 130.747C1067.91 132.372 1065.64 133.279 1063.28 133.279C1060.92 133.279 1058.65 132.372 1056.94 130.747C1048.36 123.648 1045.04 104.719 1047 73.9579C1047.24 70.5451 1047.51 67.1323 1047.89 63.4465C1047.89 61.2964 1048.2 59.4876 1048.44 58.0201C1048.73 56.3531 1049.19 54.7187 1049.8 53.1399C1050.32 51.5668 1051.12 50.0991 1052.16 48.8056C1053.15 47.6346 1054.42 46.731 1055.85 46.1777C1057.64 45.4909 1059.58 45.2678 1061.49 45.5293C1064.21 45.833 1066.76 47.0336 1068.73 48.9421C1070.49 50.9548 1071.5 53.5086 1071.6 56.1772C1071.88 59.0945 1071.88 62.0309 1071.6 64.9481C1071.36 67.7807 1070.99 71.2959 1070.44 75.4595C1069.96 78.7951 1069.68 82.1576 1069.62 85.5273V85.5273ZM1069.28 14.0633C1071 14.6569 1072.57 15.5962 1073.91 16.8231C1075.25 18.0499 1076.33 19.5382 1077.07 21.196C1078.59 24.3903 1078.91 28.0262 1077.96 31.4344C1077.47 33.6201 1076.43 35.6457 1074.94 37.3225C1073.45 38.9993 1071.56 40.2728 1069.45 41.0244C1067.53 41.8214 1065.43 42.1082 1063.37 41.8571C1061.3 41.6059 1059.34 40.8253 1057.66 39.5911C1056.27 38.6317 1055.09 37.4084 1054.17 35.9913C1053.26 34.5742 1052.63 32.9909 1052.33 31.332C1051.63 28.1201 1051.94 24.7718 1053.22 21.7421C1054.51 18.8173 1056.75 16.4125 1059.57 14.9165C1061.04 14.1001 1062.66 13.6021 1064.34 13.4551C1066.01 13.308 1067.69 13.5153 1069.28 14.0633V14.0633ZM1067.64 68.8728C1068.98 60.3181 1068.2 54.4139 1065.28 51.1604C1064.53 50.3311 1063.6 49.6757 1062.57 49.2395C1061.54 48.8034 1060.42 48.5971 1059.3 48.635C1058.69 48.635 1058.41 48.9079 1058.41 49.5222C1058.41 50.1365 1058.69 50.5461 1059.3 50.4437C1060.18 50.4142 1061.06 50.5758 1061.88 50.9175C1062.69 51.2592 1063.42 51.7728 1064.02 52.4231C1066.55 55.1761 1067.15 60.6025 1065.83 68.7022C1065.83 69.18 1065.83 69.4871 1066.55 69.5895C1066.66 69.6194 1066.79 69.6244 1066.91 69.604C1067.03 69.5835 1067.15 69.5382 1067.25 69.4709C1067.35 69.4035 1067.44 69.3156 1067.51 69.2127C1067.57 69.1097 1067.62 68.994 1067.64 68.8728ZM1074.88 30.1717C1075.66 28.4416 1075.85 26.5052 1075.43 24.6571C1075 22.8089 1073.98 21.1503 1072.53 19.9333C1071.57 18.6462 1070.24 17.6798 1068.72 17.1618C1067.2 16.6438 1065.56 16.5986 1064.02 17.0324C1063.89 17.0592 1063.77 17.1148 1063.68 17.1947C1063.58 17.2746 1063.5 17.3766 1063.44 17.4927C1063.39 17.6087 1063.37 17.7354 1063.37 17.8629C1063.37 17.9904 1063.41 18.1151 1063.47 18.2269C1063.71 18.773 1064.09 18.9095 1064.56 18.6706C1065.82 18.3408 1067.16 18.4062 1068.38 18.858C1069.6 19.3097 1070.66 20.126 1071.4 21.196C1072.54 22.1749 1073.35 23.49 1073.71 24.9543C1074.06 26.4186 1073.95 27.9576 1073.38 29.3527C1073.31 29.4683 1073.27 29.5982 1073.26 29.7319C1073.26 29.8656 1073.28 29.9994 1073.33 30.1223C1073.39 30.2453 1073.47 30.3539 1073.57 30.4396C1073.67 30.5252 1073.8 30.5855 1073.93 30.6154H1074.3C1074.43 30.5969 1074.55 30.5465 1074.65 30.4688C1074.75 30.3912 1074.83 30.2889 1074.88 30.1717V30.1717Z" fill="#EC3205"/>
<path d="M1154.4 53.6853C1155.68 67.2757 1154.44 80.9863 1150.74 94.127C1148.17 104.717 1142.6 114.347 1134.71 121.873C1131.75 124.784 1128.05 126.83 1124.01 127.786C1119.97 128.743 1115.74 128.575 1111.79 127.299C1110.8 129.149 1109.29 130.668 1107.45 131.668C1105.87 132.446 1104.15 132.899 1102.39 132.999C1100.98 133.097 1099.58 132.851 1098.29 132.282C1097.05 131.668 1095.94 130.809 1095.04 129.757C1094.04 128.645 1093.16 127.432 1092.41 126.139C1091.63 124.752 1090.97 123.302 1090.43 121.805C1089.82 120.167 1089.34 118.665 1088.96 117.266C1088.58 115.866 1088.24 114.399 1087.9 112.829C1083.86 89.971 1082.64 66.7036 1084.28 43.5493C1084.28 43.2453 1084.34 42.944 1084.45 42.662C1084.45 40.1024 1084.69 38.123 1084.79 36.6896C1085.01 34.7697 1085.35 32.8659 1085.82 30.9902C1086.18 29.0819 1086.91 27.2622 1087.97 25.6321C1089.05 24.3034 1090.42 23.2312 1091.97 22.4924C1093.9 21.5382 1096.08 21.1817 1098.22 21.4685C1100.14 21.8627 1102 22.5415 1103.72 23.4821C1104.45 23.8743 1105.06 24.4661 1105.46 25.1885C1105.94 25.9735 1106.32 26.656 1106.63 27.2703C1107.01 28.1602 1107.25 29.1044 1107.34 30.0688C1107.55 31.3315 1107.65 32.4236 1107.72 33.4816C1107.79 34.8003 1107.79 36.1218 1107.72 37.4404C1107.72 39.2151 1107.72 40.6826 1107.72 41.877C1107.72 43.0715 1107.72 44.8803 1107.72 47.201C1107.72 49.5217 1107.48 51.5353 1107.34 53.1052C1109.87 44.8008 1114.06 37.1002 1119.68 30.4783C1122.65 26.9921 1126.7 24.5913 1131.19 23.6527C1133.42 23.2533 1135.7 23.3201 1137.89 23.8489C1140.08 24.3777 1142.14 25.3569 1143.94 26.7242C1149.84 31.5476 1153.33 40.5346 1154.4 53.6853ZM1102.9 30.0005C1103.01 29.9364 1103.1 29.8495 1103.17 29.7457C1103.24 29.6419 1103.29 29.524 1103.31 29.4001C1103.33 29.2763 1103.32 29.1497 1103.29 29.0294C1103.25 28.909 1103.19 28.7978 1103.11 28.7037C1102.34 27.6345 1101.29 26.8 1100.08 26.2942C1098.86 25.7883 1097.53 25.6313 1096.23 25.8405C1094.93 26.0497 1093.71 26.617 1092.72 27.4786C1091.73 28.3401 1090.99 29.4618 1090.6 30.7172C1090.36 31.2974 1090.6 31.6728 1090.94 31.8093C1091.04 31.9078 1091.18 31.968 1091.32 31.9799C1091.53 31.9993 1091.74 31.9352 1091.91 31.8014C1092.07 31.6676 1092.18 31.4746 1092.21 31.2633C1092.49 30.2617 1093.08 29.3742 1093.9 28.7254C1094.71 28.0765 1095.71 27.699 1096.75 27.6457C1097.69 27.4964 1098.64 27.6198 1099.51 28.0012C1100.38 28.3826 1101.12 29.0056 1101.64 29.7957C1101.7 29.9027 1101.78 29.9948 1101.88 30.065C1101.98 30.1353 1102.1 30.1819 1102.22 30.2016C1102.34 30.2212 1102.47 30.2134 1102.58 30.1786C1102.7 30.1438 1102.81 30.0829 1102.9 30.0005V30.0005ZM1114.14 114.467C1118.38 112.192 1122.46 105.56 1126.38 94.5706C1130.35 83.1861 1132.16 71.1599 1131.71 59.1117C1131.71 56.5863 1131.09 50.9551 1130.27 42.2866C1130.2 41.2323 1129.82 40.2227 1129.17 39.3847C1128.53 38.5467 1127.65 37.9177 1126.65 37.5769C1125.69 37.1426 1124.61 37.0145 1123.57 37.2099C1122.53 37.4052 1121.58 37.9145 1120.84 38.669C1114.69 44.4708 1110.13 55.2666 1107.17 71.0565C1107.44 82.5673 1108.47 94.0479 1110.25 105.423C1110.25 106.277 1110.56 107.232 1110.8 108.324C1111.03 109.416 1111.31 110.611 1111.62 111.942C1111.92 113.273 1112.2 114.297 1112.44 115.013C1112.98 114.893 1113.51 114.71 1114.01 114.467H1114.14ZM1148.55 78.2916C1150.22 66.8089 1150 55.1323 1147.9 43.72C1145.92 35.188 1142.27 30.0687 1136.97 28.533C1136.35 28.2941 1135.98 28.533 1135.77 28.9767C1135.73 29.0972 1135.7 29.2267 1135.71 29.356C1135.72 29.4853 1135.76 29.6113 1135.82 29.7251C1135.88 29.8389 1135.97 29.9378 1136.07 30.0148C1136.18 30.0919 1136.3 30.1453 1136.42 30.1712C1141.23 31.6045 1144.54 36.519 1146.37 44.9145C1148.24 55.8948 1148.36 67.1011 1146.74 78.1209C1146.73 78.251 1146.75 78.3816 1146.79 78.5052C1146.83 78.6289 1146.9 78.7431 1146.98 78.8414C1147.07 78.9398 1147.17 79.0202 1147.29 79.0781C1147.41 79.136 1147.53 79.1702 1147.66 79.1789C1147.77 79.1751 1147.88 79.1485 1147.98 79.1007C1148.08 79.0529 1148.17 78.9851 1148.24 78.9015C1148.31 78.818 1148.36 78.7205 1148.39 78.6154C1148.42 78.5104 1148.43 78.4002 1148.42 78.2916H1148.55Z" fill="#EC3205"/>
<path d="M1214.7 107.233C1214.7 107.711 1214.7 109.178 1214.7 111.67C1214.7 114.161 1214.7 115.902 1214.7 116.925C1214.7 117.949 1214.5 119.553 1214.33 121.806C1214.27 123.519 1213.9 125.208 1213.24 126.788C1212.59 128.033 1211.87 129.241 1211.08 130.406C1210.25 131.66 1209.06 132.635 1207.67 133.205C1205.99 133.791 1204.22 134.068 1202.44 134.024C1200.82 133.931 1199.23 133.585 1197.72 133C1196.44 132.526 1195.36 131.637 1194.65 130.474C1193.97 129.46 1193.37 128.399 1192.84 127.3C1192.26 125.994 1191.93 124.595 1191.85 123.171C1191.64 121.362 1191.54 119.997 1191.47 119.075C1191.4 118.154 1191.47 116.652 1191.47 114.468C1191.47 112.284 1191.47 111.055 1191.47 110.475C1191.47 100.464 1191.29 91.4887 1190.92 83.5483C1190.49 83.4467 1190.07 83.3214 1189.66 83.1729C1182.13 82.312 1174.54 82.2548 1167 83.0023C1165.91 91.9211 1164.94 101.807 1164.1 112.659C1164.1 115.083 1163.79 117.983 1163.55 121.362C1163.3 126.413 1162.52 128.939 1161.2 128.939C1160.84 128.941 1160.49 128.821 1160.2 128.597C1159.91 128.36 1159.7 128.039 1159.59 127.676C1159.45 127.325 1159.36 126.958 1159.32 126.584C1159.28 126.164 1159.28 125.741 1159.32 125.321C1159.28 124.901 1159.28 124.478 1159.32 124.058C1159.32 123.683 1159.32 123.307 1159.32 122.898C1159.34 122.557 1159.34 122.215 1159.32 121.874C1160.27 106.585 1161.35 93.6275 1162.56 83.0023C1161.3 82.576 1160.25 81.6682 1159.66 80.4768C1158.46 77.5759 1159.83 75.0164 1163.83 72.8663C1165.35 61.6788 1167.9 50.6546 1171.45 39.9327C1171.96 38.2105 1172.59 36.5235 1173.33 34.8818C1174.09 33.2649 1174.95 31.6924 1175.89 30.1722C1176.77 28.6415 1177.87 27.2404 1179.13 26.0085C1180.38 24.8698 1181.83 23.978 1183.41 23.3807C1185.2 22.7199 1187.1 22.4408 1189.01 22.5616C1191.94 22.6612 1194.77 23.636 1197.14 25.3601C1199.75 27.3566 1201.87 29.9254 1203.33 32.8683C1205.03 36.1892 1206.54 39.6079 1207.84 43.1067C1209.31 47.2996 1210.34 51.6345 1210.91 56.0411C1211.66 61.0238 1212.28 65.5628 1212.83 69.6923C1213.43 74.3464 1213.79 79.028 1213.92 83.719C1213.92 89.0088 1214.23 93.2065 1214.26 96.278C1214.3 99.3496 1214.7 103.001 1214.7 107.233ZM1168.71 71.0575C1175.6 69.1457 1182.76 68.4073 1189.9 68.8733C1189.66 66.4843 1189.39 64.266 1189.08 62.2866C1188.77 60.3072 1188.43 58.4302 1188.09 56.6555C1187.74 54.8809 1187.4 53.4815 1187.16 52.3212C1186.92 51.1608 1186.62 49.9323 1186.17 48.533C1185.73 47.1338 1185.46 46.2123 1185.29 45.7345C1185.11 45.2567 1184.77 44.3353 1184.29 43.0043C1184.05 42.2633 1183.74 41.5442 1183.37 40.8542C1183.07 39.8948 1182.64 38.9775 1182.11 38.1239C1181.81 37.5984 1181.37 37.1626 1180.84 36.8612C1180.45 36.7742 1180.04 36.7742 1179.65 36.8612C1179.24 36.916 1178.87 37.1089 1178.59 37.4073C1178.3 37.6972 1178.02 38.0049 1177.77 38.3287C1177.55 38.5796 1177.37 38.8545 1177.22 39.1478C1173.94 45.2226 1171.1 55.8592 1168.71 71.0575V71.0575ZM1208.18 78.1219C1208.66 78.1219 1208.9 77.8148 1208.9 77.2005C1207.46 49.2156 1201.67 32.5156 1191.54 27.1007C1191.44 27.0358 1191.33 26.9929 1191.21 26.9751C1191.09 26.9572 1190.97 26.9646 1190.86 26.997C1190.75 27.0294 1190.64 27.086 1190.55 27.1627C1190.46 27.2395 1190.39 27.3347 1190.34 27.4419C1190.03 27.9197 1190.34 28.3634 1190.79 28.7047C1200.22 33.8011 1205.65 49.9664 1207.09 77.2005C1207.22 77.8148 1207.53 78.1219 1208.01 78.1219H1208.18Z" fill="#EC3205"/>
<path d="M1246.96 45.0192C1246.21 51.2646 1245.76 57.6124 1245.59 63.9944C1245.42 70.3763 1245.42 75.8367 1245.59 80.2734C1245.76 84.71 1245.94 89.1125 1246.14 93.4127C1246.35 97.7128 1246.38 101.16 1246.14 103.89C1246.11 106.397 1245.75 108.888 1245.05 111.296C1244.52 113.302 1243.31 115.064 1241.63 116.278C1239.75 117.5 1237.61 118.25 1235.38 118.463C1233.37 118.515 1231.37 118.082 1229.57 117.2C1228.15 116.479 1226.92 115.453 1225.95 114.197C1224.98 112.748 1224.31 111.125 1223.96 109.419C1223.55 107.744 1223.25 106.046 1223.04 104.334C1223.04 103.003 1222.8 101.16 1222.7 98.7366C1221.61 71.2295 1222.03 51.8903 1223.96 40.7191C1226.88 23.2228 1233.1 16.3972 1242.62 20.2423C1244.42 20.9778 1246.01 22.151 1247.23 23.6551C1248.27 25.0744 1248.84 26.7787 1248.87 28.5354C1248.94 30.2323 1248.89 31.932 1248.7 33.6205C1248.5 35.1221 1248.19 37.0332 1247.68 39.388C1247.17 41.7429 1247.2 43.7906 1246.96 45.0192ZM1239.17 120.101C1243.99 120.101 1246.58 122.046 1246.96 125.902C1247.17 127.747 1246.87 129.613 1246.1 131.303C1245.33 132.992 1244.12 134.44 1242.59 135.492C1240.87 136.791 1238.76 137.487 1236.61 137.472C1235.79 137.58 1234.96 137.511 1234.17 137.269C1233.38 137.027 1232.66 136.619 1232.04 136.072C1231.42 135.525 1230.93 134.851 1230.6 134.098C1230.27 133.344 1230.1 132.528 1230.12 131.704C1229.8 129.865 1230 127.974 1230.7 126.244C1231.4 124.513 1232.57 123.012 1234.08 121.91C1235.52 120.744 1237.31 120.095 1239.17 120.067V120.101Z" fill="#EC3205"/>
<path d="M1373.59 16.4864C1356.51 14.0292 1342.26 39.4887 1342.26 39.4887C1342.26 39.4887 1328.15 14.0292 1310.96 16.4864C1293.77 18.9436 1278.4 32.7314 1279.63 52.3891C1280.86 72.0468 1294.97 79.3843 1304.81 88.906C1315.31 99.0969 1324.78 110.3 1333.07 122.351L1342.16 137.982C1342.16 137.982 1347.18 129.723 1351.49 122.351C1359.78 110.3 1369.24 99.0969 1379.74 88.906C1389.59 79.3843 1403.66 72.0127 1404.93 52.3891C1406.19 32.7655 1390.82 18.9095 1373.59 16.4864ZM1313.87 24.3017C1299.55 26.3494 1285.64 37.5434 1286.77 55.0169C1286.77 55.156 1286.72 55.29 1286.62 55.3915C1286.53 55.4929 1286.39 55.5543 1286.26 55.563V55.563C1286.13 55.5633 1286 55.514 1285.91 55.4253C1285.81 55.3366 1285.75 55.2149 1285.74 55.0851C1284.62 36.9632 1298.97 25.3598 1313.76 23.2779C1313.9 23.2672 1314.03 23.3065 1314.14 23.3885C1314.25 23.4704 1314.32 23.589 1314.34 23.7215C1314.35 23.861 1314.31 23.9989 1314.22 24.1069C1314.13 24.2148 1314 24.2846 1313.87 24.3017V24.3017ZM1371 92.5577C1362.77 100.225 1355.31 108.672 1348.72 117.778C1348.68 117.858 1348.61 117.924 1348.53 117.967C1348.45 118.01 1348.36 118.027 1348.27 118.017H1348C1347.89 117.941 1347.81 117.825 1347.78 117.692C1347.74 117.559 1347.76 117.42 1347.83 117.3C1354.47 108.106 1361.99 99.579 1370.28 91.841C1370.38 91.7521 1370.52 91.7031 1370.66 91.7031C1370.79 91.7031 1370.93 91.7521 1371.03 91.841C1371.12 91.9468 1371.17 92.0835 1371.16 92.2232C1371.16 92.3629 1371.1 92.4949 1371 92.5919V92.5577Z" fill="#EC3205"/>
</svg>
