<svg width="27" height="32" viewBox="0 0 27 32" fill="none" xmlns="http://www.w3.org/2000/svg">
<path d="M18.8633 27.1257C18.8633 27.1257 24.9339 19.3273 19.6529 11.2027C14.3718 3.07803 4.78052 5.45999 4.78052 5.45999M17.8532 29.7084C18.0879 30.0695 18.8274 30.6162 19.9075 29.9141C21.2577 29.0365 20.5535 27.9532 21.0936 27.6021C21.6337 27.2511 22.4318 27.888 23.2419 27.3615C24.052 26.8349 22.8198 24.9391 23.8999 24.2371C24.98 23.535 25.7901 23.0084 25.356 21.7496C24.9219 20.4908 24.8399 19.7736 25.2039 19.1518C25.568 18.5299 26.202 17.7325 25.6739 16.92C25.1458 16.1076 23.9016 15.3753 24.4536 13.8608C25.0057 12.3462 24.6536 11.8046 24.4776 11.5338C24.3015 11.2629 22.9633 10.9771 22.0832 9.62295C21.203 8.26885 22.0131 7.74228 21.1329 6.38817C20.2527 5.03407 18.9026 5.91168 18.1044 5.27474C17.3063 4.6378 17.5063 2.58161 15.898 2.47124C14.2898 2.36087 14.8179 3.17333 13.7497 2.71191C12.6816 2.25049 12.6935 1.08699 11.0853 0.976615C9.47704 0.866243 9.91115 2.12505 9.01901 1.93445C8.12687 1.74386 7.42274 0.660584 6.61264 1.18715C5.80254 1.71372 5.79058 2.87723 5.25051 3.22827C4.71045 3.57932 3.46624 2.84708 2.38611 3.54917C1.522 4.11085 1.7754 4.97345 2.01011 5.33455L17.8532 29.7084Z" stroke="black" stroke-width="1.6409" stroke-linecap="round"/>
</svg>
