<svg width="322" height="310" viewBox="0 0 322 310" fill="none" xmlns="http://www.w3.org/2000/svg">
<rect width="322" height="310" fill="#FFF485"/>
<path d="M104.402 259.672L103.418 264.699H108.164V267.635H102.855L101.432 275H98.3027L99.7441 267.635H95.3496L93.9609 275H90.9023L92.2559 267.635H87.8613V264.699H92.8184L93.8203 259.672H89.1621V256.736H94.3477L95.7539 249.318H98.8828L97.4766 256.736H101.906L103.33 249.318H106.371L104.965 256.736H109.395V259.672H104.402ZM95.9121 264.699H100.307L101.309 259.672H96.8965L95.9121 264.699ZM117.832 275H113.648V249.301H128.168V252.852H117.832V260.867H127.5V264.4H117.832V275ZM137.027 275H132.844V249.301H147.363V252.852H137.027V260.867H146.695V264.4H137.027V275ZM156.223 275H152.039V249.301H166.559V252.852H156.223V260.867H165.891V264.4H156.223V275ZM187.811 269.357H184.33V275H180.252V269.357H168.562V266.229L180.305 249.23H184.33V265.93H187.811V269.357ZM180.252 265.93V259.549C180.252 259.021 180.258 258.488 180.27 257.949C180.293 257.398 180.316 256.871 180.34 256.367C180.363 255.863 180.387 255.4 180.41 254.979C180.434 254.545 180.451 254.188 180.463 253.906H180.322C180.1 254.375 179.854 254.855 179.584 255.348C179.314 255.828 179.027 256.297 178.723 256.754L172.395 265.93H180.252ZM198.744 248.949C200.232 248.949 201.574 249.184 202.77 249.652C203.965 250.109 204.914 250.795 205.617 251.709C206.32 252.623 206.672 253.754 206.672 255.102C206.672 256.145 206.455 257.053 206.021 257.826C205.6 258.6 205.025 259.279 204.299 259.865C203.572 260.439 202.758 260.949 201.855 261.395C202.863 261.887 203.789 262.455 204.633 263.1C205.488 263.732 206.174 264.477 206.689 265.332C207.217 266.188 207.48 267.189 207.48 268.338C207.48 269.779 207.111 271.027 206.373 272.082C205.646 273.125 204.633 273.934 203.332 274.508C202.031 275.07 200.514 275.352 198.779 275.352C196.916 275.352 195.328 275.076 194.016 274.525C192.703 273.975 191.707 273.189 191.027 272.17C190.348 271.139 190.008 269.908 190.008 268.479C190.008 267.295 190.242 266.27 190.711 265.402C191.18 264.535 191.807 263.785 192.592 263.152C193.389 262.52 194.262 261.986 195.211 261.553C194.402 261.072 193.664 260.533 192.996 259.936C192.328 259.326 191.795 258.629 191.396 257.844C191.01 257.047 190.816 256.127 190.816 255.084C190.816 253.748 191.174 252.629 191.889 251.727C192.604 250.812 193.559 250.121 194.754 249.652C195.961 249.184 197.291 248.949 198.744 248.949ZM193.945 268.32C193.945 269.445 194.344 270.371 195.141 271.098C195.938 271.824 197.127 272.188 198.709 272.188C200.279 272.188 201.475 271.83 202.295 271.115C203.115 270.4 203.525 269.457 203.525 268.285C203.525 267.535 203.314 266.873 202.893 266.299C202.482 265.725 201.926 265.215 201.223 264.77C200.531 264.312 199.764 263.891 198.92 263.504L198.357 263.275C197.443 263.662 196.658 264.102 196.002 264.594C195.346 265.074 194.836 265.619 194.473 266.229C194.121 266.838 193.945 267.535 193.945 268.32ZM198.709 252.131C197.572 252.131 196.635 252.412 195.896 252.975C195.17 253.525 194.807 254.322 194.807 255.365C194.807 256.104 194.982 256.736 195.334 257.264C195.697 257.791 196.184 258.248 196.793 258.635C197.402 259.01 198.076 259.361 198.814 259.689C199.529 259.373 200.174 259.027 200.748 258.652C201.334 258.266 201.797 257.809 202.137 257.281C202.488 256.742 202.664 256.098 202.664 255.348C202.664 254.316 202.295 253.525 201.557 252.975C200.83 252.412 199.881 252.131 198.709 252.131ZM219.416 258.934C221.068 258.934 222.521 259.232 223.775 259.83C225.041 260.416 226.025 261.283 226.729 262.432C227.432 263.568 227.783 264.963 227.783 266.615C227.783 268.42 227.402 269.979 226.641 271.291C225.879 272.592 224.76 273.594 223.283 274.297C221.807 275 220.008 275.352 217.887 275.352C216.539 275.352 215.279 275.234 214.107 275C212.947 274.766 211.945 274.414 211.102 273.945V270.219C211.98 270.711 213.035 271.115 214.266 271.432C215.496 271.736 216.674 271.889 217.799 271.889C218.994 271.889 220.02 271.713 220.875 271.361C221.73 271.01 222.387 270.471 222.844 269.744C223.312 269.018 223.547 268.098 223.547 266.984C223.547 265.508 223.072 264.371 222.123 263.574C221.186 262.766 219.715 262.361 217.711 262.361C217.008 262.361 216.258 262.426 215.461 262.555C214.676 262.672 214.02 262.801 213.492 262.941L211.682 261.869L212.648 249.301H226.008V252.939H216.287L215.725 259.338C216.146 259.244 216.65 259.156 217.236 259.074C217.822 258.98 218.549 258.934 219.416 258.934Z" fill="white"/>
<path d="M104.402 259.672L103.418 264.699H108.164V267.635H102.855L101.432 275H98.3027L99.7441 267.635H95.3496L93.9609 275H90.9023L92.2559 267.635H87.8613V264.699H92.8184L93.8203 259.672H89.1621V256.736H94.3477L95.7539 249.318H98.8828L97.4766 256.736H101.906L103.33 249.318H106.371L104.965 256.736H109.395V259.672H104.402ZM95.9121 264.699H100.307L101.309 259.672H96.8965L95.9121 264.699ZM117.832 275H113.648V249.301H128.168V252.852H117.832V260.867H127.5V264.4H117.832V275ZM137.027 275H132.844V249.301H147.363V252.852H137.027V260.867H146.695V264.4H137.027V275ZM156.223 275H152.039V249.301H166.559V252.852H156.223V260.867H165.891V264.4H156.223V275ZM187.811 269.357H184.33V275H180.252V269.357H168.562V266.229L180.305 249.23H184.33V265.93H187.811V269.357ZM180.252 265.93V259.549C180.252 259.021 180.258 258.488 180.27 257.949C180.293 257.398 180.316 256.871 180.34 256.367C180.363 255.863 180.387 255.4 180.41 254.979C180.434 254.545 180.451 254.188 180.463 253.906H180.322C180.1 254.375 179.854 254.855 179.584 255.348C179.314 255.828 179.027 256.297 178.723 256.754L172.395 265.93H180.252ZM198.744 248.949C200.232 248.949 201.574 249.184 202.77 249.652C203.965 250.109 204.914 250.795 205.617 251.709C206.32 252.623 206.672 253.754 206.672 255.102C206.672 256.145 206.455 257.053 206.021 257.826C205.6 258.6 205.025 259.279 204.299 259.865C203.572 260.439 202.758 260.949 201.855 261.395C202.863 261.887 203.789 262.455 204.633 263.1C205.488 263.732 206.174 264.477 206.689 265.332C207.217 266.188 207.48 267.189 207.48 268.338C207.48 269.779 207.111 271.027 206.373 272.082C205.646 273.125 204.633 273.934 203.332 274.508C202.031 275.07 200.514 275.352 198.779 275.352C196.916 275.352 195.328 275.076 194.016 274.525C192.703 273.975 191.707 273.189 191.027 272.17C190.348 271.139 190.008 269.908 190.008 268.479C190.008 267.295 190.242 266.27 190.711 265.402C191.18 264.535 191.807 263.785 192.592 263.152C193.389 262.52 194.262 261.986 195.211 261.553C194.402 261.072 193.664 260.533 192.996 259.936C192.328 259.326 191.795 258.629 191.396 257.844C191.01 257.047 190.816 256.127 190.816 255.084C190.816 253.748 191.174 252.629 191.889 251.727C192.604 250.812 193.559 250.121 194.754 249.652C195.961 249.184 197.291 248.949 198.744 248.949ZM193.945 268.32C193.945 269.445 194.344 270.371 195.141 271.098C195.938 271.824 197.127 272.188 198.709 272.188C200.279 272.188 201.475 271.83 202.295 271.115C203.115 270.4 203.525 269.457 203.525 268.285C203.525 267.535 203.314 266.873 202.893 266.299C202.482 265.725 201.926 265.215 201.223 264.77C200.531 264.312 199.764 263.891 198.92 263.504L198.357 263.275C197.443 263.662 196.658 264.102 196.002 264.594C195.346 265.074 194.836 265.619 194.473 266.229C194.121 266.838 193.945 267.535 193.945 268.32ZM198.709 252.131C197.572 252.131 196.635 252.412 195.896 252.975C195.17 253.525 194.807 254.322 194.807 255.365C194.807 256.104 194.982 256.736 195.334 257.264C195.697 257.791 196.184 258.248 196.793 258.635C197.402 259.01 198.076 259.361 198.814 259.689C199.529 259.373 200.174 259.027 200.748 258.652C201.334 258.266 201.797 257.809 202.137 257.281C202.488 256.742 202.664 256.098 202.664 255.348C202.664 254.316 202.295 253.525 201.557 252.975C200.83 252.412 199.881 252.131 198.709 252.131ZM219.416 258.934C221.068 258.934 222.521 259.232 223.775 259.83C225.041 260.416 226.025 261.283 226.729 262.432C227.432 263.568 227.783 264.963 227.783 266.615C227.783 268.42 227.402 269.979 226.641 271.291C225.879 272.592 224.76 273.594 223.283 274.297C221.807 275 220.008 275.352 217.887 275.352C216.539 275.352 215.279 275.234 214.107 275C212.947 274.766 211.945 274.414 211.102 273.945V270.219C211.98 270.711 213.035 271.115 214.266 271.432C215.496 271.736 216.674 271.889 217.799 271.889C218.994 271.889 220.02 271.713 220.875 271.361C221.73 271.01 222.387 270.471 222.844 269.744C223.312 269.018 223.547 268.098 223.547 266.984C223.547 265.508 223.072 264.371 222.123 263.574C221.186 262.766 219.715 262.361 217.711 262.361C217.008 262.361 216.258 262.426 215.461 262.555C214.676 262.672 214.02 262.801 213.492 262.941L211.682 261.869L212.648 249.301H226.008V252.939H216.287L215.725 259.338C216.146 259.244 216.65 259.156 217.236 259.074C217.822 258.98 218.549 258.934 219.416 258.934Z" fill="white"/>
</svg>
