<svg width="322" height="310" viewBox="0 0 322 310" fill="none" xmlns="http://www.w3.org/2000/svg">
<rect width="322" height="310" fill="#F1F1F1"/>
<path d="M103.385 268.707L102.418 273.699H107.164V276.652H101.838L100.432 284H97.3027L98.709 276.652H94.3496L92.9434 284H89.8848L91.2207 276.652H86.8262V273.699H91.8008L92.8027 268.707H88.1621V265.754H93.3125L94.7188 258.336H97.8828L96.4766 265.754H100.906L102.312 258.336H105.371L103.965 265.754H108.395V268.707H103.385ZM94.8945 273.699H99.2891L100.291 268.707H95.8965L94.8945 273.699ZM116.832 284H112.666V258.301H127.168V261.852H116.832V269.885H126.518V273.453H116.832V284ZM142.145 284H138.014V267.406C138.014 265.426 138.061 263.855 138.154 262.695C137.885 262.977 137.551 263.287 137.152 263.627C136.766 263.967 135.453 265.045 133.215 266.861L131.141 264.242L138.699 258.301H142.145V284ZM156.559 284H152.393V258.301H166.895V261.852H156.559V269.885H166.244V273.453H156.559V284ZM181.871 284H177.74V267.406C177.74 265.426 177.787 263.855 177.881 262.695C177.611 262.977 177.277 263.287 176.879 263.627C176.492 263.967 175.18 265.045 172.941 266.861L170.867 264.242L178.426 258.301H181.871V284ZM196.285 284H192.119V258.301H206.621V261.852H196.285V269.885H205.971V273.453H196.285V284ZM221.598 284H217.467V267.406C217.467 265.426 217.514 263.855 217.607 262.695C217.338 262.977 217.004 263.287 216.605 263.627C216.219 263.967 214.906 265.045 212.668 266.861L210.594 264.242L218.152 258.301H221.598V284Z" fill="black"/>
</svg>
