<svg width="323" height="310" viewBox="0 0 323 310" fill="none" xmlns="http://www.w3.org/2000/svg">
<rect width="323" height="310" fill="#C4C4C4"/>
<path d="M118.402 265.672L117.418 270.699H122.164V273.635H116.855L115.432 281H112.303L113.744 273.635H109.35L107.961 281H104.902L106.256 273.635H101.861V270.699H106.818L107.82 265.672H103.162V262.736H108.348L109.754 255.318H112.883L111.477 262.736H115.906L117.33 255.318H120.371L118.965 262.736H123.395V265.672H118.402ZM109.912 270.699H114.307L115.309 265.672H110.896L109.912 270.699ZM138.6 258.518C137.369 258.518 136.268 258.74 135.295 259.186C134.334 259.631 133.52 260.275 132.852 261.119C132.184 261.951 131.674 262.965 131.322 264.16C130.971 265.344 130.795 266.68 130.795 268.168C130.795 270.16 131.076 271.877 131.639 273.318C132.201 274.748 133.057 275.85 134.205 276.623C135.354 277.385 136.807 277.766 138.564 277.766C139.654 277.766 140.715 277.66 141.746 277.449C142.777 277.238 143.844 276.951 144.945 276.588V280.174C143.902 280.584 142.848 280.883 141.781 281.07C140.715 281.258 139.484 281.352 138.09 281.352C135.465 281.352 133.285 280.807 131.551 279.717C129.828 278.627 128.539 277.092 127.684 275.111C126.84 273.131 126.418 270.811 126.418 268.15C126.418 266.205 126.688 264.424 127.227 262.807C127.766 261.189 128.551 259.795 129.582 258.623C130.613 257.439 131.885 256.531 133.396 255.898C134.92 255.254 136.66 254.932 138.617 254.932C139.906 254.932 141.172 255.078 142.414 255.371C143.668 255.652 144.828 256.057 145.895 256.584L144.418 260.064C143.527 259.643 142.596 259.279 141.623 258.975C140.65 258.67 139.643 258.518 138.6 258.518ZM167.041 275.357H163.561V281H159.482V275.357H147.793V272.229L159.535 255.23H163.561V271.93H167.041V275.357ZM159.482 271.93V265.549C159.482 265.021 159.488 264.488 159.5 263.949C159.523 263.398 159.547 262.871 159.57 262.367C159.594 261.863 159.617 261.4 159.641 260.979C159.664 260.545 159.682 260.188 159.693 259.906H159.553C159.33 260.375 159.084 260.855 158.814 261.348C158.545 261.828 158.258 262.297 157.953 262.754L151.625 271.93H159.482ZM182.018 258.518C180.787 258.518 179.686 258.74 178.713 259.186C177.752 259.631 176.938 260.275 176.27 261.119C175.602 261.951 175.092 262.965 174.74 264.16C174.389 265.344 174.213 266.68 174.213 268.168C174.213 270.16 174.494 271.877 175.057 273.318C175.619 274.748 176.475 275.85 177.623 276.623C178.771 277.385 180.225 277.766 181.982 277.766C183.072 277.766 184.133 277.66 185.164 277.449C186.195 277.238 187.262 276.951 188.363 276.588V280.174C187.32 280.584 186.266 280.883 185.199 281.07C184.133 281.258 182.902 281.352 181.508 281.352C178.883 281.352 176.703 280.807 174.969 279.717C173.246 278.627 171.957 277.092 171.102 275.111C170.258 273.131 169.836 270.811 169.836 268.15C169.836 266.205 170.105 264.424 170.645 262.807C171.184 261.189 171.969 259.795 173 258.623C174.031 257.439 175.303 256.531 176.814 255.898C178.338 255.254 180.078 254.932 182.035 254.932C183.324 254.932 184.59 255.078 185.832 255.371C187.086 255.652 188.246 256.057 189.312 256.584L187.836 260.064C186.945 259.643 186.014 259.279 185.041 258.975C184.068 258.67 183.061 258.518 182.018 258.518ZM210.459 275.357H206.979V281H202.9V275.357H191.211V272.229L202.953 255.23H206.979V271.93H210.459V275.357ZM202.9 271.93V265.549C202.9 265.021 202.906 264.488 202.918 263.949C202.941 263.398 202.965 262.871 202.988 262.367C203.012 261.863 203.035 261.4 203.059 260.979C203.082 260.545 203.1 260.188 203.111 259.906H202.971C202.748 260.375 202.502 260.855 202.232 261.348C201.963 261.828 201.676 262.297 201.371 262.754L195.043 271.93H202.9ZM225.436 258.518C224.205 258.518 223.104 258.74 222.131 259.186C221.17 259.631 220.355 260.275 219.688 261.119C219.02 261.951 218.51 262.965 218.158 264.16C217.807 265.344 217.631 266.68 217.631 268.168C217.631 270.16 217.912 271.877 218.475 273.318C219.037 274.748 219.893 275.85 221.041 276.623C222.189 277.385 223.643 277.766 225.4 277.766C226.49 277.766 227.551 277.66 228.582 277.449C229.613 277.238 230.68 276.951 231.781 276.588V280.174C230.738 280.584 229.684 280.883 228.617 281.07C227.551 281.258 226.32 281.352 224.926 281.352C222.301 281.352 220.121 280.807 218.387 279.717C216.664 278.627 215.375 277.092 214.52 275.111C213.676 273.131 213.254 270.811 213.254 268.15C213.254 266.205 213.523 264.424 214.062 262.807C214.602 261.189 215.387 259.795 216.418 258.623C217.449 257.439 218.721 256.531 220.232 255.898C221.756 255.254 223.496 254.932 225.453 254.932C226.742 254.932 228.008 255.078 229.25 255.371C230.504 255.652 231.664 256.057 232.73 256.584L231.254 260.064C230.363 259.643 229.432 259.279 228.459 258.975C227.486 258.67 226.479 258.518 225.436 258.518ZM253.877 275.357H250.396V281H246.318V275.357H234.629V272.229L246.371 255.23H250.396V271.93H253.877V275.357ZM246.318 271.93V265.549C246.318 265.021 246.324 264.488 246.336 263.949C246.359 263.398 246.383 262.871 246.406 262.367C246.43 261.863 246.453 261.4 246.477 260.979C246.5 260.545 246.518 260.188 246.529 259.906H246.389C246.166 260.375 245.92 260.855 245.65 261.348C245.381 261.828 245.094 262.297 244.789 262.754L238.461 271.93H246.318Z" fill="black"/>
</svg>
