<svg width="323" height="310" viewBox="0 0 323 310" fill="none" xmlns="http://www.w3.org/2000/svg">
<rect width="323" height="310" fill="#BDBDBD"/>
<path d="M92.4023 261.672L91.418 266.699H96.1641V269.635H90.8555L89.4316 277H86.3027L87.7441 269.635H83.3496L81.9609 277H78.9023L80.2559 269.635H75.8613V266.699H80.8184L81.8203 261.672H77.1621V258.736H82.3477L83.7539 251.318H86.8828L85.4766 258.736H89.9062L91.3301 251.318H94.3711L92.9648 258.736H97.3945V261.672H92.4023ZM83.9121 266.699H88.3066L89.3086 261.672H84.8965L83.9121 266.699ZM101.648 251.301H109.295C112.611 251.301 115.113 251.781 116.801 252.742C118.488 253.703 119.332 255.361 119.332 257.717C119.332 258.701 119.156 259.592 118.805 260.389C118.465 261.174 117.967 261.824 117.311 262.34C116.654 262.844 115.846 263.184 114.885 263.359V263.535C115.881 263.711 116.766 264.021 117.539 264.467C118.324 264.912 118.939 265.551 119.385 266.383C119.842 267.215 120.07 268.293 120.07 269.617C120.07 271.188 119.695 272.523 118.945 273.625C118.207 274.727 117.146 275.564 115.764 276.139C114.393 276.713 112.764 277 110.877 277H101.648V251.301ZM105.867 261.9H109.91C111.82 261.9 113.145 261.59 113.883 260.969C114.621 260.348 114.99 259.439 114.99 258.244C114.99 257.025 114.551 256.146 113.672 255.607C112.805 255.068 111.422 254.799 109.523 254.799H105.867V261.9ZM105.867 265.311V273.467H110.314C112.283 273.467 113.666 273.086 114.463 272.324C115.26 271.562 115.658 270.531 115.658 269.23C115.658 268.434 115.477 267.742 115.113 267.156C114.762 266.57 114.182 266.119 113.373 265.803C112.564 265.475 111.475 265.311 110.104 265.311H105.867ZM146.244 263.904C146.244 266.799 145.705 269.219 144.627 271.164C143.549 273.098 141.984 274.557 139.934 275.541C137.883 276.514 135.41 277 132.516 277H125.379V251.301H133.289C135.949 251.301 138.246 251.781 140.18 252.742C142.113 253.691 143.607 255.104 144.662 256.979C145.717 258.842 146.244 261.15 146.244 263.904ZM141.85 264.027C141.85 261.918 141.516 260.184 140.848 258.824C140.191 257.465 139.219 256.457 137.93 255.801C136.652 255.133 135.076 254.799 133.201 254.799H129.598V273.467H132.586C135.691 273.467 138.012 272.676 139.547 271.094C141.082 269.512 141.85 267.156 141.85 264.027ZM151.781 251.301H159.428C162.744 251.301 165.246 251.781 166.934 252.742C168.621 253.703 169.465 255.361 169.465 257.717C169.465 258.701 169.289 259.592 168.938 260.389C168.598 261.174 168.1 261.824 167.443 262.34C166.787 262.844 165.979 263.184 165.018 263.359V263.535C166.014 263.711 166.898 264.021 167.672 264.467C168.457 264.912 169.072 265.551 169.518 266.383C169.975 267.215 170.203 268.293 170.203 269.617C170.203 271.188 169.828 272.523 169.078 273.625C168.34 274.727 167.279 275.564 165.896 276.139C164.525 276.713 162.896 277 161.01 277H151.781V251.301ZM156 261.9H160.043C161.953 261.9 163.277 261.59 164.016 260.969C164.754 260.348 165.123 259.439 165.123 258.244C165.123 257.025 164.684 256.146 163.805 255.607C162.938 255.068 161.555 254.799 159.656 254.799H156V261.9ZM156 265.311V273.467H160.447C162.416 273.467 163.799 273.086 164.596 272.324C165.393 271.562 165.791 270.531 165.791 269.23C165.791 268.434 165.609 267.742 165.246 267.156C164.895 266.57 164.314 266.119 163.506 265.803C162.697 265.475 161.607 265.311 160.236 265.311H156ZM196.377 263.904C196.377 266.799 195.838 269.219 194.76 271.164C193.682 273.098 192.117 274.557 190.066 275.541C188.016 276.514 185.543 277 182.648 277H175.512V251.301H183.422C186.082 251.301 188.379 251.781 190.312 252.742C192.246 253.691 193.74 255.104 194.795 256.979C195.85 258.842 196.377 261.15 196.377 263.904ZM191.982 264.027C191.982 261.918 191.648 260.184 190.98 258.824C190.324 257.465 189.352 256.457 188.062 255.801C186.785 255.133 185.209 254.799 183.334 254.799H179.73V273.467H182.719C185.824 273.467 188.145 272.676 189.68 271.094C191.215 269.512 191.982 267.156 191.982 264.027ZM201.914 251.301H209.561C212.877 251.301 215.379 251.781 217.066 252.742C218.754 253.703 219.598 255.361 219.598 257.717C219.598 258.701 219.422 259.592 219.07 260.389C218.73 261.174 218.232 261.824 217.576 262.34C216.92 262.844 216.111 263.184 215.15 263.359V263.535C216.146 263.711 217.031 264.021 217.805 264.467C218.59 264.912 219.205 265.551 219.65 266.383C220.107 267.215 220.336 268.293 220.336 269.617C220.336 271.188 219.961 272.523 219.211 273.625C218.473 274.727 217.412 275.564 216.029 276.139C214.658 276.713 213.029 277 211.143 277H201.914V251.301ZM206.133 261.9H210.176C212.086 261.9 213.41 261.59 214.148 260.969C214.887 260.348 215.256 259.439 215.256 258.244C215.256 257.025 214.816 256.146 213.938 255.607C213.07 255.068 211.688 254.799 209.789 254.799H206.133V261.9ZM206.133 265.311V273.467H210.58C212.549 273.467 213.932 273.086 214.729 272.324C215.525 271.562 215.924 270.531 215.924 269.23C215.924 268.434 215.742 267.742 215.379 267.156C215.027 266.57 214.447 266.119 213.639 265.803C212.83 265.475 211.74 265.311 210.369 265.311H206.133ZM246.51 263.904C246.51 266.799 245.971 269.219 244.893 271.164C243.814 273.098 242.25 274.557 240.199 275.541C238.148 276.514 235.676 277 232.781 277H225.645V251.301H233.555C236.215 251.301 238.512 251.781 240.445 252.742C242.379 253.691 243.873 255.104 244.928 256.979C245.982 258.842 246.51 261.15 246.51 263.904ZM242.115 264.027C242.115 261.918 241.781 260.184 241.113 258.824C240.457 257.465 239.484 256.457 238.195 255.801C236.918 255.133 235.342 254.799 233.467 254.799H229.863V273.467H232.852C235.957 273.467 238.277 272.676 239.812 271.094C241.348 269.512 242.115 267.156 242.115 264.027Z" fill="white"/>
</svg>
