<svg width="322" height="310" viewBox="0 0 322 310" fill="none" xmlns="http://www.w3.org/2000/svg">
<rect width="322" height="310" fill="#313638"/>
<path d="M94.4023 268.672L93.418 273.699H98.1641V276.635H92.8555L91.4316 284H88.3027L89.7441 276.635H85.3496L83.9609 284H80.9023L82.2559 276.635H77.8613V273.699H82.8184L83.8203 268.672H79.1621V265.736H84.3477L85.7539 258.318H88.8828L87.4766 265.736H91.9062L93.3301 258.318H96.3711L94.9648 265.736H99.3945V268.672H94.4023ZM85.9121 273.699H90.3066L91.3086 268.672H86.8965L85.9121 273.699ZM118.309 264.172C118.309 265.332 118.074 266.34 117.605 267.195C117.137 268.051 116.492 268.754 115.672 269.305C114.863 269.844 113.926 270.23 112.859 270.465V270.588C114.91 270.846 116.457 271.49 117.5 272.521C118.555 273.553 119.082 274.918 119.082 276.617C119.082 278.105 118.725 279.436 118.01 280.607C117.295 281.768 116.199 282.682 114.723 283.35C113.246 284.018 111.348 284.352 109.027 284.352C107.633 284.352 106.338 284.24 105.143 284.018C103.959 283.795 102.834 283.438 101.768 282.945V279.271C102.857 279.811 104.018 280.227 105.248 280.52C106.479 280.812 107.645 280.959 108.746 280.959C110.891 280.959 112.42 280.561 113.334 279.764C114.248 278.955 114.705 277.842 114.705 276.424C114.705 275.51 114.465 274.76 113.984 274.174C113.516 273.588 112.783 273.148 111.787 272.855C110.803 272.562 109.531 272.416 107.973 272.416H105.705V269.094H107.99C109.479 269.094 110.674 268.918 111.576 268.566C112.479 268.203 113.129 267.705 113.527 267.072C113.938 266.439 114.143 265.701 114.143 264.857C114.143 263.756 113.785 262.9 113.07 262.291C112.355 261.67 111.295 261.359 109.889 261.359C109.021 261.359 108.23 261.459 107.516 261.658C106.812 261.857 106.162 262.109 105.564 262.414C104.967 262.719 104.398 263.047 103.859 263.398L101.873 260.533C102.846 259.807 104.006 259.191 105.354 258.688C106.701 258.184 108.271 257.932 110.064 257.932C112.701 257.932 114.734 258.5 116.164 259.637C117.594 260.762 118.309 262.273 118.309 264.172ZM134.639 284H130.49V267.459C130.49 266.908 130.496 266.357 130.508 265.807C130.52 265.256 130.531 264.717 130.543 264.189C130.566 263.662 130.596 263.158 130.631 262.678C130.385 262.947 130.08 263.24 129.717 263.557C129.365 263.873 128.99 264.201 128.592 264.541L125.639 266.896L123.564 264.277L131.193 258.301H134.639V284ZM159.512 264.172C159.512 265.332 159.277 266.34 158.809 267.195C158.34 268.051 157.695 268.754 156.875 269.305C156.066 269.844 155.129 270.23 154.062 270.465V270.588C156.113 270.846 157.66 271.49 158.703 272.521C159.758 273.553 160.285 274.918 160.285 276.617C160.285 278.105 159.928 279.436 159.213 280.607C158.498 281.768 157.402 282.682 155.926 283.35C154.449 284.018 152.551 284.352 150.23 284.352C148.836 284.352 147.541 284.24 146.346 284.018C145.162 283.795 144.037 283.438 142.971 282.945V279.271C144.061 279.811 145.221 280.227 146.451 280.52C147.682 280.812 148.848 280.959 149.949 280.959C152.094 280.959 153.623 280.561 154.537 279.764C155.451 278.955 155.908 277.842 155.908 276.424C155.908 275.51 155.668 274.76 155.188 274.174C154.719 273.588 153.986 273.148 152.99 272.855C152.006 272.562 150.734 272.416 149.176 272.416H146.908V269.094H149.193C150.682 269.094 151.877 268.918 152.779 268.566C153.682 268.203 154.332 267.705 154.73 267.072C155.141 266.439 155.346 265.701 155.346 264.857C155.346 263.756 154.988 262.9 154.273 262.291C153.559 261.67 152.498 261.359 151.092 261.359C150.225 261.359 149.434 261.459 148.719 261.658C148.016 261.857 147.365 262.109 146.768 262.414C146.17 262.719 145.602 263.047 145.062 263.398L143.076 260.533C144.049 259.807 145.209 259.191 146.557 258.688C147.904 258.184 149.475 257.932 151.268 257.932C153.904 257.932 155.938 258.5 157.367 259.637C158.797 260.762 159.512 262.273 159.512 264.172ZM163.73 273.049C163.73 271.537 163.836 270.049 164.047 268.584C164.27 267.119 164.645 265.748 165.172 264.471C165.699 263.193 166.426 262.068 167.352 261.096C168.289 260.123 169.467 259.361 170.885 258.811C172.303 258.248 174.008 257.967 176 257.967C176.516 257.967 177.096 257.99 177.74 258.037C178.385 258.084 178.918 258.16 179.34 258.266V261.693C178.883 261.564 178.379 261.465 177.828 261.395C177.289 261.324 176.75 261.289 176.211 261.289C174.055 261.289 172.373 261.699 171.166 262.52C169.959 263.328 169.098 264.441 168.582 265.859C168.066 267.266 167.768 268.877 167.686 270.693H167.896C168.248 270.107 168.688 269.586 169.215 269.129C169.742 268.672 170.387 268.309 171.148 268.039C171.91 267.758 172.795 267.617 173.803 267.617C175.303 267.617 176.609 267.934 177.723 268.566C178.836 269.188 179.691 270.09 180.289 271.273C180.898 272.457 181.203 273.893 181.203 275.58C181.203 277.396 180.857 278.961 180.166 280.273C179.486 281.586 178.514 282.594 177.248 283.297C175.994 284 174.5 284.352 172.766 284.352C171.488 284.352 170.299 284.117 169.197 283.648C168.107 283.18 167.152 282.477 166.332 281.539C165.512 280.602 164.873 279.43 164.416 278.023C163.959 276.605 163.73 274.947 163.73 273.049ZM172.695 280.941C174.031 280.941 175.104 280.508 175.912 279.641C176.732 278.762 177.143 277.42 177.143 275.615C177.143 274.15 176.779 272.99 176.053 272.135C175.338 271.279 174.26 270.852 172.818 270.852C171.834 270.852 170.973 271.062 170.234 271.484C169.496 271.906 168.922 272.439 168.512 273.084C168.113 273.729 167.914 274.385 167.914 275.053C167.914 275.732 168.014 276.418 168.213 277.109C168.412 277.801 168.711 278.439 169.109 279.025C169.508 279.6 170.006 280.062 170.604 280.414C171.201 280.766 171.898 280.941 172.695 280.941ZM200.715 264.172C200.715 265.332 200.48 266.34 200.012 267.195C199.543 268.051 198.898 268.754 198.078 269.305C197.27 269.844 196.332 270.23 195.266 270.465V270.588C197.316 270.846 198.863 271.49 199.906 272.521C200.961 273.553 201.488 274.918 201.488 276.617C201.488 278.105 201.131 279.436 200.416 280.607C199.701 281.768 198.605 282.682 197.129 283.35C195.652 284.018 193.754 284.352 191.434 284.352C190.039 284.352 188.744 284.24 187.549 284.018C186.365 283.795 185.24 283.438 184.174 282.945V279.271C185.264 279.811 186.424 280.227 187.654 280.52C188.885 280.812 190.051 280.959 191.152 280.959C193.297 280.959 194.826 280.561 195.74 279.764C196.654 278.955 197.111 277.842 197.111 276.424C197.111 275.51 196.871 274.76 196.391 274.174C195.922 273.588 195.189 273.148 194.193 272.855C193.209 272.562 191.938 272.416 190.379 272.416H188.111V269.094H190.396C191.885 269.094 193.08 268.918 193.982 268.566C194.885 268.203 195.535 267.705 195.934 267.072C196.344 266.439 196.549 265.701 196.549 264.857C196.549 263.756 196.191 262.9 195.477 262.291C194.762 261.67 193.701 261.359 192.295 261.359C191.428 261.359 190.637 261.459 189.922 261.658C189.219 261.857 188.568 262.109 187.971 262.414C187.373 262.719 186.805 263.047 186.266 263.398L184.279 260.533C185.252 259.807 186.412 259.191 187.76 258.688C189.107 258.184 190.678 257.932 192.471 257.932C195.107 257.932 197.141 258.5 198.57 259.637C200 260.762 200.715 262.273 200.715 264.172ZM213.564 257.949C215.053 257.949 216.395 258.184 217.59 258.652C218.785 259.109 219.734 259.795 220.438 260.709C221.141 261.623 221.492 262.754 221.492 264.102C221.492 265.145 221.275 266.053 220.842 266.826C220.42 267.6 219.846 268.279 219.119 268.865C218.393 269.439 217.578 269.949 216.676 270.395C217.684 270.887 218.609 271.455 219.453 272.1C220.309 272.732 220.994 273.477 221.51 274.332C222.037 275.188 222.301 276.189 222.301 277.338C222.301 278.779 221.932 280.027 221.193 281.082C220.467 282.125 219.453 282.934 218.152 283.508C216.852 284.07 215.334 284.352 213.6 284.352C211.736 284.352 210.148 284.076 208.836 283.525C207.523 282.975 206.527 282.189 205.848 281.17C205.168 280.139 204.828 278.908 204.828 277.479C204.828 276.295 205.062 275.27 205.531 274.402C206 273.535 206.627 272.785 207.412 272.152C208.209 271.52 209.082 270.986 210.031 270.553C209.223 270.072 208.484 269.533 207.816 268.936C207.148 268.326 206.615 267.629 206.217 266.844C205.83 266.047 205.637 265.127 205.637 264.084C205.637 262.748 205.994 261.629 206.709 260.727C207.424 259.812 208.379 259.121 209.574 258.652C210.781 258.184 212.111 257.949 213.564 257.949ZM208.766 277.32C208.766 278.445 209.164 279.371 209.961 280.098C210.758 280.824 211.947 281.188 213.529 281.188C215.1 281.188 216.295 280.83 217.115 280.115C217.936 279.4 218.346 278.457 218.346 277.285C218.346 276.535 218.135 275.873 217.713 275.299C217.303 274.725 216.746 274.215 216.043 273.77C215.352 273.312 214.584 272.891 213.74 272.504L213.178 272.275C212.264 272.662 211.479 273.102 210.822 273.594C210.166 274.074 209.656 274.619 209.293 275.229C208.941 275.838 208.766 276.535 208.766 277.32ZM213.529 261.131C212.393 261.131 211.455 261.412 210.717 261.975C209.99 262.525 209.627 263.322 209.627 264.365C209.627 265.104 209.803 265.736 210.154 266.264C210.518 266.791 211.004 267.248 211.613 267.635C212.223 268.01 212.896 268.361 213.635 268.689C214.35 268.373 214.994 268.027 215.568 267.652C216.154 267.266 216.617 266.809 216.957 266.281C217.309 265.742 217.484 265.098 217.484 264.348C217.484 263.316 217.115 262.525 216.377 261.975C215.65 261.412 214.701 261.131 213.529 261.131Z" fill="white"/>
</svg>
