<svg width="322" height="310" viewBox="0 0 322 310" fill="none" xmlns="http://www.w3.org/2000/svg">
<rect width="322" height="310" fill="#EC3205"/>
<path d="M104.402 240.672L103.418 245.699H108.164V248.635H102.855L101.432 256H98.3027L99.7441 248.635H95.3496L93.9609 256H90.9023L92.2559 248.635H87.8613V245.699H92.8184L93.8203 240.672H89.1621V237.736H94.3477L95.7539 230.318H98.8828L97.4766 237.736H101.906L103.33 230.318H106.371L104.965 237.736H109.395V240.672H104.402ZM95.9121 245.699H100.307L101.309 240.672H96.8965L95.9121 245.699ZM128.203 256H113.648V230.301H128.203V233.852H117.867V240.83H127.553V244.363H117.867V252.432H128.203V256ZM144.709 233.518C143.479 233.518 142.377 233.74 141.404 234.186C140.443 234.631 139.629 235.275 138.961 236.119C138.293 236.951 137.783 237.965 137.432 239.16C137.08 240.344 136.904 241.68 136.904 243.168C136.904 245.16 137.186 246.877 137.748 248.318C138.311 249.748 139.166 250.85 140.314 251.623C141.463 252.385 142.916 252.766 144.674 252.766C145.764 252.766 146.824 252.66 147.855 252.449C148.887 252.238 149.953 251.951 151.055 251.588V255.174C150.012 255.584 148.957 255.883 147.891 256.07C146.824 256.258 145.594 256.352 144.199 256.352C141.574 256.352 139.395 255.807 137.66 254.717C135.938 253.627 134.648 252.092 133.793 250.111C132.949 248.131 132.527 245.811 132.527 243.15C132.527 241.205 132.797 239.424 133.336 237.807C133.875 236.189 134.66 234.795 135.691 233.623C136.723 232.439 137.994 231.531 139.506 230.898C141.029 230.254 142.77 229.932 144.727 229.932C146.016 229.932 147.281 230.078 148.523 230.371C149.777 230.652 150.938 231.057 152.004 231.584L150.527 235.064C149.637 234.643 148.705 234.279 147.732 233.975C146.76 233.67 145.752 233.518 144.709 233.518ZM171.234 236.172C171.234 237.332 171 238.34 170.531 239.195C170.062 240.051 169.418 240.754 168.598 241.305C167.789 241.844 166.852 242.23 165.785 242.465V242.588C167.836 242.846 169.383 243.49 170.426 244.521C171.48 245.553 172.008 246.918 172.008 248.617C172.008 250.105 171.65 251.436 170.936 252.607C170.221 253.768 169.125 254.682 167.648 255.35C166.172 256.018 164.273 256.352 161.953 256.352C160.559 256.352 159.264 256.24 158.068 256.018C156.885 255.795 155.76 255.438 154.693 254.945V251.271C155.783 251.811 156.943 252.227 158.174 252.52C159.404 252.812 160.57 252.959 161.672 252.959C163.816 252.959 165.346 252.561 166.26 251.764C167.174 250.955 167.631 249.842 167.631 248.424C167.631 247.51 167.391 246.76 166.91 246.174C166.441 245.588 165.709 245.148 164.713 244.855C163.729 244.562 162.457 244.416 160.898 244.416H158.631V241.094H160.916C162.404 241.094 163.6 240.918 164.502 240.566C165.404 240.203 166.055 239.705 166.453 239.072C166.863 238.439 167.068 237.701 167.068 236.857C167.068 235.756 166.711 234.9 165.996 234.291C165.281 233.67 164.221 233.359 162.814 233.359C161.947 233.359 161.156 233.459 160.441 233.658C159.738 233.857 159.088 234.109 158.49 234.414C157.893 234.719 157.324 235.047 156.785 235.398L154.799 232.533C155.771 231.807 156.932 231.191 158.279 230.688C159.627 230.184 161.197 229.932 162.99 229.932C165.627 229.932 167.66 230.5 169.09 231.637C170.52 232.762 171.234 234.273 171.234 236.172ZM192.82 256H175.418V252.889L182.08 246.139C183.369 244.826 184.43 243.695 185.262 242.746C186.094 241.785 186.709 240.877 187.107 240.021C187.518 239.166 187.723 238.234 187.723 237.227C187.723 235.984 187.365 235.047 186.65 234.414C185.936 233.77 184.992 233.447 183.82 233.447C182.707 233.447 181.676 233.67 180.727 234.115C179.789 234.549 178.816 235.17 177.809 235.979L175.541 233.254C176.256 232.645 177.018 232.088 177.826 231.584C178.646 231.08 179.561 230.682 180.568 230.389C181.576 230.084 182.725 229.932 184.014 229.932C185.643 229.932 187.049 230.225 188.232 230.811C189.416 231.385 190.324 232.188 190.957 233.219C191.602 234.25 191.924 235.451 191.924 236.822C191.924 238.205 191.648 239.482 191.098 240.654C190.547 241.826 189.762 242.986 188.742 244.135C187.723 245.271 186.51 246.508 185.104 247.844L180.656 252.186V252.379H192.82V256ZM213.422 243.133C213.422 245.207 213.258 247.064 212.93 248.705C212.613 250.334 212.109 251.717 211.418 252.854C210.727 253.99 209.824 254.857 208.711 255.455C207.598 256.053 206.25 256.352 204.668 256.352C202.688 256.352 201.053 255.83 199.764 254.787C198.475 253.732 197.52 252.221 196.898 250.252C196.277 248.271 195.967 245.898 195.967 243.133C195.967 240.367 196.248 238 196.811 236.031C197.385 234.051 198.311 232.533 199.588 231.479C200.865 230.424 202.559 229.896 204.668 229.896C206.66 229.896 208.301 230.424 209.59 231.479C210.891 232.521 211.852 234.033 212.473 236.014C213.105 237.982 213.422 240.355 213.422 243.133ZM200.133 243.133C200.133 245.301 200.273 247.111 200.555 248.564C200.848 250.018 201.328 251.107 201.996 251.834C202.664 252.549 203.555 252.906 204.668 252.906C205.781 252.906 206.672 252.549 207.34 251.834C208.008 251.119 208.488 250.035 208.781 248.582C209.086 247.129 209.238 245.312 209.238 243.133C209.238 240.977 209.092 239.172 208.799 237.719C208.506 236.266 208.025 235.176 207.357 234.449C206.689 233.711 205.793 233.342 204.668 233.342C203.543 233.342 202.646 233.711 201.979 234.449C201.322 235.176 200.848 236.266 200.555 237.719C200.273 239.172 200.133 240.977 200.133 243.133ZM225.357 239.934C227.01 239.934 228.463 240.232 229.717 240.83C230.982 241.416 231.967 242.283 232.67 243.432C233.373 244.568 233.725 245.963 233.725 247.615C233.725 249.42 233.344 250.979 232.582 252.291C231.82 253.592 230.701 254.594 229.225 255.297C227.748 256 225.949 256.352 223.828 256.352C222.48 256.352 221.221 256.234 220.049 256C218.889 255.766 217.887 255.414 217.043 254.945V251.219C217.922 251.711 218.977 252.115 220.207 252.432C221.438 252.736 222.615 252.889 223.74 252.889C224.936 252.889 225.961 252.713 226.816 252.361C227.672 252.01 228.328 251.471 228.785 250.744C229.254 250.018 229.488 249.098 229.488 247.984C229.488 246.508 229.014 245.371 228.064 244.574C227.127 243.766 225.656 243.361 223.652 243.361C222.949 243.361 222.199 243.426 221.402 243.555C220.617 243.672 219.961 243.801 219.434 243.941L217.623 242.869L218.59 230.301H231.949V233.939H222.229L221.666 240.338C222.088 240.244 222.592 240.156 223.178 240.074C223.764 239.98 224.49 239.934 225.357 239.934Z" fill="white"/>
</svg>
