<svg width="323" height="310" viewBox="0 0 323 310" fill="none" xmlns="http://www.w3.org/2000/svg">
<rect width="323" height="310" fill="#00E676"/>
<path d="M74.4023 240.672L73.418 245.699H78.1641V248.635H72.8555L71.4316 256H68.3027L69.7441 248.635H65.3496L63.9609 256H60.9023L62.2559 248.635H57.8613V245.699H62.8184L63.8203 240.672H59.1621V237.736H64.3477L65.7539 230.318H68.8828L67.4766 237.736H71.9062L73.3301 230.318H76.3711L74.9648 237.736H79.3945V240.672H74.4023ZM65.9121 245.699H70.3066L71.3086 240.672H66.8965L65.9121 245.699ZM99.293 243.133C99.293 245.207 99.1289 247.064 98.8008 248.705C98.4844 250.334 97.9805 251.717 97.2891 252.854C96.5977 253.99 95.6953 254.857 94.582 255.455C93.4688 256.053 92.1211 256.352 90.5391 256.352C88.5586 256.352 86.9238 255.83 85.6348 254.787C84.3457 253.732 83.3906 252.221 82.7695 250.252C82.1484 248.271 81.8379 245.898 81.8379 243.133C81.8379 240.367 82.1191 238 82.6816 236.031C83.2559 234.051 84.1816 232.533 85.459 231.479C86.7363 230.424 88.4297 229.896 90.5391 229.896C92.5312 229.896 94.1719 230.424 95.4609 231.479C96.7617 232.521 97.7227 234.033 98.3438 236.014C98.9766 237.982 99.293 240.355 99.293 243.133ZM86.0039 243.133C86.0039 245.301 86.1445 247.111 86.4258 248.564C86.7188 250.018 87.1992 251.107 87.8672 251.834C88.5352 252.549 89.4258 252.906 90.5391 252.906C91.6523 252.906 92.543 252.549 93.2109 251.834C93.8789 251.119 94.3594 250.035 94.6523 248.582C94.957 247.129 95.1094 245.312 95.1094 243.133C95.1094 240.977 94.9629 239.172 94.6699 237.719C94.377 236.266 93.8965 235.176 93.2285 234.449C92.5605 233.711 91.6641 233.342 90.5391 233.342C89.4141 233.342 88.5176 233.711 87.8496 234.449C87.1934 235.176 86.7188 236.266 86.4258 237.719C86.1445 239.172 86.0039 240.977 86.0039 243.133ZM119.895 243.133C119.895 245.207 119.73 247.064 119.402 248.705C119.086 250.334 118.582 251.717 117.891 252.854C117.199 253.99 116.297 254.857 115.184 255.455C114.07 256.053 112.723 256.352 111.141 256.352C109.16 256.352 107.525 255.83 106.236 254.787C104.947 253.732 103.992 252.221 103.371 250.252C102.75 248.271 102.439 245.898 102.439 243.133C102.439 240.367 102.721 238 103.283 236.031C103.857 234.051 104.783 232.533 106.061 231.479C107.338 230.424 109.031 229.896 111.141 229.896C113.133 229.896 114.773 230.424 116.062 231.479C117.363 232.521 118.324 234.033 118.945 236.014C119.578 237.982 119.895 240.355 119.895 243.133ZM106.605 243.133C106.605 245.301 106.746 247.111 107.027 248.564C107.32 250.018 107.801 251.107 108.469 251.834C109.137 252.549 110.027 252.906 111.141 252.906C112.254 252.906 113.145 252.549 113.812 251.834C114.48 251.119 114.961 250.035 115.254 248.582C115.559 247.129 115.711 245.312 115.711 243.133C115.711 240.977 115.564 239.172 115.271 237.719C114.979 236.266 114.498 235.176 113.83 234.449C113.162 233.711 112.266 233.342 111.141 233.342C110.016 233.342 109.119 233.711 108.451 234.449C107.795 235.176 107.32 236.266 107.027 237.719C106.746 239.172 106.605 240.977 106.605 243.133ZM139.406 256H124.852V230.301H139.406V233.852H129.07V240.83H138.756V244.363H129.07V252.432H139.406V256ZM143.238 245.049C143.238 243.537 143.344 242.049 143.555 240.584C143.777 239.119 144.152 237.748 144.68 236.471C145.207 235.193 145.934 234.068 146.859 233.096C147.797 232.123 148.975 231.361 150.393 230.811C151.811 230.248 153.516 229.967 155.508 229.967C156.023 229.967 156.604 229.99 157.248 230.037C157.893 230.084 158.426 230.16 158.848 230.266V233.693C158.391 233.564 157.887 233.465 157.336 233.395C156.797 233.324 156.258 233.289 155.719 233.289C153.562 233.289 151.881 233.699 150.674 234.52C149.467 235.328 148.605 236.441 148.09 237.859C147.574 239.266 147.275 240.877 147.193 242.693H147.404C147.756 242.107 148.195 241.586 148.723 241.129C149.25 240.672 149.895 240.309 150.656 240.039C151.418 239.758 152.303 239.617 153.311 239.617C154.811 239.617 156.117 239.934 157.23 240.566C158.344 241.188 159.199 242.09 159.797 243.273C160.406 244.457 160.711 245.893 160.711 247.58C160.711 249.396 160.365 250.961 159.674 252.273C158.994 253.586 158.021 254.594 156.756 255.297C155.502 256 154.008 256.352 152.273 256.352C150.996 256.352 149.807 256.117 148.705 255.648C147.615 255.18 146.66 254.477 145.84 253.539C145.02 252.602 144.381 251.43 143.924 250.023C143.467 248.605 143.238 246.947 143.238 245.049ZM152.203 252.941C153.539 252.941 154.611 252.508 155.42 251.641C156.24 250.762 156.65 249.42 156.65 247.615C156.65 246.15 156.287 244.99 155.561 244.135C154.846 243.279 153.768 242.852 152.326 242.852C151.342 242.852 150.48 243.062 149.742 243.484C149.004 243.906 148.43 244.439 148.02 245.084C147.621 245.729 147.422 246.385 147.422 247.053C147.422 247.732 147.521 248.418 147.721 249.109C147.92 249.801 148.219 250.439 148.617 251.025C149.016 251.6 149.514 252.062 150.111 252.414C150.709 252.766 151.406 252.941 152.203 252.941ZM166.74 256L176.83 233.922H163.488V230.301H181.277V233.131L171.188 256H166.74ZM184.441 245.049C184.441 243.537 184.547 242.049 184.758 240.584C184.98 239.119 185.355 237.748 185.883 236.471C186.41 235.193 187.137 234.068 188.062 233.096C189 232.123 190.178 231.361 191.596 230.811C193.014 230.248 194.719 229.967 196.711 229.967C197.227 229.967 197.807 229.99 198.451 230.037C199.096 230.084 199.629 230.16 200.051 230.266V233.693C199.594 233.564 199.09 233.465 198.539 233.395C198 233.324 197.461 233.289 196.922 233.289C194.766 233.289 193.084 233.699 191.877 234.52C190.67 235.328 189.809 236.441 189.293 237.859C188.777 239.266 188.479 240.877 188.396 242.693H188.607C188.959 242.107 189.398 241.586 189.926 241.129C190.453 240.672 191.098 240.309 191.859 240.039C192.621 239.758 193.506 239.617 194.514 239.617C196.014 239.617 197.32 239.934 198.434 240.566C199.547 241.188 200.402 242.09 201 243.273C201.609 244.457 201.914 245.893 201.914 247.58C201.914 249.396 201.568 250.961 200.877 252.273C200.197 253.586 199.225 254.594 197.959 255.297C196.705 256 195.211 256.352 193.477 256.352C192.199 256.352 191.01 256.117 189.908 255.648C188.818 255.18 187.863 254.477 187.043 253.539C186.223 252.602 185.584 251.43 185.127 250.023C184.67 248.605 184.441 246.947 184.441 245.049ZM193.406 252.941C194.742 252.941 195.814 252.508 196.623 251.641C197.443 250.762 197.854 249.42 197.854 247.615C197.854 246.15 197.49 244.99 196.764 244.135C196.049 243.279 194.971 242.852 193.529 242.852C192.545 242.852 191.684 243.062 190.945 243.484C190.207 243.906 189.633 244.439 189.223 245.084C188.824 245.729 188.625 246.385 188.625 247.053C188.625 247.732 188.725 248.418 188.924 249.109C189.123 249.801 189.422 250.439 189.82 251.025C190.219 251.6 190.717 252.062 191.314 252.414C191.912 252.766 192.609 252.941 193.406 252.941Z" fill="white"/>
</svg>
