<svg width="108" height="103" viewBox="0 0 108 103" fill="none" xmlns="http://www.w3.org/2000/svg">
<rect width="101.741" height="101.741" rx="50.8703" fill="#FFF485"/>
<circle cx="95.5841" cy="44.7708" r="0.145764" fill="#C4C4C4"/>
<path d="M77.3455 80.9654C80.6815 80.9654 82.847 78.5118 83.5493 77.8692C82.6519 82.6401 78.1766 92.1819 67.4547 92.1819C56.7328 92.1819 52.6087 86.2816 51.8868 83.419C50.9504 86.1647 47.1931 92.1819 36.1434 92.1819C25.0937 92.1819 20.7316 82.5233 19.9318 77.6939C20.4195 78.7844 22.343 80.9654 26.1355 80.9654C30.8761 80.9654 35.6167 72.3193 42.5227 72.3193C46.8302 72.3193 50.5603 75.6687 51.8868 77.3434C52.9013 75.6687 56.1592 72.3193 61.0754 72.3193C67.2206 72.3193 72.1368 80.9654 77.3455 80.9654Z" fill="#313638"/>
<path d="M58.1391 73.8364C58.5534 73.4685 59.9528 72.8432 62.236 73.2846C64.5193 73.726 66.379 75.1851 67.0235 75.8594" stroke="white" stroke-width="0.414986" stroke-linecap="round"/>
<path d="M22.5096 82.6182C23.3241 84.5662 26.2162 88.8926 31.268 90.6133" stroke="white" stroke-width="0.414986" stroke-linecap="round"/>
<path d="M24.4442 55.2644C25.3839 56.4509 26.1835 57.7415 26.8272 59.1107C27.0772 59.6152 27.2311 60.1617 27.2812 60.7223C27.3407 61.2757 27.2535 61.8351 27.0284 62.3443C26.9331 62.5804 26.7828 62.7904 26.59 62.957C26.3971 63.1236 26.1672 63.2418 25.9194 63.302C25.555 63.3903 25.1734 63.3778 24.8156 63.2659C24.5128 63.1705 24.2284 63.0242 23.9748 62.8334C23.6967 62.5816 23.4692 62.2793 23.3043 61.9426C23.0825 61.5307 22.9123 61.1909 22.7885 60.9128C22.6647 60.6348 22.5202 60.2538 22.3191 59.7389C22.252 59.5175 22.1953 59.3476 22.154 59.224C21.7774 58.3306 21.2924 57.4867 20.7097 56.7113C20.4226 56.4149 20.069 56.1908 19.6781 56.0574C19.3088 55.9339 18.9828 55.7069 18.7394 55.4034C18.8477 56.5002 18.9973 57.5814 19.1726 58.6524C19.2415 59.1004 19.3432 59.5426 19.477 59.9757C19.6264 60.4827 19.7435 60.9987 19.8277 61.5204C19.8793 61.9439 19.8334 62.3736 19.6936 62.7768C19.5452 63.2232 19.2264 63.5933 18.8064 63.8066C18.5229 63.951 18.2151 64.0417 17.8986 64.0743C17.635 64.0988 17.3697 64.0526 17.13 63.9404C16.9082 63.8317 16.7046 63.6892 16.5265 63.5182C16.3187 63.333 16.1443 63.1135 16.0107 62.8694C15.8663 62.6017 15.7373 62.3391 15.6239 62.0817C15.5063 61.7996 15.4114 61.5086 15.3402 61.2115C15.2628 60.8871 15.1957 60.6142 15.139 60.3876C15.0754 60.1348 15.0254 59.8787 14.9894 59.6204C14.1586 54.6198 13.911 49.54 14.2518 44.4824C14.255 44.3464 14.2653 44.2106 14.2828 44.0757C14.2828 43.5608 14.3292 43.1746 14.3498 42.9069C14.3868 42.5392 14.4489 42.1745 14.5355 41.8153C14.6038 41.4499 14.7403 41.1005 14.9378 40.7855C15.1312 40.528 15.3843 40.3213 15.6754 40.183C16.0459 40.005 16.4571 39.9285 16.867 39.9616C17.1754 40.0131 17.4745 40.1103 17.7542 40.25C17.9832 40.3778 18.1643 40.5766 18.27 40.8164C18.39 41.0729 18.48 41.3425 18.5382 41.6196C18.6354 42.0162 18.6924 42.4216 18.7084 42.8296C18.7084 43.3445 18.6723 43.8182 18.6413 44.2868C18.6104 44.7553 18.564 45.3938 18.5227 46.197C18.4814 47.0003 18.4557 47.7418 18.4557 48.4729C18.6104 47.6491 18.8012 46.8561 19.023 46.0941C19.2448 45.332 19.5389 44.5957 19.8122 43.8697C20.0749 43.2215 20.4069 42.6034 20.8026 42.0264C21.1451 41.5385 21.5589 41.1046 22.0302 40.7391C22.4405 40.3968 22.9508 40.1963 23.4848 40.1676C24.0667 40.1581 24.6426 40.2851 25.1663 40.5383C25.6873 40.8377 26.1438 41.2371 26.5094 41.7134C26.875 42.1897 27.1426 42.7336 27.2966 43.3136C27.7574 44.7047 27.9448 46.1716 27.8486 47.6336C27.7615 49.1678 27.4126 50.6758 26.8169 52.0926C26.345 53.354 25.5218 54.4545 24.4442 55.2644ZM17.9708 43.1694C18.0808 42.0984 17.89 41.3519 17.3982 40.9296C17.1901 40.7837 16.9476 40.6942 16.6945 40.6699C16.4413 40.6455 16.1862 40.6871 15.954 40.7906C15.8457 40.8369 15.8044 40.909 15.8405 41.012C15.8464 41.0343 15.8568 41.0552 15.871 41.0734C15.8853 41.0916 15.9031 41.1066 15.9233 41.1177C15.9436 41.1288 15.9659 41.1356 15.9889 41.1378C16.0119 41.14 16.0351 41.1375 16.0571 41.1305C16.2291 41.0348 16.4249 40.9903 16.6214 41.0022C16.8179 41.014 17.0069 41.0818 17.1661 41.1974C17.5891 41.5321 17.7542 42.1757 17.6819 43.1385C17.6819 43.2518 17.6819 43.3033 17.8161 43.3033C17.9502 43.3033 17.9708 43.2621 17.9708 43.1694ZM20.586 44.2456C19.849 45.7155 19.3461 47.2911 19.0953 48.9157C18.794 50.4329 18.6214 51.9728 18.5795 53.5189C18.6491 53.4249 18.7401 53.3487 18.8451 53.2968C18.95 53.2449 19.0658 53.2186 19.1829 53.2203C19.4743 53.2261 19.7631 53.2764 20.0392 53.3696C20.2717 53.4528 20.5148 53.5031 20.7613 53.5189C21.1843 53.5189 21.6279 53.1636 22.087 52.4479C22.5893 51.6362 22.9731 50.7572 23.2269 49.8374C23.5284 48.819 23.7423 47.7769 23.8665 46.7222C23.9978 45.7943 23.9452 44.8495 23.7118 43.9418C23.4882 43.1385 23.0859 42.67 22.5048 42.5361C21.9064 42.4022 21.2565 42.9686 20.586 44.2456ZM24.8311 41.8668C24.8172 41.8847 24.8075 41.9054 24.8025 41.9275C24.7976 41.9496 24.7976 41.9726 24.8025 41.9947C24.8074 42.0168 24.8171 42.0375 24.831 42.0555C24.8448 42.0734 24.8625 42.0881 24.8826 42.0985C25.6784 42.7151 26.2272 43.5953 26.4301 44.5803C26.7455 45.8043 26.8087 47.0796 26.6158 48.3287C26.4669 49.5551 26.0476 50.7332 25.3881 51.7785C25.3717 51.7951 25.3594 51.8152 25.3522 51.8374C25.345 51.8595 25.3431 51.883 25.3466 51.906C25.3501 51.929 25.359 51.9509 25.3724 51.9699C25.3859 51.9889 25.4037 52.0045 25.4242 52.0154H25.5222C25.5487 52.0182 25.5753 52.0134 25.5991 52.0015C25.6229 51.9896 25.6427 51.9712 25.6564 51.9485C26.3567 50.8609 26.7995 49.6282 26.951 48.3442C27.143 47.0365 27.0676 45.7035 26.7292 44.4258C26.5051 43.3917 25.9086 42.4756 25.0529 41.8513C25.0402 41.8328 25.0228 41.818 25.0026 41.8082C24.9824 41.7985 24.9599 41.7941 24.9375 41.7957C24.9151 41.7973 24.8935 41.8046 24.8748 41.8171C24.8562 41.8296 24.8411 41.8467 24.8311 41.8668Z" fill="#EC3205"/>
<path d="M37.9999 56.9686C38.2475 56.9686 38.3558 57.226 38.3352 57.674C38.267 58.5898 38.069 59.4912 37.7472 60.3515C37.5043 61.0371 37.1293 61.6685 36.6433 62.2103C36.2333 62.6436 35.7427 62.9934 35.1991 63.2401C34.6886 63.4708 34.1277 63.5683 33.5691 63.5232C32.9924 63.4674 32.4337 63.2921 31.9288 63.0083C30.5587 62.1997 29.5495 60.8995 29.1073 59.3732C28.5025 57.6354 28.2296 55.7998 28.3027 53.9616C28.3532 52.1868 28.659 50.4285 29.2105 48.7405C29.5533 47.4673 30.1972 46.2949 31.0881 45.3216C31.6708 44.6392 32.4949 44.2075 33.3886 44.1167C34.1575 44.1018 34.9061 44.3631 35.4982 44.853C36.1867 45.4069 36.6948 46.1524 36.958 46.995C37.425 48.5039 37.5118 50.1045 37.2107 51.6548C36.9453 53.0855 36.3793 54.4438 35.5498 55.6402C34.9564 56.6054 34.0443 57.3337 32.9708 57.6997C33.059 58.4655 33.2863 59.2088 33.6413 59.8932C33.8526 60.3467 34.2316 60.701 34.6987 60.8818C35.0806 60.9939 35.4889 60.9758 35.8593 60.8303C36.2763 60.6505 36.6275 60.3466 36.8651 59.9602C37.1674 59.4906 37.3726 58.9654 37.4686 58.4155C37.4686 58.3743 37.4686 58.2507 37.4686 58.0499C37.4769 57.8775 37.4941 57.7056 37.5202 57.535C37.5447 57.393 37.5955 57.2568 37.6698 57.1334C37.7045 57.0784 37.7536 57.034 37.8118 57.0049C37.87 56.9759 37.935 56.9633 37.9999 56.9686ZM31.2944 46.9899C31.4115 46.5874 31.6306 46.222 31.9306 45.9288C32.2306 45.6356 32.6013 45.4247 33.0069 45.3164C33.3344 45.1892 33.6896 45.1498 34.0371 45.2021C34.3846 45.2545 34.7123 45.3969 34.9876 45.6151C35.0016 45.6323 35.0193 45.6462 35.0394 45.6557C35.0594 45.6652 35.0814 45.6702 35.1036 45.6702C35.1259 45.6702 35.1478 45.6652 35.1679 45.6557C35.188 45.6462 35.2057 45.6323 35.2197 45.6151C35.285 45.5361 35.2747 45.464 35.1887 45.3988C34.8759 45.139 34.5005 44.9653 34.0997 44.8949C33.6989 44.8244 33.2866 44.8597 32.9037 44.9972C32.4474 45.1223 32.0316 45.3637 31.697 45.6977C31.3624 46.0317 31.1205 46.4468 30.9952 46.9023C30.9694 47.0156 30.9952 47.0825 31.0932 47.1031H31.1603C31.1919 47.1034 31.2226 47.0919 31.2464 47.071C31.2702 47.0501 31.2854 47.0213 31.2892 46.9899H31.2944ZM32.6355 42.6029C32.5228 42.5976 32.4141 42.5597 32.3225 42.4939C32.2309 42.4281 32.1605 42.3372 32.1197 42.2322C32.0309 42.1055 31.984 41.9543 31.9856 41.7997V41.6298C31.9946 41.5039 32.0413 41.3837 32.1197 41.2848L34.6987 37.8041C34.7671 37.6847 34.8653 37.585 34.9837 37.5146C35.1021 37.4442 35.2367 37.4056 35.3744 37.4025C35.5339 37.3998 35.6908 37.4424 35.8269 37.5253C35.9629 37.6083 36.0726 37.7282 36.143 37.871C36.2734 38.0815 36.343 38.3238 36.3442 38.5713C36.3442 38.6176 36.3442 38.7206 36.3442 38.8751C36.3055 39.0869 36.207 39.2834 36.0605 39.4414L33.0378 42.4227C32.9872 42.4792 32.9252 42.5245 32.8559 42.5555C32.7865 42.5866 32.7115 42.6027 32.6355 42.6029ZM33.2751 49.8372C32.747 51.7553 32.5431 53.7478 32.6716 55.7328C32.7593 55.7328 32.914 55.6762 33.141 55.6298C33.3396 55.5911 33.536 55.5413 33.729 55.4805C33.8741 55.4328 34.0141 55.3707 34.1468 55.2952C35.1784 54.6721 35.8851 53.5342 36.3442 51.8968C36.8126 50.5336 36.8126 49.0534 36.3442 47.6901C36.2293 47.4206 36.0707 47.1718 35.8748 46.9538C35.6831 46.7401 35.4398 46.5788 35.1681 46.4852C35.0272 46.4449 34.8773 46.449 34.7388 46.4969C34.6003 46.5449 34.4801 46.6343 34.3944 46.753C34.0436 47.0894 33.6688 48.1175 33.2699 49.8372H33.2751Z" fill="#EC3205"/>
<path d="M54.9751 49.9709C55.7884 50.2644 56.4644 50.8475 56.8733 51.6082C57.3767 52.5079 57.6958 53.4986 57.812 54.5226C57.9534 55.5894 58.0206 56.6646 58.0132 57.7407C58.0034 58.7593 57.9414 59.7766 57.8275 60.7889C57.7605 61.2368 57.6986 61.5973 57.6418 61.8753C57.5722 62.2249 57.4774 62.5691 57.3581 62.9051C57.2582 63.2363 57.0934 63.5443 56.8733 63.8113C56.6571 64.0384 56.3927 64.2143 56.0996 64.3262C55.7296 64.4623 55.3274 64.4856 54.9441 64.3932C54.5096 64.2899 54.1172 64.0563 53.8197 63.7238C53.5239 63.3992 53.3427 62.9869 53.3039 62.5498C53.2689 62.0609 53.309 61.5695 53.4225 61.0927C53.5049 60.7222 53.5669 60.3474 53.6082 59.9702C53.7968 58.2796 53.8468 56.5765 53.7578 54.8779C53.6546 53.6318 53.4844 52.8594 53.242 52.5711C53.1669 52.4977 53.0818 52.4353 52.9892 52.3857C52.8748 52.3225 52.7513 52.2773 52.623 52.2519C52.4738 52.2158 52.3182 52.2158 52.1691 52.2519C51.9815 52.3016 51.8128 52.4055 51.6842 52.5505C51.4945 52.7475 51.33 52.9672 51.1942 53.2044C51.2293 55.0629 51.1293 56.9214 50.895 58.7653C50.8876 58.8551 50.8756 58.9445 50.8589 59.0331C50.8125 59.548 50.7712 59.9084 50.7248 60.1865C50.6557 60.5615 50.5609 60.9314 50.4411 61.2935C50.3351 61.6602 50.1715 62.0078 49.9563 62.3233C49.7372 62.583 49.4572 62.7846 49.1413 62.9103C48.7516 63.0669 48.3233 63.101 47.9136 63.0081C47.4693 62.914 47.0622 62.692 46.7428 62.3696C46.4768 62.0851 46.3056 61.7254 46.2527 61.3398C46.1989 60.7816 46.1989 60.2195 46.2527 59.6613C46.2992 58.961 46.3714 58.235 46.4694 57.4884C46.5674 56.7418 46.6499 55.7686 46.7067 54.5741C46.7634 53.3795 46.7685 52.2004 46.7067 51.0367V50.2026C46.7067 49.734 46.7067 49.3581 46.6757 49.0801C46.6448 48.8021 46.6138 48.4725 46.5571 48.0915C46.5273 47.786 46.4228 47.4925 46.2527 47.2368C46.1907 47.1483 46.108 47.0764 46.0119 47.027C45.9157 46.9777 45.8089 46.9525 45.7008 46.9536C45.1162 46.9536 44.6572 47.5508 44.3236 48.7454C43.9442 50.221 43.7093 51.7298 43.6221 53.2508C43.6952 55.2698 43.8847 57.2829 44.1895 59.2802C44.256 59.7019 44.3455 60.1196 44.4577 60.5314C44.585 61.001 44.6866 61.4771 44.762 61.9577C44.7981 62.3502 44.7397 62.7456 44.5918 63.1111C44.4388 63.5501 44.1283 63.917 43.7201 64.1409C43.4614 64.2658 43.1847 64.3492 42.9 64.388C42.6694 64.4277 42.4324 64.4046 42.214 64.3211C42.0096 64.243 41.817 64.1373 41.6414 64.007C41.4523 63.8633 41.2885 63.6893 41.1565 63.4921C41.0102 63.2848 40.8809 63.0661 40.7697 62.8382C40.6513 62.6 40.5497 62.354 40.4654 62.1019C40.3777 61.8341 40.3055 61.587 40.2487 61.3656C40.192 61.1442 40.1404 60.9073 40.0991 60.6602C39.3546 56.4278 39.1295 52.1207 39.4286 47.834C39.4492 47.4118 39.4647 47.1389 39.475 47.0153C39.475 46.8918 39.5163 46.6343 39.5627 46.243C39.5829 45.9575 39.6384 45.6756 39.7277 45.4037C39.7948 45.2389 39.8928 45.0175 40.0114 44.7344C40.1028 44.4991 40.2605 44.2952 40.4654 44.1474C40.6725 44.0249 40.8921 43.9247 41.1204 43.8487C41.4083 43.7564 41.7114 43.7215 42.0128 43.7458C42.5112 43.8039 42.9733 44.0354 43.3178 44.3997C43.6139 44.8098 43.7678 45.3051 43.7562 45.8105C43.7562 46.4232 43.7562 47.211 43.7201 48.1687C43.8126 47.8498 43.9246 47.5369 44.0554 47.2316C44.6606 45.8585 45.4997 45.033 46.5725 44.7549C47.8449 44.4391 48.9074 45.0416 49.7602 46.5622C50.5448 48.1016 50.9914 49.7902 51.0704 51.5156C52.0401 49.9091 53.3417 49.3942 54.9751 49.9709ZM43.1115 46.7888C43.1991 45.7178 42.998 44.9661 42.508 44.5438C42.2994 44.3988 42.0567 44.3102 41.8035 44.2867C41.5504 44.2632 41.2955 44.3057 41.0637 44.41C40.9554 44.4563 40.9141 44.5284 40.9502 44.6262C40.9554 44.6489 40.9654 44.6703 40.9794 44.6889C40.9935 44.7075 41.0114 44.7229 41.0319 44.7341C41.0523 44.7453 41.0749 44.752 41.0982 44.7538C41.1215 44.7556 41.1449 44.7525 41.1669 44.7446C41.3455 44.6532 41.5455 44.6111 41.746 44.6229C41.9464 44.6347 42.1401 44.6998 42.3068 44.8116C42.7091 45.1463 42.8639 45.795 42.7762 46.7527C42.7762 46.866 42.7762 46.9227 42.9103 46.9227H42.9516C42.9723 46.9263 42.9935 46.9257 43.014 46.9209C43.0345 46.916 43.0538 46.9071 43.0707 46.8945C43.0876 46.882 43.1018 46.8662 43.1123 46.848C43.1229 46.8298 43.1296 46.8097 43.1321 46.7888H43.1115ZM50.2915 53.7193C50.405 53.7193 50.4617 53.6781 50.4617 53.5855C50.4646 52.6508 50.4077 51.717 50.2915 50.7896C50.1895 49.946 50.017 49.1123 49.7757 48.2974C49.5815 47.5882 49.2445 46.926 48.7854 46.3511C48.4244 45.8766 47.8978 45.5549 47.3101 45.4501C47.288 45.4419 47.2643 45.4391 47.2409 45.4419C47.2175 45.4446 47.1951 45.4529 47.1755 45.4659C47.1559 45.479 47.1396 45.4965 47.1281 45.517C47.1165 45.5375 47.11 45.5604 47.109 45.5839C47.1019 45.606 47.0999 45.6294 47.1032 45.6524C47.1064 45.6753 47.1148 45.6973 47.1277 45.7165C47.1405 45.7358 47.1576 45.752 47.1776 45.7638C47.1976 45.7756 47.22 45.7827 47.2431 45.7847C48.1406 45.9186 48.8473 46.6807 49.3734 48.076C49.9557 49.8521 50.2126 51.7184 50.1316 53.5855C50.1729 53.6781 50.1987 53.7193 50.3122 53.7193H50.2915Z" fill="#EC3205"/>
<path d="M65.2441 45.2491C66.6058 45.6919 67.6632 46.768 68.4111 48.462C69.182 50.3231 69.5341 52.3304 69.4427 54.3422C69.4112 56.5018 68.9556 58.6343 68.1016 60.6188C67.7523 61.5478 67.2269 62.4009 66.5542 63.1315C66.0615 63.6882 65.4129 64.0846 64.6921 64.2694C64.0582 64.4026 63.3992 64.3508 62.794 64.1201C62.0978 63.8296 61.4948 63.3541 61.0505 62.7453C60.4684 61.9812 60.0154 61.1272 59.7094 60.2172C59.248 58.8345 58.9553 57.4013 58.8377 55.9487C58.7011 54.4802 58.7392 53.0007 58.9512 51.5411C59.1258 50.2513 59.4728 48.9906 59.9828 47.7927C60.4105 46.7761 61.1705 45.934 62.1389 45.4035C62.6163 45.1608 63.1398 45.0216 63.6749 44.9949C64.2101 44.9683 64.7448 45.0549 65.2441 45.2491ZM61.2517 48.0965C61.3385 47.6646 61.5349 47.2622 61.8221 46.9277C62.1093 46.5932 62.4777 46.3379 62.892 46.1862C63.2663 45.9869 63.6863 45.8882 64.1104 45.8999C64.5346 45.9116 64.9484 46.0334 65.3111 46.2531C65.3294 46.2646 65.3498 46.2719 65.3712 46.2747C65.3925 46.2775 65.4142 46.2756 65.4348 46.2693C65.4554 46.2629 65.4743 46.2522 65.4904 46.2379C65.5064 46.2235 65.5192 46.2059 65.5277 46.1862C65.5417 46.1678 65.5515 46.1467 65.5564 46.1242C65.5614 46.1017 65.5614 46.0784 65.5565 46.0559C65.5516 46.0334 65.5419 46.0122 65.528 45.9938C65.5142 45.9754 65.4965 45.9603 65.4762 45.9493C65.0661 45.7086 64.6013 45.5762 64.1257 45.5645C63.6501 45.5528 63.1793 45.6622 62.7578 45.8824C62.2947 46.0794 61.886 46.3849 61.5663 46.7732C61.257 47.1361 61.0332 47.5637 60.9113 48.0244C60.9057 48.069 60.9161 48.1141 60.9406 48.1518C60.9652 48.1895 61.0023 48.2173 61.0454 48.2303H61.0815C61.1212 48.2323 61.1604 48.2198 61.1917 48.1952C61.2229 48.1706 61.2443 48.1355 61.2517 48.0965ZM65.0068 61.8803C65.4091 62.1274 65.8682 62.0245 66.384 61.5662C67.0334 60.8803 67.5154 60.0538 67.7922 59.1513C68.2399 57.8831 68.5107 56.5594 68.5968 55.2175C68.7054 53.7755 68.6029 52.3254 68.2925 50.913C68.074 49.619 67.507 48.4087 66.6522 47.4117C66.5254 47.3011 66.3746 47.2213 66.2118 47.1784C66.049 47.1355 65.8784 47.1307 65.7134 47.1645C65.3167 47.1754 64.9359 47.3227 64.6354 47.5816C64.1803 48.2356 63.8675 48.9775 63.7173 49.7596C63.3794 51.1083 63.1875 52.4892 63.1447 53.8788C63.0761 55.5845 63.2745 57.2904 63.7327 58.9351C63.8875 59.4037 64.1041 59.9649 64.3878 60.6754C64.5231 61.1096 64.7325 61.5172 65.0068 61.8803Z" fill="#EC3205"/>
<path d="M78.9292 61.2583C79.3315 61.4797 79.347 61.8608 78.9653 62.3963C78.541 63.0655 77.937 63.6022 77.222 63.9454C76.507 64.2886 75.7099 64.4245 74.9213 64.3374C74.4031 64.3604 73.8859 64.2741 73.4033 64.0843C72.9207 63.8944 72.4836 63.6052 72.1205 63.2355C71.5127 62.4263 71.1253 61.4737 70.996 60.4705C70.7219 58.9897 70.5872 57.4865 70.5937 55.9806C70.5937 54.2986 70.6109 52.8809 70.6452 51.7276C70.6796 50.5742 70.7467 49.4311 70.8464 48.2983C70.8464 48.2057 70.8464 47.974 70.8774 47.5929C70.9083 47.2119 70.9186 46.9442 70.9289 46.7897C70.9393 46.6352 70.9754 46.3778 71.0321 46.0173C71.0611 45.7465 71.1289 45.4812 71.2333 45.2295C71.3106 45.0648 71.4086 44.8588 71.5324 44.6117C71.6341 44.4021 71.791 44.2241 71.9863 44.0968C72.1864 43.9752 72.4014 43.88 72.626 43.8136C72.9087 43.7313 73.2042 43.7017 73.4977 43.726C73.7642 43.7525 74.0229 43.8317 74.2584 43.959C74.494 44.0863 74.7018 44.2591 74.8697 44.4675C75.1667 44.9539 75.3021 45.5216 75.2566 46.0894C75.2566 46.7948 75.1947 47.6856 75.107 48.7669C75.0193 49.8482 74.9368 51.1509 74.8697 52.6698C74.8091 54.4233 74.8538 56.1788 75.0038 57.9269C75.0038 58.0402 75.1276 58.8332 75.3752 60.3058C75.3987 60.5306 75.4825 60.7449 75.6177 60.9261C75.753 61.1073 75.9347 61.2488 76.1438 61.3356C76.9932 61.7372 77.5863 61.871 77.9233 61.7372L78.1761 61.5673C78.2599 61.5137 78.3392 61.4534 78.4133 61.387C78.4775 61.3228 78.5576 61.2766 78.6455 61.2532C78.6903 61.2336 78.7389 61.224 78.7879 61.2248C78.8368 61.2257 78.885 61.2371 78.9292 61.2583ZM74.5345 46.7897C74.6479 45.7187 74.4468 44.967 73.931 44.5447C73.7296 44.3989 73.4928 44.3096 73.2452 44.286C72.9975 44.2625 72.7481 44.3056 72.5228 44.4109C72.4093 44.4572 72.3732 44.5293 72.4042 44.6271C72.41 44.65 72.4205 44.6714 72.4351 44.6901C72.4497 44.7087 72.468 44.724 72.4889 44.7352C72.5097 44.7463 72.5327 44.753 72.5563 44.7548C72.5799 44.7566 72.6036 44.7534 72.626 44.7455C72.7973 44.651 72.9922 44.607 73.1876 44.6189C73.3831 44.6307 73.5711 44.6979 73.7298 44.8125C74.1579 45.1471 74.323 45.7959 74.2456 46.7536C74.2198 46.8669 74.2456 46.9236 74.3797 46.9236C74.5138 46.9236 74.5345 46.8772 74.5345 46.7897Z" fill="#EC3205"/>
<path d="M85.5731 45.2485C86.94 45.6913 87.9974 46.7675 88.7453 48.4615C89.525 50.3206 89.886 52.3279 89.8028 54.3416C89.7687 56.501 89.3132 58.633 88.4616 60.6182C88.1106 61.5464 87.5854 62.3992 86.9142 63.1309C86.4207 63.6867 85.7724 64.0829 85.0521 64.2689C84.4182 64.4024 83.7591 64.3505 83.154 64.1195C82.4578 63.829 81.8548 63.3535 81.4105 62.7448C80.8284 61.9807 80.3754 61.1267 80.0694 60.2166C79.6088 58.8335 79.3144 57.4006 79.1925 55.9481C79.0602 54.4793 79.1 53.0001 79.3112 51.5406C79.4916 50.249 79.8474 48.9879 80.3686 47.7921C80.7824 46.7873 81.5215 45.9498 82.4679 45.4133C82.9444 45.1683 83.4676 45.0269 84.0028 44.9985C84.5381 44.9701 85.0733 45.0553 85.5731 45.2485ZM81.5807 48.0959C81.6681 47.6634 81.8653 47.2606 82.1534 46.9261C82.4415 46.5916 82.8109 46.3367 83.2262 46.1857C83.5996 45.9863 84.0187 45.8876 84.4421 45.8993C84.8654 45.911 85.2784 46.0328 85.6402 46.2526C85.6588 46.2641 85.6797 46.2715 85.7014 46.2743C85.7231 46.2771 85.7452 46.2753 85.7662 46.269C85.7871 46.2626 85.8065 46.2519 85.823 46.2376C85.8395 46.2232 85.8528 46.2055 85.862 46.1857C85.8751 46.167 85.8842 46.1458 85.8887 46.1235C85.8932 46.1012 85.893 46.0782 85.8882 46.0559C85.8833 46.0337 85.8739 46.0127 85.8605 45.9942C85.8471 45.9758 85.8301 45.9603 85.8104 45.9488C85.4003 45.7081 84.9355 45.5756 84.4599 45.5639C83.9843 45.5522 83.5136 45.6616 83.0921 45.8818C82.6289 46.0788 82.2202 46.3844 81.9005 46.7726C81.5912 47.1356 81.3674 47.5631 81.2455 48.0238C81.2399 48.0684 81.2503 48.1136 81.2748 48.1513C81.2994 48.189 81.3365 48.2168 81.3796 48.2298H81.4157C81.4551 48.2328 81.4942 48.2206 81.5249 48.1957C81.5556 48.1708 81.5756 48.135 81.5807 48.0959ZM85.341 61.8797C85.7433 62.1269 86.2024 62.0239 86.7182 61.5657C87.3677 60.8797 87.8496 60.0533 88.1264 59.1508C88.5741 57.8826 88.8449 56.5589 88.931 55.217C89.037 53.775 88.9345 52.3253 88.6267 50.9124C88.4038 49.6198 87.8373 48.4106 86.9864 47.4111C86.8588 47.3001 86.7072 47.22 86.5435 47.1772C86.3797 47.1343 86.2083 47.1298 86.0425 47.1639C85.6473 47.1748 85.2681 47.3222 84.9696 47.581C84.5117 48.2341 84.1971 48.9763 84.0463 49.759C83.713 51.1084 83.5228 52.4891 83.4789 53.8782C83.4104 55.5839 83.6088 57.2899 84.0669 58.9345C84.2217 59.4031 84.4383 59.9643 84.722 60.6749C84.8573 61.1091 85.0667 61.5167 85.341 61.8797Z" fill="#EC3205"/>
<path d="M43.3821 10.4241C43.9956 10.9913 44.4749 11.6876 44.7854 12.4626C45.1954 13.4119 45.471 14.4135 45.6044 15.4387C45.7625 16.6256 45.8337 17.8224 45.8173 19.0197C45.8056 20.31 45.6869 21.5971 45.4624 22.8678C45.2381 24.1374 44.941 25.3931 44.5724 26.6287C44.2355 27.7729 43.7587 28.8712 43.1527 29.899C42.606 30.8212 41.9497 31.6741 41.198 32.439C40.5484 33.1204 39.7164 33.6009 38.8009 33.8235C37.8597 34.0355 36.8794 33.9998 35.9562 33.7199C35.8965 33.715 35.8377 33.7021 35.7814 33.6818C35.5836 34.0912 35.2604 34.4271 34.8586 34.6411C34.5586 34.7939 34.2328 34.89 33.8976 34.9245C33.6169 34.9499 33.3344 34.901 33.0786 34.7828C32.853 34.6633 32.6453 34.5129 32.4616 34.3358C32.2441 34.1416 32.0597 33.9133 31.9156 33.66C31.7627 33.3765 31.6262 33.0985 31.5061 32.826C31.3816 32.5274 31.2812 32.2194 31.2057 31.9049C31.1238 31.5615 31.0529 31.2726 30.9928 31.0328C30.9255 30.7651 30.8726 30.494 30.8345 30.2206C29.9549 24.9271 29.6929 19.5497 30.0536 14.1959C30.057 14.0519 30.0679 13.9082 30.0864 13.7653C30.0864 13.2203 30.1355 12.8115 30.1574 12.528C30.1966 12.1388 30.2622 11.7528 30.354 11.3725C30.4213 10.9843 30.5661 10.6136 30.7798 10.2824C30.9833 10.0086 31.2516 9.78951 31.5607 9.64468C31.9528 9.45618 32.3882 9.37529 32.822 9.41031C33.1508 9.46465 33.4682 9.57331 33.7611 9.73188C34.0148 9.87636 34.22 10.0926 34.3508 10.3533C34.4938 10.6192 34.5933 10.9063 34.6457 11.2035C34.6971 11.6266 34.7135 12.0532 34.6948 12.479C34.6948 13.0241 34.6621 13.5691 34.6239 14.076C34.5856 14.5829 34.5474 15.2915 34.5037 16.169C34.46 17.0466 34.4327 17.8805 34.4327 18.6872C35.2117 15.3079 36.3948 12.8024 37.9819 11.1708C38.6541 10.412 39.5613 9.89972 40.5591 9.71554C41.0532 9.63221 41.5592 9.65216 42.0451 9.77413C42.531 9.89609 42.9863 10.1174 43.3821 10.4241ZM33.5536 10.7947C33.5745 10.7857 33.5932 10.7722 33.6084 10.7553C33.6237 10.7383 33.635 10.7183 33.6417 10.6965C33.6485 10.6748 33.6504 10.6519 33.6475 10.6293C33.6445 10.6067 33.6367 10.5851 33.6246 10.5658C33.4833 10.3559 33.2831 10.1922 33.049 10.0953C32.8149 9.99831 32.5574 9.9724 32.3087 10.0208C32.0409 10.0478 31.7871 10.1534 31.5792 10.324C31.3712 10.4947 31.2185 10.723 31.1402 10.9801C31.1262 11.022 31.1292 11.0678 31.1486 11.1075C31.168 11.1472 31.2023 11.1778 31.244 11.1927H31.315C31.3476 11.1935 31.3795 11.1832 31.4053 11.1633C31.4312 11.1435 31.4494 11.1153 31.4569 11.0836C31.5199 10.8918 31.6377 10.7225 31.7959 10.5966C31.954 10.4707 32.1455 10.3937 32.3469 10.3751C32.5281 10.3302 32.7189 10.344 32.8917 10.4145C33.0645 10.4851 33.2102 10.6087 33.3079 10.7675C33.3213 10.7867 33.3386 10.8029 33.3587 10.8149C33.3788 10.8269 33.4013 10.8344 33.4246 10.837C33.4479 10.8396 33.4714 10.8372 33.4937 10.8299C33.516 10.8226 33.5364 10.8106 33.5536 10.7947ZM36.109 31.3435C37.2011 31.2236 38.1457 30.2206 38.9538 28.3293C39.799 26.2498 40.3698 24.0695 40.652 21.8431C40.9889 19.5299 41.1259 17.1921 41.0615 14.8554C41.0429 14.3921 40.9603 13.9335 40.8158 13.4928C40.6689 13.0704 40.4127 12.6943 40.0732 12.4027C39.7292 12.1029 39.2814 12.1247 38.7409 12.4517C37.8597 13.081 37.1699 13.9411 36.7479 14.9372C36.1644 16.0856 35.7014 17.2911 35.3664 18.5346C35.0674 19.647 34.8413 20.7777 34.6894 21.9194C34.6198 22.2795 34.5723 22.6436 34.5474 23.0095C34.6747 25.0881 34.9117 27.1586 35.2572 29.2123C35.312 29.6086 35.3959 30.0002 35.5084 30.3842C35.6504 30.9292 35.7432 31.2454 35.7923 31.4089C35.9005 31.4022 36.0071 31.3802 36.109 31.3435ZM44.6325 20.7748C44.7526 20.7748 44.8127 20.7203 44.8127 20.6003C45.0019 17.7406 44.8654 15.4841 44.4031 13.8307C43.9408 12.1774 43.1891 11.2072 42.1481 10.9201C42.1248 10.9118 42.1 10.9085 42.0754 10.9104C42.0508 10.9123 42.0268 10.9195 42.0052 10.9313C41.9835 10.9432 41.9646 10.9595 41.9497 10.9791C41.9348 10.9988 41.9242 11.0214 41.9187 11.0455C41.8805 11.149 41.9187 11.2308 42.0443 11.2744C42.9908 11.5142 43.6769 12.4426 44.1028 14.0596C44.5615 16.2006 44.6867 18.3995 44.4741 20.5786C44.4693 20.6021 44.4698 20.6265 44.4754 20.6499C44.4811 20.6733 44.4919 20.6951 44.5071 20.7139C44.5222 20.7326 44.5413 20.7478 44.5629 20.7583C44.5846 20.7688 44.6084 20.7745 44.6325 20.7748Z" fill="#EC3205"/>
<path d="M53.5163 14.9644C54.9578 15.4332 56.0772 16.5724 56.8689 18.3656C57.6849 20.3357 58.0577 22.4605 57.961 24.5902C57.9276 26.8763 57.4453 29.1337 56.5413 31.2344C56.1715 32.2179 55.6154 33.121 54.9032 33.8943C54.3817 34.4837 53.6951 34.9033 52.9321 35.0989C52.261 35.2399 51.5634 35.185 50.9227 34.9408C50.1858 34.6333 49.5475 34.1299 49.0772 33.4855C48.461 32.6767 47.9814 31.7727 47.6575 30.8093C47.1691 29.3456 46.8593 27.8285 46.7347 26.2907C46.5902 24.7362 46.6305 23.1701 46.8548 21.625C47.0397 20.2596 47.407 18.9251 47.9469 17.657C48.3997 16.5809 49.2042 15.6895 50.2293 15.128C50.7347 14.871 51.2888 14.7236 51.8553 14.6954C52.4218 14.6672 52.9878 14.7589 53.5163 14.9644ZM49.2901 17.9786C49.382 17.5214 49.59 17.0954 49.894 16.7414C50.198 16.3873 50.5879 16.1171 51.0265 15.9565C51.4228 15.7454 51.8673 15.641 52.3163 15.6534C52.7653 15.6658 53.2033 15.7947 53.5873 16.0273C53.6066 16.0394 53.6283 16.0472 53.6509 16.0501C53.6735 16.0531 53.6965 16.0511 53.7183 16.0444C53.74 16.0377 53.7601 16.0263 53.7771 16.0111C53.7941 15.996 53.8076 15.9773 53.8166 15.9565C53.8314 15.937 53.8417 15.9146 53.847 15.8908C53.8523 15.867 53.8523 15.8424 53.8471 15.8186C53.8419 15.7947 53.8316 15.7723 53.817 15.7528C53.8023 15.7333 53.7835 15.7173 53.762 15.7057C53.3279 15.4509 52.8359 15.3107 52.3325 15.2983C51.829 15.2859 51.3307 15.4017 50.8845 15.6349C50.3942 15.8434 49.9616 16.1668 49.6232 16.5778C49.2958 16.962 49.0588 17.4146 48.9297 17.9023C48.9238 17.9495 48.9348 17.9973 48.9608 18.0372C48.9868 18.0771 49.0261 18.1065 49.0717 18.1203H49.1099C49.152 18.1224 49.1935 18.1092 49.2266 18.0831C49.2597 18.0571 49.2823 18.0199 49.2901 17.9786ZM53.2652 32.5698C53.6911 32.8315 54.177 32.7225 54.723 32.2374C55.4105 31.5112 55.9207 30.6364 56.2137 29.681C56.6877 28.3385 56.9743 26.9373 57.0655 25.5168C57.1805 23.9903 57.0719 22.4553 56.7433 20.9601C56.512 19.5903 55.9118 18.3091 55.007 17.2537C54.8727 17.1366 54.7132 17.0521 54.5408 17.0068C54.3684 16.9614 54.1879 16.9563 54.0132 16.992C53.5932 17.0036 53.1901 17.1596 52.872 17.4335C52.3903 18.1259 52.0592 18.9113 51.9001 19.7392C51.5425 21.1668 51.3393 22.6287 51.294 24.0996C51.2214 25.9052 51.4315 27.7111 51.9165 29.4521C52.0803 29.9481 52.3096 30.5422 52.6099 31.2944C52.7532 31.754 52.9748 32.1855 53.2652 32.5698Z" fill="#EC3205"/>
<path d="M64.382 16.8773C65.07 15.4601 66.0165 14.6208 67.2213 14.3591C68.6774 14.0539 69.9096 14.7806 70.9179 16.5394C72.5269 19.3809 73.011 24.192 72.3703 30.9725C72.3703 31.0634 72.3594 31.216 72.3376 31.4303C72.2884 31.9045 72.2557 32.2697 72.2284 32.5205C72.1901 32.8867 72.1317 33.2507 72.0537 33.6106C71.9832 33.9878 71.8639 34.3542 71.6987 34.7007C71.5422 34.9893 71.3594 35.263 71.1527 35.5183C70.9466 35.7818 70.6616 35.9728 70.3391 36.0633C69.967 36.1618 69.5756 36.1618 69.2034 36.0633C68.6756 35.9598 68.2059 35.6622 67.8875 35.2294C67.5595 34.8132 67.3946 34.292 67.4234 33.7632C67.4234 33.7632 67.4234 33.3762 67.4944 32.6731C67.5653 31.97 67.5872 31.3323 67.6199 30.7436C67.6527 30.1549 67.6964 29.2774 67.7455 28.1164C67.7947 26.9554 67.8165 25.9362 67.8165 24.9605C67.8165 23.9848 67.8165 22.8348 67.7783 21.4176C67.7055 18.0164 67.1267 16.4685 66.0419 16.7737C64.8079 17.108 64.038 19.4118 63.7323 23.6851C63.7983 25.716 63.9806 27.7415 64.2783 29.7516C64.3459 30.1984 64.4407 30.6407 64.5622 31.0761C64.6958 31.5731 64.8015 32.0771 64.8789 32.5859C64.9192 33.001 64.8593 33.4196 64.7042 33.8068C64.5404 34.2706 64.2121 34.6584 63.7814 34.8969C63.4707 35.0489 63.133 35.1378 62.7876 35.1586C62.5124 35.1796 62.2363 35.1308 61.985 35.0168C61.7397 34.8978 61.5221 34.7289 61.3461 34.5208C61.1493 34.3043 60.9772 34.0667 60.8329 33.8123C60.6784 33.5402 60.5469 33.2558 60.4397 32.962C60.3251 32.6458 60.2268 32.346 60.1558 32.079C60.0848 31.8119 60.0138 31.5339 59.9428 31.2069C59.1548 26.7266 58.9164 22.1673 59.233 17.6295C59.233 17.1825 59.2767 16.8936 59.2876 16.7628C59.2985 16.632 59.3313 16.3595 59.375 15.9452C59.4003 15.6431 59.4608 15.345 59.5552 15.0568C59.6262 14.8824 59.7244 14.648 59.8555 14.3482C59.9506 14.0982 60.1178 13.882 60.336 13.7268C60.5552 13.5972 60.7877 13.4912 61.0294 13.4107C61.3323 13.3133 61.6514 13.2763 61.9686 13.3017C62.5284 13.3531 63.0458 13.6211 63.4101 14.0484C63.7103 14.5397 63.8585 15.1086 63.836 15.6836C63.836 16.3922 63.836 17.3188 63.7432 18.4089C63.9232 17.8853 64.1366 17.3737 64.382 16.8773ZM63.1371 16.5939C63.2572 15.4601 63.0552 14.6644 62.5365 14.2174C62.3157 14.0638 62.0587 13.9701 61.7908 13.9452C61.5228 13.9204 61.253 13.9653 61.0076 14.0757C60.8875 14.1247 60.8492 14.201 60.882 14.3046C60.8882 14.3282 60.8992 14.3503 60.9143 14.3695C60.9294 14.3888 60.9482 14.4048 60.9697 14.4165C60.9911 14.4282 61.0148 14.4355 61.0391 14.4378C61.0635 14.4401 61.088 14.4374 61.1113 14.43C61.2943 14.3319 61.5011 14.2866 61.7084 14.2991C61.9157 14.3116 62.1155 14.3814 62.2853 14.5008C62.733 14.8551 62.9132 15.5419 62.8313 16.5557C62.804 16.6756 62.8313 16.7356 62.9733 16.7356C63.1152 16.7356 63.1371 16.6865 63.1371 16.5939ZM71.3602 23.9304C71.4694 23.9304 71.5185 23.8868 71.5185 23.7886C71.5474 22.7999 71.4999 21.8104 71.3766 20.829C71.2713 19.9355 71.0886 19.0528 70.8306 18.1909C70.6245 17.4414 70.2698 16.7408 69.7877 16.1306C69.3937 15.6229 68.8224 15.2823 68.1878 15.1767C68.095 15.1495 68.0349 15.1767 68.0076 15.3184C68.0002 15.3418 67.9981 15.3666 68.0015 15.3909C68.0049 15.4152 68.0138 15.4384 68.0274 15.4588C68.041 15.4792 68.0591 15.4963 68.0802 15.5088C68.1014 15.5213 68.1251 15.5289 68.1496 15.531C69.0997 15.6727 69.8423 16.4794 70.3883 17.9565C70.9951 19.8391 71.2722 21.8121 71.2073 23.7886C71.2292 23.8868 71.2565 23.9304 71.3602 23.9304Z" fill="#EC3205"/>
</svg>
