<svg width="138" height="50" viewBox="0 0 138 50" fill="none" xmlns="http://www.w3.org/2000/svg">
<path d="M0 10C0 4.47715 4.47715 0 10 0H128C133.523 0 138 4.47715 138 10V40C138 45.5228 133.523 50 128 50H10C4.47715 50 0 45.5228 0 40V10Z" fill="#C4C4C4"/>
<path d="M10 1H128V-1H10V1ZM137 10V40H139V10H137ZM128 49H10V51H128V49ZM1 40V10H-1V40H1ZM10 49C5.02944 49 1 44.9706 1 40H-1C-1 46.0751 3.92487 51 10 51V49ZM137 40C137 44.9706 132.971 49 128 49V51C134.075 51 139 46.0751 139 40H137ZM128 1C132.971 1 137 5.02944 137 10H139C139 3.92487 134.075 -1 128 -1V1ZM10 -1C3.92487 -1 -1 3.92487 -1 10H1C1 5.02944 5.02944 1 10 1V-1Z" fill="#EC3205"/>
</svg>
