<svg width="128" height="134" viewBox="0 0 128 134" fill="none" xmlns="http://www.w3.org/2000/svg">
<g filter="url(#filter0_d_821_14195)">
<rect x="10" y="8" width="108" height="114" rx="54" fill="#00E676"/>
</g>
<path fill-rule="evenodd" clip-rule="evenodd" d="M99.153 63.0654C98.84 54.1911 95.1151 45.7798 88.7543 39.5837C82.3936 33.3876 73.8875 29.8846 65.008 29.8044C56.1286 29.7242 47.5606 33.073 41.089 39.1532C34.6173 45.2333 30.7411 53.576 30.2678 62.4432C30.2678 62.9362 30.2678 63.441 30.2678 63.9458C30.2609 70.1771 31.9708 76.2899 35.21 81.6132L29 99.9614L48.0878 93.8923C53.3197 96.7665 59.2078 98.2341 65.1765 98.1516C71.1453 98.0691 76.9906 96.4395 82.1411 93.4218C87.2915 90.4042 91.5709 86.1019 94.5609 80.9353C97.551 75.7688 99.1494 69.9149 99.2 63.9458C99.1648 63.6523 99.1648 63.3588 99.153 63.0654ZM64.6987 92.6949C59.0337 92.7067 53.4901 91.0535 48.757 87.9406L37.6283 91.4623L41.2439 80.7797C37.6528 75.8934 35.7194 69.9863 35.7265 63.9223C35.726 62.9892 35.773 62.0567 35.8674 61.1284C36.6274 53.9599 40.0303 47.3316 45.4125 42.5361C50.7947 37.7407 57.7703 35.122 64.9786 35.1909C72.1869 35.2598 79.1111 38.0113 84.4007 42.9088C89.6903 47.8063 92.9659 54.4985 93.5887 61.6801C93.5887 62.4197 93.6826 63.1592 93.6826 63.9223C93.6484 71.5794 90.577 78.91 85.1428 84.3045C79.7086 89.6991 72.3558 92.7167 64.6987 92.6949V92.6949Z" fill="white"/>
<path fill-rule="evenodd" clip-rule="evenodd" d="M80.5582 70.9068C79.7013 70.4842 75.5573 68.4533 74.7826 68.1833C74.0078 67.9133 73.4443 67.7607 72.8808 68.5942C72.3174 69.4276 70.6856 71.3294 70.2043 71.8694C69.723 72.4094 69.2182 72.5033 68.3613 72.0807C65.8679 71.1078 63.5667 69.7008 61.5643 67.925C59.7181 66.2375 58.1353 64.2827 56.8687 62.1259C56.3874 61.2924 56.8687 60.8346 57.2443 60.412C57.62 59.9894 58.0778 59.4376 58.5122 58.9446C58.6295 58.8037 58.7235 58.6746 58.8174 58.5455C59.0169 58.2238 59.1972 57.8906 59.3574 57.5476C59.4722 57.3175 59.526 57.0617 59.5137 56.8048C59.5014 56.5479 59.4233 56.2984 59.2869 56.0803C59.0874 55.6576 57.3852 51.5255 56.6809 49.8468C55.9765 48.1681 55.2722 48.4616 54.7791 48.4616C54.2861 48.4616 53.7226 48.3794 53.1591 48.3794C52.7321 48.3907 52.3118 48.4893 51.9242 48.6689C51.5366 48.8486 51.1898 49.1056 50.9052 49.4242C49.9461 50.3254 49.1871 51.4181 48.6775 52.6315C48.1679 53.8449 47.919 55.1519 47.9469 56.4677C47.9613 57.4339 48.1074 58.3936 48.3813 59.3203C49.0467 61.4157 50.0672 63.3812 51.3982 65.1311C51.8209 65.6829 57.2678 74.4285 65.8256 77.7976C74.3835 81.1668 74.4304 80.0281 75.98 79.8755C77.5295 79.7229 80.9808 77.8681 81.6735 75.8959C82.2269 74.643 82.3984 73.2546 82.1665 71.9046C81.9082 71.482 81.333 71.2707 80.5582 70.9068Z" fill="white"/>
<defs>
<filter id="filter0_d_821_14195" x="0" y="0" width="128" height="134" filterUnits="userSpaceOnUse" color-interpolation-filters="sRGB">
<feFlood flood-opacity="0" result="BackgroundImageFix"/>
<feColorMatrix in="SourceAlpha" type="matrix" values="0 0 0 0 0 0 0 0 0 0 0 0 0 0 0 0 0 0 127 0" result="hardAlpha"/>
<feOffset dy="2"/>
<feGaussianBlur stdDeviation="5"/>
<feComposite in2="hardAlpha" operator="out"/>
<feColorMatrix type="matrix" values="0 0 0 0 0 0 0 0 0 0 0 0 0 0 0 0 0 0 0.15 0"/>
<feBlend mode="normal" in2="BackgroundImageFix" result="effect1_dropShadow_821_14195"/>
<feBlend mode="normal" in="SourceGraphic" in2="effect1_dropShadow_821_14195" result="shape"/>
</filter>
</defs>
</svg>
