<svg width="342" height="600" viewBox="0 0 342 600" fill="none" xmlns="http://www.w3.org/2000/svg">
<g filter="url(#filter0_d_821_14205)">
<rect x="10" y="8" width="322" height="580" rx="10" fill="white"/>
</g>
<path fill-rule="evenodd" clip-rule="evenodd" d="M206.153 379.065C205.84 370.191 202.115 361.78 195.754 355.584C189.394 349.388 180.887 345.885 172.008 345.804C163.129 345.724 154.561 349.073 148.089 355.153C141.617 361.233 137.741 369.576 137.268 378.443C137.268 378.936 137.268 379.441 137.268 379.946C137.261 386.177 138.971 392.29 142.21 397.613L136 415.961L155.088 409.892C160.32 412.766 166.208 414.234 172.177 414.152C178.145 414.069 183.991 412.439 189.141 409.422C194.292 406.404 198.571 402.102 201.561 396.935C204.551 391.769 206.149 385.915 206.2 379.946C206.165 379.652 206.165 379.359 206.153 379.065ZM171.699 408.695C166.034 408.707 160.49 407.053 155.757 403.941L144.628 407.462L148.244 396.78C144.653 391.893 142.719 385.986 142.727 379.922C142.726 378.989 142.773 378.057 142.867 377.128C143.627 369.96 147.03 363.332 152.413 358.536C157.795 353.741 164.77 351.122 171.979 351.191C179.187 351.26 186.111 354.011 191.401 358.909C196.69 363.806 199.966 370.498 200.589 377.68C200.589 378.42 200.683 379.159 200.683 379.922C200.648 387.579 197.577 394.91 192.143 400.305C186.709 405.699 179.356 408.717 171.699 408.695V408.695Z" fill="white"/>
<path fill-rule="evenodd" clip-rule="evenodd" d="M187.558 386.907C186.701 386.484 182.557 384.453 181.783 384.183C181.008 383.913 180.444 383.761 179.881 384.594C179.317 385.428 177.686 387.329 177.204 387.869C176.723 388.409 176.218 388.503 175.361 388.081C172.868 387.108 170.567 385.701 168.564 383.925C166.718 382.237 165.135 380.283 163.869 378.126C163.387 377.292 163.869 376.835 164.244 376.412C164.62 375.989 165.078 375.438 165.512 374.945C165.63 374.804 165.723 374.675 165.817 374.545C166.017 374.224 166.197 373.891 166.357 373.548C166.472 373.317 166.526 373.062 166.514 372.805C166.501 372.548 166.423 372.298 166.287 372.08C166.087 371.658 164.385 367.525 163.681 365.847C162.977 364.168 162.272 364.462 161.779 364.462C161.286 364.462 160.723 364.379 160.159 364.379C159.732 364.391 159.312 364.489 158.924 364.669C158.537 364.849 158.19 365.106 157.905 365.424C156.946 366.325 156.187 367.418 155.678 368.632C155.168 369.845 154.919 371.152 154.947 372.468C154.961 373.434 155.107 374.394 155.381 375.32C156.047 377.416 157.067 379.381 158.398 381.131C158.821 381.683 164.268 390.429 172.826 393.798C181.383 397.167 181.43 396.028 182.98 395.875C184.53 395.723 187.981 393.868 188.673 391.896C189.227 390.643 189.398 389.255 189.166 387.905C188.908 387.482 188.333 387.271 187.558 386.907Z" fill="white"/>
<defs>
<filter id="filter0_d_821_14205" x="0" y="0" width="342" height="600" filterUnits="userSpaceOnUse" color-interpolation-filters="sRGB">
<feFlood flood-opacity="0" result="BackgroundImageFix"/>
<feColorMatrix in="SourceAlpha" type="matrix" values="0 0 0 0 0 0 0 0 0 0 0 0 0 0 0 0 0 0 127 0" result="hardAlpha"/>
<feOffset dy="2"/>
<feGaussianBlur stdDeviation="5"/>
<feComposite in2="hardAlpha" operator="out"/>
<feColorMatrix type="matrix" values="0 0 0 0 0 0 0 0 0 0 0 0 0 0 0 0 0 0 0.15 0"/>
<feBlend mode="normal" in2="BackgroundImageFix" result="effect1_dropShadow_821_14205"/>
<feBlend mode="normal" in="SourceGraphic" in2="effect1_dropShadow_821_14205" result="shape"/>
</filter>
</defs>
</svg>
