<svg width="753" height="792" viewBox="0 0 753 792" fill="none" xmlns="http://www.w3.org/2000/svg">
<circle cx="376.5" cy="376.5" r="376.5" fill="#FFF485"/>
<path d="M599.684 693.741C628.891 693.741 647.851 672.247 654 666.618C646.143 708.412 606.96 792 513.085 792C419.209 792 383.101 740.312 376.781 715.235C368.582 739.288 335.685 792 238.94 792C142.195 792 104.003 707.388 97 665.082C101.27 674.635 118.112 693.741 151.316 693.741C192.822 693.741 234.328 618 294.794 618C332.508 618 365.166 647.341 376.781 662.012C385.663 647.341 414.188 618 457.231 618C511.035 618 554.078 693.741 599.684 693.741Z" fill="#313638"/>
<path d="M431.522 631.292C435.15 628.07 447.402 622.592 467.393 626.459C487.384 630.325 503.666 643.107 509.309 649.014" stroke="white" stroke-width="1.96102"/>
<path d="M119.57 708.223C126.702 725.288 152.023 763.188 196.254 778.261" stroke="white" stroke-width="1.96102"/>
<path d="M149.415 458.265C157.651 468.665 164.66 479.978 170.303 491.979C172.494 496.402 173.843 501.192 174.282 506.106C174.804 510.957 174.04 515.86 172.067 520.323C171.231 522.393 169.914 524.234 168.223 525.694C166.533 527.154 164.518 528.191 162.346 528.718C159.152 529.492 155.806 529.383 152.67 528.402C150.015 527.565 147.523 526.283 145.3 524.611C142.863 522.403 140.868 519.754 139.422 516.803C137.478 513.192 135.986 510.213 134.901 507.776C133.816 505.339 132.55 501.999 130.787 497.486C130.199 495.545 129.702 494.055 129.34 492.972C126.039 485.141 121.787 477.744 116.68 470.947C114.163 468.349 111.064 466.384 107.637 465.215C104.4 464.133 101.543 462.143 99.4085 459.483C100.358 469.096 101.669 478.574 103.206 487.962C103.81 491.889 104.702 495.765 105.874 499.562C107.184 504.006 108.211 508.528 108.949 513.102C109.4 516.814 108.998 520.58 107.773 524.114C106.472 528.028 103.678 531.271 99.9963 533.141C97.5116 534.407 94.8136 535.202 92.0387 535.488C89.7285 535.703 87.4027 535.298 85.3019 534.314C83.3578 533.361 81.5733 532.112 80.0119 530.613C78.1906 528.989 76.6614 527.066 75.4906 524.927C74.2246 522.58 73.0943 520.278 72.0996 518.021C71.0692 515.549 70.2377 512.998 69.6129 510.394C68.9347 507.55 68.3469 505.158 67.8495 503.172C67.2919 500.956 66.8542 498.711 66.5383 496.447C59.2554 452.614 57.0857 408.087 60.0728 363.755C60.1006 362.562 60.1911 361.372 60.3441 360.189C60.3441 355.676 60.751 352.291 60.9319 349.944C61.2563 346.721 61.8001 343.525 62.5596 340.376C63.1581 337.173 64.3544 334.111 66.0862 331.349C67.7814 329.092 70.0001 327.28 72.5517 326.068C75.7989 324.507 79.4037 323.837 82.996 324.127C85.6999 324.579 88.321 325.431 90.7728 326.655C92.7804 327.775 94.3677 329.518 95.2941 331.62C96.3465 333.869 97.1354 336.231 97.6452 338.661C98.4971 342.137 98.997 345.69 99.1372 349.267C99.1372 353.78 98.8208 357.933 98.5495 362.04C98.2782 366.147 97.8713 371.743 97.5096 378.784C97.1478 385.825 96.9218 392.324 96.9218 398.733C98.2782 391.512 99.9511 384.561 101.895 377.882C103.839 371.202 106.417 364.748 108.813 358.384C111.115 352.702 114.026 347.284 117.494 342.226C120.496 337.949 124.123 334.146 128.255 330.943C131.851 327.942 136.324 326.185 141.005 325.933C146.105 325.85 151.154 326.963 155.744 329.182C160.311 331.807 164.312 335.307 167.517 339.483C170.722 343.658 173.067 348.425 174.418 353.509C178.456 365.703 180.099 378.561 179.255 391.377C178.492 404.824 175.434 418.042 170.213 430.462C166.076 441.519 158.86 451.165 149.415 458.265V458.265ZM92.6717 352.246C93.6363 342.858 91.9634 336.314 87.653 332.613C85.8287 331.334 83.7032 330.549 81.4843 330.336C79.2653 330.122 77.0288 330.487 74.9933 331.394C74.0438 331.8 73.6821 332.432 73.9986 333.335C74.0503 333.53 74.1413 333.713 74.2661 333.873C74.3909 334.032 74.5469 334.164 74.7246 334.261C74.9023 334.358 75.0979 334.418 75.2996 334.437C75.5012 334.457 75.7047 334.435 75.8975 334.373C77.405 333.535 79.1214 333.144 80.8439 333.248C82.5663 333.352 84.2231 333.946 85.6184 334.96C89.3259 337.893 90.7728 343.535 90.1398 351.975C90.1398 352.968 90.1397 353.419 91.3153 353.419C92.4908 353.419 92.6717 353.058 92.6717 352.246V352.246ZM115.595 361.679C109.135 374.563 104.727 388.375 102.528 402.615C99.8873 415.914 98.3749 429.411 98.0069 442.964C98.6171 442.14 99.4152 441.473 100.335 441.017C101.255 440.562 102.27 440.332 103.297 440.346C105.851 440.397 108.382 440.839 110.802 441.655C112.841 442.385 114.971 442.826 117.132 442.964C120.84 442.964 124.728 439.85 128.752 433.576C133.155 426.461 136.52 418.756 138.744 410.694C141.387 401.767 143.262 392.632 144.351 383.388C145.501 375.254 145.041 366.973 142.994 359.016C141.035 351.975 137.508 347.868 132.414 346.694C127.17 345.521 121.473 350.486 115.595 361.679V361.679ZM152.806 340.827C152.684 340.984 152.599 341.166 152.555 341.36C152.512 341.553 152.512 341.754 152.555 341.948C152.598 342.142 152.684 342.324 152.805 342.481C152.926 342.638 153.081 342.767 153.258 342.858C160.233 348.263 165.043 355.979 166.822 364.612C169.587 375.342 170.141 386.52 168.449 397.469C167.144 408.219 163.469 418.546 157.689 427.709C157.545 427.854 157.437 428.031 157.374 428.225C157.311 428.419 157.294 428.625 157.324 428.826C157.355 429.028 157.433 429.22 157.551 429.386C157.669 429.553 157.825 429.689 158.005 429.785H158.864C159.096 429.81 159.33 429.767 159.538 429.663C159.746 429.559 159.92 429.398 160.04 429.199C166.179 419.665 170.06 408.86 171.388 397.605C173.071 386.143 172.41 374.458 169.444 363.258C167.48 354.193 162.251 346.164 154.75 340.691C154.638 340.529 154.487 340.399 154.309 340.314C154.132 340.228 153.935 340.19 153.739 340.204C153.542 340.218 153.353 340.282 153.189 340.392C153.026 340.501 152.893 340.651 152.806 340.827V340.827Z" fill="#EC3205"/>
<path d="M268.236 473.2C270.406 473.2 271.355 475.457 271.174 479.383C270.577 487.41 268.841 495.312 266.02 502.853C263.891 508.862 260.604 514.397 256.344 519.146C252.75 522.945 248.45 526.01 243.685 528.173C239.21 530.195 234.293 531.049 229.397 530.655C224.342 530.166 219.445 528.628 215.019 526.141C203.01 519.053 194.164 507.656 190.288 494.277C184.986 479.045 182.593 462.955 183.234 446.842C183.677 431.285 186.357 415.872 191.192 401.076C194.197 389.916 199.841 379.639 207.65 371.108C212.758 365.126 219.981 361.343 227.815 360.546C234.555 360.416 241.117 362.706 246.307 367.001C252.342 371.855 256.795 378.39 259.102 385.776C263.196 399.002 263.957 413.032 261.318 426.622C258.992 439.162 254.03 451.068 246.759 461.555C241.558 470.016 233.563 476.4 224.152 479.609C224.926 486.321 226.918 492.836 230.03 498.836C231.882 502.811 235.204 505.916 239.299 507.501C242.646 508.484 246.226 508.325 249.472 507.05C253.127 505.474 256.206 502.81 258.289 499.422C260.939 495.306 262.737 490.703 263.579 485.882C263.579 485.521 263.579 484.438 263.579 482.678C263.651 481.167 263.802 479.66 264.031 478.164C264.246 476.92 264.69 475.727 265.342 474.644C265.646 474.162 266.076 473.773 266.587 473.518C267.097 473.264 267.667 473.154 268.236 473.2V473.2ZM209.458 385.731C210.484 382.204 212.405 379 215.035 376.43C217.665 373.861 220.914 372.012 224.469 371.063C227.34 369.947 230.453 369.601 233.5 370.061C236.546 370.52 239.418 371.768 241.831 373.68C241.954 373.831 242.109 373.953 242.285 374.036C242.461 374.12 242.653 374.163 242.848 374.163C243.043 374.163 243.236 374.12 243.411 374.036C243.587 373.953 243.743 373.831 243.866 373.68C244.438 372.988 244.348 372.356 243.594 371.785C240.852 369.508 237.561 367.985 234.048 367.367C230.535 366.75 226.921 367.059 223.565 368.264C219.565 369.361 215.92 371.477 212.987 374.405C210.054 377.332 207.934 380.971 206.836 384.964C206.61 385.957 206.836 386.543 207.695 386.724H208.283C208.56 386.726 208.829 386.626 209.037 386.443C209.246 386.259 209.38 386.006 209.413 385.731H209.458ZM221.214 347.277C220.226 347.23 219.273 346.899 218.47 346.322C217.668 345.745 217.05 344.948 216.692 344.028C215.914 342.917 215.503 341.592 215.517 340.236V338.747C215.596 337.644 216.005 336.59 216.692 335.723L239.299 305.213C239.899 304.166 240.759 303.292 241.797 302.675C242.835 302.059 244.014 301.72 245.222 301.692C246.619 301.669 247.995 302.042 249.188 302.77C250.38 303.497 251.342 304.548 251.959 305.799C253.101 307.644 253.712 309.768 253.722 311.938C253.722 312.344 253.722 313.247 253.722 314.601C253.383 316.458 252.52 318.18 251.235 319.565L224.74 345.698C224.296 346.193 223.753 346.59 223.145 346.862C222.538 347.134 221.88 347.276 221.214 347.277ZM226.82 410.69C222.191 427.502 220.404 444.968 221.53 462.368C222.299 462.368 223.655 461.871 225.644 461.465C227.386 461.126 229.107 460.689 230.799 460.156C232.071 459.738 233.298 459.194 234.461 458.532C243.504 453.07 249.698 443.096 253.722 428.743C257.828 416.794 257.828 403.819 253.722 391.869C252.716 389.507 251.325 387.326 249.608 385.415C247.927 383.542 245.795 382.128 243.413 381.308C242.178 380.954 240.864 380.99 239.65 381.41C238.437 381.83 237.382 382.614 236.631 383.655C233.557 386.604 230.271 395.615 226.775 410.69H226.82Z" fill="#EC3205"/>
<path d="M417.032 411.858C424.161 414.431 430.086 419.543 433.67 426.211C438.083 434.097 440.88 442.781 441.899 451.757C443.138 461.108 443.727 470.533 443.662 479.965C443.576 488.893 443.033 497.811 442.035 506.684C441.447 510.611 440.904 513.77 440.407 516.207C439.797 519.272 438.965 522.289 437.92 525.234C437.045 528.137 435.6 530.837 433.67 533.177C431.775 535.168 429.458 536.71 426.888 537.691C423.645 538.883 420.12 539.087 416.76 538.278C412.952 537.372 409.512 535.325 406.904 532.41C404.311 529.565 402.723 525.951 402.383 522.12C402.077 517.834 402.427 513.527 403.422 509.347C404.145 506.099 404.688 502.815 405.05 499.508C406.703 484.689 407.142 469.761 406.361 454.871C405.457 443.948 403.965 437.178 401.84 434.651C401.182 434.007 400.436 433.46 399.625 433.026C398.622 432.471 397.539 432.076 396.414 431.853C395.107 431.537 393.743 431.537 392.436 431.853C390.792 432.288 389.313 433.199 388.185 434.47C386.523 436.197 385.08 438.123 383.89 440.202C384.198 456.492 383.321 472.783 381.268 488.947C381.203 489.734 381.097 490.517 380.951 491.293C380.544 495.807 380.183 498.966 379.776 501.403C379.17 504.691 378.339 507.933 377.289 511.107C376.36 514.322 374.926 517.368 373.039 520.134C371.119 522.41 368.665 524.178 365.895 525.279C362.479 526.652 358.725 526.951 355.134 526.137C351.239 525.311 347.671 523.366 344.871 520.54C342.54 518.046 341.04 514.893 340.576 511.513C340.104 506.62 340.104 501.693 340.576 496.8C340.983 490.662 341.616 484.298 342.475 477.753C343.334 471.209 344.057 462.679 344.555 452.208C345.052 441.737 345.097 431.401 344.555 421.201V413.889C344.555 409.782 344.555 406.488 344.283 404.05C344.012 401.613 343.741 398.724 343.243 395.385C342.982 392.707 342.066 390.134 340.576 387.892C340.032 387.117 339.307 386.487 338.464 386.054C337.622 385.621 336.686 385.4 335.738 385.41C330.614 385.41 326.59 390.646 323.666 401.117C320.34 414.051 318.281 427.277 317.517 440.608C318.158 458.306 319.818 475.953 322.49 493.46C323.073 497.156 323.858 500.817 324.841 504.427C325.958 508.543 326.848 512.717 327.509 516.929C327.825 520.37 327.313 523.836 326.017 527.039C324.676 530.888 321.954 534.104 318.376 536.066C316.109 537.161 313.682 537.892 311.187 538.232C309.166 538.581 307.089 538.378 305.174 537.646C303.383 536.961 301.694 536.035 300.155 534.892C298.498 533.633 297.061 532.108 295.905 530.379C294.623 528.562 293.489 526.645 292.514 524.647C291.477 522.56 290.585 520.403 289.846 518.193C289.078 515.846 288.445 513.68 287.947 511.739C287.45 509.798 286.998 507.722 286.636 505.556C280.11 468.457 278.136 430.703 280.758 393.128C280.939 389.427 281.075 387.035 281.165 385.952C281.165 384.869 281.527 382.612 281.934 379.182C282.111 376.679 282.597 374.209 283.381 371.825C283.969 370.381 284.828 368.44 285.867 365.958C286.669 363.895 288.05 362.108 289.846 360.812C291.662 359.739 293.587 358.861 295.588 358.195C298.111 357.386 300.769 357.079 303.41 357.292C307.78 357.802 311.83 359.831 314.849 363.024C317.445 366.619 318.794 370.961 318.692 375.39C318.692 380.761 318.692 387.667 318.376 396.062C319.187 393.266 320.168 390.523 321.315 387.847C326.62 375.812 333.975 368.575 343.379 366.138C354.532 363.37 363.846 368.651 371.321 381.98C378.198 395.473 382.113 410.275 382.805 425.398C391.305 411.317 402.714 406.803 417.032 411.858ZM313.041 383.966C313.809 374.578 312.046 367.989 307.751 364.288C305.922 363.016 303.795 362.239 301.576 362.034C299.357 361.828 297.123 362.2 295.091 363.114C294.142 363.52 293.78 364.152 294.096 365.01C294.142 365.209 294.229 365.396 294.353 365.559C294.476 365.722 294.632 365.857 294.812 365.955C294.991 366.053 295.19 366.112 295.394 366.128C295.598 366.144 295.803 366.117 295.995 366.048C297.562 365.246 299.314 364.878 301.072 364.981C302.829 365.084 304.526 365.655 305.987 366.634C309.514 369.568 310.871 375.255 310.102 383.65C310.102 384.643 310.102 385.139 311.277 385.139H311.639C311.821 385.171 312.007 385.166 312.187 385.124C312.366 385.081 312.535 385.003 312.684 384.893C312.832 384.783 312.956 384.644 313.048 384.485C313.141 384.325 313.2 384.149 313.222 383.966H313.041ZM375.978 444.716C376.973 444.716 377.47 444.355 377.47 443.542C377.495 435.35 376.997 427.164 375.978 419.035C375.084 411.64 373.571 404.333 371.457 397.19C369.754 390.974 366.8 385.169 362.776 380.13C359.611 375.97 354.995 373.151 349.844 372.231C349.651 372.16 349.443 372.135 349.238 372.159C349.032 372.184 348.836 372.256 348.664 372.37C348.492 372.485 348.35 372.638 348.248 372.818C348.147 372.998 348.09 373.198 348.081 373.405C348.019 373.598 348.002 373.803 348.03 374.005C348.059 374.206 348.132 374.398 348.245 374.567C348.358 374.736 348.507 374.878 348.683 374.981C348.858 375.085 349.054 375.147 349.257 375.165C357.124 376.338 363.318 383.018 367.93 395.249C373.034 410.817 375.286 427.177 374.576 443.542C374.938 444.355 375.164 444.716 376.159 444.716H375.978Z" fill="#EC3205"/>
<path d="M507.05 370.476C518.986 374.357 528.255 383.79 534.811 398.639C541.568 414.952 544.655 432.547 543.854 450.182C543.577 469.112 539.583 487.804 532.098 505.2C529.036 513.343 524.431 520.821 518.534 527.225C514.216 532.105 508.53 535.58 502.212 537.199C496.655 538.367 490.879 537.912 485.573 535.89C479.472 533.344 474.186 529.176 470.291 523.84C465.189 517.142 461.218 509.656 458.536 501.679C454.492 489.559 451.926 476.997 450.895 464.263C449.698 451.391 450.032 438.423 451.889 425.629C453.42 414.323 456.461 403.272 460.932 392.772C464.682 383.861 471.343 376.479 479.831 371.83C484.016 369.702 488.605 368.482 493.296 368.248C497.986 368.015 502.674 368.774 507.05 370.476V370.476ZM472.055 395.435C472.816 391.649 474.538 388.122 477.055 385.19C479.572 382.258 482.801 380.02 486.432 378.69C489.714 376.943 493.395 376.078 497.113 376.181C500.831 376.284 504.458 377.351 507.638 379.277C507.798 379.377 507.977 379.442 508.164 379.466C508.351 379.49 508.542 379.474 508.722 379.418C508.902 379.363 509.068 379.269 509.209 379.143C509.35 379.018 509.461 378.863 509.537 378.69C509.659 378.529 509.744 378.344 509.788 378.147C509.831 377.95 509.832 377.746 509.789 377.549C509.746 377.351 509.661 377.165 509.539 377.004C509.417 376.843 509.262 376.71 509.084 376.614C505.49 374.504 501.416 373.343 497.247 373.241C493.078 373.138 488.952 374.097 485.257 376.027C481.197 377.754 477.615 380.432 474.813 383.835C472.101 387.017 470.139 390.765 469.071 394.803C469.022 395.194 469.113 395.59 469.328 395.92C469.543 396.25 469.868 396.494 470.246 396.608H470.563C470.911 396.625 471.254 396.516 471.529 396.3C471.803 396.085 471.99 395.777 472.055 395.435ZM504.97 516.257C508.497 518.424 512.521 517.521 517.042 513.504C522.735 507.492 526.959 500.247 529.385 492.337C533.31 481.22 535.683 469.617 536.439 457.855C537.391 445.215 536.492 432.504 533.771 420.123C531.856 408.78 526.885 398.171 519.393 389.432C518.281 388.463 516.96 387.763 515.533 387.387C514.105 387.012 512.61 386.97 511.164 387.266C507.687 387.361 504.349 388.653 501.715 390.921C497.725 396.654 494.984 403.158 493.667 410.013C490.705 421.835 489.023 433.94 488.648 446.12C488.047 461.071 489.786 476.025 493.802 490.441C495.159 494.548 497.058 499.468 499.544 505.696C500.73 509.502 502.566 513.075 504.97 516.257Z" fill="#EC3205"/>
<path d="M627.003 510.799C630.53 512.74 630.665 516.08 627.32 520.774C623.601 526.64 618.306 531.345 612.039 534.353C605.772 537.361 598.784 538.552 591.872 537.789C587.33 537.99 582.796 537.234 578.566 535.57C574.336 533.906 570.505 531.371 567.321 528.13C561.994 521.037 558.598 512.687 557.465 503.894C555.063 490.913 553.882 477.737 553.938 464.537C553.938 449.793 554.089 437.367 554.39 427.257C554.692 417.147 555.28 407.127 556.154 397.198C556.154 396.386 556.154 394.355 556.425 391.015C556.696 387.675 556.787 385.328 556.877 383.974C556.968 382.62 557.284 380.363 557.781 377.204C558.036 374.83 558.63 372.504 559.545 370.298C560.223 368.854 561.082 367.049 562.167 364.882C563.058 363.045 564.434 361.485 566.146 360.369C567.899 359.304 569.784 358.469 571.752 357.887C574.231 357.166 576.821 356.906 579.393 357.119C581.73 357.351 583.997 358.045 586.062 359.161C588.127 360.277 589.948 361.792 591.42 363.619C594.023 367.883 595.21 372.858 594.811 377.836C594.811 384.019 594.269 391.827 593.5 401.305C592.731 410.783 592.008 422.202 591.42 435.516C590.888 450.886 591.281 466.275 592.596 481.598C592.596 482.591 593.681 489.541 595.851 502.449C596.057 504.42 596.791 506.298 597.977 507.887C599.163 509.476 600.755 510.715 602.588 511.476C610.033 514.997 615.233 516.17 618.187 514.996L620.402 513.507C621.137 513.037 621.832 512.509 622.482 511.927C623.045 511.364 623.746 510.959 624.516 510.754C624.91 510.583 625.336 510.498 625.765 510.506C626.194 510.513 626.616 510.613 627.003 510.799ZM588.481 383.974C589.476 374.586 587.713 367.997 583.191 364.296C581.426 363.017 579.351 362.234 577.18 362.028C575.009 361.822 572.823 362.2 570.848 363.122C569.853 363.528 569.537 364.16 569.808 365.018C569.859 365.218 569.952 365.406 570.079 365.569C570.207 365.733 570.368 365.867 570.551 365.965C570.734 366.063 570.935 366.121 571.142 366.137C571.349 366.153 571.557 366.125 571.752 366.056C573.255 365.227 574.962 364.842 576.676 364.946C578.389 365.049 580.037 365.638 581.428 366.642C585.181 369.576 586.628 375.263 585.949 383.658C585.723 384.651 585.949 385.147 587.125 385.147C588.3 385.147 588.481 384.741 588.481 383.974V383.974Z" fill="#EC3205"/>
<path d="M685.24 370.47C697.222 374.351 706.491 383.784 713.046 398.633C719.881 414.929 723.045 432.524 722.315 450.176C722.017 469.103 718.024 487.791 710.56 505.193C707.483 513.329 702.879 520.805 696.996 527.219C692.67 532.09 686.987 535.563 680.674 537.193C675.117 538.363 669.34 537.909 664.035 535.884C657.933 533.338 652.648 529.17 648.753 523.834C643.65 517.136 639.68 509.65 636.997 501.673C632.96 489.549 630.379 476.989 629.311 464.257C628.151 451.383 628.5 438.417 630.351 425.623C631.933 414.301 635.051 403.248 639.62 392.766C643.247 383.958 649.726 376.616 658.022 371.914C662.198 369.766 666.784 368.527 671.476 368.278C676.168 368.029 680.859 368.776 685.24 370.47V370.47ZM650.245 395.429C651.01 391.638 652.739 388.107 655.265 385.175C657.79 382.243 661.028 380.008 664.668 378.684C667.942 376.936 671.615 376.071 675.326 376.174C679.037 376.277 682.657 377.344 685.828 379.271C685.991 379.372 686.174 379.436 686.365 379.461C686.555 379.486 686.749 379.47 686.932 379.415C687.116 379.359 687.286 379.265 687.431 379.139C687.576 379.013 687.692 378.858 687.772 378.684C687.887 378.521 687.967 378.335 688.006 378.14C688.046 377.944 688.045 377.742 688.002 377.547C687.96 377.352 687.877 377.168 687.76 377.006C687.642 376.845 687.493 376.709 687.32 376.608C683.725 374.498 679.651 373.337 675.482 373.235C671.314 373.132 667.187 374.091 663.493 376.021C659.433 377.748 655.85 380.426 653.048 383.829C650.337 387.011 648.375 390.759 647.306 394.797C647.257 395.188 647.348 395.584 647.563 395.914C647.779 396.244 648.104 396.488 648.482 396.602H648.798C649.144 396.628 649.486 396.521 649.755 396.303C650.025 396.085 650.2 395.772 650.245 395.429V395.429ZM683.206 516.251C686.732 518.418 690.756 517.515 695.278 513.498C700.97 507.485 705.195 500.241 707.621 492.33C711.546 481.214 713.919 469.611 714.674 457.848C715.603 445.209 714.705 432.501 712.007 420.117C710.052 408.786 705.087 398.187 697.629 389.426C696.51 388.453 695.181 387.751 693.746 387.375C692.311 387 690.808 386.96 689.355 387.259C685.89 387.354 682.566 388.646 679.95 390.915C675.937 396.64 673.179 403.145 671.857 410.007C668.935 421.835 667.268 433.937 666.884 446.114C666.283 461.065 668.022 476.019 672.038 490.435C673.394 494.542 675.293 499.461 677.78 505.69C678.966 509.496 680.801 513.069 683.206 516.251V516.251Z" fill="#EC3205"/>
<path d="M315.431 65.2122C320.808 70.1836 325.01 76.2874 327.731 83.0808C331.325 91.4017 333.742 100.181 334.911 109.167C336.297 119.571 336.921 130.062 336.777 140.557C336.674 151.867 335.634 163.149 333.666 174.288C331.7 185.417 329.095 196.423 325.865 207.254C322.911 217.283 318.732 226.911 313.421 235.92C308.629 244.004 302.875 251.479 296.286 258.185C290.593 264.157 283.299 268.369 275.275 270.32C267.024 272.179 258.432 271.866 250.339 269.412C249.816 269.369 249.301 269.256 248.807 269.078C247.073 272.666 244.24 275.611 240.719 277.487C238.088 278.826 235.232 279.669 232.295 279.971C229.834 280.193 227.358 279.765 225.116 278.729C223.138 277.682 221.318 276.363 219.707 274.811C217.801 273.108 216.184 271.107 214.921 268.887C213.581 266.402 212.384 263.965 211.331 261.577C210.241 258.959 209.36 256.259 208.699 253.503C207.981 250.493 207.359 247.96 206.832 245.858C206.242 243.512 205.779 241.135 205.444 238.739C197.735 192.339 195.438 145.202 198.6 98.274C198.63 97.0117 198.725 95.7519 198.887 94.4997C198.887 89.7219 199.318 86.1385 199.51 83.6541C199.853 80.2428 200.429 76.8587 201.233 73.5254C201.823 70.1226 203.092 66.873 204.966 63.9699C206.749 61.5701 209.101 59.6495 211.81 58.3801C215.247 56.7277 219.063 56.0187 222.866 56.3257C225.748 56.802 228.53 57.7545 231.098 59.1444C233.322 60.4109 235.121 62.3061 236.267 64.5911C237.52 66.9226 238.393 69.4386 238.852 72.0443C239.302 75.7528 239.446 79.4922 239.283 83.2243C239.283 88.002 238.996 92.7797 238.661 97.223C238.326 101.666 237.99 107.877 237.608 115.569C237.225 123.261 236.985 130.572 236.985 137.643C243.814 108.021 254.184 86.059 268.096 71.7576C273.987 65.1063 281.94 60.6156 290.686 59.0012C295.017 58.2707 299.452 58.4456 303.712 59.5147C307.971 60.5838 311.962 62.5239 315.431 65.2122ZM229.28 68.461C229.463 68.3814 229.627 68.2634 229.76 68.1149C229.893 67.9663 229.993 67.7907 230.052 67.6002C230.111 67.4097 230.128 67.2086 230.102 67.0108C230.076 66.8131 230.008 66.6234 229.902 66.4544C228.663 64.6142 226.908 63.1794 224.856 62.3296C222.804 61.4798 220.547 61.2527 218.367 61.6767C216.02 61.914 213.795 62.8388 211.972 64.335C210.15 65.8312 208.811 67.832 208.125 70.0856C208.002 70.4532 208.028 70.8541 208.198 71.2024C208.368 71.5508 208.668 71.8188 209.034 71.9489H209.656C209.942 71.9566 210.222 71.8658 210.448 71.6917C210.675 71.5177 210.835 71.2711 210.901 70.9933C211.453 69.3116 212.486 67.8277 213.872 66.7242C215.258 65.6207 216.937 64.9458 218.702 64.7823C220.29 64.3886 221.963 64.5097 223.477 65.1282C224.992 65.7467 226.27 66.8303 227.126 68.2222C227.243 68.3908 227.394 68.5326 227.571 68.6377C227.747 68.7428 227.944 68.8087 228.148 68.8313C228.352 68.854 228.559 68.8328 228.754 68.7689C228.949 68.705 229.129 68.5999 229.28 68.461ZM251.679 248.581C261.251 247.53 269.531 238.739 276.615 222.16C284.023 203.932 289.027 184.821 291.5 165.306C294.454 145.029 295.655 124.537 295.09 104.055C294.927 99.9936 294.202 95.974 292.936 92.1108C291.648 88.4083 289.403 85.1116 286.427 82.5553C283.411 79.9276 279.487 80.1188 274.748 82.9855C267.024 88.5008 260.978 96.0408 257.279 104.772C252.164 114.838 248.106 125.405 245.17 136.305C242.549 146.056 240.566 155.967 239.235 165.975C238.625 169.131 238.209 172.322 237.991 175.53C239.106 193.75 241.183 211.899 244.213 229.901C244.692 233.374 245.428 236.807 246.414 240.172C247.659 244.95 248.472 247.721 248.903 249.155C249.851 249.096 250.786 248.903 251.679 248.581ZM326.391 155.941C327.444 155.941 327.971 155.463 327.971 154.412C329.63 129.345 328.433 109.565 324.381 95.073C320.329 80.5805 313.74 72.0763 304.614 69.5601C304.41 69.4871 304.193 69.458 303.977 69.4749C303.761 69.4918 303.552 69.5542 303.362 69.6581C303.172 69.7619 303.006 69.9049 302.875 70.0774C302.745 70.2499 302.652 70.4481 302.604 70.6589C302.269 71.5666 302.604 72.2832 303.705 72.6654C312.001 74.7676 318.016 82.9056 321.749 97.0795C325.769 115.847 326.867 135.12 325.003 154.221C324.961 154.428 324.965 154.641 325.015 154.846C325.065 155.051 325.159 155.243 325.292 155.407C325.425 155.572 325.592 155.704 325.782 155.797C325.972 155.889 326.18 155.938 326.391 155.941Z" fill="#EC3205"/>
<path d="M404.266 105.004C416.902 109.113 426.713 119.099 433.653 134.817C440.806 152.086 444.074 170.712 443.226 189.379C442.933 209.418 438.705 229.205 430.781 247.619C427.54 256.24 422.665 264.156 416.423 270.935C411.852 276.101 405.833 279.779 399.145 281.494C393.262 282.73 387.148 282.248 381.532 280.108C375.072 277.412 369.477 273 365.354 267.351C359.953 260.261 355.749 252.337 352.91 243.893C348.629 231.063 345.913 217.764 344.822 204.285C343.555 190.659 343.908 176.931 345.875 163.388C347.495 151.419 350.714 139.722 355.447 128.606C359.416 119.173 366.468 111.359 375.453 106.438C379.883 104.185 384.741 102.893 389.706 102.646C394.672 102.399 399.633 103.203 404.266 105.004V105.004ZM367.221 131.425C368.027 127.418 369.849 123.684 372.514 120.58C375.179 117.477 378.597 115.108 382.441 113.7C385.915 111.85 389.811 110.934 393.747 111.043C397.683 111.152 401.522 112.282 404.888 114.321C405.057 114.427 405.248 114.495 405.446 114.521C405.644 114.547 405.845 114.53 406.036 114.471C406.227 114.412 406.403 114.312 406.552 114.179C406.7 114.046 406.819 113.883 406.898 113.7C407.028 113.53 407.118 113.333 407.164 113.125C407.211 112.916 407.211 112.7 407.165 112.491C407.12 112.282 407.03 112.086 406.901 111.915C406.772 111.744 406.608 111.603 406.42 111.502C402.614 109.269 398.302 108.04 393.889 107.931C389.476 107.822 385.108 108.838 381.197 110.881C376.899 112.709 373.107 115.544 370.141 119.146C367.27 122.514 365.193 126.482 364.062 130.756C364.01 131.17 364.107 131.589 364.335 131.939C364.562 132.289 364.907 132.547 365.306 132.667H365.642C366.011 132.685 366.374 132.57 366.664 132.341C366.954 132.113 367.152 131.788 367.221 131.425V131.425ZM402.064 259.325C405.798 261.618 410.057 260.663 414.843 256.411C420.87 250.046 425.341 242.377 427.91 234.003C432.064 222.235 434.577 209.953 435.376 197.501C436.384 184.121 435.433 170.666 432.552 157.559C430.525 145.552 425.264 134.322 417.332 125.071C416.155 124.045 414.757 123.304 413.246 122.906C411.735 122.509 410.152 122.464 408.621 122.777C404.94 122.879 401.407 124.246 398.618 126.647C394.395 132.716 391.493 139.601 390.099 146.857C386.964 159.372 385.183 172.186 384.786 185.079C384.15 200.906 385.991 216.736 390.242 231.996C391.678 236.344 393.689 241.552 396.321 248.145C397.576 252.174 399.519 255.956 402.064 259.325V259.325Z" fill="#EC3205"/>
<path d="M499.508 121.779C505.538 109.357 513.834 101.999 524.396 99.7061C537.159 97.0305 547.96 103.401 556.798 118.817C570.902 143.725 575.145 185.896 569.53 245.331C569.53 246.127 569.434 247.465 569.242 249.344C568.812 253.501 568.524 256.702 568.285 258.9C567.949 262.11 567.438 265.3 566.754 268.455C566.136 271.761 565.09 274.973 563.643 278.011C562.27 280.541 560.668 282.939 558.856 285.177C557.05 287.487 554.551 289.161 551.725 289.955C548.463 290.818 545.032 290.818 541.77 289.955C537.143 289.048 533.026 286.439 530.235 282.645C527.36 278.996 525.914 274.428 526.167 269.793C526.167 269.793 526.167 266.401 526.789 260.238C527.411 254.074 527.603 248.484 527.89 243.324C528.177 238.165 528.56 230.472 528.991 220.296C529.421 210.119 529.613 201.185 529.613 192.633C529.613 184.08 529.613 173.999 529.278 161.577C528.64 131.764 523.566 118.196 514.058 120.871C503.241 123.802 496.492 143.996 493.812 181.453C494.391 199.255 495.989 217.009 498.598 234.629C499.191 238.546 500.022 242.423 501.087 246.239C502.258 250.595 503.185 255.014 503.863 259.473C504.216 263.111 503.691 266.781 502.332 270.175C500.896 274.24 498.019 277.64 494.243 279.731C491.52 281.063 488.559 281.842 485.532 282.024C483.119 282.208 480.699 281.781 478.496 280.782C476.346 279.738 474.439 278.257 472.896 276.434C471.172 274.536 469.663 272.453 468.397 270.223C467.044 267.838 465.891 265.345 464.951 262.77C463.946 259.998 463.085 257.371 462.463 255.03C461.84 252.689 461.218 250.252 460.596 247.385C453.688 208.114 451.598 168.148 454.374 128.372C454.374 124.455 454.757 121.922 454.853 120.776C454.948 119.629 455.235 117.24 455.618 113.609C455.84 110.961 456.37 108.347 457.198 105.821C457.82 104.293 458.681 102.238 459.83 99.6104C460.664 97.419 462.129 95.5234 464.042 94.1637C465.964 93.0271 468.001 92.0981 470.12 91.3926C472.775 90.539 475.572 90.2146 478.353 90.4373C483.259 90.8874 487.795 93.2368 490.988 96.9827C493.62 101.289 494.918 106.275 494.721 111.316C494.721 117.527 494.721 125.649 493.908 135.205C495.486 130.615 497.356 126.131 499.508 121.779V121.779ZM488.595 119.295C489.648 109.357 487.877 102.382 483.33 98.4638C481.395 97.1177 479.143 96.2956 476.794 96.0778C474.445 95.8601 472.08 96.2542 469.929 97.2215C468.876 97.6515 468.541 98.3203 468.828 99.2281C468.883 99.4351 468.979 99.6287 469.111 99.7973C469.244 99.9659 469.409 100.106 469.597 100.209C469.785 100.312 469.992 100.375 470.205 100.395C470.419 100.416 470.634 100.392 470.838 100.327C472.442 99.4672 474.255 99.07 476.072 99.1797C477.889 99.2894 479.64 99.9016 481.129 100.948C485.053 104.054 486.633 110.074 485.915 118.96C485.676 120.011 485.915 120.537 487.159 120.537C488.404 120.537 488.595 120.107 488.595 119.295V119.295ZM560.675 183.603C561.632 183.603 562.063 183.221 562.063 182.361C562.316 173.694 561.9 165.021 560.819 156.418C559.895 148.586 558.294 140.849 556.032 133.293C554.226 126.724 551.117 120.583 546.891 115.234C543.437 110.784 538.43 107.798 532.867 106.873C532.054 106.634 531.527 106.872 531.288 108.115C531.222 108.32 531.204 108.537 531.234 108.75C531.264 108.963 531.342 109.166 531.461 109.345C531.581 109.524 531.739 109.674 531.925 109.783C532.11 109.893 532.318 109.959 532.532 109.978C540.86 111.22 547.37 118.291 552.156 131.239C557.475 147.741 559.904 165.035 559.335 182.361C559.526 183.221 559.766 183.603 560.675 183.603V183.603Z" fill="#EC3205"/>
</svg>
