<svg width="108" height="113" viewBox="0 0 108 113" fill="none" xmlns="http://www.w3.org/2000/svg">
<ellipse cx="53.7732" cy="51.2125" rx="53.7732" ry="51.2125" fill="#FFF485"/>
<path d="M22.4522 65.5349C23.5837 66.9653 24.5466 68.5213 25.3218 70.1721C25.6228 70.7803 25.8081 71.4392 25.8684 72.1151C25.9401 72.7823 25.8352 73.4567 25.5641 74.0706C25.4493 74.3553 25.2683 74.6085 25.0361 74.8093C24.8038 75.0101 24.527 75.1527 24.2286 75.2252C23.7898 75.3317 23.3303 75.3167 22.8994 75.1818C22.5347 75.0667 22.1923 74.8903 21.8869 74.6603C21.5521 74.3567 21.278 73.9923 21.0794 73.5864C20.8124 73.0897 20.6074 72.68 20.4583 72.3448C20.3092 72.0096 20.1353 71.5502 19.8931 70.9294C19.8123 70.6625 19.744 70.4576 19.6943 70.3087C19.2408 69.2315 18.6567 68.2141 17.9551 67.2792C17.6093 66.9219 17.1835 66.6517 16.7128 66.4908C16.268 66.342 15.8756 66.0683 15.5823 65.7024C15.7128 67.0247 15.8929 68.3283 16.1041 69.6196C16.1871 70.1596 16.3096 70.6928 16.4706 71.215C16.6505 71.8262 16.7916 72.4482 16.893 73.0773C16.955 73.5879 16.8998 74.1059 16.7315 74.592C16.5528 75.1303 16.1689 75.5764 15.6631 75.8336C15.3217 76.0077 14.9511 76.1171 14.5699 76.1564C14.2525 76.186 13.933 76.1302 13.6444 75.995C13.3773 75.8638 13.1321 75.6921 12.9177 75.4859C12.6674 75.2626 12.4574 74.998 12.2965 74.7037C12.1226 74.3809 11.9673 74.0644 11.8307 73.754C11.6891 73.4139 11.5749 73.0631 11.489 72.7049C11.3959 72.3138 11.3151 71.9847 11.2468 71.7116C11.1702 71.4067 11.1101 71.098 11.0667 70.7866C10.0661 64.7577 9.76806 58.6332 10.1784 52.5357C10.1822 52.3717 10.1947 52.208 10.2157 52.0453C10.2157 51.4245 10.2716 50.9589 10.2964 50.6361C10.341 50.1929 10.4157 49.7532 10.5201 49.3201C10.6023 48.8795 10.7666 48.4584 11.0045 48.0785C11.2374 47.7681 11.5422 47.5188 11.8928 47.3522C12.3389 47.1375 12.8341 47.0454 13.3276 47.0852C13.6991 47.1473 14.0592 47.2645 14.396 47.4329C14.6718 47.587 14.8898 47.8267 15.0171 48.1158C15.1617 48.4251 15.2701 48.75 15.3401 49.0842C15.4571 49.5624 15.5258 50.0511 15.5451 50.543C15.5451 51.1638 15.5016 51.7349 15.4643 52.2998C15.4271 52.8647 15.3712 53.6345 15.3215 54.6029C15.2718 55.5713 15.2407 56.4653 15.2407 57.3468C15.4271 56.3535 15.6569 55.3975 15.924 54.4788C16.1911 53.56 16.5451 52.6723 16.8743 51.797C17.1906 51.0154 17.5905 50.2703 18.0669 49.5746C18.4793 48.9864 18.9776 48.4632 19.5452 48.0226C20.0393 47.6099 20.6538 47.3682 21.2968 47.3336C21.9975 47.3222 22.6911 47.4752 23.3218 47.7805C23.9491 48.1414 24.4988 48.623 24.9391 49.1972C25.3794 49.7715 25.7016 50.4272 25.8871 51.1265C26.4419 52.8037 26.6676 54.5722 26.5517 56.3349C26.4468 58.1845 26.0267 60.0026 25.3094 61.7108C24.7411 63.2316 23.7498 64.5584 22.4522 65.5349ZM14.6568 50.9527C14.7894 49.6615 14.5595 48.7614 13.9674 48.2523C13.7168 48.0764 13.4248 47.9685 13.1199 47.9391C12.8151 47.9097 12.5078 47.9599 12.2282 48.0847C12.0978 48.1406 12.0481 48.2275 12.0915 48.3516C12.0986 48.3785 12.1111 48.4037 12.1283 48.4256C12.1454 48.4475 12.1669 48.4657 12.1913 48.479C12.2157 48.4924 12.2426 48.5007 12.2703 48.5033C12.298 48.5059 12.3259 48.5029 12.3524 48.4944C12.5595 48.3791 12.7953 48.3255 13.0319 48.3398C13.2686 48.3541 13.4962 48.4357 13.6879 48.5751C14.1972 48.9786 14.396 49.7546 14.309 50.9154C14.309 51.052 14.309 51.1141 14.4705 51.1141C14.632 51.1141 14.6568 51.0644 14.6568 50.9527ZM17.806 52.2501C16.9186 54.0223 16.3129 55.922 16.0109 57.8806C15.6481 59.7098 15.4403 61.5663 15.3898 63.4304C15.4736 63.317 15.5833 63.2252 15.7096 63.1626C15.836 63.1 15.9755 63.0684 16.1165 63.0703C16.4674 63.0773 16.8151 63.138 17.1476 63.2503C17.4276 63.3507 17.7204 63.4113 18.0172 63.4304C18.5266 63.4304 19.0607 63.002 19.6136 62.1392C20.2184 61.1606 20.6806 60.1008 20.9863 58.9918C21.3493 57.764 21.607 56.5076 21.7565 55.2361C21.9146 54.1173 21.8513 52.9783 21.5701 51.8839C21.301 50.9154 20.8165 50.3505 20.1167 50.1891C19.3962 50.0277 18.6135 50.7106 17.806 52.2501ZM22.918 49.3821C22.9013 49.4038 22.8896 49.4288 22.8836 49.4554C22.8777 49.4821 22.8777 49.5097 22.8836 49.5363C22.8895 49.563 22.9013 49.588 22.9179 49.6097C22.9346 49.6313 22.9558 49.649 22.9801 49.6615C23.9384 50.4049 24.5992 51.4661 24.8436 52.6537C25.2234 54.1294 25.2995 55.6669 25.0672 57.1729C24.8878 58.6514 24.383 60.0719 23.5888 61.3322C23.5691 61.3521 23.5543 61.3764 23.5456 61.4031C23.5369 61.4298 23.5346 61.4581 23.5388 61.4858C23.543 61.5136 23.5537 61.54 23.5699 61.5629C23.5862 61.5858 23.6075 61.6046 23.6323 61.6177H23.7503C23.7822 61.6211 23.8143 61.6152 23.8429 61.6009C23.8715 61.5866 23.8954 61.5645 23.9118 61.537C24.7552 60.2258 25.2884 58.7396 25.4709 57.1916C25.7021 55.615 25.6112 54.0079 25.2038 52.4674C24.9339 51.2206 24.2156 50.1162 23.1851 49.3635C23.1698 49.3412 23.1489 49.3233 23.1246 49.3116C23.1002 49.2998 23.0732 49.2946 23.0462 49.2965C23.0192 49.2984 22.9932 49.3072 22.9707 49.3223C22.9482 49.3373 22.9301 49.3579 22.918 49.3821Z" fill="#EC3205"/>
<path d="M38.7754 67.5898C39.0735 67.5898 39.204 67.9002 39.1791 68.4403C39.097 69.5443 38.8586 70.6312 38.471 71.6683C38.1786 72.4949 37.727 73.2562 37.1418 73.9093C36.648 74.4318 36.0573 74.8535 35.4026 75.1509C34.7879 75.4291 34.1125 75.5466 33.4398 75.4923C32.7453 75.425 32.0726 75.2136 31.4646 74.8715C29.8147 73.8966 28.5994 72.329 28.0669 70.4888C27.3386 68.3937 27.0099 66.1806 27.098 63.9644C27.1588 61.8247 27.527 59.7048 28.1912 57.6697C28.604 56.1347 29.3793 54.7211 30.4521 53.5477C31.1538 52.725 32.1462 52.2046 33.2224 52.0951C34.1483 52.0771 35.0499 52.3922 35.7629 52.9828C36.5919 53.6505 37.2037 54.5494 37.5207 55.5653C38.0831 57.3844 38.1876 59.3141 37.8251 61.1833C37.5055 62.9082 36.8238 64.5457 35.825 65.9882C35.1104 67.1519 34.0121 68.03 32.7193 68.4713C32.8256 69.3945 33.0992 70.2906 33.5268 71.1158C33.7812 71.6626 34.2375 72.0897 34.8001 72.3077C35.2599 72.4429 35.7517 72.4211 36.1977 72.2456C36.6998 72.0288 37.1228 71.6624 37.4089 71.1965C37.773 70.6304 38.02 69.9972 38.1356 69.3342C38.1356 69.2845 38.1356 69.1355 38.1356 68.8934C38.1456 68.6856 38.1663 68.4783 38.1977 68.2726C38.2273 68.1015 38.2884 67.9373 38.3779 67.7884C38.4196 67.7222 38.4788 67.6686 38.5489 67.6336C38.6189 67.5986 38.6973 67.5834 38.7754 67.5898ZM30.7006 55.5591C30.8416 55.0739 31.1055 54.6332 31.4667 54.2798C31.828 53.9264 32.2744 53.6721 32.7628 53.5415C33.1572 53.3881 33.5849 53.3406 34.0034 53.4037C34.4219 53.4669 34.8165 53.6385 35.1479 53.9016C35.1648 53.9223 35.1861 53.9391 35.2103 53.9505C35.2345 53.962 35.2609 53.968 35.2877 53.968C35.3145 53.968 35.3409 53.962 35.3651 53.9505C35.3893 53.9391 35.4106 53.9223 35.4275 53.9016C35.5061 53.8064 35.4937 53.7195 35.3902 53.6408C35.0134 53.3276 34.5614 53.1182 34.0787 53.0333C33.5961 52.9484 33.0997 52.9909 32.6385 53.1567C32.0891 53.3075 31.5883 53.5985 31.1854 54.0012C30.7825 54.4039 30.4912 54.9044 30.3403 55.4535C30.3093 55.5901 30.3403 55.6708 30.4583 55.6956H30.5391C30.5772 55.6959 30.6141 55.6821 30.6428 55.6569C30.6714 55.6317 30.6898 55.5969 30.6944 55.5591H30.7006ZM32.3155 50.27C32.1798 50.2636 32.0489 50.2179 31.9386 50.1386C31.8284 50.0593 31.7435 49.9497 31.6944 49.8231C31.5875 49.6703 31.531 49.488 31.5329 49.3016V49.0967C31.5437 48.945 31.6 48.8001 31.6944 48.6808L34.8001 44.4843C34.8825 44.3404 35.0007 44.2202 35.1433 44.1353C35.2858 44.0505 35.4479 44.0039 35.6138 44.0001C35.8058 43.9969 35.9947 44.0483 36.1586 44.1483C36.3225 44.2483 36.4545 44.3929 36.5393 44.565C36.6963 44.8188 36.7801 45.1109 36.7815 45.4093C36.7815 45.4652 36.7815 45.5893 36.7815 45.7756C36.7349 46.031 36.6164 46.2679 36.4399 46.4584L32.8 50.0528C32.739 50.1209 32.6644 50.1754 32.5809 50.2129C32.4974 50.2503 32.407 50.2698 32.3155 50.27ZM33.0858 58.992C32.4499 61.3044 32.2043 63.7067 32.359 66.0999C32.4646 66.0999 32.651 66.0316 32.9243 65.9757C33.1635 65.9291 33.3999 65.869 33.6324 65.7957C33.8071 65.7382 33.9756 65.6633 34.1355 65.5723C35.3778 64.8211 36.2287 63.4492 36.7815 61.4751C37.3457 59.8315 37.3457 58.0469 36.7815 56.4033C36.6433 56.0784 36.4523 55.7784 36.2163 55.5156C35.9854 55.2579 35.6925 55.0634 35.3653 54.9507C35.1957 54.9021 35.0151 54.907 34.8484 54.9648C34.6816 55.0225 34.5368 55.1304 34.4336 55.2735C34.0113 55.6791 33.5599 56.9186 33.0795 58.992H33.0858Z" fill="#EC3205"/>
<path d="M59.2172 59.1529C60.1966 59.5068 61.0107 60.2098 61.503 61.127C62.1093 62.2117 62.4936 63.4061 62.6335 64.6406C62.8037 65.9268 62.8847 67.2232 62.8757 68.5205C62.8639 69.7485 62.7893 70.9751 62.6521 72.1955C62.5714 72.7356 62.4969 73.1701 62.4285 73.5053C62.3447 73.9269 62.2305 74.3418 62.0869 74.7469C61.9666 75.1461 61.7681 75.5175 61.503 75.8395C61.2427 76.1132 60.9243 76.3254 60.5713 76.4603C60.1258 76.6243 59.6415 76.6523 59.18 76.541C58.6567 76.4165 58.1842 76.1348 57.8259 75.734C57.4697 75.3427 57.2515 74.8455 57.2047 74.3186C57.1627 73.7291 57.2109 73.1367 57.3476 72.5617C57.4468 72.1151 57.5215 71.6633 57.5712 71.2084C57.7983 69.1702 57.8586 67.1169 57.7513 65.069C57.6271 63.5667 57.4221 62.6355 57.1302 62.2878C57.0399 62.1993 56.9374 62.1241 56.8258 62.0644C56.6881 61.9881 56.5393 61.9336 56.3848 61.903C56.2052 61.8595 56.0178 61.8595 55.8382 61.903C55.6124 61.9629 55.4092 62.0881 55.2544 62.263C55.026 62.5005 54.8278 62.7654 54.6643 63.0514C54.7065 65.292 54.5861 67.5327 54.304 69.7558C54.2951 69.8641 54.2806 69.9718 54.2605 70.0786C54.2046 70.6994 54.1549 71.134 54.099 71.4692C54.0158 71.9214 53.9017 72.3673 53.7574 72.8039C53.6298 73.246 53.4327 73.6651 53.1735 74.0454C52.9098 74.3585 52.5726 74.6017 52.1921 74.7531C51.7229 74.9419 51.2071 74.9831 50.7138 74.8711C50.1787 74.7576 49.6885 74.49 49.3038 74.1013C48.9836 73.7583 48.7775 73.3246 48.7137 72.8597C48.6489 72.1867 48.6489 71.509 48.7137 70.836C48.7696 69.9917 48.8566 69.1164 48.9746 68.2163C49.0926 67.3161 49.192 66.1429 49.2603 64.7027C49.3287 63.2625 49.3349 61.8409 49.2603 60.4379V59.4323C49.2603 58.8673 49.2604 58.4142 49.2231 58.079C49.1858 57.7437 49.1485 57.3464 49.0802 56.887C49.0443 56.5187 48.9185 56.1649 48.7137 55.8566C48.6391 55.75 48.5395 55.6632 48.4237 55.6037C48.3079 55.5442 48.1793 55.5138 48.0491 55.5151C47.3452 55.5151 46.7924 56.2352 46.3907 57.6754C45.9338 59.4544 45.6509 61.2736 45.5459 63.1073C45.634 65.5415 45.8621 67.9686 46.2292 70.3766C46.3092 70.885 46.4171 71.3885 46.5522 71.8851C46.7055 72.4512 46.8278 73.0253 46.9186 73.6047C46.962 74.0779 46.8917 74.5546 46.7137 74.9952C46.5294 75.5246 46.1555 75.9669 45.6639 76.2368C45.3525 76.3874 45.0192 76.4879 44.6763 76.5347C44.3987 76.5826 44.1133 76.5548 43.8502 76.454C43.6042 76.3599 43.3722 76.2325 43.1608 76.0754C42.9331 75.9022 42.7358 75.6924 42.5769 75.4546C42.4007 75.2047 42.2449 74.941 42.111 74.6662C41.9685 74.3791 41.8461 74.0825 41.7445 73.7785C41.639 73.4557 41.552 73.1577 41.4837 72.8908C41.4153 72.6238 41.3532 72.3383 41.3035 72.0403C40.407 66.9377 40.1359 61.7448 40.4961 56.5766C40.5209 56.0676 40.5395 55.7386 40.552 55.5896C40.552 55.4406 40.6016 55.1302 40.6575 54.6585C40.6819 54.3143 40.7487 53.9744 40.8563 53.6466C40.9371 53.4479 41.0551 53.181 41.1979 52.8396C41.308 52.5559 41.4978 52.3101 41.7445 52.1319C41.994 51.9842 42.2584 51.8635 42.5334 51.7718C42.88 51.6606 43.2451 51.6184 43.608 51.6477C44.2082 51.7178 44.7646 51.9969 45.1795 52.4361C45.536 52.9305 45.7214 53.5277 45.7074 54.137C45.7074 54.8757 45.7074 55.8255 45.6639 56.9802C45.7754 56.5957 45.9102 56.2184 46.0677 55.8503C46.7965 54.1949 47.8069 53.1996 49.0989 52.8644C50.631 52.4836 51.9105 53.21 52.9375 55.0433C53.8822 56.8992 54.4201 58.9351 54.5152 61.0152C55.6829 59.0784 57.2503 58.4576 59.2172 59.1529ZM44.931 55.3165C45.0366 54.0253 44.7943 53.1189 44.2043 52.6099C43.9531 52.435 43.6608 52.3282 43.356 52.2999C43.0511 52.2716 42.7442 52.3228 42.4651 52.4485C42.3346 52.5043 42.2849 52.5912 42.3284 52.7092C42.3347 52.7366 42.3467 52.7623 42.3636 52.7847C42.3806 52.8072 42.4021 52.8257 42.4267 52.8392C42.4514 52.8527 42.4786 52.8608 42.5066 52.863C42.5347 52.8652 42.5628 52.8614 42.5893 52.852C42.8045 52.7417 43.0453 52.691 43.2867 52.7052C43.5281 52.7194 43.7613 52.7979 43.962 52.9327C44.4465 53.3362 44.6329 54.1184 44.5273 55.273C44.5273 55.4096 44.5273 55.4779 44.6888 55.4779H44.7384C44.7634 55.4823 44.789 55.4816 44.8137 55.4757C44.8384 55.4699 44.8616 55.4591 44.8819 55.444C44.9023 55.4289 44.9193 55.4097 44.932 55.3878C44.9448 55.3659 44.9529 55.3416 44.9558 55.3165H44.931ZM53.5773 63.6722C53.7139 63.6722 53.7823 63.6225 53.7823 63.5108C53.7857 62.384 53.7172 61.2581 53.5773 60.14C53.4545 59.1229 53.2467 58.1178 52.9561 57.1354C52.7222 56.2803 52.3164 55.4819 51.7635 54.7888C51.3288 54.2167 50.6947 53.8289 49.9871 53.7025C49.9605 53.6927 49.9319 53.6893 49.9037 53.6926C49.8755 53.6959 49.8485 53.7059 49.8249 53.7216C49.8013 53.7373 49.7817 53.7584 49.7678 53.7831C49.7539 53.8079 49.746 53.8355 49.7448 53.8638C49.7363 53.8905 49.734 53.9187 49.7379 53.9464C49.7417 53.974 49.7518 54.0005 49.7673 54.0237C49.7828 54.047 49.8034 54.0664 49.8275 54.0807C49.8515 54.0949 49.8785 54.1035 49.9063 54.106C50.9871 54.2674 51.8381 55.1861 52.4716 56.8684C53.1729 59.0097 53.4822 61.2598 53.3847 63.5108C53.4344 63.6225 53.4655 63.6722 53.6021 63.6722H53.5773Z" fill="#EC3205"/>
<path d="M71.5845 53.4605C73.2243 53.9944 74.4976 55.2918 75.3983 57.3342C76.3265 59.5779 76.7506 61.998 76.6406 64.4235C76.6026 67.0272 76.0539 69.5982 75.0256 71.9908C74.6049 73.1109 73.9723 74.1394 73.1622 75.0202C72.5689 75.6914 71.7878 76.1693 70.9199 76.3921C70.1564 76.5527 69.3629 76.4902 68.6341 76.2121C67.7958 75.8618 67.0696 75.2886 66.5346 74.5546C65.8336 73.6334 65.2881 72.6038 64.9197 71.5066C64.364 69.8396 64.0116 68.1117 63.8699 66.3603C63.7055 64.5898 63.7514 62.8061 64.0066 61.0464C64.2169 59.4913 64.6347 57.9714 65.2489 56.5272C65.7639 55.3015 66.6791 54.2862 67.8452 53.6467C68.4202 53.3541 69.0505 53.1862 69.6949 53.1541C70.3394 53.122 70.9833 53.2264 71.5845 53.4605ZM66.7769 56.8934C66.8814 56.3727 67.118 55.8875 67.4638 55.4843C67.8096 55.0811 68.2532 54.7733 68.7521 54.5903C69.2029 54.35 69.7086 54.231 70.2194 54.2452C70.7301 54.2593 71.2284 54.4061 71.6652 54.671C71.6872 54.6848 71.7119 54.6937 71.7376 54.697C71.7633 54.7004 71.7894 54.6981 71.8142 54.6905C71.839 54.6828 71.8618 54.6699 71.8811 54.6526C71.9004 54.6353 71.9158 54.6141 71.9261 54.5903C71.9429 54.5682 71.9547 54.5427 71.9606 54.5156C71.9666 54.4885 71.9667 54.4604 71.9608 54.4333C71.9549 54.4062 71.9432 54.3806 71.9265 54.3584C71.9098 54.3362 71.8884 54.3179 71.864 54.3048C71.3701 54.0146 70.8105 53.8549 70.2378 53.8408C69.665 53.8267 69.0982 53.9586 68.5906 54.2241C68.0329 54.4616 67.5407 54.8299 67.1558 55.298C66.7833 55.7356 66.5137 56.2511 66.3669 56.8065C66.3602 56.8603 66.3727 56.9147 66.4023 56.9602C66.4318 57.0056 66.4765 57.0391 66.5284 57.0548H66.5719C66.6198 57.0572 66.6669 57.0421 66.7046 57.0125C66.7423 56.9828 66.7679 56.9405 66.7769 56.8934ZM71.2988 73.5117C71.7832 73.8097 72.3361 73.6855 72.9572 73.133C73.7393 72.306 74.3196 71.3096 74.6529 70.2216C75.1921 68.6926 75.5182 67.0967 75.6219 65.4788C75.7527 63.7403 75.6292 61.992 75.2554 60.2891C74.9923 58.729 74.3095 57.2698 73.2802 56.0678C73.1274 55.9345 72.946 55.8382 72.7499 55.7866C72.5538 55.7349 72.3484 55.7291 72.1497 55.7698C71.672 55.783 71.2134 55.9606 70.8515 56.2726C70.3035 57.0611 69.9269 57.9557 69.7459 58.8986C69.3391 60.5246 69.1079 62.1895 69.0564 63.8648C68.9739 65.9213 69.2128 67.978 69.7645 69.9609C69.9509 70.5258 70.2118 71.2024 70.5534 72.0591C70.7163 72.5826 70.9685 73.074 71.2988 73.5117Z" fill="#EC3205"/>
<path d="M88.0633 72.7608C88.5478 73.0277 88.5664 73.4871 88.1068 74.1327C87.5959 74.9396 86.8685 75.5867 86.0075 76.0005C85.1466 76.4143 84.1866 76.578 83.237 76.4731C82.613 76.5008 81.9902 76.3968 81.409 76.1679C80.8279 75.939 80.3016 75.5904 79.8642 75.1446C79.1323 74.169 78.6658 73.0205 78.5101 71.811C78.1801 70.0257 78.0179 68.2134 78.0257 66.3978C78.0257 64.3699 78.0464 62.6607 78.0878 61.2702C78.1292 59.8796 78.2099 58.5015 78.33 57.1358C78.33 57.024 78.33 56.7447 78.3673 56.2853C78.4046 55.8259 78.417 55.5031 78.4294 55.3169C78.4418 55.1307 78.4853 54.8203 78.5536 54.3857C78.5886 54.0592 78.6702 53.7393 78.7959 53.4359C78.889 53.2373 79.0071 52.989 79.1561 52.691C79.2785 52.4383 79.4675 52.2237 79.7027 52.0702C79.9436 51.9237 80.2025 51.8089 80.473 51.7288C80.8134 51.6296 81.1693 51.5939 81.5227 51.6232C81.8437 51.6551 82.1551 51.7506 82.4388 51.9041C82.7225 52.0576 82.9727 52.266 83.1749 52.5172C83.5325 53.1037 83.6955 53.788 83.6408 54.4726C83.6408 55.3231 83.5662 56.3971 83.4606 57.7007C83.355 59.0043 83.2557 60.5749 83.1749 62.4062C83.1019 64.5202 83.1558 66.6368 83.3364 68.7444C83.3364 68.8809 83.4855 69.8369 83.7836 71.6124C83.8119 71.8834 83.9128 72.1418 84.0757 72.3603C84.2386 72.5788 84.4574 72.7493 84.7091 72.8539C85.7319 73.3381 86.4463 73.4995 86.8521 73.3381L87.1564 73.1333C87.2574 73.0687 87.3529 72.996 87.4421 72.916C87.5195 72.8385 87.6159 72.7829 87.7217 72.7546C87.7757 72.731 87.8342 72.7194 87.8932 72.7205C87.9521 72.7215 88.0101 72.7353 88.0633 72.7608ZM82.7712 55.3169C82.9078 54.0257 82.6656 53.1193 82.0444 52.6103C81.802 52.4345 81.5168 52.3268 81.2186 52.2984C80.9204 52.27 80.62 52.322 80.3487 52.4489C80.2121 52.5048 80.1686 52.5917 80.2059 52.7096C80.2129 52.7372 80.2256 52.7631 80.2431 52.7855C80.2607 52.8079 80.2827 52.8265 80.3079 52.8399C80.333 52.8533 80.3607 52.8614 80.3891 52.8636C80.4175 52.8657 80.4461 52.8619 80.473 52.8524C80.6793 52.7384 80.9139 52.6854 81.1493 52.6997C81.3847 52.714 81.6111 52.7949 81.8022 52.9331C82.3177 53.3366 82.5165 54.1188 82.4233 55.2734C82.3923 55.41 82.4233 55.4783 82.5848 55.4783C82.7463 55.4783 82.7712 55.4224 82.7712 55.3169Z" fill="#EC3205"/>
<path d="M96.0635 53.4602C97.7095 53.9941 98.9829 55.2915 99.8835 57.3339C100.822 59.5753 101.257 61.9954 101.157 64.4232C101.116 67.0266 100.567 69.597 99.5419 71.9905C99.1192 73.1095 98.4867 74.1377 97.6785 75.0199C97.0842 75.69 96.3035 76.1676 95.4362 76.3919C94.6728 76.5528 93.8791 76.4903 93.1504 76.2118C92.3121 75.8615 91.5859 75.2883 91.0509 74.5543C90.3499 73.6331 89.8044 72.6035 89.4359 71.5063C88.8812 69.8388 88.5268 68.1112 88.38 66.36C88.2207 64.5892 88.2686 62.8059 88.5229 61.0461C88.7402 59.489 89.1685 57.9686 89.7962 56.5269C90.2945 55.3154 91.1845 54.3056 92.3242 53.6589C92.8981 53.3635 93.528 53.193 94.1726 53.1588C94.8171 53.1245 95.4616 53.2273 96.0635 53.4602ZM91.2559 56.8931C91.361 56.3717 91.5985 55.8861 91.9455 55.4828C92.2924 55.0795 92.7373 54.7721 93.2373 54.59C93.687 54.3496 94.1917 54.2306 94.7015 54.2448C95.2113 54.259 95.7086 54.4058 96.1443 54.6708C96.1667 54.6846 96.1918 54.6935 96.218 54.6969C96.2442 54.7003 96.2707 54.6981 96.296 54.6905C96.3212 54.6829 96.3446 54.67 96.3645 54.6526C96.3843 54.6353 96.4003 54.614 96.4114 54.59C96.4271 54.5676 96.4381 54.5421 96.4435 54.5151C96.449 54.4882 96.4488 54.4605 96.4429 54.4336C96.4371 54.4068 96.4258 54.3815 96.4096 54.3593C96.3935 54.337 96.3729 54.3184 96.3492 54.3045C95.8554 54.0143 95.2957 53.8546 94.723 53.8405C94.1503 53.8264 93.5834 53.9583 93.0758 54.2238C92.5181 54.4613 92.0259 54.8296 91.641 55.2977C91.2685 55.7353 90.999 56.2508 90.8521 56.8062C90.8454 56.86 90.8579 56.9144 90.8875 56.9599C90.9171 57.0053 90.9617 57.0388 91.0136 57.0545H91.0571C91.1046 57.0581 91.1517 57.0434 91.1886 57.0134C91.2256 56.9834 91.2497 56.9403 91.2559 56.8931ZM95.784 73.5114C96.2685 73.8094 96.8213 73.6852 97.4424 73.1328C98.2245 72.3057 98.8048 71.3094 99.1382 70.2213C99.6774 68.6923 100.003 67.0964 100.107 65.4785C100.235 63.74 100.111 61.9922 99.7407 60.2888C99.4722 58.7304 98.79 57.2726 97.7654 56.0675C97.6117 55.9337 97.4292 55.8371 97.232 55.7855C97.0348 55.7338 96.8284 55.7283 96.6287 55.7695C96.1528 55.7826 95.6962 55.9603 95.3368 56.2723C94.7854 57.0597 94.4065 57.9545 94.2249 58.8983C93.8235 60.5251 93.5945 62.1897 93.5417 63.8645C93.4591 65.921 93.698 67.9777 94.2498 69.9606C94.4361 70.5255 94.697 71.2021 95.0386 72.0588C95.2016 72.5823 95.4537 73.0737 95.784 73.5114Z" fill="#EC3205"/>
<path d="M45.2596 11.4741C45.9983 12.1579 46.5755 12.9974 46.9494 13.9318C47.4431 15.0763 47.7751 16.2838 47.9357 17.5198C48.1261 18.9508 48.2118 20.3938 48.1921 21.8372C48.1779 23.3928 48.035 24.9446 47.7647 26.4766C47.4946 28.0073 47.1368 29.5212 46.693 31.0109C46.2872 32.3903 45.713 33.7146 44.9834 34.9538C44.325 36.0656 43.5347 37.0938 42.6295 38.0161C41.8473 38.8375 40.8453 39.4169 39.7429 39.6852C38.6095 39.9409 37.429 39.8978 36.3172 39.5603C36.2454 39.5544 36.1746 39.5389 36.1068 39.5143C35.8686 40.0079 35.4794 40.413 34.9956 40.6709C34.6343 40.8552 34.2419 40.9711 33.8384 41.0126C33.5003 41.0432 33.1601 40.9843 32.8521 40.8418C32.5804 40.6978 32.3303 40.5164 32.1091 40.3029C31.8471 40.0687 31.6251 39.7935 31.4515 39.4881C31.2674 39.1463 31.1031 38.8112 30.9584 38.4826C30.8086 38.1226 30.6876 37.7513 30.5968 37.3721C30.4981 36.9581 30.4127 36.6098 30.3403 36.3206C30.2592 35.9979 30.1956 35.6711 30.1496 35.3415C29.0905 28.9594 28.775 22.4762 29.2094 16.0215C29.2134 15.8479 29.2266 15.6746 29.2488 15.5024C29.2488 14.8452 29.308 14.3523 29.3343 14.0106C29.3815 13.5414 29.4606 13.076 29.571 12.6175C29.6521 12.1495 29.8265 11.7025 30.0839 11.3032C30.3288 10.9731 30.6519 10.709 31.0242 10.5344C31.4964 10.3071 32.0206 10.2096 32.543 10.2518C32.939 10.3173 33.3212 10.4483 33.674 10.6395C33.9795 10.8137 34.2266 11.0743 34.3841 11.3886C34.5562 11.7093 34.6761 12.0554 34.7392 12.4138C34.801 12.9239 34.8208 13.4382 34.7983 13.9515C34.7983 14.6087 34.7589 15.2658 34.7129 15.8769C34.6668 16.4881 34.6208 17.3423 34.5682 18.4003C34.5156 19.4583 34.4827 20.4638 34.4827 21.4364C35.4208 17.3621 36.8454 14.3414 38.7566 12.3743C39.566 11.4595 40.6586 10.8418 41.8602 10.6198C42.4551 10.5193 43.0644 10.5434 43.6495 10.6904C44.2347 10.8375 44.7829 11.1043 45.2596 11.4741ZM33.4241 11.9209C33.4493 11.91 33.4718 11.8937 33.4901 11.8733C33.5084 11.8529 33.5221 11.8287 33.5302 11.8025C33.5383 11.7763 33.5407 11.7487 33.5371 11.7215C33.5336 11.6943 33.5242 11.6682 33.5096 11.6449C33.3394 11.3918 33.0983 11.1945 32.8164 11.0776C32.5346 10.9607 32.2245 10.9295 31.925 10.9878C31.6024 11.0204 31.2968 11.1476 31.0464 11.3534C30.7961 11.5592 30.6122 11.8344 30.5179 12.1444C30.501 12.1949 30.5046 12.2501 30.528 12.298C30.5513 12.3459 30.5926 12.3828 30.6428 12.4007H30.7283C30.7675 12.4017 30.806 12.3892 30.8371 12.3653C30.8682 12.3413 30.8902 12.3074 30.8992 12.2692C30.9751 12.0379 31.117 11.8338 31.3074 11.682C31.4978 11.5303 31.7285 11.4374 31.971 11.4149C32.1892 11.3608 32.4189 11.3774 32.627 11.4625C32.835 11.5476 33.0106 11.6966 33.1282 11.8881C33.1443 11.9113 33.1651 11.9308 33.1894 11.9452C33.2136 11.9597 33.2406 11.9687 33.2687 11.9719C33.2967 11.975 33.3251 11.9721 33.3519 11.9633C33.3787 11.9545 33.4034 11.94 33.4241 11.9209ZM36.5013 36.6952C37.8164 36.5506 38.9539 35.3415 39.927 33.0612C40.9447 30.5541 41.6321 27.9254 41.9719 25.2412C42.3777 22.4523 42.5427 19.6338 42.4651 16.8166C42.4428 16.258 42.3432 15.7051 42.1692 15.1738C41.9923 14.6645 41.6838 14.2111 41.275 13.8595C40.8607 13.4981 40.3215 13.5244 39.6706 13.9187C38.6095 14.6773 37.7789 15.7143 37.2706 16.9152C36.5679 18.2997 36.0105 19.7532 35.6071 21.2524C35.247 22.5935 34.9747 23.9567 34.7918 25.3332C34.7079 25.7674 34.6508 26.2063 34.6208 26.6475C34.7741 29.1535 35.0594 31.6498 35.4756 34.1258C35.5415 34.6035 35.6426 35.0758 35.7781 35.5386C35.949 36.1958 36.0608 36.5769 36.12 36.7741C36.2502 36.766 36.3786 36.7395 36.5013 36.6952ZM46.7653 23.9532C46.9099 23.9532 46.9823 23.8875 46.9823 23.7429C47.2102 20.2951 47.0458 17.5745 46.4891 15.5812C45.9324 13.5879 45.0272 12.4182 43.7735 12.0721C43.7455 12.062 43.7157 12.0581 43.6861 12.0604C43.6564 12.0627 43.6276 12.0713 43.6015 12.0856C43.5754 12.0998 43.5526 12.1195 43.5346 12.1432C43.5167 12.167 43.504 12.1942 43.4974 12.2232C43.4514 12.3481 43.4974 12.4466 43.6486 12.4992C44.7883 12.7884 45.6146 13.9077 46.1275 15.8572C46.6798 18.4385 46.8306 21.0894 46.5746 23.7166C46.5688 23.7451 46.5693 23.7744 46.5762 23.8026C46.583 23.8308 46.596 23.8572 46.6143 23.8798C46.6325 23.9024 46.6554 23.9206 46.6816 23.9333C46.7077 23.946 46.7363 23.9528 46.7653 23.9532Z" fill="#EC3205"/>
<path d="M57.4639 16.9475C59.1998 17.5127 60.5477 18.8861 61.5011 21.0481C62.4837 23.4233 62.9327 25.9851 62.8162 28.5527C62.776 31.3089 62.1951 34.0305 61.1066 36.5632C60.6613 37.7489 59.9916 38.8377 59.134 39.7701C58.506 40.4806 57.6791 40.9865 56.7604 41.2224C55.9522 41.3924 55.1122 41.3262 54.3407 41.0318C53.4533 40.661 52.6846 40.0542 52.1182 39.2772C51.3762 38.302 50.7987 37.2122 50.4087 36.0507C49.8205 34.286 49.4474 32.4569 49.2974 30.603C49.1234 28.7288 49.1719 26.8406 49.4421 24.9778C49.6647 23.3316 50.107 21.7226 50.7572 20.1938C51.3024 18.8964 52.2712 17.8216 53.5056 17.1447C54.1142 16.8349 54.7815 16.6572 55.4637 16.6232C56.1458 16.5892 56.8275 16.6998 57.4639 16.9475ZM52.3747 20.5815C52.4854 20.0303 52.7357 19.5167 53.1018 19.0899C53.4679 18.663 53.9375 18.3372 54.4656 18.1436C54.9428 17.8891 55.4781 17.7632 56.0188 17.7782C56.5595 17.7931 57.087 17.9485 57.5494 18.229C57.5726 18.2436 57.5988 18.2529 57.626 18.2565C57.6532 18.2601 57.6809 18.2577 57.7071 18.2496C57.7333 18.2415 57.7574 18.2278 57.7779 18.2095C57.7983 18.1912 57.8146 18.1687 57.8255 18.1436C57.8433 18.1201 57.8558 18.0931 57.8621 18.0644C57.8684 18.0357 57.8685 18.006 57.8622 17.9773C57.856 17.9486 57.8436 17.9215 57.8259 17.898C57.8082 17.8746 57.7857 17.8552 57.7598 17.8413C57.237 17.5341 56.6445 17.365 56.0383 17.3501C55.432 17.3351 54.8319 17.4748 54.2946 17.7558C53.7043 18.0072 53.1832 18.3972 52.7758 18.8927C52.3815 19.3559 52.0961 19.9016 51.9407 20.4896C51.9336 20.5465 51.9468 20.6041 51.9781 20.6522C52.0094 20.7003 52.0567 20.7358 52.1117 20.7524H52.1577C52.2084 20.7549 52.2583 20.7389 52.2982 20.7075C52.338 20.6761 52.3652 20.6314 52.3747 20.5815ZM57.1614 38.1732C57.6743 38.4887 58.2595 38.3573 58.917 37.7724C59.7449 36.8969 60.3592 35.8422 60.7121 34.6904C61.2828 33.0718 61.628 31.3825 61.7378 29.6698C61.8763 27.8295 61.7456 25.9788 61.3499 24.1761C61.0713 22.5246 60.3485 20.98 59.2589 19.7076C59.0972 19.5664 58.9051 19.4645 58.6975 19.4098C58.49 19.3551 58.2726 19.349 58.0623 19.3921C57.5565 19.406 57.0711 19.594 56.688 19.9244C56.1079 20.7591 55.7092 21.706 55.5176 22.7041C55.087 24.4254 54.8423 26.1878 54.7878 27.9613C54.7004 30.1382 54.9533 32.3154 55.5374 34.4144C55.7346 35.0124 56.0108 35.7287 56.3724 36.6355C56.5449 37.1897 56.8118 37.7099 57.1614 38.1732Z" fill="#EC3205"/>
<path d="M70.5483 19.2538C71.3768 17.5452 72.5165 16.5332 73.9674 16.2178C75.7208 15.8498 77.2047 16.726 78.4189 18.8464C80.3564 22.2723 80.9394 28.0727 80.1679 36.2475C80.1679 36.357 80.1547 36.541 80.1284 36.7995C80.0693 37.3712 80.0298 37.8115 79.9969 38.1138C79.9508 38.5554 79.8806 38.9941 79.7865 39.4281C79.7017 39.8828 79.558 40.3246 79.3591 40.7424C79.1706 41.0903 78.9505 41.4203 78.7016 41.7281C78.4534 42.0458 78.1102 42.276 77.7219 42.3852C77.2738 42.5039 76.8024 42.5039 76.3543 42.3852C75.7186 42.2604 75.1531 41.9016 74.7696 41.3798C74.3747 40.878 74.176 40.2496 74.2107 39.6121C74.2107 39.6121 74.2107 39.1455 74.2962 38.2978C74.3817 37.4501 74.408 36.6812 74.4474 35.9715C74.4869 35.2618 74.5395 34.2038 74.5987 32.8041C74.6578 31.4044 74.6841 30.1755 74.6841 28.9992C74.6841 27.8229 74.6841 26.4364 74.6381 24.7278C74.5505 20.6272 73.8535 18.761 72.5472 19.129C71.0612 19.532 70.1341 22.3095 69.7659 27.4615C69.8454 29.9101 70.065 32.352 70.4234 34.7755C70.5048 35.3143 70.619 35.8475 70.7653 36.3724C70.9261 36.9716 71.0535 37.5793 71.1467 38.1927C71.1952 38.6931 71.123 39.1978 70.9363 39.6647C70.7391 40.2238 70.3437 40.6914 69.825 40.979C69.4509 41.1622 69.0442 41.2694 68.6283 41.2944C68.2969 41.3197 67.9644 41.2609 67.6618 41.1235C67.3664 40.98 67.1044 40.7763 66.8925 40.5255C66.6555 40.2645 66.4482 39.978 66.2744 39.6712C66.0884 39.3432 65.9301 39.0003 65.801 38.6461C65.6629 38.2649 65.5446 37.9035 65.4591 37.5815C65.3736 37.2595 65.2881 36.9244 65.2026 36.5301C64.2536 31.1286 63.9666 25.6316 64.3479 20.1607C64.3479 19.6218 64.4005 19.2735 64.4136 19.1158C64.4268 18.9581 64.4662 18.6295 64.5188 18.1301C64.5493 17.7658 64.6221 17.4064 64.7358 17.0589C64.8213 16.8487 64.9396 16.5661 65.0974 16.2047C65.2119 15.9032 65.4133 15.6425 65.6761 15.4555C65.9401 15.2992 66.22 15.1714 66.5111 15.0744C66.8759 14.957 67.2601 14.9123 67.6421 14.943C68.3162 15.0049 68.9392 15.328 69.3779 15.8432C69.7394 16.4356 69.9178 17.1214 69.8908 17.8147C69.8908 18.669 69.8908 19.7861 69.779 21.1004C69.9958 20.4691 70.2528 19.8523 70.5483 19.2538ZM69.0492 18.9121C69.1938 17.5452 68.9505 16.5858 68.3259 16.047C68.06 15.8618 67.7506 15.7487 67.4279 15.7188C67.1052 15.6888 66.7803 15.743 66.4848 15.8761C66.3402 15.9352 66.2941 16.0272 66.3336 16.1521C66.3411 16.1806 66.3543 16.2072 66.3725 16.2304C66.3906 16.2536 66.4133 16.2728 66.4392 16.287C66.465 16.3011 66.4935 16.3098 66.5228 16.3126C66.5521 16.3154 66.5817 16.3122 66.6097 16.3032C66.8301 16.185 67.0791 16.1303 67.3287 16.1454C67.5784 16.1605 67.8189 16.2447 68.0234 16.3886C68.5626 16.8158 68.7796 17.6438 68.6809 18.8661C68.6481 19.0107 68.681 19.083 68.8519 19.083C69.0229 19.083 69.0492 19.0238 69.0492 18.9121ZM78.9515 27.7572C79.083 27.7572 79.1422 27.7047 79.1422 27.5864C79.1769 26.3943 79.1197 25.2014 78.9712 24.0181C78.8444 22.9409 78.6244 21.8767 78.3137 20.8375C78.0655 19.9339 77.6385 19.0893 77.0578 18.3535C76.5834 17.7415 75.8954 17.3308 75.1313 17.2035C75.0195 17.1707 74.9472 17.2035 74.9143 17.3744C74.9053 17.4025 74.9028 17.4324 74.9069 17.4617C74.911 17.491 74.9217 17.519 74.9381 17.5436C74.9545 17.5682 74.9763 17.5888 75.0017 17.6039C75.0272 17.619 75.0557 17.6281 75.0852 17.6307C76.2293 17.8015 77.1236 18.7741 77.7811 20.5549C78.5118 22.8247 78.8455 25.2033 78.7674 27.5864C78.7937 27.7047 78.8265 27.7572 78.9515 27.7572Z" fill="#EC3205"/>
<path d="M84.5244 98.9386C88.4437 98.9386 90.9878 96.0525 91.8129 95.2966C90.7586 100.908 85.5008 112.132 72.904 112.132C60.3073 112.132 55.462 105.192 54.614 101.825C53.5138 105.054 49.0995 112.132 36.1177 112.132C23.1359 112.132 18.011 100.771 17.0713 95.0904C17.6443 96.3731 19.9042 98.9386 24.3598 98.9386C29.9293 98.9386 35.4988 88.7686 43.6125 88.7686C48.6732 88.7686 53.0554 92.7083 54.614 94.6781C55.8058 92.7083 59.6334 88.7686 65.4092 88.7686C72.629 88.7686 78.4048 98.9386 84.5244 98.9386Z" fill="#313638"/>
<path d="M61.96 90.5531C62.4467 90.1205 64.0908 89.385 66.7733 89.9042C69.4558 90.4233 71.6407 92.1396 72.3978 92.9328" stroke="white" stroke-width="0.288133" stroke-linecap="round"/>
<path d="M20.0996 100.883C21.0566 103.174 24.4543 108.263 30.3896 110.287" stroke="white" stroke-width="0.288133" stroke-linecap="round"/>
</svg>
