<svg width="257" height="26" viewBox="0 0 257 26" fill="none" xmlns="http://www.w3.org/2000/svg">
<path d="M10.8518 0.789114C12.3269 1.54011 13.1873 3.18814 13.4331 5.73318C13.7166 8.11786 13.3156 10.534 12.2769 12.6986C11.2144 14.9516 9.78926 16.0907 8.00169 16.1157C7.02416 16.1085 6.06929 15.8196 5.25149 15.2833C4.95735 15.1413 4.68919 14.9509 4.45785 14.7201C4.5891 16.0719 4.76401 17.4174 4.98277 18.7692C5.05148 19.2118 5.15173 19.6489 5.28277 20.0772C5.42796 20.5729 5.54485 21.0764 5.63282 21.5854C5.68063 22.0077 5.63367 22.4353 5.49533 22.8371C5.42633 23.0609 5.3134 23.2686 5.16314 23.4481C5.01288 23.6275 4.82837 23.7751 4.62036 23.8822C4.34194 24.0273 4.03862 24.1186 3.72646 24.1513C3.46449 24.1762 3.20075 24.1286 2.96395 24.0137C2.74552 23.9082 2.54515 23.7688 2.37021 23.6006C2.1765 23.4199 2.01388 23.2085 1.88893 22.9748C1.74517 22.7057 1.61385 22.4491 1.50759 22.1925C1.38599 21.9145 1.29182 21.6252 1.22636 21.3288C1.14511 21.0097 1.08272 20.7406 1.02647 20.5215C0.970213 20.3025 0.920065 20.0459 0.876313 19.758C0.0555293 14.7963 -0.189809 9.75624 0.145082 4.73812C0.14899 4.60394 0.161553 4.47014 0.18262 4.33758C0.18262 3.83065 0.226433 3.44264 0.245184 3.17979C0.287075 2.81603 0.347446 2.45467 0.426313 2.09711C0.493315 1.73265 0.629161 1.38431 0.826415 1.07075C1.01697 0.806848 1.26763 0.592296 1.55765 0.444916C1.92458 0.274144 2.32934 0.200866 2.73277 0.232136C3.03599 0.285311 3.33038 0.380085 3.60775 0.513767C3.83987 0.640533 4.02594 0.837727 4.13908 1.07701C4.25926 1.33056 4.34942 1.5973 4.4078 1.87181C4.46634 2.25687 4.48719 2.64673 4.47021 3.03586C4.47021 3.53026 4.43905 4.01215 4.4078 4.48152C4.37655 4.9509 4.33283 5.57047 4.28908 6.35901C4.24533 7.14756 4.22026 7.90479 4.22026 8.61198C4.37652 7.79215 4.56396 7.00987 4.78272 6.25888C5.00469 5.50941 5.26547 4.77202 5.564 4.0497C5.82151 3.40876 6.14852 2.79805 6.53908 2.22853C6.8792 1.75356 7.2878 1.33174 7.75159 0.976875C8.15887 0.636884 8.66579 0.439144 9.19544 0.413632C9.76945 0.405719 10.3372 0.534401 10.8518 0.789114ZM3.75775 3.41134C3.87025 2.34743 3.6828 1.60895 3.19528 1.18339C2.98914 1.04051 2.74957 0.953355 2.49991 0.930331C2.25026 0.907307 1.99895 0.9492 1.77021 1.05197C1.6577 1.09578 1.62009 1.17088 1.65759 1.27102C1.66229 1.29351 1.67202 1.3147 1.68582 1.33307C1.69962 1.35144 1.71727 1.36653 1.73755 1.37728C1.75784 1.38804 1.78024 1.39419 1.80317 1.39529C1.8261 1.39639 1.84894 1.39242 1.87016 1.38366C2.04113 1.29317 2.23382 1.25173 2.42682 1.26387C2.61982 1.27602 2.80565 1.3413 2.96395 1.45251C3.38272 1.7842 3.5515 2.42253 3.45775 3.37379C3.45775 3.48644 3.45773 3.54278 3.59523 3.54278C3.73274 3.54278 3.75775 3.49896 3.75775 3.41134ZM6.53908 13.6624C6.9641 13.6624 7.39542 13.3057 7.85169 12.5985C8.34549 11.7916 8.7242 10.9195 8.97677 10.0076C9.27176 8.99866 9.48085 7.96653 9.60179 6.92225C9.72778 6.00528 9.67686 5.07261 9.45179 4.17485C9.40627 3.85252 9.2696 3.54993 9.0581 3.30269C8.84661 3.05544 8.569 2.87384 8.2579 2.77927C7.64121 2.64993 7.00171 3.21316 6.33918 4.46899C5.61363 5.92139 5.11603 7.47712 4.86405 9.08135C4.57184 10.5916 4.4108 12.1244 4.38277 13.6624C4.50354 13.5129 4.67471 13.4128 4.86405 13.3808C5.0388 13.34 5.22064 13.34 5.39539 13.3808L5.97036 13.5498C6.15425 13.6119 6.3454 13.6498 6.53908 13.6624ZM11.2143 12.1667C11.2768 12.1667 11.3267 12.1667 11.3455 12.0979C12.0286 11.0222 12.4563 9.80396 12.5955 8.53689C12.7891 7.24041 12.7168 5.91806 12.3831 4.65049C12.1645 3.62054 11.5748 2.70719 10.7267 2.08459C10.7123 2.06791 10.6941 2.05513 10.6735 2.0474C10.6529 2.03967 10.6307 2.03724 10.6089 2.04035C10.5871 2.04347 10.5664 2.05202 10.5488 2.06522C10.5312 2.07842 10.5172 2.09585 10.508 2.11589C10.4945 2.13384 10.4849 2.15449 10.4801 2.17645C10.4753 2.19841 10.4754 2.22115 10.4801 2.24312C10.4849 2.2651 10.4943 2.28578 10.5077 2.30378C10.5212 2.32178 10.5384 2.33668 10.5581 2.34744C11.3415 2.95769 11.8822 3.82742 12.0831 4.80068C12.3938 6.01483 12.4555 7.27943 12.2644 8.51811C12.1183 9.73211 11.7062 10.8989 11.058 11.9352C11.0414 11.9508 11.029 11.9703 11.0214 11.9918C11.0138 12.0133 11.0113 12.0363 11.0144 12.0589C11.0174 12.0816 11.0259 12.1031 11.0389 12.1219C11.0519 12.1406 11.0692 12.156 11.0893 12.1667H11.2143Z" fill="#EC3205"/>
<path d="M23.4398 19.664C23.4398 19.7516 23.4398 20.0208 23.4398 20.4776C23.4398 20.9345 23.4398 21.2536 23.4398 21.4414C23.4398 21.6291 23.4085 21.9233 23.3773 22.3363C23.3668 22.6506 23.2991 22.9602 23.1774 23.25C23.0584 23.4782 22.9269 23.6997 22.7835 23.9134C22.6298 24.142 22.4125 24.3205 22.1585 24.4266C21.569 24.6432 20.9198 24.6298 20.3397 24.3891C20.105 24.3005 19.9054 24.138 19.771 23.9259C19.6398 23.7194 19.5335 23.5254 19.4397 23.3439C19.3376 23.1034 19.2763 22.8474 19.2585 22.5867C19.2272 22.255 19.2021 22.0046 19.1959 21.8357C19.1896 21.6667 19.1959 21.3913 19.1959 20.9908C19.1959 20.5903 19.1959 20.365 19.1959 20.2586C19.1959 18.4249 19.1959 16.779 19.0959 15.3208L18.8646 15.2519C17.4904 15.094 16.1034 15.0836 14.727 15.2207C14.527 16.8562 14.3499 18.669 14.1957 20.6591C14.1957 21.1034 14.1395 21.6354 14.0957 22.255C14.0499 23.1812 13.9062 23.6443 13.6645 23.6443C13.5987 23.6448 13.5347 23.6227 13.4832 23.5817C13.4296 23.5368 13.3887 23.4785 13.3645 23.4128C13.3645 23.3439 13.327 23.2813 13.3145 23.2125C13.302 23.1437 13.3145 23.0686 13.3145 22.9809C13.3145 22.8933 13.3145 22.8182 13.3145 22.7494L13.352 22.5366C13.352 22.4552 13.352 22.3989 13.352 22.3488C13.5333 19.5451 13.727 17.167 13.977 15.2207C13.8622 15.1826 13.7562 15.122 13.665 15.0425C13.5738 14.963 13.4992 14.8661 13.4457 14.7575C13.2269 14.2256 13.4769 13.7562 14.2082 13.3619C14.4873 11.3104 14.9539 9.28883 15.602 7.32268C15.6966 7.00687 15.8115 6.6975 15.9458 6.39646C16.0833 6.09995 16.2377 5.8116 16.4083 5.53281C16.5799 5.25025 16.7903 4.99323 17.0333 4.7693C17.2585 4.56053 17.5216 4.39696 17.8083 4.28742C18.1378 4.16537 18.4892 4.11418 18.8397 4.13721C19.3757 4.15547 19.8938 4.33424 20.3272 4.65039C20.8047 5.0165 21.1918 5.48757 21.4586 6.02722C21.7703 6.63619 22.0457 7.26312 22.2835 7.90471C22.5529 8.67359 22.7415 9.46852 22.8461 10.2766C22.9773 11.1903 23.0961 12.0227 23.1961 12.7799C23.2961 13.5372 23.3585 14.3758 23.396 15.3521C23.4335 16.3284 23.4461 17.0919 23.4586 17.6551C23.4711 18.2184 23.4398 18.888 23.4398 19.664ZM15.0208 13.0303C16.2831 12.6802 17.5951 12.5448 18.9021 12.6297C18.8584 12.1916 18.8084 11.7849 18.7521 11.4219C18.6959 11.0589 18.6334 10.7147 18.5709 10.3893C18.5084 10.0638 18.4458 9.80722 18.4021 9.59444C18.3583 9.38166 18.2958 9.15637 18.2208 8.89978C18.1732 8.72598 18.1171 8.5547 18.0522 8.38659L17.8709 7.88594C17.8293 7.74968 17.7749 7.61766 17.7084 7.49166C17.6526 7.31573 17.5748 7.14751 17.4771 6.99099C17.4219 6.89462 17.3421 6.8147 17.2459 6.75943C17.1738 6.74367 17.0991 6.74367 17.0271 6.75943C16.9515 6.77087 16.8815 6.80592 16.827 6.85957C16.7755 6.91275 16.7275 6.96918 16.6833 7.02854C16.6421 7.07289 16.6084 7.12362 16.5833 7.17875C15.9833 8.29272 15.4624 10.2432 15.0208 13.0303ZM22.2461 14.3257C22.3336 14.3257 22.3773 14.2694 22.3773 14.1567C22.1148 9.02494 21.0543 5.96255 19.1959 4.96957C19.1783 4.95772 19.1585 4.9499 19.1376 4.94665C19.1167 4.94341 19.0953 4.94482 19.075 4.9508C19.0547 4.95677 19.0359 4.96716 19.0201 4.98122C19.0043 4.99528 18.9918 5.01267 18.9835 5.03214C18.9272 5.11975 18.9834 5.20113 19.0647 5.26371C20.7897 6.19828 21.7835 9.16262 22.046 14.1567C22.071 14.2694 22.1273 14.3257 22.2148 14.3257H22.2461Z" fill="#EC3205"/>
<path d="M33.5091 13.4622C34.3642 14.2332 34.9657 15.2457 35.2341 16.3661C35.5528 17.521 35.5528 18.7408 35.2341 19.8958C34.9408 21.0069 34.3014 21.9956 33.409 22.7183C32.6775 23.3045 31.8042 23.6867 30.8776 23.826C29.9993 23.9767 29.0971 23.8969 28.2588 23.5944C27.4389 23.2872 26.701 22.7946 26.1025 22.155C25.4608 21.4567 25.0751 20.5608 25.0087 19.6142C24.9381 18.422 25.1258 17.2286 25.5588 16.1158C25.5588 16.1158 25.5588 16.1158 25.5588 16.0469L25.7088 15.7528C25.7088 15.6839 25.7963 15.5901 25.8713 15.4649C25.9463 15.3397 26.0275 15.2959 26.1087 15.321C26.2117 15.3473 26.316 15.3682 26.4212 15.3835C26.5247 15.4417 26.6012 15.5384 26.6338 15.6526C26.6743 15.7702 26.6743 15.898 26.6338 16.0156C26.5928 16.1432 26.5361 16.2651 26.465 16.3786C26.4025 16.4913 26.3275 16.6102 26.2525 16.7478C26.1913 16.8398 26.141 16.9385 26.1025 17.042C25.5524 18.4126 25.515 19.5453 26.0025 20.3589C26.2249 20.7171 26.5353 21.0122 26.904 21.216C27.2728 21.4198 27.6876 21.5255 28.1088 21.5229C28.5928 21.5542 29.0768 21.4608 29.5145 21.2515C29.9521 21.0423 30.3289 20.7242 30.6089 20.3276C31.2922 19.4639 31.4359 18.2707 31.0401 16.7478C30.9311 16.3233 30.716 15.9335 30.4151 15.6151C30.1551 15.3245 29.854 15.0735 29.5213 14.8704C29.2338 14.7076 28.8338 14.4949 28.3276 14.2445C27.8213 13.9942 27.4525 13.8002 27.2338 13.6688C26.8827 13.4458 26.5503 13.1947 26.2399 12.9178C25.9409 12.6519 25.6745 12.3515 25.4461 12.0228C25.2235 11.7012 25.0351 11.3572 24.8837 10.9965C24.7237 10.6243 24.6124 10.2331 24.5524 9.83244C24.4847 9.4189 24.4616 8.99926 24.4836 8.58078C24.4981 7.68127 24.7575 6.80277 25.2337 6.03991C25.6269 5.39364 26.2035 4.8794 26.89 4.56295C27.5508 4.2729 28.2692 4.13806 28.9901 4.16869C29.7229 4.18254 30.4429 4.36226 31.0964 4.69438C31.7624 5.04255 32.3268 5.55794 32.734 6.19011C33.1828 6.87423 33.4456 7.66373 33.4965 8.48064C33.4965 8.96253 33.3965 9.21912 33.134 9.24416C33.0555 9.23943 32.9801 9.21128 32.9178 9.16331C32.8554 9.11535 32.8088 9.04978 32.7839 8.97506C32.7231 8.78681 32.6895 8.59082 32.684 8.39304C32.6817 8.23331 32.6649 8.0741 32.6339 7.9174C32.5065 7.58072 32.2927 7.28365 32.0139 7.0562C31.7352 6.82874 31.4014 6.67894 31.0463 6.62193C30.8132 6.55211 30.5683 6.53053 30.3266 6.5585C30.0848 6.58648 29.8512 6.66343 29.64 6.78465C29.239 7.01518 28.9333 7.38129 28.7776 7.81727C28.6063 8.27644 28.5484 8.77026 28.6088 9.25667C28.6512 9.74421 28.8288 10.2102 29.1214 10.6022C29.7381 11.2854 30.4978 11.8239 31.3463 12.1793C32.1138 12.5228 32.8395 12.9533 33.5091 13.4622ZM27.7151 5.36403C27.8026 5.32022 27.815 5.25136 27.765 5.15123C27.715 5.05109 27.6338 5.03233 27.5463 5.10117C27.0139 5.41771 26.5558 5.84517 26.2029 6.35457C25.8499 6.86396 25.6104 7.44338 25.5008 8.05354C25.3911 8.6637 25.4137 9.29033 25.5672 9.89096C25.7206 10.4916 26.0012 11.0522 26.3899 11.5347C26.4229 11.5741 26.47 11.5989 26.5212 11.6035C26.5571 11.6049 26.5925 11.5939 26.6213 11.5722C26.6394 11.5589 26.654 11.5414 26.6642 11.5213C26.6743 11.5012 26.6796 11.479 26.6796 11.4565C26.6796 11.4339 26.6743 11.4117 26.6642 11.3916C26.654 11.3715 26.6394 11.3541 26.6213 11.3407C26.2467 10.91 25.9772 10.3981 25.834 9.84525C25.6909 9.29244 25.6779 8.71389 25.7962 8.15522C25.8637 7.76857 25.9858 7.3935 26.1588 7.04124C26.323 6.68952 26.5332 6.36121 26.7838 6.06495C27.0499 5.77746 27.3653 5.54006 27.7151 5.36403Z" fill="#EC3205"/>
<path d="M40.4843 15.6837C40.4479 16.801 40.4854 17.9195 40.5967 19.0319C40.6658 19.7066 40.7998 20.3731 40.9968 21.022C41.1081 21.3485 41.2019 21.6807 41.2781 22.0171C41.3444 22.3853 41.305 22.7649 41.1645 23.1116C41.024 23.4584 40.7881 23.7581 40.4843 23.9759C40.1717 24.274 39.7565 24.4403 39.3249 24.4403C38.8932 24.4403 38.4781 24.274 38.1654 23.9759C36.5946 22.6742 35.9862 19.2029 36.3404 13.5621C36.3842 12.9363 36.4403 12.3105 36.509 11.6346C36.5205 11.3011 36.554 10.9686 36.6091 10.6395C36.6639 10.3346 36.7454 10.0351 36.8528 9.74458C36.9534 9.45833 37.0989 9.19 37.2841 8.94977C37.4689 8.73632 37.7027 8.57097 37.9654 8.46789C38.2916 8.3422 38.6443 8.30129 38.9905 8.34898C39.4901 8.40184 39.957 8.62241 40.3155 8.97481C40.641 9.34194 40.8289 9.81098 40.8468 10.3016C40.8906 10.8368 40.8906 11.3747 40.8468 11.9099C40.8031 12.4294 40.728 13.074 40.6343 13.8375C40.5459 14.4492 40.4959 15.0658 40.4843 15.6837ZM40.4154 2.57883C40.7297 2.68769 41.0183 2.85994 41.2634 3.08491C41.5085 3.30989 41.7049 3.58281 41.8405 3.88681C42.1238 4.47102 42.1838 5.13883 42.0093 5.7643C41.9191 6.16604 41.7284 6.53822 41.4551 6.84585C41.1817 7.15348 40.8347 7.38645 40.4467 7.52288C40.0963 7.6691 39.7139 7.72176 39.3371 7.67569C38.9602 7.62962 38.6017 7.4864 38.2967 7.26004C37.7825 6.90494 37.4296 6.3604 37.3153 5.74553C37.1931 5.15571 37.2519 4.54267 37.4841 3.98695C37.7175 3.45105 38.125 3.00994 38.6405 2.73529C38.9111 2.58287 39.2111 2.49005 39.5205 2.46307C39.8298 2.43609 40.1413 2.47556 40.4342 2.57883H40.4154ZM40.1154 12.6296C40.3571 11.0609 40.2134 9.97822 39.6842 9.38159C39.5476 9.22968 39.3795 9.10951 39.1916 9.02951C39.0038 8.94951 38.8007 8.91162 38.5967 8.91849C38.4842 8.91849 38.4279 8.96854 38.4279 9.08119C38.4279 9.19384 38.4842 9.26895 38.5967 9.25017C38.7573 9.24397 38.9173 9.27329 39.0653 9.33602C39.2133 9.39876 39.3457 9.49337 39.453 9.61315C39.9218 10.1201 40.0279 11.1151 39.7842 12.5984C39.7842 12.686 39.7843 12.7423 39.9218 12.7611C39.9443 12.7714 39.9689 12.776 39.9935 12.7745C40.0182 12.773 40.0421 12.7654 40.0631 12.7524C40.0841 12.7394 40.1017 12.7213 40.1141 12.6999C40.1265 12.6785 40.1334 12.6544 40.1342 12.6296H40.1154ZM41.4406 5.53275C41.5825 5.21595 41.6178 4.86157 41.5411 4.52295C41.4645 4.18434 41.2801 3.87983 41.0156 3.65526C40.8389 3.41939 40.5952 3.24243 40.3164 3.14752C40.0376 3.0526 39.7367 3.04416 39.453 3.1233C39.4302 3.12822 39.4087 3.1384 39.3905 3.15305C39.3723 3.16771 39.3578 3.18642 39.3481 3.2077C39.3383 3.22897 39.3338 3.25222 39.3346 3.27559C39.3355 3.29897 39.3417 3.32183 39.3529 3.34234C39.4029 3.44248 39.4655 3.46751 39.553 3.4237C39.7836 3.36323 40.0272 3.37522 40.2508 3.45806C40.4744 3.5409 40.6672 3.69058 40.803 3.88681C41.0147 4.06496 41.1645 4.30575 41.2308 4.57454C41.297 4.84333 41.2764 5.12625 41.1719 5.38255C41.1595 5.40375 41.1521 5.42757 41.1506 5.45209C41.1492 5.47661 41.1534 5.50115 41.1632 5.52369C41.1729 5.54624 41.1879 5.56616 41.2068 5.58187C41.2257 5.59758 41.2479 5.60863 41.2718 5.61411H41.3344C41.361 5.61484 41.3871 5.60746 41.4094 5.59293C41.4318 5.5784 41.4492 5.5574 41.4593 5.53275H41.4406Z" fill="#EC3205"/>
<path d="M48.7159 5.46389C50.0659 5.90614 51.1076 6.96798 51.841 8.64937C52.6104 10.4892 52.9627 12.477 52.8724 14.4696C52.8297 16.6074 52.3843 18.7179 51.5598 20.6903C51.2174 21.6155 50.6996 22.4655 50.0347 23.1936C49.5509 23.7476 48.9099 24.1405 48.1972 24.3201C47.5708 24.4533 46.9194 24.4011 46.3221 24.1699C45.6329 23.8854 45.0358 23.4153 44.597 22.8119C44.0212 22.0559 43.5735 21.2101 43.2719 20.3086C42.8151 18.9383 42.5256 17.5178 42.4094 16.078C42.2739 14.6182 42.3137 13.1474 42.5282 11.6972C42.7031 10.4157 43.0543 9.1647 43.5719 7.97973C43.9782 6.98511 44.707 6.15627 45.6408 5.62661C46.1127 5.3831 46.6308 5.24268 47.1609 5.21463C47.691 5.18658 48.221 5.27153 48.7159 5.46389ZM44.7783 8.28638C44.8671 7.86171 45.0622 7.4666 45.3454 7.13818C45.6285 6.80976 45.9904 6.55881 46.397 6.4089C46.7664 6.21155 47.1807 6.11356 47.5992 6.12453C48.0177 6.1355 48.4261 6.25505 48.7847 6.47148C48.8022 6.48333 48.8221 6.49116 48.843 6.4944C48.8639 6.49764 48.8854 6.49621 48.9057 6.49024C48.926 6.48426 48.9446 6.47387 48.9605 6.45981C48.9763 6.44575 48.9889 6.42836 48.9972 6.4089C49.0119 6.39136 49.0222 6.37072 49.0276 6.34854C49.0331 6.32636 49.0335 6.30322 49.0287 6.2809C49.0239 6.25857 49.014 6.23763 48.9998 6.21968C48.9857 6.20174 48.9677 6.18726 48.9472 6.17734C48.5437 5.93649 48.0851 5.80364 47.6155 5.79158C47.1459 5.77953 46.6811 5.88866 46.2658 6.10849C45.8103 6.30319 45.4076 6.60351 45.0908 6.98467C44.7936 7.35113 44.5803 7.77838 44.4658 8.23633C44.4579 8.25867 44.4554 8.28256 44.4585 8.30606C44.4616 8.32955 44.4701 8.35199 44.4835 8.37153C44.4969 8.39106 44.5147 8.40714 44.5355 8.41845C44.5563 8.42976 44.5796 8.43596 44.6033 8.43658C44.6246 8.43828 44.6461 8.43576 44.6665 8.42913C44.6868 8.42249 44.7057 8.41188 44.722 8.39792C44.7383 8.38396 44.7516 8.36693 44.7612 8.34779C44.7709 8.32864 44.7767 8.30777 44.7783 8.28638ZM46.9597 5.15724C46.8548 5.15294 46.7531 5.11969 46.6659 5.06115C46.5788 5.00261 46.5096 4.92106 46.4659 4.82555C46.3844 4.69593 46.3391 4.54682 46.3346 4.39372V4.18094C46.3453 4.05997 46.3909 3.94473 46.4659 3.84926L49.0159 0.363381C49.0871 0.252144 49.1851 0.160607 49.3009 0.0971821C49.4167 0.0337576 49.5465 0.000487637 49.6784 0.000408505C49.8328 -0.00439987 49.9856 0.0333174 50.12 0.109463C50.2545 0.185608 50.3655 0.29726 50.4409 0.432232C50.5702 0.64092 50.6395 0.88131 50.641 1.12689C50.641 1.12689 50.641 1.25207 50.6097 1.4273C50.5832 1.63918 50.489 1.83677 50.341 1.99054L47.3596 4.94446C47.309 5.00116 47.2475 5.04703 47.1788 5.07929C47.11 5.11156 47.0355 5.12955 46.9597 5.1322V5.15724ZM48.4847 21.9795C48.8847 22.2236 49.3347 22.1172 49.8472 21.6604C50.4897 20.9852 50.965 20.1685 51.2347 19.2759C51.6797 18.0197 51.9469 16.7074 52.0285 15.377C52.141 13.9331 52.0421 12.4804 51.7348 11.0651C51.5155 9.78371 50.9539 8.58566 50.1097 7.59797C49.985 7.48787 49.8369 7.40801 49.6764 7.3646C49.516 7.32118 49.3477 7.31538 49.1846 7.34764C48.7933 7.35777 48.4177 7.50379 48.1221 7.76069C47.6701 8.40834 47.3592 9.14398 47.2096 9.91981C46.8769 11.2559 46.6884 12.6238 46.6471 14.0002C46.58 15.6892 46.7761 17.3783 47.2284 19.0068C47.3159 19.276 47.4284 19.6327 47.5722 20.0207C47.7178 20.4317 47.8846 20.8349 48.0721 21.2285C48.167 21.4924 48.3066 21.738 48.4847 21.9545V21.9795Z" fill="#EC3205"/>
<path d="M58.8537 7.26C59.0773 6.68475 59.4342 6.17089 59.895 5.76071C60.3557 5.35053 60.907 5.05574 61.5038 4.90061C62.8788 4.61273 64.0039 5.30115 64.9539 6.9596C66.454 9.61311 66.9062 14.1128 66.3103 20.4587C66.3103 20.5464 66.3103 20.6903 66.279 20.8906C66.2353 21.3349 66.1979 21.6791 66.1791 21.9169C66.1603 22.1547 66.0978 22.4989 66.0103 22.9308C65.9498 23.2871 65.8382 23.6328 65.679 23.9571C65.5405 24.2276 65.3751 24.4834 65.1853 24.7206C64.9922 24.97 64.7253 25.1518 64.4227 25.2401C64.074 25.328 63.709 25.328 63.3602 25.2401C62.8618 25.1418 62.4168 24.8634 62.1102 24.4578C61.8087 24.0641 61.6559 23.5765 61.6788 23.081C61.6788 23.081 61.6789 22.7242 61.7476 22.0671C61.8164 21.41 61.8288 20.8155 61.8601 20.2585C61.8913 19.7015 61.935 18.8879 61.9788 17.8052C62.0225 16.7225 62.0476 15.74 62.0476 14.8513C62.0476 13.9626 62.0476 12.8612 62.0101 11.5344C61.9476 8.35102 61.406 6.90327 60.3851 7.19115C59.2434 7.49989 58.5266 9.65692 58.2349 13.6622C58.3066 15.5606 58.484 17.4536 58.7662 19.3322C58.825 19.755 58.9127 20.1732 59.0287 20.5839C59.155 21.0473 59.2551 21.5174 59.3287 21.992C59.3645 22.3818 59.3066 22.7745 59.1599 23.1373C59.0074 23.5684 58.703 23.9289 58.3037 24.1511C58.0126 24.2938 57.696 24.3768 57.3724 24.3952C57.1175 24.414 56.8619 24.3688 56.6287 24.2638C56.3903 24.1548 56.1774 23.9971 56.0037 23.8007C55.8227 23.5967 55.6635 23.3744 55.5286 23.1373C55.3837 22.8832 55.2603 22.6173 55.1598 22.3425C55.0536 22.0421 54.9661 21.7667 54.8974 21.5101C54.8286 21.2535 54.7661 20.9844 54.6973 20.6966C53.9641 16.5042 53.7416 12.2382 54.0347 7.99221C54.0347 7.57291 54.0723 7.30381 54.0848 7.17864C54.0973 7.05348 54.1222 6.80314 54.166 6.41513C54.1873 6.13375 54.244 5.85619 54.3347 5.58903C54.3972 5.42006 54.4911 5.20102 54.6161 4.92565C54.7028 4.69169 54.8573 4.48901 55.0599 4.34363C55.2564 4.2206 55.4661 4.11984 55.6849 4.04323C55.9672 3.95294 56.2645 3.91892 56.5599 3.94309C57.0827 3.98991 57.5658 4.24188 57.9038 4.64402C58.1862 5.10146 58.3234 5.63388 58.2975 6.17105C58.2975 6.83443 58.2975 7.68556 58.2163 8.72444C58.3992 8.2239 58.6119 7.73487 58.8537 7.26ZM57.6975 6.99088C57.8037 5.92697 57.6161 5.1885 57.1348 4.76919C56.9292 4.62517 56.6897 4.53729 56.4398 4.51424C56.1899 4.4912 55.9384 4.53379 55.7099 4.63778C55.5974 4.68158 55.5598 4.75042 55.5911 4.85056C55.5975 4.87282 55.6083 4.89358 55.6228 4.91163C55.6373 4.92969 55.6554 4.94467 55.6757 4.95573C55.6961 4.96679 55.7183 4.9737 55.7414 4.97605C55.7644 4.97841 55.7877 4.97618 55.8099 4.96946C55.9805 4.87876 56.1726 4.83662 56.3655 4.84765C56.5583 4.85869 56.7445 4.92246 56.9037 5.03203C57.3224 5.36372 57.485 6.00834 57.3975 6.9596C57.3975 7.07225 57.3974 7.12232 57.5287 7.12232C57.6599 7.12232 57.6975 7.0785 57.6975 6.99088ZM65.3665 13.875C65.4665 13.875 65.5165 13.8312 65.5165 13.7436C65.5376 12.8196 65.4938 11.8952 65.3853 10.9774C65.2833 10.1401 65.1097 9.31304 64.8665 8.5054C64.6726 7.80441 64.3411 7.14913 63.8914 6.57783C63.5256 6.10279 62.9945 5.78324 62.4039 5.6829C62.3123 5.6829 62.256 5.7267 62.2352 5.81432C62.2259 5.83613 62.2221 5.85989 62.2242 5.88349C62.2263 5.9071 62.2342 5.92982 62.2472 5.94963C62.2602 5.96945 62.2778 5.98574 62.2986 5.99708C62.3194 6.00841 62.3427 6.01442 62.3664 6.01459C63.2539 6.1481 63.9498 6.90536 64.454 8.28635C65.0208 10.0477 65.2788 11.8941 65.2165 13.7436C65.2165 13.8187 65.2665 13.8562 65.3665 13.8562V13.875Z" fill="#EC3205"/>
<path d="M87.7799 8.05497C87.9789 9.18336 88.0064 10.3354 87.8612 11.472C87.7444 12.5225 87.4594 13.5474 87.0174 14.5073C86.6315 15.3315 86.0928 16.0748 85.4298 16.6977C84.8399 17.2588 84.0675 17.5878 83.2547 17.6239C82.3465 17.6291 81.4564 17.3704 80.6922 16.8792C80.6383 16.842 80.5819 16.8085 80.5234 16.779C80.6109 17.6427 80.7234 18.4938 80.8547 19.3324C80.9168 19.7546 81.0044 20.1726 81.1172 20.5841C81.2435 21.0474 81.3436 21.5176 81.4172 21.9922C81.453 22.3814 81.3974 22.7736 81.2547 23.1375C81.1005 23.5696 80.7938 23.9303 80.3922 24.1513C80.1011 24.294 79.7845 24.377 79.4609 24.3954C79.206 24.4134 78.9504 24.3682 78.717 24.264C78.478 24.1562 78.2648 23.9982 78.092 23.8008C77.9091 23.597 77.7478 23.3746 77.6107 23.1375C77.4679 22.8831 77.3467 22.6173 77.2483 22.3427C77.1358 22.0423 77.0482 21.7669 76.9794 21.5103C76.9107 21.2537 76.8483 20.9846 76.7795 20.6967C76.0464 16.5044 75.8239 12.2384 76.117 7.99239C76.117 7.57308 76.1545 7.30398 76.167 7.17881C76.1795 7.05365 76.2044 6.80332 76.2544 6.4153C76.2745 6.13429 76.3291 5.85682 76.417 5.5892C76.4857 5.42023 76.5794 5.20119 76.6982 4.92583C76.7865 4.69104 76.9433 4.48827 77.1482 4.34381C77.344 4.21943 77.5538 4.11859 77.7732 4.0434C78.0557 3.95375 78.3529 3.91974 78.6483 3.94327C79.1527 3.99429 79.6203 4.23063 79.9608 4.60665C80.243 5.03483 80.3871 5.53948 80.3734 6.05231C80.3734 6.67814 80.3734 7.48546 80.3421 8.45549C80.3171 8.69748 80.3046 8.88524 80.3046 9.01875C80.5966 8.01946 81.0168 7.06229 81.5547 6.17122C81.9119 5.53796 82.413 4.99772 83.0173 4.59414C83.4558 4.30622 83.9744 4.16558 84.498 4.19258C85.0217 4.21959 85.5232 4.41283 85.9298 4.74433C86.3943 5.11453 86.7774 5.5769 87.0549 6.10239C87.403 6.70852 87.6479 7.36838 87.7799 8.05497ZM79.6983 6.99105C79.7858 5.92714 79.5858 5.18867 79.0733 4.76937C78.8677 4.62534 78.6281 4.53746 78.3783 4.51442C78.1284 4.49137 77.8767 4.53396 77.6482 4.63795C77.5357 4.68176 77.4983 4.7506 77.5358 4.85073C77.5407 4.87324 77.5503 4.89446 77.564 4.91297C77.5777 4.93148 77.5952 4.94686 77.6153 4.9581C77.6354 4.96934 77.6577 4.97619 77.6806 4.97817C77.7035 4.98016 77.7266 4.97726 77.7483 4.96964C77.9246 4.87948 78.1215 4.83777 78.3192 4.84876C78.5168 4.85976 78.708 4.92305 78.8733 5.03221C79.2733 5.3639 79.4295 6.00851 79.342 6.95977C79.342 7.07242 79.342 7.12249 79.4733 7.12249C79.4966 7.1324 79.5219 7.13672 79.5471 7.13512C79.5724 7.13352 79.5968 7.12603 79.6187 7.11327C79.6405 7.10051 79.6592 7.08282 79.673 7.06161C79.6868 7.04039 79.6955 7.01622 79.6983 6.99105ZM83.011 14.7201C83.5137 14.1072 83.8955 13.4042 84.1361 12.6486C84.3699 11.9422 84.4859 11.2022 84.4797 10.4582C84.476 9.80681 84.4112 9.15726 84.2861 8.51808C84.1944 8.01339 84.0257 7.52581 83.786 7.07242C83.5798 6.70943 83.3922 6.51544 83.2422 6.49666C82.7109 6.42782 82.1798 6.92221 81.6485 7.98612C80.8892 9.5803 80.4294 11.3008 80.2921 13.0616C80.2921 13.6874 80.3484 14.3446 80.3922 15.0517C80.5716 15.2145 80.7867 15.3327 81.0201 15.3968C81.2535 15.461 81.4987 15.4692 81.7359 15.421C82.2202 15.3368 82.6613 15.0895 82.986 14.7201H83.011ZM85.9924 15.1206C86.6754 14.0426 87.103 12.8223 87.2424 11.5534C87.4335 10.262 87.3547 8.94502 87.0111 7.68574C86.7743 6.66138 86.1942 5.74918 85.3674 5.10106C85.354 5.08294 85.3365 5.06821 85.3164 5.05807C85.2963 5.04792 85.2742 5.04263 85.2517 5.04263C85.2292 5.04263 85.2071 5.04792 85.187 5.05807C85.1669 5.06821 85.1494 5.08294 85.136 5.10106C85.1207 5.11734 85.1092 5.13686 85.1023 5.15818C85.0955 5.17951 85.0935 5.2021 85.0965 5.2243C85.0995 5.2465 85.1074 5.26777 85.1197 5.28651C85.132 5.30525 85.1482 5.32099 85.1673 5.33261C85.9562 5.94061 86.498 6.81448 86.6923 7.79212C87.0065 9.00328 87.0746 10.2653 86.8924 11.5033C86.747 12.7242 86.319 13.8943 85.6423 14.9203C85.6305 14.9398 85.6228 14.9615 85.6199 14.9841C85.617 15.0066 85.6188 15.0296 85.6252 15.0514C85.6317 15.0732 85.6428 15.0934 85.6576 15.1108C85.6724 15.1281 85.6906 15.1421 85.7112 15.1519C85.7183 15.1623 85.7275 15.171 85.7383 15.1775C85.7491 15.184 85.7611 15.188 85.7736 15.1894C85.8127 15.2009 85.8544 15.2005 85.8934 15.1883C85.9323 15.176 85.9668 15.1525 85.9924 15.1206Z" fill="#EC3205"/>
<path d="M94.9678 5.46384C96.3178 5.90609 97.3595 6.96793 98.0929 8.64933C98.8606 10.49 99.217 12.4765 99.1368 14.4695C99.1052 16.6099 98.6549 18.7233 97.8116 20.6903C97.4693 21.6154 96.9515 22.4655 96.2866 23.1936C95.8028 23.7475 95.1618 24.1405 94.4491 24.3201C93.8227 24.4532 93.1712 24.401 92.574 24.1699C91.8848 23.8853 91.2877 23.4153 90.8489 22.8118C90.2731 22.0558 89.8254 21.2101 89.5238 20.3085C89.067 18.9383 88.7775 17.5178 88.6613 16.0779C88.5258 14.6182 88.5656 13.1474 88.7801 11.6971C88.955 10.4157 89.3062 9.16466 89.8238 7.97969C90.2301 6.98506 90.9589 6.15622 91.8927 5.62656C92.3645 5.38306 92.8827 5.24263 93.4128 5.21458C93.9429 5.18653 94.4729 5.27149 94.9678 5.46384ZM91.024 8.28634C91.115 7.86167 91.3116 7.46691 91.5957 7.13869C91.8798 6.81047 92.2421 6.55942 92.6489 6.40885C93.0183 6.2115 93.4326 6.11352 93.8511 6.12449C94.2696 6.13546 94.678 6.25501 95.0366 6.47144C95.0541 6.48328 95.074 6.49111 95.0949 6.49436C95.1158 6.4976 95.1373 6.49617 95.1576 6.49019C95.1779 6.48421 95.1965 6.47383 95.2124 6.45977C95.2282 6.44571 95.2408 6.42832 95.2491 6.40885C95.2627 6.3909 95.2721 6.37025 95.2769 6.34829C95.2817 6.32633 95.2818 6.30359 95.2771 6.28161C95.2723 6.25964 95.2629 6.23894 95.2494 6.22094C95.236 6.20294 95.2188 6.18806 95.1991 6.1773C94.7956 5.93644 94.337 5.8036 93.8674 5.79154C93.3978 5.77948 92.933 5.88861 92.5177 6.10845C92.0737 6.30187 91.679 6.5931 91.363 6.96042C91.047 7.32775 90.8179 7.76172 90.6927 8.23002C90.6927 8.34266 90.7364 8.41151 90.8302 8.43029C90.8526 8.43714 90.8763 8.43862 90.8994 8.43462C90.9226 8.43062 90.9444 8.42123 90.9632 8.40723C90.9821 8.39323 90.9974 8.375 91.0079 8.354C91.0185 8.33301 91.024 8.30983 91.024 8.28634ZM94.7366 21.9544C95.1366 22.1985 95.5866 22.0921 96.0928 21.6353C96.7397 20.9624 97.2174 20.1451 97.4866 19.2509C97.9286 17.9938 98.1957 16.6819 98.2804 15.352C98.3905 13.9163 98.2915 12.4722 97.9867 11.065C97.7647 9.78451 97.2034 8.58713 96.3615 7.59792C96.236 7.48731 96.0866 7.40719 95.9251 7.36377C95.7636 7.32035 95.5943 7.31481 95.4303 7.34759C95.041 7.35864 94.6677 7.50464 94.374 7.76064C93.9219 8.40829 93.6111 9.14394 93.4615 9.91976C93.1288 11.2558 92.9403 12.6238 92.899 14.0002C92.8262 15.6894 93.0223 17.3794 93.4803 19.0068C93.6303 19.4762 93.849 20.0457 94.1053 20.7341C94.2444 21.1741 94.4579 21.5868 94.7366 21.9544Z" fill="#EC3205"/>
<path d="M112.562 21.0219C112.847 21.6471 112.894 22.3549 112.693 23.0121C112.594 23.3397 112.41 23.6352 112.16 23.8683C111.91 24.1014 111.602 24.2638 111.268 24.3388C110.906 24.4332 110.525 24.4332 110.162 24.3388C109.838 24.2505 109.555 24.0512 109.362 23.7756C109.181 23.5306 109.02 23.2711 108.881 22.9996C108.733 22.6641 108.608 22.3191 108.506 21.967C108.406 21.6459 108.289 21.3304 108.156 21.0219C107.787 20.1313 107.308 19.2903 106.731 18.5186C106.603 18.3469 106.438 18.2059 106.249 18.1056C106.067 17.9937 105.872 17.9034 105.668 17.8365C105.48 17.7732 105.301 17.6848 105.137 17.5736C104.969 17.4599 104.833 17.3047 104.743 17.123C104.831 17.874 104.931 18.6062 105.043 19.3134C105.102 19.7362 105.19 20.1544 105.306 20.5651C105.432 21.0285 105.532 21.4986 105.606 21.9732C105.641 22.363 105.584 22.7557 105.437 23.1185C105.283 23.5506 104.976 23.9113 104.574 24.1323C104.241 24.2706 103.89 24.3591 103.531 24.3952C103.232 24.4165 102.937 24.3225 102.706 24.1323C102.462 23.9491 102.24 23.7392 102.043 23.5065C101.837 23.2422 101.674 22.9463 101.562 22.6303C101.43 22.2736 101.318 21.9482 101.23 21.6478C101.137 21.3369 101.06 21.0215 100.999 20.7028C100.263 16.5108 100.04 12.2444 100.337 7.99844C100.337 7.57913 100.374 7.31001 100.387 7.18485C100.399 7.05968 100.424 6.80935 100.468 6.42134C100.489 6.13996 100.546 5.86242 100.637 5.59525C100.699 5.42628 100.793 5.20724 100.918 4.93188C101.005 4.69791 101.159 4.49522 101.362 4.34984C101.558 4.22591 101.767 4.12512 101.987 4.04946C102.269 3.95917 102.566 3.92515 102.862 3.94932C103.365 3.99891 103.831 4.23563 104.168 4.6127C104.452 5.04016 104.599 5.54487 104.587 6.05836C104.587 6.68836 104.574 7.48942 104.549 8.46154C104.549 8.70562 104.518 8.89336 104.518 9.02479C104.839 7.8576 105.355 6.75311 106.043 5.75796C106.459 5.08906 107.089 4.5815 107.831 4.31856C108.413 4.16105 109.03 4.20065 109.587 4.4312C110.21 4.70769 110.732 5.17133 111.081 5.75796C111.519 6.46182 111.811 7.24744 111.937 8.06727C112.229 9.66333 112.167 11.3042 111.756 12.8737C111.451 14.2404 110.769 15.4939 109.787 16.4909C111.091 17.7333 112.047 19.2953 112.562 21.0219ZM103.881 6.99084C103.968 5.92693 103.768 5.18846 103.287 4.76916C103.081 4.62513 102.842 4.53725 102.592 4.51421C102.342 4.49116 102.09 4.53375 101.862 4.63774C101.749 4.68154 101.712 4.75038 101.743 4.85052C101.749 4.87326 101.759 4.89457 101.773 4.9131C101.788 4.93164 101.806 4.94699 101.826 4.95818C101.847 4.96936 101.87 4.97614 101.893 4.97808C101.916 4.98001 101.94 4.97707 101.962 4.96943C102.138 4.87927 102.335 4.83755 102.533 4.84855C102.73 4.85954 102.922 4.92284 103.087 5.03199C103.481 5.36368 103.637 6.0083 103.549 6.95956C103.549 7.07221 103.549 7.12228 103.681 7.12228H103.718C103.757 7.12431 103.795 7.11201 103.825 7.08775C103.855 7.06349 103.874 7.02897 103.881 6.99084ZM104.574 15.0515C104.754 15.2138 104.969 15.3318 105.202 15.3959C105.436 15.46 105.681 15.4685 105.918 15.4208C106.402 15.3366 106.843 15.0893 107.168 14.7198C107.671 14.107 108.053 13.404 108.293 12.6483C108.529 11.9423 108.647 11.2023 108.643 10.4579C108.638 9.8064 108.571 9.15684 108.443 8.51787C108.353 8.01352 108.187 7.52596 107.949 7.0722C107.737 6.70922 107.556 6.51523 107.4 6.49645C106.868 6.42761 106.343 6.922 105.812 7.98591C105.051 9.57967 104.589 11.3002 104.449 13.0614C104.499 13.706 104.531 14.3694 104.574 15.0515ZM109.35 5.13213C109.333 5.14782 109.32 5.16723 109.313 5.18876C109.305 5.21028 109.303 5.23331 109.306 5.25593C109.309 5.27855 109.317 5.30012 109.33 5.31886C109.343 5.33759 109.361 5.35297 109.381 5.3637C109.963 5.79137 110.399 6.38781 110.631 7.0722C110.949 7.88994 111.128 8.755 111.162 9.63184C111.203 10.5772 111.121 11.5239 110.918 12.4481C110.734 13.3418 110.379 14.1916 109.875 14.9514C109.863 14.9704 109.855 14.9918 109.851 15.0141C109.848 15.0364 109.849 15.0592 109.855 15.0809C109.861 15.1027 109.871 15.123 109.885 15.1406C109.899 15.1581 109.917 15.1726 109.937 15.1829C109.945 15.1938 109.955 15.2028 109.967 15.2093C109.979 15.2157 109.992 15.2196 110.006 15.2205C110.039 15.2182 110.071 15.2078 110.099 15.1904C110.128 15.173 110.151 15.1489 110.168 15.1204C110.851 14.0424 111.279 12.8221 111.418 11.5531C111.613 10.2619 111.534 8.9443 111.187 7.68552C110.953 6.66185 110.374 5.74962 109.55 5.10084C109.519 5.0786 109.481 5.06941 109.443 5.07527C109.406 5.08113 109.372 5.10156 109.35 5.13213Z" fill="#EC3205"/>
<path d="M130.251 21.3226C130.667 21.5438 130.68 21.9193 130.288 22.4491C129.87 23.113 129.273 23.6457 128.567 23.9866C127.861 24.3274 127.073 24.4626 126.294 24.3767C125.782 24.3988 125.27 24.3127 124.793 24.124C124.316 23.9353 123.884 23.6483 123.525 23.2815C122.926 22.4813 122.545 21.5388 122.419 20.5466C122.148 19.0791 122.014 17.5894 122.019 16.097C122.019 14.4281 122.036 13.0241 122.069 11.8851C122.113 10.7461 122.181 9.61338 122.269 8.48688C122.269 8.39927 122.269 8.16146 122.3 7.78596C122.331 7.41046 122.338 7.16012 122.35 6.99114C122.363 6.82217 122.394 6.58435 122.45 6.22763C122.481 5.96103 122.548 5.69994 122.65 5.45161C122.725 5.28263 122.825 5.07611 122.95 4.82578C123.045 4.61017 123.199 4.42578 123.394 4.29382C123.589 4.17235 123.799 4.07764 124.019 4.01221C124.298 3.92911 124.591 3.89938 124.881 3.92458C125.145 3.95043 125.4 4.0285 125.633 4.15421C125.866 4.27992 126.071 4.45077 126.238 4.65681C126.53 5.13977 126.663 5.70231 126.619 6.26518C126.619 6.95985 126.557 7.84854 126.469 8.91871C126.382 9.98888 126.306 11.2781 126.238 12.7863C126.174 14.523 126.218 16.262 126.369 17.9932C126.369 18.1059 126.494 18.8882 126.738 20.3463C126.76 20.5714 126.842 20.7862 126.977 20.968C127.111 21.1499 127.292 21.2919 127.5 21.379C128.338 21.7732 128.919 21.9047 129.25 21.7732L129.5 21.6105C129.583 21.557 129.66 21.4962 129.732 21.429C129.799 21.3683 129.877 21.3215 129.963 21.2913C130.01 21.2765 130.061 21.2717 130.11 21.277C130.159 21.2824 130.207 21.298 130.251 21.3226ZM125.913 6.99114C126.025 5.92723 125.825 5.18876 125.319 4.76946C125.12 4.62458 124.885 4.53596 124.64 4.51284C124.395 4.48973 124.148 4.53296 123.925 4.63804C123.813 4.68185 123.775 4.75068 123.806 4.85082C123.813 4.87308 123.824 4.89384 123.838 4.91189C123.853 4.92995 123.871 4.94493 123.891 4.95599C123.911 4.96705 123.934 4.97396 123.957 4.97632C123.98 4.97867 124.003 4.97644 124.025 4.96973C124.196 4.87902 124.388 4.83688 124.581 4.84791C124.774 4.85895 124.96 4.92272 125.119 5.03229C125.538 5.36398 125.7 6.0086 125.613 6.95986C125.613 7.07251 125.613 7.12258 125.75 7.12258C125.888 7.12258 125.913 7.07876 125.913 6.99114Z" fill="#EC3205"/>
<path d="M140.726 19.6641C140.726 19.7517 140.726 20.0208 140.726 20.4776C140.726 20.9345 140.726 21.2537 140.726 21.4414C140.726 21.6292 140.695 21.9233 140.663 22.3364C140.65 22.6502 140.582 22.9593 140.463 23.2501C140.344 23.4796 140.211 23.7011 140.063 23.9134C139.912 24.1439 139.694 24.3228 139.438 24.4266C139.129 24.5335 138.803 24.5844 138.476 24.5768C138.18 24.5598 137.889 24.4964 137.613 24.3891C137.379 24.3023 137.181 24.1391 137.051 23.9259C136.929 23.7385 136.819 23.5441 136.719 23.3439C136.614 23.1044 136.553 22.8479 136.538 22.5867C136.507 22.255 136.482 22.0047 136.469 21.8357C136.457 21.6667 136.469 21.3913 136.469 20.9908C136.469 20.5903 136.469 20.365 136.469 20.2586C136.469 18.4228 136.436 16.7769 136.369 15.3208L136.138 15.252C134.762 15.0941 133.373 15.0836 131.994 15.2207C131.8 16.8541 131.619 18.669 131.469 20.6591C131.469 21.1035 131.413 21.6354 131.369 22.255C131.327 23.1812 131.184 23.6443 130.938 23.6443C130.872 23.6465 130.807 23.6242 130.757 23.5818C130.701 23.5387 130.66 23.4798 130.638 23.4128C130.615 23.3476 130.599 23.2806 130.588 23.2125C130.581 23.1355 130.581 23.058 130.588 22.981C130.581 22.9039 130.581 22.8264 130.588 22.7494C130.588 22.6806 130.588 22.6117 130.619 22.5366C130.624 22.4741 130.624 22.4114 130.619 22.3489C130.794 19.5452 130.992 17.1691 131.213 15.2207C130.984 15.1417 130.795 14.9752 130.688 14.7576C130.463 14.2256 130.719 13.7562 131.45 13.362C131.731 11.3112 132.195 9.28997 132.838 7.3227C132.935 7.0067 133.052 6.69732 133.188 6.39648C133.323 6.09875 133.478 5.81024 133.651 5.53283C133.814 5.25351 134.014 4.99683 134.244 4.76932C134.473 4.5618 134.738 4.39843 135.026 4.28744C135.353 4.16626 135.702 4.11509 136.051 4.13723C136.588 4.15578 137.109 4.33445 137.544 4.65041C138.022 5.01509 138.407 5.48663 138.67 6.02725C138.986 6.63487 139.264 7.26195 139.501 7.90473C139.77 8.67361 139.959 9.46854 140.063 10.2766C140.195 11.1903 140.313 12.0227 140.407 12.7799C140.517 13.6334 140.584 14.4919 140.607 15.3521C140.645 16.3221 140.663 17.0919 140.676 17.6551C140.688 18.2184 140.726 18.888 140.726 19.6641ZM132.307 13.0303C133.567 12.6801 134.877 12.5446 136.182 12.6297C136.138 12.1917 136.088 11.7849 136.032 11.4219C135.976 11.0589 135.919 10.7147 135.851 10.3893C135.782 10.0638 135.732 9.80724 135.688 9.59446C135.644 9.38168 135.582 9.15639 135.507 8.8998C135.432 8.64321 135.369 8.47423 135.338 8.38662L135.157 7.88596C135.118 7.74775 135.061 7.61521 134.988 7.49168C134.935 7.31474 134.857 7.14618 134.757 6.99101C134.704 6.89259 134.624 6.812 134.526 6.75946C134.456 6.74339 134.383 6.74339 134.313 6.75946C134.237 6.76958 134.167 6.80483 134.113 6.85959C134.06 6.91275 134.01 6.96918 133.963 7.02856C133.926 7.07615 133.893 7.12636 133.863 7.17877C133.28 8.29275 132.761 10.2433 132.307 13.0303ZM139.532 14.3257C139.62 14.3257 139.663 14.2694 139.663 14.1568C139.397 9.02496 138.336 5.96257 136.482 4.96959C136.464 4.95774 136.444 4.94992 136.424 4.94667C136.403 4.94343 136.381 4.94484 136.361 4.95082C136.341 4.9568 136.322 4.96718 136.306 4.98124C136.29 4.9953 136.278 5.01269 136.269 5.03216C136.213 5.11978 136.238 5.20115 136.351 5.26373C138.072 6.1983 139.065 9.16264 139.332 14.1568C139.332 14.2694 139.407 14.3257 139.494 14.3257H139.532Z" fill="#EC3205"/>
<path d="M159.045 17.3736C159.115 17.4007 159.182 17.4342 159.245 17.4738C159.313 17.5252 159.365 17.5946 159.395 17.674C159.429 17.7724 159.456 17.8728 159.477 17.9745C159.487 18.0952 159.487 18.2167 159.477 18.3374C159.483 18.4583 159.483 18.5795 159.477 18.7004C159.477 18.8131 159.477 18.9445 159.445 19.1009C159.414 19.2574 159.445 19.3763 159.445 19.4639C159.445 19.5515 159.445 19.6517 159.414 19.7643C159.412 19.8339 159.395 19.9023 159.364 19.9646C159.283 20.6526 159.108 21.3263 158.845 21.9672C158.59 22.5872 158.186 23.1351 157.67 23.5631C157.144 24.0155 156.487 24.2874 155.795 24.3391C155.192 24.4192 154.578 24.3593 154.001 24.164C153.425 23.9686 152.901 23.6431 152.47 23.2126C151.565 22.2515 150.92 21.0755 150.595 19.7956C150.333 18.7916 150.167 17.7647 150.101 16.729C150.014 15.5249 150.014 14.3159 150.101 13.1117C150.18 11.9167 150.356 10.73 150.626 9.56331C150.867 8.51613 151.27 7.5131 151.82 6.59062C152.261 5.81898 152.911 5.18774 153.695 4.76945C154.075 4.56205 154.494 4.43853 154.926 4.40722C155.357 4.37591 155.79 4.43754 156.195 4.58795C156.967 4.93888 157.597 5.5411 157.983 6.29648C158.476 7.17869 158.84 8.12707 159.064 9.11271C159.303 10.1394 159.435 11.188 159.458 12.2419V12.342C159.458 12.8051 159.339 13.0367 159.095 13.0367C159.043 13.0379 158.992 13.0266 158.945 13.0037C158.898 12.9809 158.858 12.9471 158.827 12.9052C158.762 12.8111 158.717 12.7045 158.695 12.5923C158.68 12.4656 158.68 12.3373 158.695 12.2106C158.695 12.0729 158.695 11.9415 158.695 11.81V11.5096C158.659 10.0897 158.273 8.70087 157.57 7.46677C157.108 6.73455 156.677 6.47796 156.277 6.70326C155.841 7.34529 155.506 8.05017 155.283 8.79353C154.625 10.6357 154.285 12.5762 154.276 14.5324C154.201 16.6079 154.522 18.6787 155.22 20.6342C155.344 20.9583 155.544 21.2479 155.803 21.4787C156.062 21.7096 156.372 21.8749 156.708 21.961C156.858 22.0054 157.016 22.0161 157.17 21.9923C158.077 21.9297 158.608 20.9972 158.764 19.2073C158.764 19.1635 158.764 18.9633 158.714 18.6128C158.678 18.3251 158.688 18.0334 158.745 17.7491C158.759 17.6662 158.794 17.5881 158.847 17.5224C158.899 17.4567 158.968 17.4055 159.045 17.3736ZM151.258 13.9566C151.188 12.359 151.419 10.7624 151.939 9.25039C152.297 8.11184 152.889 7.06087 153.676 6.16506C153.861 5.93022 154.092 5.73536 154.354 5.59228C154.616 5.44921 154.904 5.3609 155.201 5.33269C155.314 5.33269 155.364 5.27636 155.351 5.16997C155.339 5.06358 155.289 5.001 155.201 5.001C154.862 5.02894 154.531 5.12538 154.229 5.28454C153.927 5.44371 153.66 5.66233 153.445 5.92724C152.624 6.85782 152.005 7.94891 151.626 9.13148C151.093 10.6817 150.855 12.3185 150.926 13.9566C150.923 13.9795 150.925 14.0029 150.933 14.0248C150.94 14.0467 150.952 14.0666 150.969 14.083C150.985 14.0993 151.005 14.1117 151.027 14.1191C151.049 14.1265 151.072 14.1287 151.095 14.1256C151.117 14.1277 151.14 14.1247 151.161 14.1168C151.182 14.1089 151.201 14.0964 151.217 14.0802C151.232 14.064 151.244 14.0445 151.251 14.0231C151.258 14.0017 151.26 13.979 151.258 13.9566Z" fill="#EC3205"/>
<path d="M166.796 5.46398C168.146 5.90623 169.188 6.96807 169.921 8.64947C170.692 10.4892 171.048 12.4764 170.965 14.4697C170.933 16.61 170.483 18.7234 169.64 20.6904C169.297 21.6155 168.779 22.4656 168.115 23.1937C167.631 23.7476 166.99 24.1406 166.277 24.3202C165.651 24.4534 164.999 24.4012 164.402 24.17C163.713 23.8855 163.116 23.4154 162.677 22.812C162.101 22.0559 161.653 21.2102 161.352 20.3087C160.894 18.9364 160.605 17.5138 160.489 16.0718C160.354 14.612 160.394 13.1412 160.608 11.691C160.783 10.4096 161.134 9.15853 161.652 7.97356C162.058 6.97893 162.787 6.1501 163.721 5.62044C164.193 5.37794 164.711 5.2386 165.242 5.21163C165.772 5.18465 166.301 5.27067 166.796 5.46398ZM162.852 8.28648C162.943 7.86181 163.14 7.46705 163.424 7.13883C163.708 6.81061 164.07 6.55956 164.477 6.40899C164.846 6.21164 165.261 6.11365 165.679 6.12462C166.098 6.13559 166.506 6.25515 166.865 6.47157C166.882 6.48342 166.902 6.49125 166.923 6.49449C166.944 6.49774 166.965 6.49631 166.986 6.49033C167.006 6.48435 167.024 6.47397 167.04 6.4599C167.056 6.44584 167.069 6.42846 167.077 6.40899C167.091 6.39103 167.1 6.37038 167.105 6.34842C167.11 6.32647 167.11 6.30373 167.105 6.28175C167.1 6.25978 167.091 6.23907 167.077 6.22107C167.064 6.20307 167.047 6.18819 167.027 6.17743C166.624 5.93658 166.165 5.80373 165.695 5.79168C165.226 5.77962 164.761 5.88875 164.346 6.10858C163.89 6.30328 163.487 6.6036 163.171 6.98476C162.873 7.35122 162.66 7.77847 162.546 8.23642C162.54 8.28091 162.551 8.326 162.576 8.36298C162.601 8.39997 162.64 8.42622 162.683 8.43667H162.714C162.752 8.43352 162.787 8.41633 162.812 8.3885C162.838 8.36067 162.852 8.32423 162.852 8.28648ZM166.565 21.9546C166.965 22.1987 167.415 22.0923 167.921 21.6354C168.568 20.9625 169.046 20.1452 169.315 19.251C169.76 17.9948 170.027 16.6824 170.108 15.3521C170.216 13.9247 170.117 12.4892 169.815 11.0902C169.595 9.80884 169.034 8.61079 168.19 7.6231C168.064 7.51248 167.915 7.43234 167.753 7.38893C167.592 7.34551 167.422 7.33999 167.258 7.37277C166.869 7.38382 166.496 7.52981 166.202 7.78582C165.75 8.43347 165.439 9.16909 165.289 9.94492C164.957 11.281 164.768 12.649 164.727 14.0253C164.657 15.7144 164.853 17.404 165.308 19.032C165.458 19.5013 165.677 20.0708 165.933 20.7593C166.075 21.1904 166.288 21.5946 166.565 21.9546Z" fill="#EC3205"/>
<path d="M187.503 10.1452C188.306 10.4344 188.975 11.012 189.378 11.7661C189.875 12.6585 190.19 13.6415 190.303 14.6574C190.444 15.7111 190.511 16.7735 190.503 17.8366C190.503 18.8567 190.428 19.8643 190.321 20.8594C190.253 21.3037 190.19 21.6604 190.14 21.9358C190.07 22.2812 189.978 22.6219 189.865 22.9559C189.764 23.2825 189.601 23.5864 189.384 23.8508C189.173 24.0783 188.912 24.2539 188.621 24.364C188.256 24.5031 187.857 24.5271 187.478 24.4328C187.048 24.3292 186.661 24.0979 186.365 23.7695C186.074 23.4487 185.895 23.0427 185.853 22.6117C185.819 22.1266 185.859 21.6391 185.971 21.166C186.051 20.7981 186.111 20.4262 186.153 20.052C186.342 18.3798 186.392 16.6947 186.303 15.0141C186.203 13.7625 186.028 13.0115 185.79 12.7236C185.715 12.6518 185.631 12.5907 185.54 12.5421C185.425 12.4819 185.303 12.4357 185.178 12.4044C185.01 12.3623 184.834 12.3681 184.669 12.4212C184.504 12.4743 184.358 12.5726 184.246 12.7048C184.062 12.8939 183.9 13.1039 183.765 13.3306C183.798 15.1711 183.7 17.0115 183.471 18.838C183.465 18.9264 183.453 19.0142 183.434 19.1008C183.392 19.5889 183.348 19.9707 183.302 20.2461C183.234 20.6173 183.14 20.9832 183.021 21.3413C182.918 21.7073 182.755 22.054 182.54 22.3676C182.306 22.6571 181.996 22.8746 181.644 22.9953C181.293 23.116 180.914 23.1348 180.552 23.0498C180.115 22.9575 179.713 22.7401 179.396 22.4239C179.127 22.1368 178.958 21.7701 178.915 21.3788C178.862 20.8272 178.862 20.2719 178.915 19.7204C178.959 19.0257 179.034 18.306 179.134 17.5613C179.234 16.8165 179.309 15.859 179.365 14.6762C179.421 13.4934 179.421 12.3293 179.365 11.1778V10.3454C179.365 9.88233 179.365 9.51308 179.365 9.23771C179.365 8.96235 179.302 8.61189 179.246 8.26142C179.223 7.95717 179.122 7.66406 178.952 7.4103C178.89 7.32215 178.808 7.25043 178.712 7.20136C178.616 7.15229 178.51 7.12734 178.402 7.12867C177.827 7.12867 177.377 7.72321 177.046 8.90602C176.67 10.3672 176.438 11.8617 176.352 13.3682C176.42 15.3678 176.608 17.3616 176.915 19.3386C176.974 19.7613 177.061 20.1796 177.177 20.5903C177.303 21.0536 177.404 21.5238 177.477 21.9984C177.513 22.3882 177.455 22.7808 177.308 23.1436C177.154 23.5758 176.848 23.9364 176.446 24.1575C176.191 24.2792 175.919 24.3615 175.64 24.4016C175.411 24.4396 175.176 24.4181 174.958 24.339C174.757 24.2598 174.567 24.1523 174.396 24.0198C174.206 23.8786 174.043 23.7048 173.915 23.5066C173.774 23.3065 173.647 23.0975 173.533 22.8808C173.414 22.6451 173.314 22.4003 173.233 22.1486C173.146 21.8857 173.077 21.6417 173.021 21.4226C172.965 21.2036 172.915 20.9658 172.871 20.7217C172.135 16.5297 171.912 12.2634 172.208 8.01736C172.208 7.59805 172.246 7.32893 172.258 7.20377C172.271 7.0786 172.296 6.82827 172.34 6.44026C172.361 6.15888 172.418 5.88134 172.508 5.61418C172.571 5.4452 172.664 5.22616 172.79 4.9508C172.876 4.71684 173.031 4.51414 173.233 4.36876C173.43 4.24573 173.639 4.14499 173.858 4.06838C174.141 3.97809 174.438 3.94407 174.733 3.96824C175.223 4.02261 175.68 4.24349 176.027 4.59407C176.318 4.99795 176.469 5.48568 176.458 5.98341C176.458 6.60924 176.458 7.37275 176.421 8.32401C176.512 8.00785 176.625 7.69838 176.758 7.39779C177.35 6.02931 178.184 5.20946 179.259 4.93827C180.509 4.63161 181.565 5.22615 182.384 6.7344C183.157 8.25937 183.596 9.93224 183.671 11.6409C184.613 10.068 185.89 9.56941 187.503 10.1452ZM175.808 7.01603C175.896 5.95212 175.696 5.21365 175.183 4.79434C174.978 4.65032 174.738 4.56244 174.488 4.53939C174.238 4.51634 173.987 4.55891 173.758 4.6629C173.646 4.70671 173.608 4.77555 173.64 4.87568C173.645 4.89843 173.655 4.91975 173.67 4.93829C173.684 4.95682 173.702 4.97218 173.723 4.98336C173.743 4.99454 173.766 5.00131 173.789 5.00324C173.813 5.00518 173.836 5.00223 173.858 4.99459C174.035 4.90443 174.232 4.86272 174.429 4.87372C174.627 4.88471 174.818 4.94802 174.983 5.05718C175.377 5.38887 175.533 6.03348 175.446 6.98474C175.446 7.09739 175.446 7.14745 175.577 7.14745H175.615C175.638 7.15325 175.663 7.15356 175.686 7.14834C175.71 7.14313 175.732 7.13252 175.75 7.11737C175.769 7.10221 175.784 7.08293 175.794 7.061C175.804 7.03908 175.809 7.01511 175.808 6.99099V7.01603ZM182.896 13.9002C183.009 13.9002 183.065 13.8563 183.065 13.7687C183.068 12.844 183.012 11.92 182.896 11.0026C182.796 10.1654 182.625 9.33838 182.384 8.53054C182.19 7.82956 181.858 7.17428 181.409 6.60298C181.052 6.13319 180.532 5.81399 179.952 5.70805C179.93 5.70026 179.907 5.69765 179.884 5.70041C179.861 5.70317 179.839 5.71122 179.82 5.72396C179.8 5.73669 179.784 5.75374 179.773 5.77378C179.761 5.79383 179.754 5.81631 179.752 5.83947C179.743 5.86127 179.739 5.88504 179.741 5.90864C179.743 5.93224 179.751 5.95497 179.764 5.97478C179.777 5.99459 179.795 6.01089 179.816 6.02222C179.837 6.03355 179.86 6.03956 179.884 6.03974C180.765 6.17116 181.471 6.92842 181.99 8.3115C182.562 10.0714 182.814 11.9198 182.734 13.7687C182.734 13.8125 182.79 13.8563 182.896 13.8563V13.9002Z" fill="#EC3205"/>
<path d="M195.653 15.6838C195.621 16.8013 195.661 17.9196 195.772 19.032C195.842 19.706 195.974 20.3722 196.166 21.0221C196.283 21.3466 196.377 21.6792 196.447 22.0172C196.515 22.3855 196.476 22.7655 196.335 23.1126C196.195 23.4596 195.958 23.7592 195.653 23.976C195.34 24.2741 194.925 24.4404 194.494 24.4404C194.062 24.4404 193.647 24.2741 193.334 23.976C191.763 22.6743 191.157 19.203 191.515 13.5622C191.559 12.9364 191.609 12.3106 191.678 11.6347C191.678 11.2404 191.734 10.9087 191.778 10.6396C191.832 10.3339 191.916 10.0342 192.028 9.74469C192.123 9.45622 192.269 9.18707 192.459 8.94987C192.64 8.73515 192.872 8.56945 193.134 8.46799C193.463 8.34204 193.817 8.30114 194.165 8.34908C194.664 8.40477 195.13 8.62493 195.491 8.97491C195.812 9.344 195.997 9.8123 196.016 10.3017C196.066 10.8366 196.066 11.3751 196.016 11.9101C195.972 12.4295 195.903 13.0741 195.803 13.8376C195.715 14.4493 195.665 15.0659 195.653 15.6838ZM195.591 2.57894C195.905 2.6878 196.193 2.86004 196.438 3.08502C196.684 3.30999 196.88 3.58291 197.016 3.88692C197.294 4.47268 197.352 5.13942 197.178 5.7644C197.088 6.16521 196.898 6.53665 196.626 6.84414C196.354 7.15162 196.008 7.38516 195.622 7.52298C195.27 7.66914 194.887 7.72174 194.509 7.67568C194.131 7.62962 193.772 7.48648 193.466 7.26015C193.212 7.08422 192.995 6.8599 192.828 6.60003C192.66 6.34017 192.546 6.04983 192.49 5.74563C192.363 5.15663 192.42 4.54264 192.653 3.98705C192.889 3.45072 193.298 3.00972 193.816 2.73539C194.084 2.58568 194.381 2.49436 194.686 2.4674C194.992 2.44044 195.3 2.47844 195.591 2.57894ZM195.291 12.6298C195.536 11.061 195.393 9.97832 194.859 9.3817C194.721 9.22963 194.552 9.10943 194.363 9.02946C194.174 8.94948 193.97 8.91165 193.766 8.91859C193.653 8.91859 193.603 8.96864 193.603 9.08129C193.603 9.19394 193.653 9.26905 193.766 9.25028C193.927 9.24486 194.088 9.2745 194.237 9.33716C194.385 9.39982 194.519 9.494 194.628 9.61325C195.091 10.1181 195.201 11.1132 194.959 12.5985C194.959 12.6861 194.959 12.7424 195.091 12.7612C195.112 12.7667 195.135 12.7676 195.157 12.7638C195.179 12.7601 195.201 12.7518 195.219 12.7394C195.238 12.7271 195.254 12.7109 195.266 12.6921C195.279 12.6732 195.287 12.652 195.291 12.6298ZM196.616 5.53285C196.758 5.21559 196.793 4.86049 196.715 4.52159C196.637 4.18268 196.451 3.87852 196.184 3.65536C196.009 3.41934 195.767 3.24211 195.489 3.14712C195.211 3.05214 194.911 3.04386 194.628 3.1234C194.605 3.12832 194.584 3.13851 194.566 3.15316C194.547 3.16781 194.533 3.18653 194.523 3.2078C194.513 3.22908 194.509 3.25232 194.51 3.2757C194.511 3.29907 194.517 3.32194 194.528 3.34245C194.572 3.44258 194.641 3.46762 194.728 3.42381C194.959 3.36334 195.202 3.37533 195.426 3.45817C195.649 3.54101 195.842 3.69069 195.978 3.88692C196.188 4.06642 196.336 4.30758 196.401 4.5761C196.466 4.84461 196.445 5.12684 196.341 5.38266C196.328 5.40386 196.321 5.42768 196.319 5.4522C196.318 5.47672 196.322 5.50125 196.332 5.5238C196.342 5.54635 196.357 5.56626 196.375 5.58197C196.394 5.59768 196.417 5.60873 196.441 5.61421H196.509C196.532 5.61083 196.554 5.60158 196.573 5.58734C196.592 5.5731 196.606 5.55435 196.616 5.53285Z" fill="#EC3205"/>
<path d="M211.16 9.84458C211.395 12.3367 211.168 14.851 210.491 17.2607C210.02 19.2026 209.003 20.9686 207.56 22.3487C207.018 22.8825 206.341 23.2576 205.602 23.433C204.862 23.6085 204.089 23.5776 203.366 23.3437C203.185 23.6829 202.909 23.9615 202.572 24.1448C202.283 24.2875 201.969 24.3705 201.647 24.3889C201.39 24.4069 201.132 24.3617 200.897 24.2574C200.67 24.1448 200.468 23.9873 200.303 23.7943C200.12 23.5904 199.959 23.3681 199.822 23.1309C199.679 22.8766 199.558 22.6108 199.459 22.3361C199.347 22.0357 199.259 21.7604 199.191 21.5038C199.122 21.2472 199.059 20.9781 198.997 20.6902C198.258 16.4986 198.035 12.2318 198.334 7.98586C198.334 7.93011 198.345 7.87487 198.366 7.82316C198.366 7.35379 198.409 6.99081 198.428 6.72796C198.468 6.37589 198.531 6.02678 198.616 5.68281C198.682 5.33288 198.816 4.99919 199.009 4.70026C199.208 4.45661 199.457 4.25999 199.741 4.12451C200.095 3.94953 200.493 3.88416 200.884 3.93675C201.236 4.00904 201.575 4.13351 201.891 4.306C202.024 4.37791 202.135 4.48644 202.209 4.61892C202.297 4.76286 202.366 4.88801 202.422 5.00066C202.492 5.16385 202.536 5.33699 202.553 5.51385C202.591 5.7454 202.609 5.94567 202.622 6.13968C202.635 6.38149 202.635 6.62382 202.622 6.86564C202.622 7.19107 202.622 7.46017 202.622 7.67921C202.622 7.89825 202.622 8.22994 202.622 8.6555C202.622 9.08107 202.578 9.45031 202.553 9.7382C203.015 8.21536 203.782 6.80326 204.81 5.58894C205.354 4.94966 206.095 4.50941 206.916 4.33729C207.322 4.26405 207.739 4.2763 208.141 4.37327C208.542 4.47024 208.919 4.6498 209.247 4.90053C210.326 5.78503 210.964 7.43305 211.16 9.84458ZM201.741 5.50132C201.76 5.48957 201.777 5.47363 201.79 5.4546C201.803 5.43558 201.812 5.41394 201.815 5.39123C201.819 5.36853 201.817 5.34532 201.811 5.32324C201.804 5.30117 201.793 5.28078 201.778 5.26352C201.638 5.06745 201.446 4.91443 201.224 4.82167C201.002 4.72891 200.758 4.7001 200.52 4.73847C200.282 4.77684 200.06 4.88087 199.878 5.03886C199.696 5.19685 199.562 5.40253 199.491 5.63276C199.447 5.73915 199.491 5.80799 199.553 5.83303C199.572 5.85108 199.596 5.86212 199.622 5.86431C199.661 5.86785 199.699 5.85611 199.73 5.83158C199.76 5.80704 199.78 5.77165 199.784 5.73289C199.836 5.54922 199.945 5.38647 200.094 5.26749C200.243 5.14851 200.425 5.07928 200.616 5.06951C200.787 5.04213 200.962 5.06476 201.121 5.1347C201.279 5.20464 201.414 5.31889 201.509 5.46377C201.52 5.48339 201.536 5.50028 201.554 5.51316C201.573 5.52604 201.594 5.53459 201.616 5.5382C201.638 5.5418 201.661 5.54036 201.683 5.53398C201.704 5.52759 201.724 5.51643 201.741 5.50132ZM203.797 20.9906C204.572 20.5734 205.318 19.3572 206.035 17.342C206.762 15.2544 207.092 13.049 207.01 10.8397C207.01 10.3765 206.897 9.34391 206.747 7.75431C206.734 7.56098 206.664 7.37585 206.546 7.22218C206.428 7.06851 206.268 6.95316 206.085 6.89066C205.908 6.81103 205.712 6.78754 205.522 6.82336C205.332 6.85917 205.157 6.95257 205.022 7.09093C203.897 8.15484 203.064 10.1346 202.522 13.0301C202.571 15.1409 202.758 17.2462 203.084 19.3322C203.084 19.4886 203.141 19.6638 203.185 19.8641C203.228 20.0644 203.278 20.2834 203.335 20.5275C203.391 20.7716 203.441 20.9593 203.485 21.0907C203.584 21.0687 203.68 21.0351 203.772 20.9906H203.797ZM210.091 14.3568C210.395 12.2512 210.355 10.1099 209.972 8.01717C209.61 6.45259 208.941 5.51384 207.972 5.23222C207.86 5.18841 207.791 5.23222 207.754 5.31358C207.745 5.33568 207.741 5.35943 207.742 5.38314C207.744 5.40684 207.751 5.42995 207.762 5.45082C207.773 5.4717 207.789 5.48982 207.808 5.50395C207.827 5.51809 207.849 5.52788 207.872 5.53262C208.751 5.79547 209.358 6.69667 209.691 8.23621C210.033 10.2498 210.057 12.3047 209.76 14.3255C209.758 14.3494 209.761 14.3733 209.769 14.396C209.776 14.4187 209.788 14.4396 209.804 14.4576C209.82 14.4757 209.839 14.4904 209.86 14.501C209.881 14.5117 209.905 14.5179 209.929 14.5195C209.949 14.5188 209.968 14.5139 209.986 14.5052C210.004 14.4964 210.02 14.484 210.033 14.4687C210.046 14.4533 210.056 14.4355 210.062 14.4162C210.067 14.3969 210.069 14.3767 210.066 14.3568H210.091Z" fill="#EC3205"/>
<path d="M222.192 19.6641C222.192 19.7517 222.192 20.0208 222.192 20.4776C222.192 20.9345 222.192 21.2537 222.192 21.4414C222.192 21.6292 222.154 21.9233 222.123 22.3364C222.112 22.6506 222.045 22.9603 221.923 23.2501C221.804 23.4783 221.672 23.6997 221.529 23.9134C221.377 24.1433 221.159 24.3221 220.904 24.4266C220.597 24.5341 220.273 24.585 219.948 24.5768C219.652 24.5598 219.361 24.4964 219.085 24.3891C218.851 24.3023 218.653 24.1391 218.523 23.926C218.399 23.7399 218.288 23.5454 218.191 23.3439C218.086 23.1044 218.025 22.8479 218.01 22.5867C217.973 22.255 217.954 22.0047 217.941 21.8357C217.929 21.6667 217.941 21.3913 217.941 20.9908C217.941 20.5903 217.941 20.365 217.941 20.2586C217.941 18.4228 217.908 16.7769 217.841 15.3208C217.763 15.3022 217.686 15.2792 217.61 15.252C216.234 15.0941 214.845 15.0836 213.466 15.2207C213.266 16.8562 213.089 18.669 212.935 20.6591C212.935 21.1035 212.879 21.6354 212.835 22.255C212.789 23.1812 212.645 23.6443 212.404 23.6443C212.338 23.6449 212.274 23.6228 212.222 23.5818C212.168 23.5383 212.129 23.4793 212.11 23.4128C212.084 23.3485 212.068 23.2812 212.06 23.2125C212.053 23.1355 212.053 23.058 212.06 22.981C212.053 22.9039 212.053 22.8264 212.06 22.7494C212.06 22.6806 212.06 22.6117 212.06 22.5366C212.065 22.4741 212.065 22.4114 212.06 22.3489C212.235 19.5452 212.433 17.1691 212.654 15.2207C212.422 15.1425 212.232 14.976 212.122 14.7576C211.904 14.2256 212.154 13.7562 212.885 13.362C213.164 11.3104 213.631 9.28886 214.279 7.3227C214.373 7.00689 214.488 6.69752 214.623 6.39648C214.762 6.09997 214.919 5.81162 215.091 5.53284C215.253 5.25215 215.453 4.99522 215.685 4.76932C215.913 4.5605 216.178 4.39696 216.466 4.28744C216.794 4.16626 217.143 4.11509 217.491 4.13723C218.027 4.1555 218.545 4.33426 218.979 4.65041C219.456 5.01652 219.843 5.48759 220.11 6.02725C220.422 6.63621 220.697 7.26314 220.935 7.90473C221.205 8.67361 221.393 9.46854 221.498 10.2766C221.635 11.1903 221.748 12.0227 221.848 12.7799C221.958 13.6334 222.024 14.4919 222.048 15.3521C222.048 16.3221 222.104 17.0919 222.11 17.6551C222.117 18.2184 222.192 18.888 222.192 19.6641ZM213.779 13.0303C215.039 12.6797 216.349 12.5443 217.654 12.6297C217.61 12.1917 217.56 11.7849 217.504 11.4219C217.448 11.0589 217.385 10.7147 217.323 10.3893C217.26 10.0638 217.198 9.80724 217.154 9.59446C217.11 9.38168 217.054 9.15639 216.973 8.8998C216.891 8.64321 216.841 8.47423 216.81 8.38662C216.779 8.299 216.716 8.13003 216.629 7.88596C216.584 7.75008 216.527 7.6182 216.46 7.49168C216.404 7.31575 216.326 7.14754 216.229 6.99101C216.174 6.89464 216.094 6.81472 215.998 6.75946C215.926 6.74349 215.851 6.74349 215.779 6.75946C215.705 6.7695 215.636 6.80487 215.585 6.85959C215.531 6.91275 215.481 6.96918 215.435 7.02856C215.396 7.07456 215.362 7.12498 215.335 7.17877C214.735 8.29275 214.216 10.2433 213.779 13.0303ZM220.998 14.3257C221.085 14.3257 221.129 14.2694 221.129 14.1568C220.866 9.02496 219.808 5.96258 217.954 4.96959C217.936 4.95769 217.915 4.94984 217.894 4.94656C217.873 4.94328 217.851 4.94465 217.83 4.95059C217.809 4.95653 217.79 4.9669 217.774 4.98098C217.757 4.99505 217.744 5.01251 217.735 5.03216C217.679 5.11978 217.735 5.20115 217.816 5.26373C219.541 6.1983 220.535 9.16264 220.798 14.1568C220.823 14.2694 220.879 14.3257 220.966 14.3257H220.998Z" fill="#EC3205"/>
<path d="M228.092 8.25545C227.954 9.40072 227.873 10.5648 227.842 11.7351C227.811 12.9054 227.811 13.9067 227.842 14.7203C227.873 15.5338 227.904 16.3412 227.942 17.1297C227.979 17.9182 227.986 18.5503 227.942 19.051C227.937 19.5107 227.87 19.9675 227.742 20.409C227.646 20.777 227.425 21.1 227.117 21.3228C226.773 21.5468 226.381 21.6842 225.973 21.7233C225.605 21.733 225.241 21.6535 224.911 21.4917C224.652 21.3595 224.425 21.1714 224.248 20.941C224.071 20.6754 223.948 20.3778 223.885 20.0648C223.81 19.7577 223.754 19.4463 223.717 19.1324C223.717 18.8883 223.673 18.5503 223.654 18.106C223.454 13.0618 223.531 9.51544 223.885 7.4669C224.419 4.25848 225.556 3.00682 227.298 3.71192C227.627 3.8468 227.917 4.06194 228.142 4.33775C228.331 4.59802 228.436 4.91056 228.442 5.23268C228.454 5.54386 228.444 5.85555 228.411 6.16518C228.373 6.44054 228.317 6.79099 228.223 7.22281C228.129 7.65464 228.136 8.03015 228.092 8.25545ZM226.667 22.0237C227.548 22.0237 228.023 22.3804 228.092 23.0876C228.13 23.4258 228.076 23.7681 227.935 24.0779C227.794 24.3876 227.572 24.6532 227.292 24.8462C226.977 25.0843 226.592 25.2119 226.198 25.2092C226.048 25.229 225.897 25.2163 225.752 25.172C225.608 25.1277 225.475 25.0528 225.362 24.9524C225.25 24.8521 225.16 24.7286 225.099 24.5904C225.039 24.4522 225.008 24.3025 225.01 24.1515C224.953 23.8142 224.99 23.4675 225.118 23.1502C225.246 22.8329 225.46 22.5576 225.735 22.3554C225.999 22.1417 226.327 22.0227 226.667 22.0174V22.0237Z" fill="#EC3205"/>
<path d="M251.255 3.02319C248.13 2.57259 245.524 7.24129 245.524 7.24129C245.524 7.24129 242.942 2.57259 239.799 3.02319C236.655 3.47379 233.842 6.00215 234.067 9.60693C234.292 13.2117 236.874 14.5572 238.674 16.3033C240.594 18.1721 242.326 20.2265 243.843 22.4364L245.505 25.3027C245.505 25.3027 246.424 23.7882 247.211 22.4364C248.728 20.2265 250.46 18.1721 252.38 16.3033C254.18 14.5572 256.755 13.2054 256.987 9.60693C257.218 6.00841 254.405 3.46753 251.255 3.02319ZM240.33 4.45635C237.711 4.83184 235.167 6.88456 235.373 10.0888C235.373 10.1143 235.364 10.1389 235.346 10.1575C235.329 10.1761 235.305 10.1874 235.28 10.1889C235.256 10.189 235.233 10.18 235.216 10.1637C235.198 10.1474 235.187 10.1251 235.186 10.1013C234.98 6.77817 237.605 4.65036 240.311 4.26861C240.336 4.26664 240.36 4.27385 240.38 4.28887C240.399 4.30389 240.413 4.32564 240.417 4.34995C240.419 4.37553 240.411 4.40082 240.395 4.42061C240.379 4.44041 240.355 4.4532 240.33 4.45635ZM250.78 16.9729C249.276 18.379 247.911 19.9279 246.705 21.5978C246.698 21.6125 246.686 21.6246 246.671 21.6324C246.657 21.6402 246.64 21.6434 246.624 21.6416H246.574C246.553 21.6276 246.539 21.6063 246.533 21.582C246.527 21.5577 246.53 21.5321 246.543 21.5102C247.757 19.8241 249.132 18.2605 250.649 16.8415C250.668 16.8252 250.693 16.8162 250.718 16.8162C250.743 16.8162 250.767 16.8252 250.787 16.8415C250.803 16.8609 250.812 16.886 250.811 16.9116C250.81 16.9372 250.799 16.9614 250.78 16.9792V16.9729Z" fill="#EC3205"/>
</svg>
