<svg width="61" height="19" viewBox="0 0 61 19" fill="none" xmlns="http://www.w3.org/2000/svg">
<path d="M54.1743 8.15823C57.322 8.15823 59.3653 5.84306 60.028 5.2367C59.1812 9.73843 54.9584 18.7419 44.8415 18.7419C34.7245 18.7419 30.8331 13.1744 30.152 10.4734C29.2685 13.0642 25.7231 18.7419 15.2969 18.7419C4.87071 18.7419 0.754721 9.62818 0 5.07133C0.460196 6.1003 2.27521 8.15823 5.85369 8.15823C10.3268 8.15823 14.7999 0 21.3163 0C25.3807 0 28.9003 3.16039 30.152 4.74059C31.1092 3.16039 34.1833 0 38.8221 0C44.6206 0 49.2594 8.15823 54.1743 8.15823Z" fill="#313638"/>
<path d="M36.0518 1.43143C36.4427 1.08436 37.7631 0.49434 39.9175 0.910826C42.0719 1.32731 43.8267 2.70403 44.4348 3.34032" stroke="white" stroke-width="0.414986" stroke-linecap="round"/>
<path d="M2.43262 9.71777C3.20119 11.5559 5.93006 15.6381 10.6969 17.2618" stroke="white" stroke-width="0.414986" stroke-linecap="round"/>
</svg>
