<svg width="104" height="23" viewBox="0 0 104 23" fill="none" xmlns="http://www.w3.org/2000/svg">
<path d="M49.669 14.6577C50.4391 15.6314 51.0945 16.6904 51.6222 17.814C51.8271 18.2281 51.9532 18.6765 51.9943 19.1366C52.0431 19.5907 51.9716 20.0497 51.7871 20.4676C51.709 20.6613 51.5858 20.8337 51.4277 20.9704C51.2696 21.1071 51.0812 21.2041 50.8781 21.2535C50.5794 21.326 50.2666 21.3157 49.9734 21.2239C49.7251 21.1456 49.4921 21.0255 49.2842 20.869C49.0563 20.6623 48.8698 20.4143 48.7346 20.138C48.5528 19.7999 48.4133 19.5211 48.3118 19.2929C48.2104 19.0647 48.092 18.7521 47.9271 18.3295C47.8721 18.1478 47.8256 18.0084 47.7918 17.907C47.4831 17.1738 47.0856 16.4813 46.608 15.845C46.3726 15.6018 46.0828 15.4179 45.7625 15.3084C45.4597 15.2071 45.1926 15.0208 44.993 14.7718C45.0818 15.6718 45.2044 16.5591 45.3481 17.438C45.4046 17.8055 45.488 18.1685 45.5976 18.5239C45.72 18.9399 45.8161 19.3633 45.8851 19.7915C45.9273 20.139 45.8897 20.4916 45.7751 20.8225C45.6535 21.1889 45.3922 21.4925 45.048 21.6676C44.8156 21.786 44.5633 21.8605 44.3039 21.8873C44.0878 21.9074 43.8704 21.8695 43.6739 21.7774C43.4921 21.6881 43.3253 21.5713 43.1793 21.4309C43.009 21.2789 42.866 21.0988 42.7565 20.8985C42.6381 20.6788 42.5324 20.4633 42.4394 20.2521C42.3431 20.0206 42.2653 19.7818 42.2069 19.538C42.1435 19.2718 42.0885 19.0478 42.042 18.8619C41.9898 18.6544 41.9489 18.4442 41.9194 18.2323C41.2384 14.1287 41.0355 9.96009 41.3148 5.8098C41.3174 5.69817 41.3259 5.58673 41.3402 5.47598C41.3402 5.05345 41.3782 4.73656 41.3951 4.51684C41.4255 4.21514 41.4763 3.91586 41.5473 3.62107C41.6033 3.32121 41.7152 3.03455 41.8771 2.776C42.0356 2.56472 42.2431 2.39506 42.4817 2.28161C42.7853 2.13548 43.1224 2.07277 43.4583 2.09992C43.7111 2.14218 43.9562 2.22193 44.1855 2.33654C44.3732 2.44143 44.5216 2.60461 44.6083 2.80135C44.7067 3.01189 44.7804 3.23307 44.8281 3.4605C44.9078 3.78598 44.9545 4.11863 44.9676 4.45345C44.9676 4.87599 44.938 5.26473 44.9127 5.64924C44.8873 6.03374 44.8493 6.55767 44.8154 7.21683C44.7816 7.87598 44.7605 8.48445 44.7605 9.08445C44.8873 8.4084 45.0437 7.75769 45.2255 7.13234C45.4073 6.50699 45.6483 5.90276 45.8724 5.30698C46.0877 4.77502 46.3598 4.26784 46.6841 3.7943C46.9648 3.39392 47.304 3.03785 47.6903 2.73796C48.0267 2.45705 48.4449 2.29251 48.8826 2.26895C49.3595 2.26119 49.8316 2.36538 50.2608 2.57316C50.6879 2.81883 51.062 3.14658 51.3617 3.53746C51.6614 3.92834 51.8807 4.37464 52.0069 4.85064C52.3846 5.99222 52.5382 7.19594 52.4593 8.39572C52.3879 9.65465 52.102 10.8921 51.6137 12.0549C51.2269 13.09 50.5522 13.9931 49.669 14.6577ZM44.3631 4.73231C44.4532 3.85344 44.2968 3.24077 43.8938 2.89429C43.7232 2.77456 43.5244 2.70111 43.3169 2.68112C43.1095 2.66112 42.9003 2.69525 42.71 2.7802C42.6212 2.81823 42.5874 2.87738 42.617 2.96189C42.6218 2.98019 42.6303 2.99735 42.642 3.01226C42.6537 3.02717 42.6682 3.03953 42.6849 3.04862C42.7015 3.05771 42.7198 3.06333 42.7386 3.06512C42.7575 3.06692 42.7765 3.06488 42.7945 3.05909C42.9355 2.98061 43.096 2.94408 43.2571 2.95382C43.4181 2.96355 43.573 3.01914 43.7035 3.11402C44.0502 3.38867 44.1855 3.91682 44.1263 4.70696C44.1263 4.79992 44.1263 4.84218 44.2362 4.84218C44.3461 4.84218 44.3631 4.80837 44.3631 4.73231ZM46.5066 5.61543C45.9025 6.82168 45.4903 8.11467 45.2847 9.44783C45.0378 10.6929 44.8963 11.9565 44.8619 13.2253C44.919 13.1481 44.9936 13.0857 45.0796 13.043C45.1657 13.0004 45.2606 12.9789 45.3566 12.9802C45.5954 12.985 45.8321 13.0263 46.0584 13.1027C46.249 13.1711 46.4482 13.2123 46.6503 13.2253C46.997 13.2253 47.3606 12.9337 47.7368 12.3464C48.1486 11.6803 48.4632 10.959 48.6712 10.2042C48.9183 9.36847 49.0937 8.51327 49.1954 7.64782C49.303 6.88629 49.26 6.11105 49.0686 5.36612C48.8854 4.70696 48.5556 4.32246 48.0793 4.2126C47.5889 4.10274 47.0562 4.56754 46.5066 5.61543ZM49.986 3.66331C49.9747 3.67802 49.9667 3.69505 49.9626 3.71319C49.9586 3.73133 49.9586 3.75013 49.9626 3.76828C49.9667 3.78642 49.9746 3.80346 49.986 3.81818C49.9973 3.8329 50.0118 3.84494 50.0283 3.85346C50.6805 4.35948 51.1304 5.08179 51.2967 5.89008C51.5552 6.89457 51.607 7.94105 51.4489 8.96613C51.3268 9.97249 50.9832 10.9393 50.4426 11.7971C50.4292 11.8107 50.4191 11.8272 50.4132 11.8454C50.4073 11.8636 50.4057 11.8828 50.4086 11.9017C50.4115 11.9206 50.4187 11.9386 50.4298 11.9542C50.4408 11.9697 50.4554 11.9825 50.4722 11.9915H50.5526C50.5742 11.9938 50.5961 11.9898 50.6156 11.9801C50.635 11.9703 50.6513 11.9552 50.6625 11.9366C51.2365 11.0441 51.5995 10.0325 51.7237 8.97882C51.881 7.90572 51.8192 6.81186 51.5419 5.7633C51.3582 4.91467 50.8693 4.16292 50.1678 3.65062C50.1574 3.63545 50.1432 3.62327 50.1266 3.61527C50.1101 3.60726 50.0917 3.60372 50.0733 3.605C50.0549 3.60628 50.0372 3.61234 50.0219 3.62256C50.0066 3.63279 49.9942 3.64684 49.986 3.66331Z" fill="#EC3205"/>
<path d="M60.7796 16.0565C60.9825 16.0565 61.0713 16.2677 61.0544 16.6353C60.9985 17.3868 60.8362 18.1266 60.5724 18.8325C60.3733 19.3951 60.066 19.9133 59.6677 20.3579C59.3315 20.7135 58.9295 21.0005 58.4839 21.2029C58.0654 21.3923 57.6057 21.4723 57.1479 21.4353C56.6752 21.3895 56.2173 21.2456 55.8034 21.0128C54.6804 20.3492 53.8533 19.2822 53.4908 18.0297C52.9951 16.6036 52.7714 15.0973 52.8313 13.5888C52.8727 12.1324 53.1233 10.6895 53.5754 9.30432C53.8563 8.25951 54.3841 7.29737 55.1143 6.4987C55.5919 5.93868 56.2674 5.58448 56.9999 5.50995C57.6301 5.49773 58.2438 5.71216 58.7291 6.11418C59.2934 6.56867 59.7098 7.18048 59.9256 7.87194C60.3083 9.11014 60.3795 10.4236 60.1327 11.6959C59.9152 12.8699 59.4512 13.9845 58.7714 14.9663C58.285 15.7584 57.5374 16.3561 56.6575 16.6564C56.7298 17.2848 56.9161 17.8948 57.2071 18.4565C57.3803 18.8286 57.6909 19.1193 58.0738 19.2677C58.3867 19.3597 58.7215 19.3449 59.025 19.2255C59.3668 19.0779 59.6547 18.8285 59.8495 18.5114C60.0973 18.126 60.2654 17.695 60.3441 17.2438C60.3441 17.21 60.3441 17.1086 60.3441 16.9438C60.3509 16.8023 60.365 16.6613 60.3864 16.5212C60.4065 16.4047 60.4481 16.293 60.509 16.1917C60.5374 16.1466 60.5777 16.1101 60.6254 16.0863C60.6731 16.0624 60.7264 16.0521 60.7796 16.0565ZM55.2834 7.86771C55.3794 7.53746 55.559 7.23754 55.8049 6.99698C56.0508 6.75641 56.3546 6.58333 56.6871 6.49447C56.9555 6.39002 57.2466 6.35767 57.5315 6.40067C57.8163 6.44367 58.0849 6.56049 58.3105 6.73952C58.322 6.75365 58.3365 6.76504 58.353 6.77287C58.3694 6.78069 58.3874 6.78476 58.4057 6.78476C58.4239 6.78476 58.4419 6.78069 58.4583 6.77287C58.4748 6.76504 58.4893 6.75365 58.5008 6.73952C58.5543 6.67473 58.5459 6.61558 58.4754 6.56206C58.219 6.34888 57.9113 6.20633 57.5828 6.14853C57.2543 6.09072 56.9164 6.11968 56.6025 6.2325C56.2285 6.33516 55.8876 6.53326 55.6134 6.80735C55.3391 7.08144 55.1409 7.42208 55.0382 7.79586C55.0171 7.88882 55.0382 7.94375 55.1185 7.96066H55.1735C55.1995 7.96084 55.2246 7.95147 55.2441 7.93432C55.2636 7.91718 55.2761 7.89348 55.2792 7.86771H55.2834ZM56.3826 4.2677C56.2903 4.26332 56.2012 4.23226 56.1261 4.17826C56.0511 4.12426 55.9933 4.04965 55.9599 3.96348C55.8871 3.85952 55.8487 3.73541 55.8499 3.60854V3.4691C55.8573 3.36584 55.8956 3.2672 55.9599 3.18601L58.0738 0.329663C58.1298 0.231687 58.2103 0.14986 58.3073 0.0921153C58.4044 0.0343702 58.5147 0.00267945 58.6276 9.8277e-05C58.7583 -0.00210739 58.8869 0.032854 58.9984 0.100935C59.11 0.169017 59.1999 0.267399 59.2576 0.384594C59.3644 0.557319 59.4215 0.756169 59.4224 0.959237C59.4224 0.997265 59.4224 1.08178 59.4224 1.20854C59.3907 1.38242 59.3101 1.54364 59.1899 1.67332L56.7124 4.11982C56.6709 4.16621 56.6201 4.20333 56.5633 4.22881C56.5065 4.25429 56.4449 4.26754 56.3826 4.2677ZM56.9069 10.2043C56.4741 11.7783 56.3069 13.4134 56.4122 15.0424C56.4841 15.0424 56.6109 14.9959 56.797 14.9578C56.9598 14.9261 57.1207 14.8852 57.2789 14.8353C57.3979 14.7962 57.5126 14.7452 57.6214 14.6832C58.467 14.1719 59.0462 13.2381 59.4224 11.8945C59.8064 10.7757 59.8064 9.56106 59.4224 8.44235C59.3283 8.22116 59.1983 8.01701 59.0377 7.83813C58.8806 7.66274 58.6812 7.53037 58.4585 7.45361C58.343 7.42053 58.2201 7.42388 58.1066 7.4632C57.9931 7.50253 57.8945 7.57592 57.8243 7.67333C57.5368 7.94939 57.2296 8.79305 56.9027 10.2043H56.9069Z" fill="#EC3205"/>
<path d="M74.6928 10.3138C75.3595 10.5547 75.9135 11.0332 76.2487 11.6575C76.6613 12.3958 76.9229 13.2087 77.0181 14.049C77.134 14.9245 77.1891 15.8068 77.183 16.6899C77.1749 17.5257 77.1241 18.3606 77.0308 19.1913C76.9758 19.5589 76.9251 19.8547 76.8786 20.0828C76.8215 20.3697 76.7438 20.6522 76.6461 20.9279C76.5642 21.1996 76.4291 21.4524 76.2487 21.6716C76.0714 21.8579 75.8548 22.0023 75.6145 22.0941C75.3112 22.2057 74.9816 22.2248 74.6675 22.149C74.3113 22.0643 73.9897 21.8726 73.7458 21.5997C73.5033 21.3334 73.3549 20.995 73.323 20.6363C73.2944 20.2351 73.3272 19.8319 73.4203 19.4406C73.4878 19.1365 73.5386 18.829 73.5725 18.5194C73.727 17.1321 73.768 15.7346 73.6951 14.3406C73.6105 13.318 73.471 12.6842 73.2723 12.4476C73.2108 12.3873 73.141 12.3361 73.0651 12.2955C72.9714 12.2436 72.8701 12.2065 72.7649 12.1856C72.6427 12.156 72.5152 12.156 72.3929 12.1856C72.2392 12.2264 72.1009 12.3117 71.9955 12.4307C71.84 12.5924 71.7051 12.7726 71.5938 12.9673C71.6226 14.4924 71.5407 16.0175 71.3486 17.5307C71.3426 17.6044 71.3327 17.6777 71.319 17.7504C71.281 18.173 71.2472 18.4688 71.2091 18.6969C71.1525 19.0047 71.0748 19.3082 70.9766 19.6054C70.8897 19.9063 70.7556 20.1915 70.5792 20.4504C70.3996 20.6636 70.1702 20.829 69.9112 20.9321C69.5918 21.0606 69.2407 21.0886 68.905 21.0124C68.5407 20.9352 68.2071 20.753 67.9452 20.4885C67.7273 20.255 67.587 19.9598 67.5436 19.6434C67.4994 19.1853 67.4994 18.724 67.5436 18.2659C67.5817 17.6913 67.6408 17.0955 67.7212 16.4828C67.8015 15.8701 67.8691 15.0716 67.9157 14.0913C67.9622 13.111 67.9664 12.1434 67.9157 11.1884V10.5039C67.9157 10.1194 67.9157 9.81099 67.8903 9.58282C67.8649 9.35465 67.8396 9.08421 67.793 8.77153C67.7686 8.52084 67.683 8.28 67.5436 8.07013C67.4928 7.99758 67.425 7.93851 67.3462 7.89801C67.2674 7.85752 67.1799 7.83683 67.0912 7.83774C66.6121 7.83774 66.2358 8.32788 65.9624 9.30816C65.6514 10.519 65.4589 11.7573 65.3874 13.0053C65.4474 14.6622 65.6026 16.3142 65.8525 17.9533C65.907 18.2993 65.9804 18.642 66.0723 18.98C66.1767 19.3653 66.26 19.7561 66.3218 20.1504C66.3513 20.4725 66.3034 20.797 66.1822 21.0969C66.0569 21.4572 65.8023 21.7583 65.4678 21.942C65.2557 22.0445 65.0289 22.1129 64.7955 22.1448C64.6066 22.1774 64.4123 22.1584 64.2332 22.0899C64.0658 22.0258 63.9079 21.9391 63.7639 21.8321C63.609 21.7142 63.4747 21.5715 63.3665 21.4096C63.2466 21.2395 63.1406 21.06 63.0494 20.873C62.9525 20.6775 62.8691 20.4757 62.8 20.2687C62.7281 20.049 62.6689 19.8462 62.6224 19.6645C62.5759 19.4828 62.5337 19.2885 62.4998 19.0856C61.8896 15.6125 61.705 12.078 61.9502 8.56026C61.9671 8.21378 61.9798 7.98985 61.9883 7.88845C61.9883 7.78704 62.0221 7.57577 62.0601 7.25464C62.0767 7.02038 62.1222 6.78905 62.1954 6.56591C62.2504 6.4307 62.3307 6.24901 62.428 6.01662C62.5029 5.82354 62.6321 5.65625 62.8 5.53492C62.9698 5.4344 63.1498 5.35224 63.3369 5.28984C63.5729 5.21413 63.8214 5.18544 64.0683 5.20535C64.4769 5.25306 64.8556 5.44303 65.138 5.74196C65.3807 6.07849 65.5068 6.48498 65.4973 6.8997C65.4973 7.40252 65.4973 8.04901 65.4678 8.83492C65.5436 8.57323 65.6354 8.31641 65.7426 8.0659C66.2386 6.93914 66.9263 6.26168 67.8057 6.03351C68.8486 5.77435 69.7195 6.26872 70.4185 7.51661C71.0616 8.77983 71.4277 10.1656 71.4924 11.5814C72.2872 10.2631 73.354 9.84056 74.6928 10.3138ZM64.9689 7.70253C65.0407 6.82365 64.8759 6.20676 64.4742 5.86028C64.3032 5.74123 64.1043 5.66852 63.8968 5.64927C63.6893 5.63001 63.4804 5.66486 63.2904 5.75042C63.2016 5.78844 63.1678 5.84759 63.1974 5.92787C63.2017 5.94652 63.2098 5.96404 63.2214 5.9793C63.2329 5.99455 63.2476 6.0072 63.2643 6.01638C63.2811 6.02557 63.2997 6.03108 63.3187 6.03258C63.3378 6.03408 63.357 6.0315 63.375 6.02505C63.5214 5.94999 63.6853 5.91551 63.8497 5.92517C64.014 5.93483 64.1727 5.98828 64.3093 6.07998C64.6391 6.35463 64.7659 6.88703 64.6941 7.67295C64.6941 7.76591 64.6941 7.81239 64.804 7.81239H64.8378C64.8548 7.81539 64.8722 7.81489 64.889 7.81092C64.9058 7.80695 64.9216 7.79959 64.9355 7.78931C64.9493 7.77903 64.9609 7.76601 64.9696 7.75109C64.9782 7.73617 64.9837 7.71965 64.9858 7.70253H64.9689ZM70.854 13.3899C70.947 13.3899 70.9935 13.3561 70.9935 13.28C70.9958 12.513 70.9492 11.7467 70.854 10.9856C70.7704 10.2934 70.629 9.60927 70.4312 8.94056C70.272 8.35858 69.9958 7.81514 69.6195 7.34338C69.3236 6.95396 68.8919 6.69001 68.4103 6.60395C68.3922 6.59727 68.3727 6.59495 68.3535 6.59722C68.3344 6.59948 68.316 6.60626 68.2999 6.61697C68.2838 6.62768 68.2705 6.64202 68.2611 6.65885C68.2516 6.67568 68.2462 6.69449 68.2454 6.71378C68.2396 6.73191 68.238 6.75112 68.2407 6.76995C68.2433 6.78879 68.2502 6.80679 68.2607 6.82262C68.2713 6.83844 68.2853 6.85169 68.3017 6.86138C68.318 6.87107 68.3364 6.87694 68.3553 6.87858C69.091 6.98844 69.6702 7.6138 70.1014 8.75887C70.5787 10.2163 70.7893 11.7479 70.7229 13.28C70.7567 13.3561 70.7779 13.3899 70.8709 13.3899H70.854Z" fill="#EC3205"/>
<path d="M83.1106 6.43898C84.2267 6.80236 85.0934 7.68546 85.7064 9.0756C86.3383 10.6028 86.6269 12.25 86.552 13.901C86.5262 15.6732 86.1527 17.4231 85.4528 19.0517C85.1664 19.814 84.7358 20.5141 84.1844 21.1136C83.7806 21.5705 83.2489 21.8958 82.6582 22.0475C82.1386 22.1568 81.5984 22.1142 81.1023 21.9249C80.5318 21.6865 80.0375 21.2963 79.6733 20.7967C79.1962 20.1697 78.8249 19.4689 78.5741 18.7221C78.1959 17.5874 77.956 16.4113 77.8596 15.2193C77.7477 14.0142 77.7789 12.8001 77.9526 11.6024C78.0958 10.5439 78.3801 9.50932 78.7982 8.52631C79.1488 7.69206 79.7717 7.00101 80.5654 6.56574C80.9568 6.36654 81.3858 6.25227 81.8244 6.23042C82.2631 6.20858 82.7013 6.27966 83.1106 6.43898ZM79.8382 8.77559C79.9094 8.42117 80.0704 8.09094 80.3058 7.81648C80.5412 7.54201 80.8431 7.33251 81.1827 7.208C81.4895 7.04441 81.8337 6.96343 82.1814 6.97306C82.529 6.98269 82.8682 7.0826 83.1655 7.26293C83.1805 7.2723 83.1973 7.27834 83.2148 7.28062C83.2323 7.28291 83.2501 7.28138 83.2669 7.27616C83.2838 7.27095 83.2993 7.26216 83.3125 7.2504C83.3256 7.23863 83.336 7.22417 83.3431 7.208C83.3545 7.19294 83.3625 7.17557 83.3666 7.15712C83.3707 7.13866 83.3707 7.11957 83.3667 7.1011C83.3627 7.08264 83.3547 7.06524 83.3433 7.05014C83.332 7.03504 83.3174 7.02259 83.3008 7.01362C82.9647 6.81611 82.5837 6.70742 82.1939 6.69781C81.8041 6.6882 81.4182 6.77798 81.0727 6.95869C80.6931 7.12034 80.3581 7.37108 80.0961 7.68967C79.8426 7.98751 79.6591 8.33839 79.5592 8.71646C79.5546 8.75306 79.5631 8.7901 79.5833 8.82103C79.6034 8.85196 79.6338 8.87477 79.6691 8.88545H79.6987C79.7313 8.88704 79.7634 8.87681 79.789 8.85662C79.8147 8.83643 79.8321 8.80764 79.8382 8.77559ZM82.9161 20.0869C83.2458 20.2897 83.6221 20.2052 84.0449 19.8291C84.5772 19.2662 84.9722 18.588 85.1991 17.8474C85.5661 16.8067 85.788 15.7205 85.8586 14.6193C85.9477 13.4359 85.8636 12.246 85.6092 11.0869C85.4301 10.025 84.9653 9.03179 84.2647 8.21364C84.1608 8.1229 84.0372 8.05738 83.9038 8.0222C83.7703 7.98702 83.6305 7.98311 83.4953 8.0108C83.1701 8.01976 82.858 8.14065 82.6117 8.35306C82.2387 8.88975 81.9823 9.49863 81.8591 10.1404C81.5822 11.2472 81.4249 12.3804 81.3898 13.5207C81.3336 14.9204 81.4962 16.3203 81.8718 17.67C81.9986 18.0545 82.1762 18.515 82.4087 19.0981C82.5196 19.4544 82.6913 19.7889 82.9161 20.0869Z" fill="#EC3205"/>
<path d="M94.3274 19.5767C94.6572 19.7584 94.6699 20.0711 94.357 20.5105C94.0093 21.0597 93.5142 21.5002 92.9282 21.7818C92.3422 22.0635 91.6888 22.175 91.0424 22.1035C90.6177 22.1224 90.1938 22.0516 89.7982 21.8958C89.4027 21.74 89.0444 21.5027 88.7467 21.1993C88.2486 20.5352 87.931 19.7535 87.8251 18.9303C87.6004 17.7151 87.49 16.4815 87.4953 15.2457C87.4953 13.8655 87.5094 12.7021 87.5376 11.7556C87.5658 10.8091 87.6207 9.8711 87.7025 8.94152C87.7025 8.86546 87.7025 8.67532 87.7278 8.36265C87.7532 8.04997 87.7617 7.83025 87.7701 7.70349C87.7786 7.57673 87.8082 7.36546 87.8547 7.06969C87.8785 6.84743 87.934 6.62972 88.0195 6.4232C88.083 6.28798 88.1633 6.11899 88.2648 5.91617C88.3481 5.74417 88.4767 5.5981 88.6368 5.49364C88.8008 5.39388 88.977 5.31575 89.1611 5.26122C89.3928 5.19374 89.635 5.16939 89.8756 5.1894C90.094 5.21109 90.306 5.27608 90.4991 5.38055C90.6922 5.48502 90.8625 5.62687 91.0002 5.79785C91.2435 6.19704 91.3545 6.66288 91.3172 7.12885C91.3172 7.70772 91.2665 8.43872 91.1946 9.32604C91.1228 10.2134 91.0551 11.2824 91.0002 12.5288C90.9504 13.9678 90.9871 15.4084 91.1101 16.8429C91.1101 16.9359 91.2115 17.5866 91.4145 18.7951C91.4337 18.9795 91.5024 19.1554 91.6133 19.3041C91.7241 19.4528 91.8731 19.5689 92.0444 19.6401C92.7406 19.9697 93.2268 20.0795 93.503 19.9697L93.7102 19.8303C93.7789 19.7863 93.8439 19.7368 93.9047 19.6824C93.9573 19.6296 94.0229 19.5918 94.0949 19.5725C94.1317 19.5565 94.1715 19.5485 94.2116 19.5493C94.2518 19.55 94.2913 19.5594 94.3274 19.5767ZM90.7253 7.70349C90.8184 6.82462 90.6535 6.20772 90.2307 5.86124C90.0657 5.74158 89.8716 5.66826 89.6686 5.64894C89.4656 5.62962 89.2612 5.665 89.0765 5.75138C88.9835 5.78941 88.9539 5.84855 88.9793 5.92884C88.984 5.94763 88.9927 5.96522 89.0046 5.98049C89.0166 5.99576 89.0316 6.00838 89.0487 6.01753C89.0658 6.02667 89.0846 6.03216 89.104 6.03362C89.1233 6.03508 89.1428 6.03248 89.1611 6.02601C89.3015 5.9484 89.4612 5.91235 89.6214 5.92208C89.7816 5.93181 89.9358 5.98691 90.0658 6.08094C90.4167 6.35559 90.552 6.88799 90.4886 7.67391C90.4674 7.76687 90.4886 7.81336 90.5985 7.81336C90.7084 7.81336 90.7253 7.77532 90.7253 7.70349Z" fill="#EC3205"/>
<path d="M99.7728 6.43905C100.893 6.80243 101.76 7.68553 102.373 9.07567C103.012 10.6013 103.308 12.2485 103.24 13.901C103.212 15.673 102.838 17.4226 102.14 19.0517C101.853 19.8134 101.422 20.5133 100.872 21.1137C100.468 21.5698 99.9362 21.8949 99.3458 22.0475C98.8262 22.1571 98.286 22.1145 97.79 21.925C97.2194 21.6866 96.7252 21.2964 96.361 20.7968C95.8839 20.1698 95.5126 19.469 95.2618 18.7222C94.8842 17.5871 94.6429 16.4113 94.543 15.2193C94.4346 14.014 94.4672 12.8002 94.6403 11.6024C94.7882 10.5425 95.0798 9.50768 95.507 8.52638C95.8461 7.70177 96.4519 7.01449 97.2277 6.57427C97.6183 6.3732 98.047 6.25718 98.4858 6.23387C98.9245 6.21056 99.3631 6.2805 99.7728 6.43905ZM96.5005 8.77566C96.5721 8.42077 96.7337 8.09023 96.9699 7.81572C97.206 7.54122 97.5088 7.33199 97.8492 7.20807C98.1553 7.04444 98.4988 6.96344 98.8458 6.97308C99.1928 6.98271 99.5313 7.08264 99.8278 7.263C99.8431 7.27242 99.8602 7.27848 99.878 7.2808C99.8958 7.28311 99.9139 7.28163 99.9311 7.27644C99.9483 7.27125 99.9641 7.26246 99.9777 7.25067C99.9912 7.23889 100.002 7.22437 100.01 7.20807C100.02 7.19278 100.028 7.17541 100.031 7.15708C100.035 7.13876 100.035 7.11988 100.031 7.10161C100.027 7.08335 100.019 7.06612 100.008 7.05099C99.9974 7.03585 99.9834 7.02315 99.9673 7.01369C99.6312 6.81618 99.2502 6.70749 98.8604 6.69788C98.4706 6.68827 98.0847 6.77805 97.7393 6.95876C97.3597 7.12041 97.0246 7.37115 96.7626 7.68974C96.5091 7.98758 96.3256 8.33846 96.2257 8.71653C96.2211 8.75313 96.2296 8.79017 96.2498 8.8211C96.2699 8.85203 96.3003 8.87484 96.3356 8.88553H96.3652C96.3975 8.88796 96.4296 8.87795 96.4547 8.85752C96.4799 8.83709 96.4963 8.80778 96.5005 8.77566ZM99.5826 20.087C99.9123 20.2898 100.289 20.2053 100.711 19.8292C101.244 19.2663 101.639 18.5881 101.866 17.8475C102.233 16.8068 102.455 15.7205 102.525 14.6193C102.612 13.436 102.528 12.2464 102.276 11.0869C102.093 10.0262 101.629 9.03392 100.931 8.21371C100.827 8.12262 100.702 8.05691 100.568 8.02173C100.434 7.98655 100.293 7.98283 100.158 8.01087C99.8336 8.01976 99.5228 8.14072 99.2782 8.35313C98.9029 8.88904 98.645 9.49811 98.5214 10.1405C98.2482 11.2478 98.0923 12.3808 98.0563 13.5208C98.0001 14.9205 98.1628 16.3204 98.5383 17.6701C98.6652 18.0546 98.8427 18.5151 99.0752 19.0982C99.1861 19.4545 99.3578 19.789 99.5826 20.087Z" fill="#EC3205"/>
<path d="M11.0531 1.27989C11.556 1.74531 11.9489 2.31674 12.2033 2.95273C12.5394 3.73172 12.7653 4.55368 12.8747 5.39492C13.0043 6.36894 13.0626 7.3511 13.0492 8.3336C13.0396 9.39243 12.9423 10.4486 12.7583 11.4914C12.5744 12.5333 12.3309 13.5637 12.0288 14.5777C11.7526 15.5166 11.3618 16.418 10.8652 17.2614C10.4171 18.0182 9.87911 18.718 9.26297 19.3458C8.73058 19.9049 8.04858 20.2992 7.29824 20.4819C6.52676 20.6559 5.72328 20.6266 4.96653 20.3969C4.91761 20.3928 4.86946 20.3823 4.82331 20.3656C4.66115 20.7015 4.39627 20.9772 4.06696 21.1528C3.82101 21.2782 3.55395 21.3571 3.27928 21.3854C3.04917 21.4062 2.81764 21.3661 2.60796 21.2691C2.42305 21.1711 2.25282 21.0476 2.10224 20.9023C1.92396 20.7429 1.7728 20.5556 1.65469 20.3477C1.52938 20.1151 1.41749 19.887 1.31903 19.6633C1.21704 19.4183 1.13473 19.1655 1.07288 18.9074C1.00575 18.6257 0.947568 18.3886 0.898338 18.1918C0.843142 17.9721 0.799816 17.7496 0.76855 17.5253C0.0476456 13.1813 -0.167117 8.76849 0.12856 4.3751C0.131308 4.25692 0.140272 4.13899 0.155412 4.02175C0.155412 3.57447 0.195692 3.23899 0.213593 3.00641C0.245704 2.68704 0.299534 2.37022 0.37471 2.05816C0.429878 1.73959 0.548594 1.43537 0.723795 1.16359C0.890527 0.938924 1.11043 0.759119 1.36379 0.640272C1.6852 0.485583 2.04203 0.419202 2.39762 0.447943C2.6671 0.492533 2.92726 0.581707 3.16739 0.711826C3.37533 0.830394 3.54351 1.00782 3.65074 1.22174C3.76789 1.44001 3.84948 1.67556 3.89242 1.9195C3.93451 2.26669 3.94799 2.61677 3.9327 2.96616C3.9327 3.41345 3.90585 3.86073 3.87452 4.27671C3.84319 4.69269 3.81186 5.27414 3.77606 5.99427C3.74025 6.7144 3.71788 7.39877 3.71788 8.06076C4.35637 5.28759 5.32606 3.23154 6.62692 1.89267C7.17785 1.26998 7.92151 0.849559 8.73934 0.698422C9.14428 0.630038 9.55901 0.646407 9.9573 0.746497C10.3556 0.846588 10.7287 1.02821 11.0531 1.27989ZM2.99733 1.58404C3.01446 1.57659 3.02978 1.56554 3.04224 1.55163C3.0547 1.53772 3.06401 1.52128 3.06954 1.50345C3.07506 1.48561 3.07667 1.46679 3.07425 1.44828C3.07183 1.42976 3.06543 1.412 3.05551 1.39619C2.93965 1.2239 2.77553 1.08958 2.58369 1.01003C2.39185 0.930469 2.18079 0.909206 1.97692 0.948901C1.7574 0.971118 1.54936 1.0577 1.37894 1.19777C1.20853 1.33784 1.08336 1.52515 1.01918 1.73613C1.0077 1.77054 1.01018 1.80808 1.02607 1.84069C1.04197 1.8733 1.07002 1.89839 1.10421 1.91058H1.16239C1.18912 1.9113 1.21528 1.90279 1.23647 1.8865C1.25766 1.87021 1.27259 1.84712 1.27875 1.82111C1.3304 1.66367 1.42696 1.52475 1.55657 1.42144C1.68618 1.31813 1.84318 1.25495 2.00825 1.23965C2.15675 1.20279 2.31313 1.21413 2.45475 1.27203C2.59636 1.32993 2.71586 1.43137 2.79593 1.56168C2.80686 1.57747 2.82105 1.59074 2.83754 1.60058C2.85403 1.61042 2.87244 1.61659 2.89153 1.61871C2.91062 1.62083 2.92994 1.61885 2.9482 1.61287C2.96645 1.60689 2.9832 1.59705 2.99733 1.58404ZM5.09184 18.4467C5.98693 18.3483 6.76119 17.5253 7.42355 15.9732C8.11627 14.2667 8.58414 12.4775 8.81542 10.6505C9.0916 8.75229 9.2039 6.83381 9.15108 4.91632C9.13589 4.53609 9.06812 4.15978 8.94968 3.79811C8.8293 3.45148 8.61931 3.14285 8.34102 2.90354C8.05907 2.65753 7.69208 2.67543 7.24901 2.94381C6.52674 3.46015 5.9614 4.16603 5.61547 4.98343C5.13718 5.9258 4.75773 6.91508 4.48318 7.9355C4.23809 8.84837 4.05272 9.77623 3.92822 10.7132C3.87115 11.0087 3.83229 11.3074 3.81186 11.6077C3.9162 13.3135 4.11041 15.0125 4.39367 16.6978C4.43852 17.023 4.50733 17.3444 4.59954 17.6595C4.7159 18.1068 4.79199 18.3662 4.83226 18.5004C4.9209 18.4949 5.0083 18.4768 5.09184 18.4467ZM12.078 9.77384C12.1765 9.77384 12.2257 9.72911 12.2257 9.63071C12.3809 7.28395 12.269 5.43219 11.8901 4.07543C11.5111 2.71866 10.895 1.9225 10.0417 1.68693C10.0226 1.6801 10.0023 1.67738 9.98214 1.67896C9.96195 1.68055 9.94233 1.68638 9.92456 1.69611C9.9068 1.70583 9.8913 1.71921 9.87909 1.73536C9.86688 1.75151 9.85823 1.77007 9.85373 1.7898C9.8224 1.87478 9.85373 1.94187 9.95666 1.97765C10.7324 2.17446 11.2948 2.93633 11.6439 4.26328C12.0198 6.02023 12.1225 7.82461 11.9482 9.61283C11.9443 9.63218 11.9447 9.65217 11.9493 9.67136C11.954 9.69055 11.9628 9.70848 11.9752 9.72386C11.9876 9.73924 12.0033 9.75169 12.021 9.76033C12.0388 9.76897 12.0583 9.77358 12.078 9.77384Z" fill="#EC3205"/>
<path d="M19.36 5.00514C20.5415 5.3898 21.459 6.32462 22.1079 7.7962C22.7767 9.41287 23.0823 11.1566 23.003 12.9042C22.9756 14.7802 22.5803 16.6327 21.8394 18.3566C21.5363 19.1636 21.0804 19.9047 20.4967 20.5394C20.0693 21.023 19.5065 21.3673 18.8811 21.5279C18.331 21.6436 17.7593 21.5985 17.2341 21.3981C16.6301 21.1458 16.1069 20.7327 15.7214 20.2039C15.2164 19.5401 14.8233 18.7983 14.5578 18.0077C14.1575 16.8066 13.9035 15.5616 13.8015 14.2997C13.683 13.0241 13.716 11.7389 13.8999 10.471C14.0514 9.35046 14.3525 8.25532 14.795 7.21473C15.1661 6.33161 15.8255 5.60009 16.6657 5.13932C17.08 4.92845 17.5342 4.80748 17.9985 4.78436C18.4628 4.76123 18.9268 4.83648 19.36 5.00514ZM15.896 7.47861C15.9713 7.10343 16.1417 6.75386 16.3909 6.46332C16.6401 6.17278 16.9597 5.951 17.3192 5.8192C17.644 5.64602 18.0083 5.5603 18.3764 5.57049C18.7444 5.58069 19.1034 5.68646 19.4182 5.87735C19.434 5.88727 19.4518 5.89366 19.4703 5.89608C19.4888 5.8985 19.5076 5.89687 19.5255 5.89135C19.5433 5.88583 19.5598 5.87654 19.5737 5.86408C19.5876 5.85163 19.5987 5.83632 19.6061 5.8192C19.6182 5.80325 19.6267 5.78487 19.631 5.76534C19.6353 5.7458 19.6353 5.72559 19.6311 5.70604C19.6268 5.68649 19.6184 5.66808 19.6064 5.65209C19.5943 5.63611 19.579 5.62293 19.5614 5.61344C19.2055 5.40435 18.8023 5.28929 18.3896 5.27912C17.977 5.26895 17.5685 5.36399 17.2028 5.55529C16.801 5.72641 16.4463 5.99183 16.169 6.32908C15.9006 6.64437 15.7064 7.0158 15.6006 7.41601C15.5957 7.45476 15.6048 7.49397 15.6261 7.52672C15.6474 7.55946 15.6796 7.5836 15.7169 7.59491H15.7483C15.7828 7.59659 15.8168 7.58576 15.8439 7.56439C15.871 7.54302 15.8895 7.51254 15.896 7.47861ZM19.1541 19.4525C19.5032 19.6672 19.9015 19.5777 20.349 19.1796C20.9125 18.5837 21.3307 17.8658 21.5708 17.0819C21.9593 15.9802 22.1943 14.8303 22.269 13.6646C22.3633 12.4119 22.2743 11.1523 22.005 9.92528C21.8154 8.80119 21.3234 7.74982 20.5818 6.88374C20.4717 6.78769 20.3409 6.71833 20.1997 6.68109C20.0584 6.64385 19.9104 6.63971 19.7672 6.66903C19.423 6.67851 19.0926 6.80648 18.8319 7.03133C18.437 7.59946 18.1656 8.244 18.0352 8.92336C17.7421 10.0949 17.5756 11.2946 17.5385 12.5017C17.479 13.9834 17.6511 15.4653 18.0487 16.894C18.1829 17.301 18.3709 17.7886 18.617 18.4058C18.7344 18.783 18.9161 19.1371 19.1541 19.4525Z" fill="#EC3205"/>
<path d="M28.2661 6.57534C28.83 5.41239 29.6057 4.72358 30.5933 4.50888C31.7868 4.2584 32.7967 4.85478 33.6232 6.29802C34.942 8.62987 35.3388 12.5779 34.8137 18.1421C34.8137 18.2167 34.8047 18.3419 34.7868 18.5178C34.7465 18.907 34.7197 19.2067 34.6973 19.4124C34.6659 19.713 34.6181 20.0116 34.5541 20.307C34.4963 20.6165 34.3985 20.9172 34.2632 21.2016C34.1349 21.4384 33.985 21.663 33.8156 21.8725C33.6467 22.0888 33.4131 22.2455 33.1488 22.3198C32.8438 22.4006 32.5229 22.4006 32.2179 22.3198C31.7853 22.2348 31.4003 21.9906 31.1393 21.6354C30.8705 21.2939 30.7353 20.8662 30.7589 20.4322C30.7589 20.4322 30.7589 20.1147 30.8171 19.5377C30.8753 18.9607 30.8932 18.4374 30.92 17.9543C30.9469 17.4712 30.9827 16.7511 31.023 15.7984C31.0632 14.8457 31.0811 14.0092 31.0811 13.2086C31.0811 12.4079 31.0811 11.4642 31.0498 10.3012C30.9901 7.51014 30.5157 6.23987 29.6266 6.49035C28.6152 6.76469 27.9841 8.65521 27.7335 12.1619C27.7877 13.8285 27.9371 15.4907 28.181 17.1402C28.2364 17.5069 28.3142 17.8699 28.4138 18.2271C28.5232 18.635 28.6099 19.0486 28.6733 19.4661C28.7063 19.8067 28.6572 20.1503 28.5301 20.468C28.3959 20.8486 28.1268 21.1668 27.7738 21.3626C27.5191 21.4873 27.2423 21.5603 26.9592 21.5773C26.7336 21.5946 26.5073 21.5545 26.3013 21.461C26.1003 21.3633 25.9219 21.2247 25.7777 21.054C25.6164 20.8763 25.4753 20.6813 25.357 20.4725C25.2305 20.2493 25.1227 20.0158 25.0348 19.7747C24.9408 19.5153 24.8603 19.2693 24.8021 19.0501C24.7439 18.831 24.6857 18.6028 24.6275 18.3345C23.9816 14.6579 23.7862 10.9164 24.0457 7.19259C24.0457 6.82582 24.0815 6.58875 24.0905 6.4814C24.0994 6.37405 24.1263 6.15041 24.1621 5.81047C24.1828 5.56254 24.2324 5.31787 24.3098 5.08139C24.3679 4.93826 24.4485 4.74593 24.5559 4.49992C24.6338 4.29476 24.7709 4.1173 24.9498 3.99001C25.1295 3.8836 25.32 3.79663 25.5181 3.73058C25.7664 3.65067 26.0279 3.6203 26.2879 3.64114C26.7467 3.68328 27.1708 3.90323 27.4694 4.25392C27.7155 4.65708 27.8369 5.12389 27.8185 5.59578C27.8185 6.17725 27.8185 6.93764 27.7424 7.83221C27.89 7.40253 28.0649 6.98271 28.2661 6.57534ZM27.2457 6.34274C27.3441 5.41238 27.1785 4.75935 26.7534 4.39258C26.5724 4.26656 26.3618 4.18959 26.1422 4.16921C25.9225 4.14883 25.7013 4.18572 25.5002 4.27628C25.4018 4.31654 25.3705 4.37915 25.3973 4.46413C25.4024 4.48351 25.4114 4.50164 25.4238 4.51742C25.4361 4.53321 25.4516 4.54632 25.4692 4.55594C25.4868 4.56557 25.5061 4.57151 25.5261 4.57342C25.546 4.57532 25.5662 4.57313 25.5853 4.567C25.7353 4.48652 25.9047 4.44933 26.0746 4.4596C26.2446 4.46987 26.4083 4.52719 26.5475 4.62515C26.9145 4.91589 27.0622 5.47947 26.995 6.31143C26.9727 6.40983 26.995 6.45904 27.1114 6.45904C27.2278 6.45904 27.2457 6.41878 27.2457 6.34274ZM33.9857 12.3632C34.0752 12.3632 34.1155 12.3274 34.1155 12.2469C34.1391 11.4355 34.1002 10.6236 33.9991 9.81816C33.9128 9.08497 33.7631 8.36063 33.5516 7.65328C33.3827 7.03824 33.092 6.46333 32.6968 5.96256C32.3738 5.54598 31.9056 5.26646 31.3855 5.17981C31.3094 5.15744 31.2602 5.17978 31.2378 5.29608C31.2317 5.31526 31.2299 5.3356 31.2327 5.35554C31.2355 5.37548 31.2428 5.39453 31.254 5.41128C31.2652 5.42804 31.28 5.44206 31.2973 5.45232C31.3146 5.46257 31.3341 5.46879 31.3541 5.47053C32.1329 5.58682 32.7415 6.24881 33.1891 7.46095C33.6865 9.00585 33.9136 10.6249 33.8604 12.2469C33.8783 12.3274 33.9007 12.3632 33.9857 12.3632Z" fill="#EC3205"/>
</svg>
