<svg width="322" height="34" viewBox="0 0 322 34" fill="none" xmlns="http://www.w3.org/2000/svg">
<path d="M139.669 20.6581C140.439 21.6317 141.095 22.6908 141.622 23.8144C141.827 24.2284 141.953 24.6769 141.994 25.1369C142.043 25.5911 141.972 26.0501 141.787 26.4679C141.709 26.6617 141.586 26.8341 141.428 26.9708C141.27 27.1074 141.081 27.2045 140.878 27.2538C140.579 27.3263 140.267 27.3161 139.973 27.2243C139.725 27.1459 139.492 27.0259 139.284 26.8693C139.056 26.6627 138.87 26.4146 138.735 26.1383C138.553 25.8003 138.413 25.5214 138.312 25.2933C138.21 25.0651 138.092 24.7524 137.927 24.3299C137.872 24.1482 137.826 24.0088 137.792 23.9074C137.483 23.1742 137.086 22.4817 136.608 21.8454C136.373 21.6022 136.083 21.4182 135.762 21.3088C135.46 21.2075 135.193 21.0212 134.993 20.7721C135.082 21.6721 135.204 22.5595 135.348 23.4383C135.405 23.8059 135.488 24.1689 135.598 24.5243C135.72 24.9403 135.816 25.3637 135.885 25.7919C135.927 26.1394 135.89 26.492 135.775 26.8228C135.654 27.1892 135.392 27.4929 135.048 27.6679C134.816 27.7864 134.563 27.8609 134.304 27.8876C134.088 27.9078 133.87 27.8698 133.674 27.7778C133.492 27.6885 133.325 27.5716 133.179 27.4313C133.009 27.2793 132.866 27.0992 132.756 26.8989C132.638 26.6792 132.532 26.4637 132.439 26.2524C132.343 26.021 132.265 25.7822 132.207 25.5383C132.143 25.2722 132.088 25.0482 132.042 24.8623C131.99 24.6548 131.949 24.4446 131.919 24.2327C131.238 20.1291 131.035 15.9605 131.315 11.8102C131.317 11.6985 131.326 11.5871 131.34 11.4763C131.34 11.0538 131.378 10.7369 131.395 10.5172C131.425 10.2155 131.476 9.91623 131.547 9.62144C131.603 9.32158 131.715 9.03491 131.877 8.77636C132.036 8.56509 132.243 8.39542 132.482 8.28198C132.785 8.13585 133.122 8.07314 133.458 8.10029C133.711 8.14255 133.956 8.2223 134.185 8.33691C134.373 8.44179 134.522 8.60497 134.608 8.80171C134.707 9.01225 134.78 9.23343 134.828 9.46087C134.908 9.78635 134.955 10.119 134.968 10.4538C134.968 10.8764 134.938 11.2651 134.913 11.6496C134.887 12.0341 134.849 12.558 134.815 13.2172C134.782 13.8763 134.76 14.4848 134.76 15.0848C134.887 14.4088 135.044 13.7581 135.226 13.1327C135.407 12.5074 135.648 11.9031 135.872 11.3073C136.088 10.7754 136.36 10.2682 136.684 9.79466C136.965 9.39429 137.304 9.03822 137.69 8.73832C138.027 8.45741 138.445 8.29288 138.883 8.26932C139.359 8.26156 139.832 8.36575 140.261 8.57353C140.688 8.8192 141.062 9.14694 141.362 9.53783C141.661 9.92871 141.881 10.375 142.007 10.851C142.385 11.9926 142.538 13.1963 142.459 14.3961C142.388 15.655 142.102 16.8925 141.614 18.0552C141.227 19.0903 140.552 19.9934 139.669 20.6581V20.6581ZM134.363 10.7327C134.453 9.85381 134.297 9.24114 133.894 8.89466C133.723 8.77493 133.524 8.70148 133.317 8.68148C133.109 8.66149 132.9 8.69562 132.71 8.78057C132.621 8.8186 132.587 8.87775 132.617 8.96225C132.622 8.98056 132.63 8.99771 132.642 9.01262C132.654 9.02753 132.668 9.03989 132.685 9.04898C132.701 9.05808 132.72 9.06369 132.739 9.06549C132.757 9.06729 132.777 9.06524 132.795 9.05946C132.936 8.98098 133.096 8.94445 133.257 8.95418C133.418 8.96392 133.573 9.0195 133.704 9.11439C134.05 9.38904 134.185 9.91719 134.126 10.7073C134.126 10.8003 134.126 10.8425 134.236 10.8425C134.346 10.8425 134.363 10.8087 134.363 10.7327V10.7327ZM136.507 11.6158C135.903 12.822 135.49 14.115 135.285 15.4482C135.038 16.6932 134.896 17.9569 134.862 19.2257C134.919 19.1485 134.994 19.086 135.08 19.0434C135.166 19.0008 135.261 18.9792 135.357 18.9806C135.595 18.9854 135.832 19.0267 136.058 19.1031C136.249 19.1714 136.448 19.2127 136.65 19.2257C136.997 19.2257 137.361 18.9341 137.737 18.3468C138.149 17.6807 138.463 16.9593 138.671 16.2045C138.918 15.3688 139.094 14.5136 139.195 13.6482C139.303 12.8867 139.26 12.1114 139.069 11.3665C138.885 10.7073 138.556 10.3228 138.079 10.213C137.589 10.1031 137.056 10.5679 136.507 11.6158V11.6158ZM139.986 9.66368C139.975 9.67839 139.967 9.69542 139.963 9.71356C139.959 9.73169 139.959 9.7505 139.963 9.76864C139.967 9.78678 139.975 9.80383 139.986 9.81854C139.997 9.83326 140.012 9.84531 140.028 9.85382C140.681 10.3598 141.13 11.0822 141.297 11.8904C141.555 12.8949 141.607 13.9414 141.449 14.9665C141.327 15.9729 140.983 16.9397 140.443 17.7975C140.429 17.8111 140.419 17.8276 140.413 17.8458C140.407 17.8639 140.406 17.8832 140.409 17.9021C140.411 17.921 140.419 17.9389 140.43 17.9545C140.441 17.9701 140.455 17.9829 140.472 17.9919H140.553C140.574 17.9941 140.596 17.9902 140.616 17.9804C140.635 17.9707 140.651 17.9556 140.662 17.9369C141.237 17.0444 141.599 16.0329 141.724 14.9792C141.881 13.9061 141.819 12.8122 141.542 11.7637C141.358 10.915 140.869 10.1633 140.168 9.65099C140.157 9.63581 140.143 9.62364 140.127 9.61563C140.11 9.60763 140.092 9.60409 140.073 9.60537C140.055 9.60665 140.037 9.6127 140.022 9.62293C140.007 9.63316 139.994 9.6472 139.986 9.66368V9.66368Z" fill="#EC3205"/>
<path d="M150.78 22.0563C150.983 22.0563 151.072 22.2676 151.055 22.6352C150.999 23.3867 150.837 24.1265 150.573 24.8324C150.374 25.395 150.066 25.9132 149.668 26.3577C149.332 26.7134 148.93 27.0004 148.484 27.2028C148.066 27.3922 147.606 27.4721 147.148 27.4352C146.676 27.3894 146.218 27.2455 145.804 27.0127C144.681 26.3491 143.854 25.2821 143.491 24.0296C142.996 22.6035 142.772 21.0972 142.832 19.5887C142.873 18.1323 143.124 16.6894 143.576 15.3042C143.857 14.2594 144.385 13.2973 145.115 12.4986C145.592 11.9386 146.268 11.5844 147 11.5098C147.631 11.4976 148.244 11.712 148.73 12.1141C149.294 12.5685 149.71 13.1804 149.926 13.8718C150.309 15.11 150.38 16.4235 150.133 17.6958C149.916 18.8698 149.452 19.9844 148.772 20.9662C148.285 21.7582 147.538 22.356 146.658 22.6563C146.73 23.2847 146.917 23.8946 147.208 24.4563C147.381 24.8285 147.691 25.1192 148.074 25.2676C148.387 25.3596 148.722 25.3447 149.026 25.2253C149.367 25.0778 149.655 24.8284 149.85 24.5113C150.098 24.1259 150.266 23.6949 150.345 23.2437C150.345 23.2099 150.345 23.1084 150.345 22.9436C150.351 22.8022 150.365 22.6611 150.387 22.5211C150.407 22.4046 150.449 22.2929 150.509 22.1915C150.538 22.1464 150.578 22.11 150.626 22.0861C150.674 22.0623 150.727 22.052 150.78 22.0563V22.0563ZM145.284 13.8676C145.38 13.5373 145.56 13.2374 145.805 12.9969C146.051 12.7563 146.355 12.5832 146.688 12.4943C146.956 12.3899 147.247 12.3576 147.532 12.4006C147.817 12.4435 148.085 12.5604 148.311 12.7394C148.323 12.7535 148.337 12.7649 148.353 12.7727C148.37 12.7806 148.388 12.7846 148.406 12.7846C148.424 12.7846 148.442 12.7806 148.459 12.7727C148.475 12.7649 148.49 12.7535 148.501 12.7394C148.555 12.6746 148.546 12.6155 148.476 12.5619C148.219 12.3488 147.912 12.2062 147.583 12.1484C147.255 12.0906 146.917 12.1196 146.603 12.2324C146.229 12.335 145.888 12.5331 145.614 12.8072C145.34 13.0813 145.141 13.422 145.039 13.7957C145.018 13.8887 145.039 13.9436 145.119 13.9605H145.174C145.2 13.9607 145.225 13.9513 145.245 13.9342C145.264 13.9171 145.277 13.8934 145.28 13.8676H145.284ZM146.383 10.2676C146.291 10.2632 146.202 10.2321 146.127 10.1781C146.052 10.1241 145.994 10.0495 145.96 9.96336C145.888 9.8594 145.849 9.73529 145.85 9.60842V9.46898C145.858 9.36572 145.896 9.26708 145.96 9.18589L148.074 6.32954C148.13 6.23156 148.211 6.14974 148.308 6.09199C148.405 6.03425 148.515 6.00256 148.628 5.99998C148.759 5.99777 148.887 6.03273 148.999 6.10081C149.11 6.16889 149.2 6.26728 149.258 6.38447C149.365 6.5572 149.422 6.75605 149.423 6.95911C149.423 6.99714 149.423 7.08166 149.423 7.20842C149.391 7.38229 149.311 7.54351 149.19 7.6732L146.713 10.1197C146.671 10.1661 146.621 10.2032 146.564 10.2287C146.507 10.2542 146.445 10.2674 146.383 10.2676ZM146.907 16.2042C146.475 17.7782 146.307 19.4133 146.413 21.0422C146.485 21.0422 146.611 20.9958 146.797 20.9577C146.96 20.926 147.121 20.8851 147.279 20.8352C147.398 20.796 147.513 20.7451 147.622 20.6831C148.467 20.1718 149.047 19.238 149.423 17.8943C149.807 16.7756 149.807 15.5609 149.423 14.4422C149.329 14.221 149.199 14.0169 149.038 13.838C148.881 13.6626 148.682 13.5302 148.459 13.4535C148.344 13.4204 148.221 13.4238 148.107 13.4631C147.994 13.5024 147.895 13.5758 147.825 13.6732C147.537 13.9493 147.23 14.7929 146.903 16.2042H146.907Z" fill="#EC3205"/>
<path d="M164.693 16.3137C165.36 16.5546 165.914 17.0331 166.249 17.6573C166.662 18.3956 166.923 19.2086 167.019 20.0489C167.134 20.9243 167.19 21.8067 167.183 22.6898C167.175 23.5256 167.125 24.3605 167.031 25.1912C166.976 25.5588 166.926 25.8545 166.879 26.0827C166.822 26.3696 166.744 26.652 166.647 26.9278C166.565 27.1995 166.43 27.4523 166.249 27.6714C166.072 27.8578 165.855 28.0022 165.615 28.094C165.312 28.2056 164.982 28.2247 164.668 28.1489C164.312 28.0642 163.99 27.8725 163.746 27.5996C163.504 27.3333 163.355 26.9949 163.324 26.6362C163.295 26.235 163.328 25.8318 163.421 25.4404C163.488 25.1364 163.539 24.8289 163.573 24.5193C163.728 23.132 163.769 21.7344 163.696 20.3405C163.611 19.3179 163.471 18.6841 163.273 18.4475C163.211 18.3872 163.142 18.336 163.066 18.2954C162.972 18.2434 162.871 18.2064 162.765 18.1855C162.643 18.1559 162.516 18.1559 162.393 18.1855C162.24 18.2263 162.101 18.3116 161.996 18.4306C161.841 18.5923 161.706 18.7725 161.594 18.9672C161.623 20.4923 161.541 22.0174 161.349 23.5306C161.343 23.6043 161.333 23.6776 161.32 23.7503C161.281 24.1728 161.248 24.4686 161.21 24.6968C161.153 25.0046 161.075 25.3081 160.977 25.6052C160.89 25.9062 160.756 26.1914 160.58 26.4503C160.4 26.6634 160.171 26.8289 159.912 26.932C159.592 27.0605 159.241 27.0885 158.905 27.0123C158.541 26.935 158.208 26.7529 157.946 26.4883C157.728 26.2549 157.587 25.9597 157.544 25.6433C157.5 25.1852 157.5 24.7239 157.544 24.2658C157.582 23.6912 157.641 23.0954 157.722 22.4827C157.802 21.87 157.87 21.0714 157.916 20.0911C157.963 19.1109 157.967 18.1433 157.916 17.1883V16.5038C157.916 16.1193 157.916 15.8109 157.891 15.5827C157.865 15.3545 157.84 15.0841 157.794 14.7714C157.769 14.5207 157.683 14.2799 157.544 14.07C157.493 13.9975 157.425 13.9384 157.347 13.8979C157.268 13.8574 157.18 13.8367 157.092 13.8376C156.613 13.8376 156.236 14.3278 155.963 15.308C155.652 16.5189 155.459 17.7571 155.388 19.0052C155.448 20.6621 155.603 22.3141 155.853 23.9531C155.907 24.2991 155.981 24.6419 156.073 24.9799C156.177 25.3652 156.26 25.7559 156.322 26.1503C156.352 26.4724 156.304 26.7969 156.183 27.0968C156.057 27.4571 155.803 27.7582 155.468 27.9419C155.256 28.0444 155.029 28.1128 154.796 28.1447C154.607 28.1773 154.413 28.1583 154.234 28.0897C154.066 28.0257 153.908 27.939 153.764 27.832C153.609 27.7141 153.475 27.5713 153.367 27.4095C153.247 27.2394 153.141 27.0599 153.05 26.8728C152.953 26.6774 152.87 26.4755 152.8 26.2686C152.729 26.0489 152.669 25.8461 152.623 25.6644C152.576 25.4827 152.534 25.2883 152.5 25.0855C151.89 21.6124 151.706 18.0779 151.951 14.5601C151.968 14.2137 151.98 13.9897 151.989 13.8883C151.989 13.7869 152.023 13.5756 152.061 13.2545C152.077 13.0203 152.123 12.7889 152.196 12.5658C152.251 12.4306 152.331 12.2489 152.428 12.0165C152.503 11.8234 152.633 11.6561 152.8 11.5348C152.97 11.4343 153.15 11.3521 153.337 11.2897C153.573 11.214 153.822 11.1853 154.069 11.2052C154.477 11.2529 154.856 11.4429 155.138 11.7418C155.381 12.0784 155.507 12.4849 155.498 12.8996C155.498 13.4024 155.498 14.0489 155.468 14.8348C155.544 14.5731 155.636 14.3163 155.743 14.0658C156.239 12.939 156.927 12.2616 157.806 12.0334C158.849 11.7742 159.72 12.2686 160.419 13.5165C161.062 14.7797 161.428 16.1655 161.493 17.5813C162.288 16.263 163.355 15.8404 164.693 16.3137ZM154.969 13.7024C155.041 12.8235 154.876 12.2066 154.475 11.8602C154.304 11.7411 154.105 11.6684 153.897 11.6491C153.69 11.6299 153.481 11.6647 153.291 11.7503C153.202 11.7883 153.168 11.8475 153.198 11.9278C153.202 11.9464 153.21 11.9639 153.222 11.9792C153.233 11.9944 153.248 12.0071 153.265 12.0163C153.282 12.0254 153.3 12.031 153.319 12.0325C153.338 12.034 153.357 12.0314 153.375 12.0249C153.522 11.9499 153.686 11.9154 153.85 11.925C154.014 11.9347 154.173 11.9882 154.31 12.0799C154.64 12.3545 154.766 12.8869 154.695 13.6728C154.695 13.7658 154.695 13.8123 154.804 13.8123H154.838C154.855 13.8153 154.873 13.8148 154.89 13.8108C154.906 13.8068 154.922 13.7995 154.936 13.7892C154.95 13.7789 154.961 13.7659 154.97 13.751C154.979 13.736 154.984 13.7195 154.986 13.7024H154.969ZM160.854 19.3897C160.947 19.3897 160.994 19.3559 160.994 19.2799C160.996 18.5129 160.95 17.7466 160.854 16.9855C160.771 16.2932 160.629 15.6091 160.432 14.9404C160.272 14.3585 159.996 13.815 159.62 13.3433C159.324 12.9538 158.892 12.6899 158.411 12.6038C158.393 12.5971 158.373 12.5948 158.354 12.5971C158.335 12.5994 158.316 12.6061 158.3 12.6168C158.284 12.6276 158.271 12.6419 158.262 12.6587C158.252 12.6756 158.247 12.6944 158.246 12.7137C158.24 12.7318 158.239 12.751 158.241 12.7698C158.244 12.7887 158.251 12.8067 158.261 12.8225C158.272 12.8383 158.286 12.8516 158.302 12.8613C158.319 12.8709 158.337 12.8768 158.356 12.8785C159.091 12.9883 159.671 13.6137 160.102 14.7587C160.579 16.2162 160.79 17.7478 160.723 19.2799C160.757 19.3559 160.778 19.3897 160.871 19.3897H160.854Z" fill="#EC3205"/>
<path d="M173.111 12.439C174.227 12.8024 175.093 13.6855 175.706 15.0756C176.338 16.6028 176.627 18.25 176.552 19.901C176.526 21.6732 176.153 23.4231 175.453 25.0517C175.166 25.814 174.736 26.5141 174.184 27.1136C173.781 27.5705 173.249 27.8958 172.658 28.0475C172.139 28.1568 171.598 28.1142 171.102 27.9249C170.532 27.6865 170.038 27.2963 169.673 26.7967C169.196 26.1697 168.825 25.4689 168.574 24.7221C168.196 23.5874 167.956 22.4113 167.86 21.2193C167.748 20.0142 167.779 18.8001 167.953 17.6024C168.096 16.5439 168.38 15.5093 168.798 14.5263C169.149 13.6921 169.772 13.001 170.565 12.5657C170.957 12.3665 171.386 12.2523 171.824 12.2304C172.263 12.2086 172.701 12.2797 173.111 12.439V12.439ZM169.838 14.7756C169.909 14.4212 170.07 14.0909 170.306 13.8165C170.541 13.542 170.843 13.3325 171.183 13.208C171.49 13.0444 171.834 12.9634 172.181 12.9731C172.529 12.9827 172.868 13.0826 173.166 13.2629C173.18 13.2723 173.197 13.2783 173.215 13.2806C173.232 13.2829 173.25 13.2814 173.267 13.2762C173.284 13.2709 173.299 13.2622 173.312 13.2504C173.326 13.2386 173.336 13.2242 173.343 13.208C173.355 13.1929 173.363 13.1756 173.367 13.1571C173.371 13.1387 173.371 13.1196 173.367 13.1011C173.363 13.0826 173.355 13.0652 173.343 13.0501C173.332 13.035 173.317 13.0226 173.301 13.0136C172.965 12.8161 172.584 12.7074 172.194 12.6978C171.804 12.6882 171.418 12.778 171.073 12.9587C170.693 13.1203 170.358 13.3711 170.096 13.6897C169.843 13.9875 169.659 14.3384 169.559 14.7165C169.555 14.7531 169.563 14.7901 169.583 14.821C169.603 14.852 169.634 14.8748 169.669 14.8855H169.699C169.731 14.887 169.763 14.8768 169.789 14.8566C169.815 14.8364 169.832 14.8076 169.838 14.7756ZM172.916 26.0869C173.246 26.2897 173.622 26.2052 174.045 25.8291C174.577 25.2662 174.972 24.588 175.199 23.8474C175.566 22.8067 175.788 21.7205 175.859 20.6193C175.948 19.4359 175.864 18.246 175.609 17.0869C175.43 16.025 174.965 15.0318 174.265 14.2136C174.161 14.1229 174.037 14.0574 173.904 14.0222C173.77 13.987 173.631 13.9831 173.495 14.0108C173.17 14.0198 172.858 14.1407 172.612 14.3531C172.239 14.8898 171.982 15.4986 171.859 16.1404C171.582 17.2472 171.425 18.3804 171.39 19.5207C171.334 20.9204 171.496 22.3203 171.872 23.67C171.999 24.0545 172.176 24.515 172.409 25.0981C172.52 25.4544 172.691 25.7889 172.916 26.0869Z" fill="#EC3205"/>
<path d="M184.327 25.5767C184.657 25.7584 184.67 26.0711 184.357 26.5105C184.009 27.0597 183.514 27.5002 182.928 27.7818C182.342 28.0635 181.689 28.175 181.042 28.1035C180.618 28.1224 180.194 28.0516 179.798 27.8958C179.403 27.74 179.044 27.5027 178.747 27.1993C178.249 26.5352 177.931 25.7535 177.825 24.9303C177.6 23.7151 177.49 22.4815 177.495 21.2457C177.495 19.8655 177.509 18.7021 177.538 17.7556C177.566 16.8091 177.621 15.8711 177.702 14.9415C177.702 14.8655 177.702 14.6753 177.728 14.3626C177.753 14.05 177.762 13.8303 177.77 13.7035C177.779 13.5767 177.808 13.3655 177.855 13.0697C177.878 12.8474 177.934 12.6297 178.02 12.4232C178.083 12.288 178.163 12.119 178.265 11.9162C178.348 11.7442 178.477 11.5981 178.637 11.4936C178.801 11.3939 178.977 11.3157 179.161 11.2612C179.393 11.1937 179.635 11.1694 179.876 11.1894C180.094 11.2111 180.306 11.2761 180.499 11.3806C180.692 11.485 180.863 11.6269 181 11.7979C181.244 12.197 181.355 12.6629 181.317 13.1288C181.317 13.7077 181.267 14.4387 181.195 15.326C181.123 16.2134 181.055 17.2824 181 18.5288C180.95 19.9678 180.987 21.4084 181.11 22.8429C181.11 22.9359 181.212 23.5866 181.414 24.7951C181.434 24.9795 181.502 25.1554 181.613 25.3041C181.724 25.4528 181.873 25.5689 182.044 25.6401C182.741 25.9697 183.227 26.0796 183.503 25.9697L183.71 25.8303C183.779 25.7863 183.844 25.7368 183.905 25.6824C183.957 25.6296 184.023 25.5918 184.095 25.5725C184.132 25.5565 184.172 25.5485 184.212 25.5493C184.252 25.55 184.291 25.5594 184.327 25.5767ZM180.725 13.7035C180.818 12.8246 180.653 12.2077 180.231 11.8612C180.066 11.7416 179.872 11.6683 179.669 11.6489C179.466 11.6296 179.261 11.665 179.077 11.7514C178.983 11.7894 178.954 11.8486 178.979 11.9288C178.984 11.9476 178.993 11.9652 179.005 11.9805C179.017 11.9958 179.032 12.0084 179.049 12.0175C179.066 12.0267 179.085 12.0322 179.104 12.0336C179.123 12.0351 179.143 12.0325 179.161 12.026C179.302 11.9484 179.461 11.9124 179.621 11.9221C179.782 11.9318 179.936 11.9869 180.066 12.0809C180.417 12.3556 180.552 12.888 180.489 13.6739C180.467 13.7669 180.489 13.8134 180.599 13.8134C180.708 13.8134 180.725 13.7753 180.725 13.7035V13.7035Z" fill="#EC3205"/>
<path d="M189.773 12.4393C190.893 12.8027 191.76 13.6858 192.373 15.0759C193.012 16.6015 193.308 18.2488 193.24 19.9013C193.212 21.6733 192.838 23.4228 192.14 25.052C191.853 25.8137 191.422 26.5135 190.872 27.114C190.468 27.57 189.936 27.8952 189.346 28.0478C188.826 28.1573 188.286 28.1148 187.79 27.9252C187.219 27.6868 186.725 27.2966 186.361 26.7971C185.884 26.17 185.513 25.4692 185.262 24.7224C184.884 23.5874 184.643 22.4115 184.543 21.2196C184.435 20.0143 184.467 18.8004 184.64 17.6027C184.788 16.5428 185.08 15.5079 185.507 14.5266C185.846 13.702 186.452 13.0147 187.228 12.5745C187.618 12.3734 188.047 12.2574 188.486 12.2341C188.924 12.2108 189.363 12.2807 189.773 12.4393V12.4393ZM186.501 14.7759C186.572 14.421 186.734 14.0905 186.97 13.816C187.206 13.5415 187.509 13.3322 187.849 13.2083C188.155 13.0447 188.499 12.9637 188.846 12.9733C189.193 12.983 189.531 13.0829 189.828 13.2632C189.843 13.2727 189.86 13.2787 189.878 13.281C189.896 13.2834 189.914 13.2819 189.931 13.2767C189.948 13.2715 189.964 13.2627 189.978 13.2509C189.991 13.2391 190.002 13.2246 190.01 13.2083C190.02 13.193 190.028 13.1757 190.032 13.1573C190.035 13.139 190.035 13.1201 190.031 13.1019C190.027 13.0836 190.019 13.0664 190.008 13.0512C189.997 13.0361 189.983 13.0234 189.967 13.0139C189.631 12.8164 189.25 12.7077 188.86 12.6981C188.471 12.6885 188.085 12.7783 187.739 12.959C187.36 13.1207 187.025 13.3714 186.763 13.69C186.509 13.9878 186.326 14.3387 186.226 14.7168C186.221 14.7534 186.23 14.7904 186.25 14.8213C186.27 14.8523 186.3 14.8751 186.336 14.8858H186.365C186.398 14.8882 186.43 14.8782 186.455 14.8578C186.48 14.8373 186.496 14.808 186.501 14.7759V14.7759ZM189.583 26.0872C189.912 26.29 190.289 26.2055 190.711 25.8295C191.244 25.2666 191.639 24.5884 191.866 23.8478C192.233 22.807 192.455 21.7208 192.525 20.6196C192.612 19.4363 192.528 18.2466 192.276 17.0872C192.093 16.0264 191.629 15.0342 190.931 14.214C190.827 14.1229 190.702 14.0572 190.568 14.022C190.434 13.9868 190.293 13.9831 190.158 14.0111C189.834 14.02 189.523 14.141 189.278 14.3534C188.903 14.8893 188.645 15.4984 188.521 16.1407C188.248 17.2481 188.092 18.3811 188.056 19.521C188 20.9207 188.163 22.3207 188.538 23.6703C188.665 24.0548 188.843 24.5154 189.075 25.0985C189.186 25.4548 189.358 25.7893 189.583 26.0872V26.0872Z" fill="#EC3205"/>
<path d="M101.053 7.28038C101.556 7.7458 101.949 8.31722 102.203 8.95322C102.539 9.73221 102.765 10.5542 102.875 11.3954C103.004 12.3694 103.063 13.3516 103.049 14.3341C103.04 15.3929 102.942 16.4491 102.758 17.4919C102.574 18.5338 102.331 19.5642 102.029 20.5782C101.753 21.5171 101.362 22.4185 100.865 23.2619C100.417 24.0186 99.8791 24.7185 99.263 25.3463C98.7306 25.9054 98.0486 26.2997 97.2982 26.4824C96.5268 26.6564 95.7233 26.6271 94.9665 26.3974C94.9176 26.3933 94.8695 26.3828 94.8233 26.3661C94.6612 26.702 94.3963 26.9777 94.067 27.1533C93.821 27.2787 93.554 27.3576 93.2793 27.3859C93.0492 27.4067 92.8176 27.3666 92.608 27.2696C92.4231 27.1716 92.2528 27.0481 92.1022 26.9028C91.924 26.7434 91.7728 26.5561 91.6547 26.3482C91.5294 26.1156 91.4175 25.8875 91.319 25.6638C91.217 25.4188 91.1347 25.166 91.0729 24.9079C91.0057 24.6261 90.9476 24.3891 90.8983 24.1923C90.8431 23.9726 90.7998 23.7501 90.7686 23.5258C90.0476 19.1818 89.8329 14.769 90.1286 10.3756C90.1313 10.2574 90.1403 10.1395 90.1554 10.0222C90.1554 9.57496 90.1957 9.23948 90.2136 9.00689C90.2457 8.68752 90.2995 8.37071 90.3747 8.05865C90.4299 7.74008 90.5486 7.43586 90.7238 7.16408C90.8905 6.93941 91.1104 6.75961 91.3638 6.64076C91.6852 6.48607 92.042 6.41969 92.3976 6.44843C92.6671 6.49302 92.9273 6.5822 93.1674 6.71231C93.3753 6.83088 93.5435 7.00831 93.6507 7.22223C93.7679 7.4405 93.8495 7.67604 93.8924 7.91999C93.9345 8.26718 93.948 8.61726 93.9327 8.96665C93.9327 9.41394 93.9058 9.86122 93.8745 10.2772C93.8432 10.6932 93.8119 11.2746 93.7761 11.9948C93.7403 12.7149 93.7179 13.3993 93.7179 14.0612C94.3564 11.2881 95.3261 9.23203 96.6269 7.89316C97.1779 7.27047 97.9215 6.85005 98.7393 6.69891C99.1443 6.63053 99.559 6.6469 99.9573 6.74699C100.356 6.84708 100.729 7.0287 101.053 7.28038ZM92.9973 7.58453C93.0145 7.57708 93.0298 7.56603 93.0422 7.55212C93.0547 7.53821 93.064 7.52177 93.0695 7.50394C93.0751 7.4861 93.0767 7.46728 93.0742 7.44876C93.0718 7.43025 93.0654 7.41249 93.0555 7.39668C92.9396 7.22439 92.7755 7.09007 92.5837 7.01051C92.3918 6.93096 92.1808 6.90969 91.9769 6.94939C91.7574 6.97161 91.5494 7.05819 91.3789 7.19826C91.2085 7.33833 91.0834 7.52564 91.0192 7.73662C91.0077 7.77103 91.0102 7.80857 91.0261 7.84118C91.042 7.87379 91.07 7.89888 91.1042 7.91106H91.1624C91.1891 7.91178 91.2153 7.90328 91.2365 7.88699C91.2577 7.87069 91.2726 7.8476 91.2788 7.8216C91.3304 7.66416 91.427 7.52524 91.5566 7.42193C91.6862 7.31862 91.8432 7.25544 92.0083 7.24014C92.1567 7.20328 92.3131 7.21461 92.4547 7.27251C92.5964 7.33041 92.7159 7.43186 92.7959 7.56217C92.8069 7.57796 92.821 7.59123 92.8375 7.60107C92.854 7.61091 92.8724 7.61708 92.8915 7.6192C92.9106 7.62132 92.9299 7.61934 92.9482 7.61336C92.9664 7.60737 92.9832 7.59753 92.9973 7.58453ZM95.0918 24.4472C95.9869 24.3488 96.7612 23.5258 97.4236 21.9737C98.1163 20.2672 98.5841 18.478 98.8154 16.651C99.0916 14.7528 99.2039 12.8343 99.1511 10.9168C99.1359 10.5366 99.0681 10.1603 98.9497 9.7986C98.8293 9.45197 98.6193 9.14334 98.341 8.90403C98.0591 8.65802 97.6921 8.67592 97.249 8.94429C96.5267 9.46063 95.9614 10.1665 95.6155 10.9839C95.1372 11.9263 94.7577 12.9156 94.4832 13.936C94.2381 14.8489 94.0527 15.7767 93.9282 16.7136C93.8712 17.0092 93.8323 17.3079 93.8119 17.6082C93.9162 19.314 94.1104 21.013 94.3937 22.6983C94.4385 23.0235 94.5073 23.3449 94.5995 23.66C94.7159 24.1073 94.792 24.3667 94.8323 24.5009C94.9209 24.4954 95.0083 24.4773 95.0918 24.4472ZM102.078 15.7743C102.176 15.7743 102.226 15.7296 102.226 15.6312C102.381 13.2844 102.269 11.4327 101.89 10.0759C101.511 8.71915 100.895 7.92299 100.042 7.68742C100.023 7.68059 100.002 7.67787 99.9821 7.67945C99.962 7.68103 99.9423 7.68687 99.9246 7.69659C99.9068 7.70632 99.8913 7.7197 99.8791 7.73585C99.8669 7.752 99.8582 7.77055 99.8537 7.79029C99.8224 7.87527 99.8537 7.94236 99.9567 7.97814C100.732 8.17495 101.295 8.93682 101.644 10.2638C102.02 12.0207 102.122 13.8251 101.948 15.6133C101.944 15.6327 101.945 15.6527 101.949 15.6718C101.954 15.691 101.963 15.709 101.975 15.7243C101.988 15.7397 102.003 15.7522 102.021 15.7608C102.039 15.7695 102.058 15.7741 102.078 15.7743Z" fill="#EC3205"/>
<path d="M109.359 11.0053C110.541 11.3899 111.458 12.3247 112.107 13.7963C112.776 15.413 113.082 17.1567 113.003 18.9043C112.975 20.7804 112.58 22.6328 111.839 24.3567C111.536 25.1638 111.08 25.9049 110.496 26.5395C110.069 27.0231 109.506 27.3675 108.881 27.528C108.331 27.6437 107.759 27.5987 107.234 27.3983C106.63 27.1459 106.106 26.7328 105.721 26.204C105.216 25.5403 104.823 24.7984 104.557 24.0079C104.157 22.8067 103.903 21.5617 103.801 20.2998C103.682 19.0242 103.716 17.739 103.899 16.4711C104.051 15.3506 104.352 14.2554 104.795 13.2149C105.166 12.3317 105.825 11.6002 106.665 11.1394C107.08 10.9286 107.534 10.8076 107.998 10.7845C108.462 10.7614 108.926 10.8366 109.359 11.0053V11.0053ZM105.895 13.4787C105.971 13.1036 106.141 12.754 106.39 12.4634C106.64 12.1729 106.959 11.9511 107.319 11.8193C107.644 11.6461 108.008 11.5604 108.376 11.5706C108.744 11.5808 109.103 11.6866 109.418 11.8775C109.433 11.8874 109.451 11.8938 109.47 11.8962C109.488 11.8986 109.507 11.897 109.525 11.8915C109.543 11.886 109.559 11.8767 109.573 11.8642C109.587 11.8517 109.598 11.8364 109.606 11.8193C109.618 11.8034 109.626 11.785 109.631 11.7655C109.635 11.7459 109.635 11.7257 109.631 11.7062C109.626 11.6866 109.618 11.6682 109.606 11.6522C109.594 11.6362 109.578 11.6231 109.561 11.6136C109.205 11.4045 108.802 11.2894 108.389 11.2792C107.976 11.2691 107.568 11.3641 107.202 11.5554C106.8 11.7265 106.446 11.992 106.168 12.3292C105.9 12.6445 105.706 13.0159 105.6 13.4161C105.595 13.4549 105.604 13.4941 105.626 13.5268C105.647 13.5596 105.679 13.5837 105.716 13.595H105.748C105.782 13.5967 105.816 13.5859 105.843 13.5645C105.871 13.5431 105.889 13.5127 105.895 13.4787V13.4787ZM109.154 25.4526C109.503 25.6673 109.901 25.5778 110.349 25.1797C110.912 24.5839 111.33 23.8659 111.57 23.082C111.959 21.9803 112.194 20.8304 112.269 19.6647C112.363 18.4121 112.274 17.1524 112.004 15.9254C111.815 14.8013 111.323 13.7499 110.581 12.8839C110.471 12.7878 110.34 12.7185 110.199 12.6812C110.058 12.644 109.91 12.6398 109.767 12.6691C109.423 12.6786 109.092 12.8066 108.831 13.0314C108.437 13.5996 108.165 14.2441 108.035 14.9235C107.742 16.0951 107.575 17.2947 107.538 18.5018C107.478 19.9835 107.651 21.4654 108.048 22.8941C108.182 23.3012 108.37 23.7887 108.617 24.4059C108.734 24.7831 108.916 25.1372 109.154 25.4526V25.4526Z" fill="#EC3205"/>
<path d="M118.266 12.5753C118.83 11.4124 119.606 10.7236 120.593 10.5089C121.787 10.2584 122.797 10.8548 123.623 12.298C124.942 14.6299 125.339 18.5779 124.814 24.1421C124.814 24.2167 124.805 24.3419 124.787 24.5178C124.747 24.907 124.72 25.2067 124.697 25.4124C124.666 25.713 124.618 26.0116 124.554 26.307C124.496 26.6165 124.399 26.9172 124.263 27.2016C124.135 27.4384 123.985 27.663 123.816 27.8725C123.647 28.0888 123.413 28.2455 123.149 28.3198C122.844 28.4006 122.523 28.4006 122.218 28.3198C121.785 28.2348 121.4 27.9906 121.139 27.6354C120.871 27.2939 120.735 26.8662 120.759 26.4322C120.759 26.4322 120.759 26.1147 120.817 25.5377C120.875 24.9607 120.893 24.4374 120.92 23.9543C120.947 23.4712 120.983 22.7511 121.023 21.7984C121.063 20.8457 121.081 20.0092 121.081 19.2086C121.081 18.4079 121.081 17.4642 121.05 16.3012C120.99 13.5101 120.516 12.2399 119.627 12.4904C118.615 12.7647 117.984 14.6552 117.733 18.1619C117.788 19.8285 117.937 21.4907 118.181 23.1402C118.236 23.5069 118.314 23.8699 118.414 24.2271C118.523 24.635 118.61 25.0486 118.673 25.4661C118.706 25.8067 118.657 26.1503 118.53 26.468C118.396 26.8486 118.127 27.1668 117.774 27.3626C117.519 27.4873 117.242 27.5603 116.959 27.5773C116.734 27.5946 116.507 27.5545 116.301 27.461C116.1 27.3633 115.922 27.2247 115.778 27.054C115.616 26.8763 115.475 26.6813 115.357 26.4725C115.23 26.2493 115.123 26.0158 115.035 25.7747C114.941 25.5153 114.86 25.2693 114.802 25.0501C114.744 24.831 114.686 24.6028 114.628 24.3345C113.982 20.6579 113.786 16.9164 114.046 13.1926C114.046 12.8258 114.082 12.5887 114.09 12.4814C114.099 12.374 114.126 12.1504 114.162 11.8105C114.183 11.5625 114.232 11.3179 114.31 11.0814C114.368 10.9383 114.449 10.7459 114.556 10.4999C114.634 10.2948 114.771 10.1173 114.95 9.99001C115.129 9.8836 115.32 9.79663 115.518 9.73058C115.766 9.65067 116.028 9.6203 116.288 9.64114C116.747 9.68328 117.171 9.90323 117.469 10.2539C117.715 10.6571 117.837 11.1239 117.819 11.5958C117.819 12.1773 117.819 12.9376 117.742 13.8322C117.89 13.4025 118.065 12.9827 118.266 12.5753V12.5753ZM117.246 12.3427C117.344 11.4124 117.179 10.7594 116.753 10.3926C116.572 10.2666 116.362 10.1896 116.142 10.1692C115.923 10.1488 115.701 10.1857 115.5 10.2763C115.402 10.3165 115.37 10.3791 115.397 10.4641C115.402 10.4835 115.411 10.5016 115.424 10.5174C115.436 10.5332 115.452 10.5463 115.469 10.5559C115.487 10.5656 115.506 10.5715 115.526 10.5734C115.546 10.5753 115.566 10.5731 115.585 10.567C115.735 10.4865 115.905 10.4493 116.075 10.4596C116.245 10.4699 116.408 10.5272 116.547 10.6251C116.914 10.9159 117.062 11.4795 116.995 12.3114C116.973 12.4098 116.995 12.459 117.111 12.459C117.228 12.459 117.246 12.4188 117.246 12.3427V12.3427ZM123.986 18.3632C124.075 18.3632 124.115 18.3274 124.115 18.2469C124.139 17.4355 124.1 16.6236 123.999 15.8182C123.913 15.085 123.763 14.3606 123.552 13.6533C123.383 13.0382 123.092 12.4633 122.697 11.9626C122.374 11.546 121.906 11.2665 121.385 11.1798C121.309 11.1574 121.26 11.1798 121.238 11.2961C121.232 11.3153 121.23 11.3356 121.233 11.3555C121.236 11.3755 121.243 11.3945 121.254 11.4113C121.265 11.428 121.28 11.4421 121.297 11.4523C121.315 11.4626 121.334 11.4688 121.354 11.4705C122.133 11.5868 122.742 12.2488 123.189 13.461C123.686 15.0058 123.914 16.6249 123.86 18.2469C123.878 18.3274 123.901 18.3632 123.986 18.3632V18.3632Z" fill="#EC3205"/>
<path d="M260.174 16.1582C263.322 16.1582 265.365 13.8431 266.028 13.2367C265.181 17.7384 260.958 26.7419 250.841 26.7419C240.725 26.7419 236.833 21.1744 236.152 18.4734C235.268 21.0642 231.723 26.7419 221.297 26.7419C210.871 26.7419 206.755 17.6282 206 13.0713C206.46 14.1003 208.275 16.1582 211.854 16.1582C216.327 16.1582 220.8 8 227.316 8C231.381 8 234.9 11.1604 236.152 12.7406C237.109 11.1604 240.183 8 244.822 8C250.621 8 255.259 16.1582 260.174 16.1582Z" fill="#313638"/>
<path d="M242.052 9.43168C242.443 9.08461 243.763 8.49458 245.918 8.91107C248.072 9.32756 249.827 10.7043 250.435 11.3406" stroke="white" stroke-width="0.414986" stroke-linecap="round"/>
<path d="M208.433 17.718C209.201 19.5562 211.93 23.6384 216.697 25.262" stroke="white" stroke-width="0.414986" stroke-linecap="round"/>
</svg>
