<svg width="322" height="34" viewBox="0 0 322 34" fill="none" xmlns="http://www.w3.org/2000/svg">
<rect width="322" height="34" rx="17" fill="#FFF485"/>
<path d="M139.669 20.6582C140.439 21.6319 141.095 22.6909 141.622 23.8145C141.827 24.2285 141.953 24.677 141.994 25.1371C142.043 25.5912 141.972 26.0502 141.787 26.4681C141.709 26.6618 141.586 26.8342 141.428 26.9709C141.27 27.1076 141.081 27.2046 140.878 27.254C140.58 27.3265 140.267 27.3162 139.974 27.2244C139.725 27.1461 139.492 27.026 139.284 26.8694C139.057 26.6628 138.87 26.4147 138.735 26.1385C138.553 25.8004 138.414 25.5216 138.312 25.2934C138.211 25.0652 138.092 24.7526 137.927 24.33C137.872 24.1483 137.826 24.0089 137.792 23.9075C137.483 23.1743 137.086 22.4818 136.608 21.8455C136.373 21.6023 136.083 21.4184 135.763 21.3089C135.46 21.2076 135.193 21.0213 134.993 20.7723C135.082 21.6723 135.205 22.5596 135.348 23.4385C135.405 23.806 135.488 24.169 135.598 24.5244C135.72 24.9404 135.816 25.3638 135.885 25.792C135.928 26.1395 135.89 26.4921 135.775 26.823C135.654 27.1893 135.392 27.493 135.048 27.668C134.816 27.7865 134.564 27.861 134.304 27.8878C134.088 27.9079 133.871 27.87 133.674 27.7779C133.492 27.6886 133.326 27.5717 133.18 27.4314C133.009 27.2794 132.866 27.0993 132.757 26.899C132.638 26.6793 132.533 26.4638 132.44 26.2526C132.343 26.0211 132.266 25.7823 132.207 25.5385C132.144 25.2723 132.089 25.0483 132.042 24.8624C131.99 24.6549 131.949 24.4447 131.92 24.2328C131.239 20.1292 131.036 15.9606 131.315 11.8103C131.318 11.6987 131.326 11.5872 131.34 11.4765C131.34 11.0539 131.378 10.737 131.395 10.5173C131.426 10.2156 131.477 9.91635 131.548 9.62156C131.604 9.3217 131.715 9.03503 131.877 8.77649C132.036 8.56521 132.243 8.39555 132.482 8.2821C132.786 8.13597 133.123 8.07326 133.459 8.10041C133.711 8.14267 133.956 8.22242 134.186 8.33703C134.373 8.44191 134.522 8.6051 134.609 8.80184C134.707 9.01237 134.781 9.23355 134.828 9.46099C134.908 9.78647 134.955 10.1191 134.968 10.4539C134.968 10.8765 134.938 11.2652 134.913 11.6497C134.888 12.0342 134.849 12.5582 134.816 13.2173C134.782 13.8765 134.761 14.4849 134.761 15.0849C134.888 14.4089 135.044 13.7582 135.226 13.1328C135.408 12.5075 135.649 11.9032 135.873 11.3075C136.088 10.7755 136.36 10.2683 136.684 9.79479C136.965 9.39441 137.304 9.03834 137.691 8.73845C138.027 8.45753 138.445 8.293 138.883 8.26944C139.36 8.26168 139.832 8.36587 140.261 8.57365C140.688 8.81932 141.062 9.14706 141.362 9.53795C141.662 9.92883 141.881 10.3751 142.007 10.8511C142.385 11.9927 142.538 13.1964 142.46 14.3962C142.388 15.6551 142.102 16.8926 141.614 18.0554C141.227 19.0905 140.552 19.9935 139.669 20.6582V20.6582ZM134.363 10.7328C134.453 9.85393 134.297 9.24126 133.894 8.89478C133.723 8.77505 133.525 8.7016 133.317 8.68161C133.11 8.66161 132.901 8.69574 132.71 8.78069C132.621 8.81872 132.588 8.87787 132.617 8.96238C132.622 8.98068 132.631 8.99783 132.642 9.01274C132.654 9.02765 132.668 9.04001 132.685 9.04911C132.702 9.0582 132.72 9.06381 132.739 9.06561C132.758 9.06741 132.777 9.06537 132.795 9.05958C132.936 8.9811 133.096 8.94457 133.257 8.9543C133.418 8.96404 133.573 9.01963 133.704 9.11451C134.05 9.38916 134.186 9.91731 134.127 10.7075C134.127 10.8004 134.127 10.8427 134.236 10.8427C134.346 10.8427 134.363 10.8089 134.363 10.7328V10.7328ZM136.507 11.6159C135.903 12.8222 135.491 14.1152 135.285 15.4483C135.038 16.6934 134.897 17.957 134.862 19.2258C134.919 19.1486 134.994 19.0861 135.08 19.0435C135.166 19.0009 135.261 18.9794 135.357 18.9807C135.596 18.9855 135.832 19.0268 136.059 19.1032C136.249 19.1715 136.448 19.2128 136.651 19.2258C136.997 19.2258 137.361 18.9342 137.737 18.3469C138.149 17.6808 138.463 16.9595 138.671 16.2046C138.919 15.369 139.094 14.5138 139.196 13.6483C139.303 12.8868 139.26 12.1115 139.069 11.3666C138.886 10.7075 138.556 10.323 138.08 10.2131C137.589 10.1032 137.056 10.568 136.507 11.6159V11.6159ZM139.986 9.6638C139.975 9.67851 139.967 9.69554 139.963 9.71368C139.959 9.73182 139.959 9.75062 139.963 9.76876C139.967 9.78691 139.975 9.80395 139.986 9.81867C139.998 9.83339 140.012 9.84543 140.029 9.85395C140.681 10.36 141.131 11.0823 141.297 11.8906C141.555 12.8951 141.607 13.9415 141.449 14.9666C141.327 15.973 140.983 16.9398 140.443 17.7976C140.429 17.8112 140.419 17.8277 140.413 17.8459C140.408 17.8641 140.406 17.8833 140.409 17.9022C140.412 17.9211 140.419 17.9391 140.43 17.9546C140.441 17.9702 140.456 17.983 140.472 17.992H140.553C140.574 17.9943 140.596 17.9903 140.616 17.9806C140.635 17.9708 140.652 17.9557 140.663 17.9371C141.237 17.0446 141.6 16.033 141.724 14.9793C141.881 13.9062 141.819 12.8123 141.542 11.7638C141.358 10.9152 140.87 10.1634 140.168 9.65111C140.158 9.63593 140.143 9.62376 140.127 9.61575C140.11 9.60775 140.092 9.60421 140.074 9.60549C140.055 9.60677 140.037 9.61282 140.022 9.62305C140.007 9.63328 139.994 9.64733 139.986 9.6638V9.6638Z" fill="#EC3205"/>
<path d="M150.78 22.0565C150.983 22.0565 151.072 22.2677 151.055 22.6353C150.999 23.3868 150.836 24.1266 150.573 24.8325C150.374 25.3951 150.066 25.9133 149.668 26.3579C149.332 26.7135 148.93 27.0005 148.484 27.2029C148.066 27.3923 147.606 27.4723 147.148 27.4353C146.675 27.3895 146.218 27.2456 145.804 27.0128C144.681 26.3492 143.854 25.2822 143.491 24.0297C142.995 22.6036 142.772 21.0973 142.832 19.5888C142.873 18.1324 143.124 16.6895 143.576 15.3043C143.857 14.2595 144.384 13.2974 145.115 12.4987C145.592 11.9387 146.268 11.5845 147 11.51C147.63 11.4977 148.244 11.7122 148.729 12.1142C149.294 12.5687 149.71 13.1805 149.926 13.8719C150.309 15.1101 150.38 16.4236 150.133 17.6959C149.915 18.8699 149.451 19.9845 148.772 20.9663C148.285 21.7584 147.538 22.3561 146.658 22.6564C146.73 23.2848 146.916 23.8948 147.207 24.4565C147.381 24.8286 147.691 25.1193 148.074 25.2677C148.387 25.3597 148.722 25.3449 149.025 25.2255C149.367 25.0779 149.655 24.8285 149.85 24.5114C150.097 24.126 150.266 23.695 150.344 23.2438C150.344 23.21 150.344 23.1086 150.344 22.9438C150.351 22.8023 150.365 22.6613 150.387 22.5212C150.407 22.4047 150.448 22.293 150.509 22.1917C150.538 22.1466 150.578 22.1101 150.626 22.0863C150.673 22.0624 150.727 22.0521 150.78 22.0565V22.0565ZM145.284 13.8677C145.38 13.5375 145.559 13.2375 145.805 12.997C146.051 12.7564 146.355 12.5833 146.687 12.4945C146.956 12.39 147.247 12.3577 147.532 12.4007C147.817 12.4437 148.085 12.5605 148.311 12.7395C148.322 12.7537 148.337 12.765 148.353 12.7729C148.37 12.7807 148.388 12.7848 148.406 12.7848C148.424 12.7848 148.442 12.7807 148.459 12.7729C148.475 12.765 148.49 12.7537 148.501 12.7395C148.555 12.6747 148.546 12.6156 148.476 12.5621C148.219 12.3489 147.912 12.2063 147.583 12.1485C147.255 12.0907 146.917 12.1197 146.603 12.2325C146.229 12.3352 145.888 12.5333 145.614 12.8073C145.339 13.0814 145.141 13.4221 145.038 13.7959C145.017 13.8888 145.038 13.9438 145.119 13.9607H145.174C145.2 13.9608 145.225 13.9515 145.244 13.9343C145.264 13.9172 145.276 13.8935 145.279 13.8677H145.284ZM146.383 10.2677C146.291 10.2633 146.201 10.2323 146.126 10.1783C146.051 10.1243 145.994 10.0496 145.96 9.96348C145.887 9.85952 145.849 9.73541 145.85 9.60854V9.4691C145.858 9.36584 145.896 9.2672 145.96 9.18601L148.074 6.32966C148.13 6.23169 148.211 6.14986 148.308 6.09212C148.405 6.03437 148.515 6.00268 148.628 6.0001C148.759 5.99789 148.887 6.03285 148.999 6.10094C149.11 6.16902 149.2 6.2674 149.258 6.38459C149.365 6.55732 149.422 6.75617 149.423 6.95924C149.423 6.99726 149.423 7.08178 149.423 7.20854C149.391 7.38242 149.31 7.54364 149.19 7.67332L146.713 10.1198C146.671 10.1662 146.62 10.2033 146.564 10.2288C146.507 10.2543 146.445 10.2675 146.383 10.2677ZM146.907 16.2043C146.474 17.7783 146.307 19.4134 146.412 21.0424C146.484 21.0424 146.611 20.9959 146.797 20.9578C146.96 20.9261 147.121 20.8852 147.279 20.8353C147.398 20.7962 147.513 20.7452 147.622 20.6832C148.467 20.1719 149.046 19.2381 149.423 17.8945C149.807 16.7757 149.807 15.5611 149.423 14.4424C149.329 14.2212 149.199 14.017 149.038 13.8381C148.881 13.6627 148.681 13.5304 148.459 13.4536C148.343 13.4205 148.22 13.4239 148.107 13.4632C147.993 13.5025 147.895 13.5759 147.825 13.6733C147.537 13.9494 147.23 14.793 146.903 16.2043H146.907Z" fill="#EC3205"/>
<path d="M164.693 16.3138C165.36 16.5547 165.914 17.0332 166.249 17.6575C166.662 18.3958 166.923 19.2087 167.018 20.049C167.134 20.9245 167.189 21.8068 167.183 22.6899C167.175 23.5257 167.125 24.3606 167.031 25.1913C166.976 25.5589 166.925 25.8547 166.879 26.0828C166.822 26.3697 166.744 26.6522 166.646 26.9279C166.565 27.1996 166.429 27.4524 166.249 27.6716C166.072 27.8579 165.855 28.0023 165.615 28.0941C165.312 28.2057 164.982 28.2248 164.668 28.149C164.312 28.0643 163.99 27.8726 163.746 27.5997C163.504 27.3334 163.355 26.995 163.323 26.6363C163.295 26.2351 163.328 25.8319 163.421 25.4406C163.488 25.1365 163.539 24.829 163.573 24.5194C163.727 23.1321 163.768 21.7346 163.695 20.3406C163.611 19.318 163.471 18.6842 163.273 18.4476C163.211 18.3873 163.141 18.3361 163.065 18.2955C162.972 18.2436 162.87 18.2065 162.765 18.1856C162.643 18.156 162.516 18.156 162.393 18.1856C162.24 18.2264 162.101 18.3117 161.996 18.4307C161.84 18.5924 161.705 18.7726 161.594 18.9673C161.623 20.4924 161.541 22.0175 161.349 23.5307C161.343 23.6044 161.333 23.6777 161.319 23.7504C161.281 24.173 161.248 24.4688 161.209 24.6969C161.153 25.0047 161.075 25.3082 160.977 25.6054C160.89 25.9063 160.756 26.1915 160.58 26.4504C160.4 26.6636 160.171 26.829 159.912 26.9321C159.592 27.0606 159.241 27.0886 158.905 27.0124C158.541 26.9352 158.207 26.753 157.946 26.4885C157.728 26.255 157.587 25.9598 157.544 25.6434C157.5 25.1853 157.5 24.724 157.544 24.2659C157.582 23.6913 157.641 23.0955 157.722 22.4828C157.802 21.8701 157.87 21.0716 157.916 20.0913C157.963 19.111 157.967 18.1434 157.916 17.1884V16.5039C157.916 16.1194 157.916 15.811 157.891 15.5828C157.865 15.3546 157.84 15.0842 157.793 14.7715C157.769 14.5208 157.683 14.28 157.544 14.0701C157.493 13.9976 157.425 13.9385 157.347 13.898C157.268 13.8575 157.18 13.8368 157.092 13.8377C156.612 13.8377 156.236 14.3279 155.963 15.3082C155.652 16.519 155.459 17.7573 155.388 19.0053C155.448 20.6622 155.603 22.3142 155.853 23.9533C155.907 24.2993 155.981 24.642 156.073 24.98C156.177 25.3653 156.26 25.7561 156.322 26.1504C156.352 26.4725 156.304 26.797 156.183 27.0969C156.057 27.4572 155.803 27.7583 155.468 27.942C155.256 28.0445 155.029 28.1129 154.796 28.1448C154.607 28.1774 154.413 28.1584 154.234 28.0899C154.066 28.0258 153.908 27.9391 153.764 27.8321C153.609 27.7142 153.475 27.5715 153.367 27.4096C153.247 27.2395 153.141 27.06 153.05 26.873C152.953 26.6775 152.869 26.4757 152.8 26.2687C152.728 26.049 152.669 25.8462 152.623 25.6645C152.576 25.4828 152.534 25.2885 152.5 25.0856C151.89 21.6125 151.705 18.078 151.951 14.5603C151.967 14.2138 151.98 13.9899 151.989 13.8884C151.989 13.787 152.022 13.5758 152.06 13.2546C152.077 13.0204 152.123 12.7891 152.196 12.5659C152.251 12.4307 152.331 12.249 152.428 12.0166C152.503 11.8235 152.632 11.6562 152.8 11.5349C152.97 11.4344 153.15 11.3522 153.337 11.2898C153.573 11.2141 153.822 11.1854 154.069 11.2054C154.477 11.2531 154.856 11.443 155.138 11.742C155.381 12.0785 155.507 12.485 155.498 12.8997C155.498 13.4025 155.498 14.049 155.468 14.8349C155.544 14.5732 155.636 14.3164 155.743 14.0659C156.239 12.9391 156.927 12.2617 157.806 12.0335C158.849 11.7744 159.72 12.2687 160.419 13.5166C161.062 14.7798 161.428 16.1656 161.493 17.5814C162.288 16.2631 163.354 15.8406 164.693 16.3138ZM154.969 13.7025C155.041 12.8237 154.876 12.2068 154.475 11.8603C154.304 11.7412 154.105 11.6685 153.897 11.6493C153.69 11.63 153.481 11.6649 153.291 11.7504C153.202 11.7884 153.168 11.8476 153.198 11.9279C153.202 11.9465 153.21 11.964 153.222 11.9793C153.233 11.9946 153.248 12.0072 153.265 12.0164C153.281 12.0256 153.3 12.0311 153.319 12.0326C153.338 12.0341 153.357 12.0315 153.375 12.025C153.522 11.95 153.686 11.9155 153.85 11.9252C154.014 11.9348 154.173 11.9883 154.31 12.08C154.639 12.3546 154.766 12.887 154.694 13.6729C154.694 13.7659 154.694 13.8124 154.804 13.8124H154.838C154.855 13.8154 154.873 13.8149 154.889 13.8109C154.906 13.807 154.922 13.7996 154.936 13.7893C154.95 13.779 154.961 13.766 154.97 13.7511C154.979 13.7362 154.984 13.7197 154.986 13.7025H154.969ZM160.854 19.3899C160.947 19.3899 160.994 19.3561 160.994 19.28C160.996 18.513 160.95 17.7467 160.854 16.9856C160.771 16.2934 160.629 15.6093 160.432 14.9406C160.272 14.3586 159.996 13.8151 159.62 13.3434C159.324 12.954 158.892 12.69 158.411 12.6039C158.393 12.5973 158.373 12.595 158.354 12.5972C158.335 12.5995 158.316 12.6063 158.3 12.617C158.284 12.6277 158.271 12.642 158.261 12.6589C158.252 12.6757 158.247 12.6945 158.246 12.7138C158.24 12.7319 158.238 12.7511 158.241 12.77C158.244 12.7888 158.251 12.8068 158.261 12.8226C158.272 12.8384 158.286 12.8517 158.302 12.8614C158.318 12.8711 158.337 12.8769 158.356 12.8786C159.091 12.9884 159.671 13.6138 160.102 14.7589C160.579 16.2163 160.79 17.7479 160.723 19.28C160.757 19.3561 160.778 19.3899 160.871 19.3899H160.854Z" fill="#EC3205"/>
<path d="M173.111 12.439C174.227 12.8024 175.094 13.6855 175.707 15.0756C176.338 16.6028 176.627 18.25 176.552 19.901C176.526 21.6732 176.153 23.4231 175.453 25.0517C175.167 25.814 174.736 26.5141 174.185 27.1136C173.781 27.5705 173.249 27.8958 172.658 28.0475C172.139 28.1568 171.599 28.1142 171.103 27.9249C170.532 27.6865 170.038 27.2963 169.674 26.7967C169.196 26.1697 168.825 25.4689 168.574 24.7221C168.196 23.5874 167.956 22.4113 167.86 21.2193C167.748 20.0142 167.779 18.8001 167.953 17.6024C168.096 16.5439 168.38 15.5093 168.798 14.5263C169.149 13.6921 169.772 13.001 170.566 12.5657C170.957 12.3665 171.386 12.2523 171.825 12.2304C172.263 12.2086 172.702 12.2797 173.111 12.439V12.439ZM169.838 14.7756C169.91 14.4212 170.071 14.0909 170.306 13.8165C170.541 13.542 170.843 13.3325 171.183 13.208C171.49 13.0444 171.834 12.9634 172.182 12.9731C172.529 12.9827 172.868 13.0826 173.166 13.2629C173.181 13.2723 173.198 13.2783 173.215 13.2806C173.233 13.2829 173.25 13.2814 173.267 13.2762C173.284 13.2709 173.3 13.2622 173.313 13.2504C173.326 13.2386 173.336 13.2242 173.343 13.208C173.355 13.1929 173.363 13.1756 173.367 13.1571C173.371 13.1387 173.371 13.1196 173.367 13.1011C173.363 13.0826 173.355 13.0652 173.344 13.0501C173.332 13.035 173.318 13.0226 173.301 13.0136C172.965 12.8161 172.584 12.7074 172.194 12.6978C171.804 12.6882 171.418 12.778 171.073 12.9587C170.693 13.1203 170.358 13.3711 170.096 13.6897C169.843 13.9875 169.659 14.3384 169.559 14.7165C169.555 14.7531 169.563 14.7901 169.584 14.821C169.604 14.852 169.634 14.8748 169.669 14.8855H169.699C169.732 14.887 169.764 14.8768 169.789 14.8566C169.815 14.8364 169.832 14.8076 169.838 14.7756ZM172.916 26.0869C173.246 26.2897 173.622 26.2052 174.045 25.8291C174.577 25.2662 174.972 24.588 175.199 23.8474C175.566 22.8067 175.788 21.7205 175.859 20.6193C175.948 19.4359 175.864 18.246 175.609 17.0869C175.43 16.025 174.966 15.0318 174.265 14.2136C174.161 14.1229 174.037 14.0574 173.904 14.0222C173.771 13.987 173.631 13.9831 173.496 14.0108C173.17 14.0198 172.858 14.1407 172.612 14.3531C172.239 14.8898 171.983 15.4986 171.859 16.1404C171.582 17.2472 171.425 18.3804 171.39 19.5207C171.334 20.9204 171.496 22.3203 171.872 23.67C171.999 24.0545 172.176 24.515 172.409 25.0981C172.52 25.4544 172.692 25.7889 172.916 26.0869Z" fill="#EC3205"/>
<path d="M184.328 25.5767C184.657 25.7584 184.67 26.0711 184.357 26.5105C184.01 27.0597 183.514 27.5002 182.928 27.7818C182.342 28.0635 181.689 28.175 181.043 28.1035C180.618 28.1224 180.194 28.0516 179.798 27.8958C179.403 27.74 179.045 27.5027 178.747 27.1993C178.249 26.5352 177.931 25.7535 177.825 24.9303C177.601 23.7151 177.49 22.4815 177.496 21.2457C177.496 19.8655 177.51 18.7021 177.538 17.7556C177.566 16.8091 177.621 15.8711 177.703 14.9415C177.703 14.8655 177.703 14.6753 177.728 14.3626C177.753 14.05 177.762 13.8303 177.77 13.7035C177.779 13.5767 177.808 13.3655 177.855 13.0697C177.879 12.8474 177.934 12.6297 178.02 12.4232C178.083 12.288 178.164 12.119 178.265 11.9162C178.348 11.7442 178.477 11.5981 178.637 11.4936C178.801 11.3939 178.977 11.3157 179.161 11.2612C179.393 11.1937 179.635 11.1694 179.876 11.1894C180.094 11.2111 180.306 11.2761 180.499 11.3806C180.692 11.485 180.863 11.6269 181 11.7979C181.244 12.197 181.355 12.6629 181.317 13.1288C181.317 13.7077 181.267 14.4387 181.195 15.326C181.123 16.2134 181.055 17.2824 181 18.5288C180.951 19.9678 180.987 21.4084 181.11 22.8429C181.11 22.9359 181.212 23.5866 181.415 24.7951C181.434 24.9795 181.503 25.1554 181.614 25.3041C181.724 25.4528 181.873 25.5689 182.045 25.6401C182.741 25.9697 183.227 26.0796 183.503 25.9697L183.71 25.8303C183.779 25.7863 183.844 25.7368 183.905 25.6824C183.958 25.6296 184.023 25.5918 184.095 25.5725C184.132 25.5565 184.172 25.5485 184.212 25.5493C184.252 25.55 184.292 25.5594 184.328 25.5767ZM180.726 13.7035C180.819 12.8246 180.654 12.2077 180.231 11.8612C180.066 11.7416 179.872 11.6683 179.669 11.6489C179.466 11.6296 179.261 11.665 179.077 11.7514C178.984 11.7894 178.954 11.8486 178.98 11.9288C178.984 11.9476 178.993 11.9652 179.005 11.9805C179.017 11.9958 179.032 12.0084 179.049 12.0175C179.066 12.0267 179.085 12.0322 179.104 12.0336C179.124 12.0351 179.143 12.0325 179.161 12.026C179.302 11.9484 179.461 11.9124 179.622 11.9221C179.782 11.9318 179.936 11.9869 180.066 12.0809C180.417 12.3556 180.552 12.888 180.489 13.6739C180.468 13.7669 180.489 13.8134 180.599 13.8134C180.709 13.8134 180.726 13.7753 180.726 13.7035V13.7035Z" fill="#EC3205"/>
<path d="M189.773 12.4391C190.894 12.8024 191.76 13.6855 192.373 15.0757C193.012 16.6013 193.308 18.2485 193.24 19.901C193.212 21.673 192.839 23.4226 192.141 25.0517C191.853 25.8134 191.423 26.5133 190.873 27.1137C190.468 27.5698 189.937 27.8949 189.346 28.0475C188.827 28.1571 188.287 28.1145 187.79 27.925C187.22 27.6866 186.726 27.2964 186.361 26.7968C185.884 26.1698 185.513 25.469 185.262 24.7222C184.885 23.5871 184.643 22.4113 184.544 21.2193C184.435 20.014 184.468 18.8002 184.641 17.6024C184.789 16.5425 185.08 15.5077 185.507 14.5264C185.847 13.7018 186.452 13.0145 187.228 12.5743C187.619 12.3732 188.048 12.2572 188.486 12.2339C188.925 12.2106 189.364 12.2805 189.773 12.4391V12.4391ZM186.501 14.7757C186.573 14.4208 186.734 14.0902 186.97 13.8157C187.207 13.5412 187.509 13.332 187.85 13.2081C188.156 13.0444 188.499 12.9634 188.846 12.9731C189.193 12.9827 189.532 13.0826 189.828 13.263C189.844 13.2724 189.861 13.2785 189.878 13.2808C189.896 13.2831 189.914 13.2816 189.932 13.2764C189.949 13.2712 189.965 13.2625 189.978 13.2507C189.992 13.2389 190.003 13.2244 190.01 13.2081C190.021 13.1928 190.028 13.1754 190.032 13.1571C190.036 13.1388 190.036 13.1199 190.032 13.1016C190.028 13.0833 190.02 13.0661 190.009 13.051C189.998 13.0359 189.984 13.0231 189.968 13.0137C189.632 12.8162 189.251 12.7075 188.861 12.6979C188.471 12.6883 188.085 12.7781 187.74 12.9588C187.36 13.1204 187.025 13.3712 186.763 13.6897C186.51 13.9876 186.326 14.3385 186.226 14.7165C186.222 14.7531 186.23 14.7902 186.25 14.8211C186.27 14.852 186.301 14.8748 186.336 14.8855H186.366C186.398 14.888 186.43 14.8779 186.455 14.8575C186.48 14.8371 186.497 14.8078 186.501 14.7757V14.7757ZM189.583 26.087C189.913 26.2898 190.289 26.2053 190.712 25.8292C191.244 25.2663 191.639 24.5881 191.866 23.8475C192.233 22.8068 192.455 21.7205 192.526 20.6193C192.613 19.436 192.529 18.2464 192.276 17.0869C192.093 16.0262 191.629 15.0339 190.932 14.2137C190.827 14.1226 190.703 14.0569 190.569 14.0217C190.434 13.9865 190.294 13.9828 190.158 14.0109C189.834 14.0198 189.523 14.1407 189.279 14.3531C188.903 14.889 188.645 15.4981 188.522 16.1405C188.249 17.2478 188.093 18.3808 188.057 19.5208C188.001 20.9205 188.163 22.3204 188.539 23.6701C188.666 24.0546 188.843 24.5151 189.076 25.0982C189.187 25.4545 189.358 25.789 189.583 26.087V26.087Z" fill="#EC3205"/>
<path d="M101.053 7.28038C101.556 7.7458 101.949 8.31722 102.203 8.95322C102.539 9.73221 102.765 10.5542 102.875 11.3954C103.004 12.3694 103.063 13.3516 103.049 14.3341C103.04 15.3929 102.942 16.4491 102.758 17.4919C102.574 18.5338 102.331 19.5642 102.029 20.5782C101.753 21.5171 101.362 22.4185 100.865 23.2619C100.417 24.0186 99.8791 24.7185 99.263 25.3463C98.7306 25.9054 98.0486 26.2997 97.2982 26.4824C96.5268 26.6564 95.7233 26.6271 94.9665 26.3974C94.9176 26.3933 94.8695 26.3828 94.8233 26.3661C94.6612 26.702 94.3963 26.9777 94.067 27.1533C93.821 27.2787 93.554 27.3576 93.2793 27.3859C93.0492 27.4067 92.8176 27.3666 92.608 27.2696C92.4231 27.1716 92.2528 27.0481 92.1022 26.9028C91.924 26.7434 91.7728 26.5561 91.6547 26.3482C91.5294 26.1156 91.4175 25.8875 91.319 25.6638C91.217 25.4188 91.1347 25.166 91.0729 24.9079C91.0057 24.6261 90.9476 24.3891 90.8983 24.1923C90.8431 23.9726 90.7998 23.7501 90.7686 23.5258C90.0476 19.1818 89.8329 14.769 90.1286 10.3756C90.1313 10.2574 90.1403 10.1395 90.1554 10.0222C90.1554 9.57496 90.1957 9.23948 90.2136 9.00689C90.2457 8.68752 90.2995 8.37071 90.3747 8.05865C90.4299 7.74008 90.5486 7.43586 90.7238 7.16408C90.8905 6.93941 91.1104 6.75961 91.3638 6.64076C91.6852 6.48607 92.042 6.41969 92.3976 6.44843C92.6671 6.49302 92.9273 6.5822 93.1674 6.71231C93.3753 6.83088 93.5435 7.00831 93.6507 7.22223C93.7679 7.4405 93.8495 7.67604 93.8924 7.91999C93.9345 8.26718 93.948 8.61726 93.9327 8.96665C93.9327 9.41394 93.9058 9.86122 93.8745 10.2772C93.8432 10.6932 93.8119 11.2746 93.7761 11.9948C93.7403 12.7149 93.7179 13.3993 93.7179 14.0612C94.3564 11.2881 95.3261 9.23203 96.6269 7.89316C97.1779 7.27047 97.9215 6.85005 98.7393 6.69891C99.1443 6.63053 99.559 6.6469 99.9573 6.74699C100.356 6.84708 100.729 7.0287 101.053 7.28038ZM92.9973 7.58453C93.0145 7.57708 93.0298 7.56603 93.0422 7.55212C93.0547 7.53821 93.064 7.52177 93.0695 7.50394C93.0751 7.4861 93.0767 7.46728 93.0742 7.44876C93.0718 7.43025 93.0654 7.41249 93.0555 7.39668C92.9396 7.22439 92.7755 7.09007 92.5837 7.01051C92.3918 6.93096 92.1808 6.90969 91.9769 6.94939C91.7574 6.97161 91.5494 7.05819 91.3789 7.19826C91.2085 7.33833 91.0834 7.52564 91.0192 7.73662C91.0077 7.77103 91.0102 7.80857 91.0261 7.84118C91.042 7.87379 91.07 7.89888 91.1042 7.91106H91.1624C91.1891 7.91178 91.2153 7.90328 91.2365 7.88699C91.2577 7.87069 91.2726 7.8476 91.2788 7.8216C91.3304 7.66416 91.427 7.52524 91.5566 7.42193C91.6862 7.31862 91.8432 7.25544 92.0083 7.24014C92.1567 7.20328 92.3131 7.21461 92.4547 7.27251C92.5964 7.33041 92.7159 7.43186 92.7959 7.56217C92.8069 7.57796 92.821 7.59123 92.8375 7.60107C92.854 7.61091 92.8724 7.61708 92.8915 7.6192C92.9106 7.62132 92.9299 7.61934 92.9482 7.61336C92.9664 7.60737 92.9832 7.59753 92.9973 7.58453ZM95.0918 24.4472C95.9869 24.3488 96.7612 23.5258 97.4236 21.9737C98.1163 20.2672 98.5841 18.478 98.8154 16.651C99.0916 14.7528 99.2039 12.8343 99.1511 10.9168C99.1359 10.5366 99.0681 10.1603 98.9497 9.7986C98.8293 9.45197 98.6193 9.14334 98.341 8.90403C98.0591 8.65802 97.6921 8.67592 97.249 8.94429C96.5267 9.46063 95.9614 10.1665 95.6155 10.9839C95.1372 11.9263 94.7577 12.9156 94.4832 13.936C94.2381 14.8489 94.0527 15.7767 93.9282 16.7136C93.8712 17.0092 93.8323 17.3079 93.8119 17.6082C93.9162 19.314 94.1104 21.013 94.3937 22.6983C94.4385 23.0235 94.5073 23.3449 94.5995 23.66C94.7159 24.1073 94.792 24.3667 94.8323 24.5009C94.9209 24.4954 95.0083 24.4773 95.0918 24.4472ZM102.078 15.7743C102.176 15.7743 102.226 15.7296 102.226 15.6312C102.381 13.2844 102.269 11.4327 101.89 10.0759C101.511 8.71915 100.895 7.92299 100.042 7.68742C100.023 7.68059 100.002 7.67787 99.9821 7.67945C99.962 7.68103 99.9423 7.68687 99.9246 7.69659C99.9068 7.70632 99.8913 7.7197 99.8791 7.73585C99.8669 7.752 99.8582 7.77055 99.8537 7.79029C99.8224 7.87527 99.8537 7.94236 99.9567 7.97814C100.732 8.17495 101.295 8.93682 101.644 10.2638C102.02 12.0207 102.122 13.8251 101.948 15.6133C101.944 15.6327 101.945 15.6527 101.949 15.6718C101.954 15.691 101.963 15.709 101.975 15.7243C101.988 15.7397 102.003 15.7522 102.021 15.7608C102.039 15.7695 102.058 15.7741 102.078 15.7743Z" fill="#EC3205"/>
<path d="M109.36 11.0051C110.541 11.3898 111.459 12.3246 112.108 13.7962C112.777 15.4129 113.082 17.1566 113.003 18.9042C112.976 20.7802 112.58 22.6327 111.839 24.3566C111.536 25.1636 111.08 25.9047 110.497 26.5394C110.069 27.023 109.506 27.3673 108.881 27.5279C108.331 27.6436 107.759 27.5985 107.234 27.3981C106.63 27.1458 106.107 26.7327 105.721 26.2039C105.216 25.5401 104.823 24.7983 104.558 24.0077C104.157 22.8066 103.903 21.5616 103.801 20.2997C103.683 19.0241 103.716 17.7389 103.9 16.471C104.051 15.3505 104.352 14.2553 104.795 13.2147C105.166 12.3316 105.825 11.6001 106.666 11.1393C107.08 10.9285 107.534 10.8075 107.998 10.7844C108.463 10.7612 108.927 10.8365 109.36 11.0051V11.0051ZM105.896 13.4786C105.971 13.1034 106.142 12.7539 106.391 12.4633C106.64 12.1728 106.96 11.951 107.319 11.8192C107.644 11.646 108.008 11.5603 108.376 11.5705C108.744 11.5807 109.103 11.6865 109.418 11.8773C109.434 11.8873 109.452 11.8937 109.47 11.8961C109.489 11.8985 109.508 11.8969 109.525 11.8914C109.543 11.8858 109.56 11.8765 109.574 11.8641C109.587 11.8516 109.599 11.8363 109.606 11.8192C109.618 11.8033 109.627 11.7849 109.631 11.7653C109.635 11.7458 109.635 11.7256 109.631 11.706C109.627 11.6865 109.618 11.6681 109.606 11.6521C109.594 11.6361 109.579 11.6229 109.561 11.6134C109.205 11.4044 108.802 11.2893 108.389 11.2791C107.977 11.2689 107.568 11.364 107.203 11.5553C106.801 11.7264 106.446 11.9918 106.169 12.3291C105.9 12.6444 105.706 13.0158 105.6 13.416C105.596 13.4548 105.605 13.494 105.626 13.5267C105.647 13.5595 105.679 13.5836 105.717 13.5949H105.748C105.783 13.5966 105.817 13.5858 105.844 13.5644C105.871 13.543 105.889 13.5125 105.896 13.4786V13.4786ZM109.154 25.4525C109.503 25.6672 109.901 25.5777 110.349 25.1796C110.912 24.5837 111.331 23.8658 111.571 23.0819C111.959 21.9802 112.194 20.8303 112.269 19.6646C112.363 18.4119 112.274 17.1523 112.005 15.9253C111.815 14.8012 111.323 13.7498 110.582 12.8837C110.472 12.7877 110.341 12.7183 110.2 12.6811C110.058 12.6439 109.91 12.6397 109.767 12.669C109.423 12.6785 109.092 12.8065 108.832 13.0313C108.437 13.5995 108.166 14.244 108.035 14.9234C107.742 16.0949 107.575 17.2946 107.538 18.5017C107.479 19.9834 107.651 21.4653 108.049 22.894C108.183 23.301 108.371 23.7886 108.617 24.4058C108.734 24.783 108.916 25.1371 109.154 25.4525V25.4525Z" fill="#EC3205"/>
<path d="M118.266 12.5753C118.83 11.4124 119.606 10.7236 120.593 10.5089C121.787 10.2584 122.797 10.8548 123.623 12.298C124.942 14.6299 125.339 18.5779 124.814 24.1421C124.814 24.2167 124.805 24.3419 124.787 24.5178C124.746 24.907 124.72 25.2067 124.697 25.4124C124.666 25.713 124.618 26.0116 124.554 26.307C124.496 26.6165 124.398 26.9172 124.263 27.2016C124.135 27.4384 123.985 27.663 123.816 27.8725C123.647 28.0888 123.413 28.2455 123.149 28.3198C122.844 28.4006 122.523 28.4006 122.218 28.3198C121.785 28.2348 121.4 27.9906 121.139 27.6354C120.87 27.2939 120.735 26.8662 120.759 26.4322C120.759 26.4322 120.759 26.1147 120.817 25.5377C120.875 24.9607 120.893 24.4374 120.92 23.9543C120.947 23.4712 120.983 22.7511 121.023 21.7984C121.063 20.8457 121.081 20.0092 121.081 19.2086C121.081 18.4079 121.081 17.4642 121.05 16.3012C120.99 13.5101 120.516 12.2399 119.626 12.4904C118.615 12.7647 117.984 14.6552 117.733 18.1619C117.788 19.8285 117.937 21.4907 118.181 23.1402C118.236 23.5069 118.314 23.8699 118.414 24.2271C118.523 24.635 118.61 25.0486 118.673 25.4661C118.706 25.8067 118.657 26.1503 118.53 26.468C118.396 26.8486 118.127 27.1668 117.774 27.3626C117.519 27.4873 117.242 27.5603 116.959 27.5773C116.734 27.5946 116.507 27.5545 116.301 27.461C116.1 27.3633 115.922 27.2247 115.778 27.054C115.616 26.8763 115.475 26.6813 115.357 26.4725C115.23 26.2493 115.123 26.0158 115.035 25.7747C114.941 25.5153 114.86 25.2693 114.802 25.0501C114.744 24.831 114.686 24.6028 114.627 24.3345C113.981 20.6579 113.786 16.9164 114.046 13.1926C114.046 12.8258 114.081 12.5887 114.09 12.4814C114.099 12.374 114.126 12.1504 114.162 11.8105C114.183 11.5625 114.232 11.3179 114.31 11.0814C114.368 10.9383 114.448 10.7459 114.556 10.4999C114.634 10.2948 114.771 10.1173 114.95 9.99001C115.129 9.8836 115.32 9.79663 115.518 9.73058C115.766 9.65067 116.028 9.6203 116.288 9.64114C116.747 9.68328 117.171 9.90323 117.469 10.2539C117.715 10.6571 117.837 11.1239 117.818 11.5958C117.818 12.1773 117.818 12.9376 117.742 13.8322C117.89 13.4025 118.065 12.9827 118.266 12.5753V12.5753ZM117.246 12.3427C117.344 11.4124 117.178 10.7594 116.753 10.3926C116.572 10.2666 116.362 10.1896 116.142 10.1692C115.922 10.1488 115.701 10.1857 115.5 10.2763C115.402 10.3165 115.37 10.3791 115.397 10.4641C115.402 10.4835 115.411 10.5016 115.424 10.5174C115.436 10.5332 115.451 10.5463 115.469 10.5559C115.487 10.5656 115.506 10.5715 115.526 10.5734C115.546 10.5753 115.566 10.5731 115.585 10.567C115.735 10.4865 115.905 10.4493 116.075 10.4596C116.244 10.4699 116.408 10.5272 116.547 10.6251C116.914 10.9159 117.062 11.4795 116.995 12.3114C116.973 12.4098 116.995 12.459 117.111 12.459C117.228 12.459 117.246 12.4188 117.246 12.3427V12.3427ZM123.986 18.3632C124.075 18.3632 124.115 18.3274 124.115 18.2469C124.139 17.4355 124.1 16.6236 123.999 15.8182C123.913 15.085 123.763 14.3606 123.551 13.6533C123.383 13.0382 123.092 12.4633 122.697 11.9626C122.374 11.546 121.905 11.2665 121.385 11.1798C121.309 11.1574 121.26 11.1798 121.238 11.2961C121.232 11.3153 121.23 11.3356 121.233 11.3555C121.235 11.3755 121.243 11.3945 121.254 11.4113C121.265 11.428 121.28 11.4421 121.297 11.4523C121.315 11.4626 121.334 11.4688 121.354 11.4705C122.133 11.5868 122.741 12.2488 123.189 13.461C123.686 15.0058 123.913 16.6249 123.86 18.2469C123.878 18.3274 123.901 18.3632 123.986 18.3632V18.3632Z" fill="#EC3205"/>
<path d="M260.174 16.1582C263.322 16.1582 265.365 13.8431 266.028 13.2367C265.181 17.7384 260.958 26.7419 250.841 26.7419C240.725 26.7419 236.833 21.1744 236.152 18.4734C235.268 21.0642 231.723 26.7419 221.297 26.7419C210.871 26.7419 206.755 17.6282 206 13.0713C206.46 14.1003 208.275 16.1582 211.854 16.1582C216.327 16.1582 220.8 8 227.316 8C231.381 8 234.9 11.1604 236.152 12.7406C237.109 11.1604 240.183 8 244.822 8C250.621 8 255.259 16.1582 260.174 16.1582Z" fill="#313638"/>
<path d="M242.052 9.43192C242.442 9.08485 243.763 8.49483 245.917 8.91131C248.072 9.3278 249.826 10.7045 250.435 11.3408" stroke="white" stroke-width="0.414986" stroke-linecap="round"/>
<path d="M208.432 17.7178C209.201 19.5559 211.93 23.6381 216.697 25.2618" stroke="white" stroke-width="0.414986" stroke-linecap="round"/>
</svg>
