<svg width="251" height="286" viewBox="0 0 251 286" fill="none" xmlns="http://www.w3.org/2000/svg">
<path d="M190.22 24.2607C194.655 24.2607 198.909 26.0226 202.045 29.1589C205.181 32.2952 206.943 36.5489 206.943 40.9843V220.846C206.943 220.846 190.22 191.497 123.325 191.497C56.4311 191.497 39.7075 220.846 39.7075 220.846V40.9843C39.7075 36.5489 41.4694 32.2952 44.6057 29.1589C47.742 26.0226 51.9957 24.2607 56.4311 24.2607H190.22ZM56.4311 7.53711C47.5603 7.53711 39.0529 11.061 32.7803 17.3336C26.5078 23.6061 22.9839 32.1135 22.9839 40.9843V241.667C22.9839 250.538 26.5078 259.045 32.7803 265.318C39.0529 271.591 47.5603 275.114 56.4311 275.114H190.22C199.09 275.114 207.598 271.591 213.87 265.318C220.143 259.045 223.667 250.538 223.667 241.667V40.9843C223.667 32.1135 220.143 23.6061 213.87 17.3336C207.598 11.061 199.09 7.53711 190.22 7.53711L56.4311 7.53711Z" fill="black"/>
<path d="M123.326 174.772C129.914 174.772 136.438 173.474 142.525 170.953C148.612 168.432 154.143 164.736 158.802 160.077C163.46 155.419 167.156 149.888 169.677 143.801C172.199 137.714 173.496 131.19 173.496 124.601C173.496 118.013 172.199 111.489 169.677 105.402C167.156 99.3149 163.46 93.7841 158.802 89.1253C154.143 84.4666 148.612 80.771 142.525 78.2497C136.438 75.7284 129.914 74.4307 123.326 74.4307C110.019 74.4307 97.2583 79.7165 87.8495 89.1253C78.4406 98.5342 73.1548 111.295 73.1548 124.601C73.1548 137.908 78.4406 150.669 87.8495 160.077C97.2583 169.486 110.019 174.772 123.326 174.772V174.772Z" fill="black"/>
<line x1="245.823" y1="7.05436" x2="7.31928" y2="280.839" stroke="#EC3205" stroke-width="10" stroke-linecap="round"/>
</svg>
