<svg width="328" height="330" viewBox="0 0 328 330" fill="none" xmlns="http://www.w3.org/2000/svg">
<path fill-rule="evenodd" clip-rule="evenodd" d="M239.134 197.513C235.051 195.472 215.035 185.635 211.309 184.265C207.583 182.909 204.87 182.238 202.144 186.32C199.431 190.376 191.636 199.555 189.266 202.267C186.882 204.994 184.512 205.322 180.443 203.295C176.374 201.24 163.249 196.952 147.7 183.087C135.603 172.292 127.424 158.962 125.054 154.879C122.684 150.81 124.794 148.604 126.835 146.577C128.671 144.755 130.904 141.823 132.945 139.453C134.986 137.069 135.658 135.37 137.014 132.644C138.384 129.931 137.699 127.561 136.671 125.52C135.658 123.479 127.52 103.435 124.122 95.284C120.821 87.3517 117.464 88.434 114.971 88.297C112.587 88.1874 109.874 88.16 107.162 88.16C104.449 88.16 100.038 89.1738 96.3113 93.2564C92.5712 97.3253 82.0633 107.176 82.0633 127.219C82.0633 147.248 96.6401 166.606 98.6814 169.332C100.723 172.045 127.383 213.172 168.223 230.804C177.95 234.997 185.526 237.504 191.43 239.367C201.185 242.477 210.062 242.038 217.077 240.983C224.886 239.819 241.161 231.133 244.559 221.625C247.943 212.118 247.943 203.966 246.929 202.267C245.915 200.568 243.203 199.555 239.12 197.513H239.134ZM164.852 298.934H164.798C140.541 298.939 116.729 292.418 95.8592 280.056L90.9272 277.124L39.6618 290.577L53.3481 240.6L50.1286 235.476C36.5675 213.89 29.3909 188.907 29.4279 163.414C29.4553 88.7491 90.2011 28.0033 164.907 28.0033C201.075 28.0033 235.078 42.1143 260.643 67.7059C273.252 80.2631 283.246 95.1959 290.047 111.64C296.847 128.085 300.32 145.715 300.263 163.51C300.236 238.175 239.49 298.934 164.852 298.934V298.934ZM280.097 48.2656C265.002 33.0713 247.042 21.0237 227.257 12.821C207.472 4.61833 186.256 0.423648 164.839 0.480054C75.0489 0.480054 1.94574 73.5695 1.91834 163.4C1.90464 192.116 9.39853 220.146 23.6602 244.847L0.54834 329.28L86.9131 306.62C110.804 319.637 137.577 326.457 164.784 326.458H164.852C254.642 326.458 327.745 253.368 327.773 163.524C327.839 142.114 323.659 120.904 315.476 101.121C307.292 81.3369 295.268 63.3722 280.097 48.2656" fill="#00A859"/>
</svg>
