<svg width="359" height="300" viewBox="0 0 359 300" fill="none" xmlns="http://www.w3.org/2000/svg">
<path d="M30.7934 219.007L4.07018 234.435C1.82228 235.733 1.0521 238.607 2.34993 240.855L34.1439 295.924C35.4418 298.172 38.3162 298.942 40.5641 297.644L67.2873 282.216C69.5352 280.918 70.3053 278.044 69.0075 275.796L37.2135 220.727C35.9157 218.479 33.0413 217.709 30.7934 219.007Z" fill="#1D1D1B"/>
<path d="M358.999 103.046L310.864 19.7776L293.25 30.1861L329.567 81.4921C329.567 81.4921 286.908 103.11 250.879 127.033C214.849 150.957 183.143 191.886 183.143 191.886C183.733 192.603 184.166 193.434 184.414 194.328C184.662 195.222 184.72 196.157 184.585 197.075C184.008 199.957 178.82 200.822 170.461 201.687C162.102 202.551 150.573 199.957 150.573 199.957L137.314 176.322L141.926 170.269L162.102 196.498C162.102 196.498 207.355 153.551 238.485 128.186C269.614 102.822 316.597 77.4568 316.597 77.4568L261.576 0.46582C261.576 0.46582 239.67 9.68938 228.749 14.5894C217.828 19.4894 197.619 31.0188 169.949 52.3483C142.278 73.6777 104.519 120.404 104.519 120.404L118.931 139.139C118.931 139.139 102.79 150.092 92.7014 158.451C82.6131 166.81 76.8483 174.016 67.6248 186.698C61.5236 194.834 54.3486 202.106 46.2954 208.316L81.1719 270.575C89.2278 266.092 97.8435 262.7 106.793 260.487C121.205 257.028 133.311 253.857 149.452 252.416C165.593 250.975 171.934 249.822 180.293 245.787C188.652 241.751 210.846 218.692 221.511 202.263C232.176 185.834 231.919 170.845 231.919 170.845C249.166 158.271 267.073 146.629 285.563 135.969C313.458 120.052 358.999 103.046 358.999 103.046ZM118.002 120.052C118.002 120.052 155.184 78.834 182.855 59.5222C210.526 40.2104 222.343 31.8515 233.873 26.0868C245.402 20.3221 257.829 14.8776 257.829 14.8776L301.064 75.1189C301.064 75.1189 257.829 94.4307 226.699 118.643C195.57 142.854 161.558 179.749 161.558 179.749L148.875 163.319L166.49 149.196C166.49 149.196 184.104 133.631 176.002 120.084C167.899 106.537 127.578 133.631 127.578 133.631L118.002 120.052Z" fill="#1D1D1B"/>
</svg>
