<svg width="40" height="45" viewBox="0 0 40 45" fill="none" xmlns="http://www.w3.org/2000/svg">
<path d="M14.1486 20.3003C14.4969 20.3003 14.8309 20.1619 15.0772 19.9157C15.3234 19.6694 15.4618 19.3354 15.4618 18.9871C15.4618 18.6388 15.3234 18.3048 15.0772 18.0586C14.8309 17.8123 14.4969 17.6739 14.1486 17.6739C13.8003 17.6739 13.4663 17.8123 13.2201 18.0586C12.9738 18.3048 12.8355 18.6388 12.8355 18.9871C12.8355 19.3354 12.9738 19.6694 13.2201 19.9157C13.4663 20.1619 13.8003 20.3003 14.1486 20.3003ZM20.689 22.5015C20.689 22.8498 20.5507 23.1838 20.3044 23.43C20.0581 23.6763 19.7241 23.8146 19.3758 23.8146C19.0276 23.8146 18.6935 23.6763 18.4473 23.43C18.201 23.1838 18.0627 22.8498 18.0627 22.5015C18.0627 22.1532 18.201 21.8192 18.4473 21.5729C18.6935 21.3267 19.0276 21.1883 19.3758 21.1883C19.7241 21.1883 20.0581 21.3267 20.3044 21.5729C20.5507 21.8192 20.689 22.1532 20.689 22.5015ZM14.1557 28.2162C14.3289 28.2162 14.5005 28.1821 14.6605 28.1158C14.8206 28.0495 14.966 27.9523 15.0886 27.8298C15.2111 27.7073 15.3082 27.5618 15.3745 27.4017C15.4408 27.2417 15.475 27.0701 15.475 26.8969C15.475 26.7236 15.4408 26.5521 15.3745 26.392C15.3082 26.2319 15.2111 26.0865 15.0886 25.964C14.966 25.8415 14.8206 25.7443 14.6605 25.678C14.5005 25.6117 14.3289 25.5775 14.1557 25.5775C13.8057 25.5775 13.4702 25.7165 13.2228 25.964C12.9753 26.2114 12.8363 26.547 12.8363 26.8969C12.8363 27.2468 12.9753 27.5823 13.2228 27.8298C13.4702 28.0772 13.8057 28.2162 14.1557 28.2162ZM8 11.4357C8 9.51207 9.57229 7.88357 11.5662 8.00654C19.3785 8.48789 26.2298 11.116 31.5967 16.2404C33.1198 17.6933 32.8194 20.0666 31.24 21.2788C28.7824 23.176 26.3082 25.0517 23.8178 26.9057V29.9624C23.8178 31.222 22.8428 32.5975 21.1827 32.5975C20.8647 32.5975 20.5713 32.5448 20.3078 32.457V32.6028C20.3078 33.8554 19.331 35.2221 17.6674 35.2221C16.3428 35.2221 15.4697 34.3508 15.1623 33.3775C14.1996 34.0978 13.1473 34.8813 12.2074 35.5805C10.4682 36.8752 8 35.6332 8 33.4724V11.4357ZM20.306 29.9624C20.306 30.4174 20.6486 30.8408 21.1827 30.8408C21.7185 30.8408 22.061 30.4139 22.061 29.9624V26.4594C22.0611 26.321 22.094 26.1845 22.1569 26.0612C22.2198 25.9378 22.3109 25.8311 22.4229 25.7497C23.7932 24.7554 26.1261 22.9828 28.1921 21.4035C23.4612 16.901 16.8294 14.2289 9.75675 14.1727V33.4706C9.75723 33.6332 9.8028 33.7924 9.88839 33.9305C9.97397 34.0687 10.0962 34.1804 10.2415 34.2533C10.3868 34.3261 10.5495 34.3572 10.7114 34.3431C10.8733 34.329 11.0281 34.2702 11.1586 34.1733C12.5394 33.1439 14.1679 31.9317 15.3906 31.0147C15.5211 30.9168 15.6763 30.8572 15.8388 30.8426C16.0013 30.8279 16.1646 30.8588 16.3105 30.9317C16.4564 31.0047 16.5791 31.1168 16.6649 31.2556C16.7506 31.3944 16.796 31.5543 16.796 31.7174V32.6028C16.796 33.0367 17.1298 33.4671 17.6674 33.4671C17.7825 33.4699 17.897 33.4496 18.0041 33.4074C18.1112 33.3652 18.2088 33.3019 18.291 33.2213C18.3732 33.1407 18.4385 33.0445 18.4828 32.9382C18.5272 32.832 18.5498 32.7179 18.5493 32.6028V29.9624C18.5493 29.7294 18.6418 29.506 18.8066 29.3413C18.9713 29.1766 19.1947 29.084 19.4277 29.084C19.6606 29.084 19.884 29.1766 20.0488 29.3413C20.2135 29.506 20.306 29.7294 20.306 29.9624ZM30.1684 19.8874C30.9853 19.2603 31.0468 18.143 30.3827 17.5088C25.3637 12.7181 18.9287 10.2183 11.459 9.75802C10.5473 9.7018 9.75675 10.4502 9.75675 11.4357V12.416C17.3582 12.474 24.517 15.3796 29.6028 20.3214L30.1684 19.8874Z" fill="#313638"/>
</svg>
