<svg width="40" height="45" viewBox="0 0 40 45" fill="none" xmlns="http://www.w3.org/2000/svg">
<path d="M12.8267 27.8447C12.8267 26.293 13.3299 24.7832 14.261 23.5418L17.1296 19.717C17.4399 19.3032 17.6077 18.7999 17.6077 18.2827V7.12695H22.3887V18.2827C22.3887 18.7999 22.5565 19.3032 22.8668 19.717L25.7354 23.5418C26.6665 24.7832 27.1697 26.293 27.1697 27.8447V37.4068C27.1697 37.8295 27.0018 38.2348 26.703 38.5337C26.4041 38.8326 25.9987 39.0005 25.5761 39.0005H14.4203C13.9977 39.0005 13.5923 38.8326 13.2934 38.5337C12.9946 38.2348 12.8267 37.8295 12.8267 37.4068V27.8447Z" stroke="#313638" stroke-width="1.64" stroke-linecap="round" stroke-linejoin="round"/>
<path d="M17.6074 11.9082H22.3884" stroke="#313638" stroke-width="1.64" stroke-linecap="round" stroke-linejoin="round"/>
<path d="M17.6074 13.5018V10.3145" stroke="#313638" stroke-width="1.64" stroke-linecap="round" stroke-linejoin="round"/>
<path d="M22.3887 13.5018V10.3145" stroke="#313638" stroke-width="1.64" stroke-linecap="round" stroke-linejoin="round"/>
</svg>
