<svg width="40" height="45" viewBox="0 0 40 45" fill="none" xmlns="http://www.w3.org/2000/svg">
<path d="M25.8633 35.1257C25.8633 35.1257 31.9339 27.3273 26.6529 19.2027C21.3718 11.078 11.7805 13.46 11.7805 13.46M24.8532 37.7084C25.0879 38.0695 25.8274 38.6162 26.9075 37.9141C28.2577 37.0365 27.5535 35.9532 28.0936 35.6021C28.6337 35.2511 29.4318 35.888 30.2419 35.3615C31.052 34.8349 29.8198 32.9391 30.8999 32.2371C31.98 31.535 32.7901 31.0084 32.356 29.7496C31.9219 28.4908 31.8399 27.7736 32.2039 27.1518C32.568 26.5299 33.202 25.7325 32.6739 24.92C32.1458 24.1076 30.9016 23.3753 31.4536 21.8608C32.0057 20.3462 31.6536 19.8046 31.4776 19.5338C31.3015 19.2629 29.9633 18.9771 29.0832 17.6229C28.203 16.2688 29.0131 15.7423 28.1329 14.3882C27.2527 13.0341 25.9026 13.9117 25.1044 13.2747C24.3063 12.6378 24.5063 10.5816 22.898 10.4712C21.2898 10.3609 21.8179 11.1733 20.7497 10.7119C19.6816 10.2505 19.6935 9.08699 18.0853 8.97661C16.477 8.86624 16.9111 10.125 16.019 9.93445C15.1269 9.74386 14.4227 8.66058 13.6126 9.18715C12.8025 9.71372 12.7906 10.8772 12.2505 11.2283C11.7104 11.5793 10.4662 10.8471 9.38611 11.5492C8.522 12.1108 8.7754 12.9735 9.01011 13.3345L24.8532 37.7084Z" stroke="white" stroke-width="1.6409" stroke-linecap="round"/>
</svg>
