<svg width="40" height="45" viewBox="0 0 40 45" fill="none" xmlns="http://www.w3.org/2000/svg">
<path d="M26.136 23.2061L20.0477 37.412L16.1157 28.2162" stroke="white" stroke-width="1.64" stroke-linecap="round" stroke-linejoin="round"/>
<path d="M22.8011 21.1435C22.3141 22.1753 21.2638 22.9522 20.0475 22.9522C19.2167 22.9522 18.3351 22.6351 17.9147 22.3333C17.5278 22.0561 17.0033 22.1912 17.0033 22.8254V26.7574C17.0022 27.1607 16.8414 27.5472 16.5562 27.8323C16.2711 28.1175 15.8846 28.2783 15.4813 28.2794V28.2794C15.078 28.2783 14.6915 28.1175 14.4063 27.8323C14.1211 27.5472 13.9604 27.1607 13.9592 26.7574V23.2059H13.8324C11.5905 23.2059 9.90039 21.3889 9.90039 19.1471C9.90039 18.0706 10.328 17.0382 11.0892 16.277C11.8504 15.5159 12.8828 15.0882 13.9592 15.0882H14.4666V14.5809C14.4666 13.1007 15.0546 11.6812 16.1012 10.6346C17.1478 9.58799 18.5673 9 20.0475 9C21.5276 9 22.9471 9.58799 23.9938 10.6346C25.0404 11.6812 25.6284 13.1007 25.6284 14.5809V15.0882H26.1357C27.2122 15.0882 28.2446 15.5159 29.0057 16.277C29.7669 17.0382 30.1945 18.0706 30.1945 19.1471C30.1945 20.2235 29.7669 21.2559 29.0057 22.0171C28.2446 22.7783 27.2122 23.2059 26.1357 23.2059C24.7544 23.2059 23.4721 22.3815 22.8005 21.1441L22.8011 21.1435Z" stroke="white" stroke-width="1.64" stroke-linecap="round" stroke-linejoin="round"/>
</svg>
